<svg xmlns="http://www.w3.org/2000/svg" width="3em" height="3em" viewBox="0 0 512 512"><path fill="currentColor" fill-rule="evenodd" d="M405.3 194.68q.033-1.336.033-2.68c0-58.91-47.756-106.667-106.666-106.667c-39.089 0-73.266 21.026-91.841 52.383C192.482 131.466 176.646 128 160 128c-64.801 0-117.333 52.532-117.333 117.333c0 46.886 27.5 87.349 67.251 106.139c9.347-30.571 37.784-52.805 71.415-52.805c12.43 0 24.15 3.037 34.459 8.409A74.8 74.8 0 0 1 213.333 288c0-41.237 33.43-74.667 74.667-74.667s74.667 33.43 74.667 74.667c0 23.363-10.731 44.22-27.532 57.911a74.7 74.7 0 0 1 26.454 16.756H384c47.128 0 85.333-38.205 85.333-85.334c0-39.773-27.211-73.192-64.033-82.653m-98.825 82.547l17.429-30.188l-18.476-10.667l-17.429 30.188l-17.429-30.188l-18.475 10.667l17.429 30.188h-34.857v21.333h34.857l-17.429 30.188l18.475 10.667l17.429-30.188l17.429 30.188l18.476-10.667l-17.43-30.188h34.859v-21.333zm-89.238 55.145l-17.429 30.188h34.859v21.333h-34.859l17.429 30.189l-18.475 10.666l-17.429-30.188l-17.429 30.188l-18.476-10.666l17.43-30.189H128V362.56h34.857l-17.429-30.188l18.476-10.666l17.429 30.188l17.429-30.188zm110.571 72.855l17.429-30.188l-18.475-10.667l-17.429 30.188l-17.429-30.188l-18.476 10.667l17.429 30.188H256v21.333h34.858l-17.43 30.188l18.476 10.667l17.429-30.188l17.429 30.188l18.475-10.667l-17.429-30.188h34.859v-21.333z" clip-rule="evenodd"/></svg>