<svg xmlns="http://www.w3.org/2000/svg" width="3em" height="3em" viewBox="0 0 512 512"><path fill="currentColor" fill-rule="evenodd" d="M298.667 85.332c58.91 0 106.666 47.756 106.666 106.667l-.033 2.683c36.815 9.449 64.033 42.871 64.033 82.65c0 47.128-38.205 85.333-85.333 85.333h-22.411a74.7 74.7 0 0 0-26.454-16.755a74.9 74.9 0 0 0 20.346-25.911H384c23.564 0 42.667-19.103 42.667-42.667c0-19.586-13.327-36.537-31.974-41.323l-32.885-8.44l.859-35.57c0-35.347-28.654-64-64-64c-22.902 0-43.649 12.089-55.098 31.445l-19.201 32.463l-34.573-15.072c-9.295-4.052-19.357-6.17-29.795-6.17c-41.237 0-74.667 33.43-74.667 74.667c0 32.168 20.343 59.585 48.865 70.089c-11.331 9.233-19.901 21.726-24.28 36.05c-39.75-18.79-67.251-59.253-67.251-106.139c0-64.801 52.532-117.333 117.333-117.333c16.653 0 32.496 3.469 46.845 9.724c18.55-31.362 52.73-52.391 91.822-52.391m7.808 191.893l17.429-30.187l-18.476-10.667l-17.429 30.188l-17.429-30.188l-18.475 10.667l17.429 30.187h-34.857v21.334h34.857l-17.429 30.188l18.475 10.667l17.429-30.188l17.429 30.188l18.476-10.667l-17.43-30.188h34.859v-21.334zm-89.238 55.146l-17.429 30.188h34.859v21.333h-34.859l17.429 30.188l-18.475 10.667l-17.429-30.188l-17.429 30.188l-18.476-10.667l17.43-30.188H128v-21.333h34.857l-17.429-30.188l18.476-10.667l17.429 30.188l17.429-30.188zm110.571 72.854l17.429-30.187l-18.475-10.667l-17.429 30.188l-17.429-30.188l-18.476 10.667l17.429 30.187H256v21.334h34.858l-17.43 30.188l18.476 10.667l17.429-30.188l17.429 30.188l18.475-10.667l-17.429-30.188h34.859v-21.334z" clip-rule="evenodd"/></svg>