<svg xmlns="http://www.w3.org/2000/svg" width="3em" height="3em" viewBox="0 0 512 512"><path fill="currentColor" fill-rule="evenodd" d="M405.333 191.999c0-58.911-47.756-106.667-106.666-106.667c-39.092 0-73.272 21.029-91.822 52.391c-14.349-6.255-30.192-9.724-46.845-9.724c-64.801 0-117.333 52.532-117.333 117.333S95.199 362.665 160 362.665h20.912l8.534-42.666H160c-41.237 0-74.667-33.43-74.667-74.667s33.43-74.667 74.667-74.667c10.438 0 20.5 2.118 29.795 6.17l34.573 15.072l19.201-32.463c11.449-19.356 32.196-31.445 55.098-31.445c35.346 0 64 28.653 64 64l-.859 35.57l32.885 8.44c18.647 4.786 31.974 21.737 31.974 41.323c0 23.564-19.103 42.667-42.667 42.667h-4.406l-34.708 42.666H384c47.128 0 85.333-38.205 85.333-85.333c0-39.779-27.218-73.201-64.033-82.65zm-128 149.333l21.334-85.333H224l-21.333 106.666h42.666l-32.014 128l117.348-149.333z" clip-rule="evenodd"/></svg>