<svg xmlns="http://www.w3.org/2000/svg" width="3em" height="3em" viewBox="0 0 512 512"><path fill="currentColor" fill-rule="evenodd" d="M192 42.668v53.333h42.667V42.668zm89.208 72.615l37.713-37.713l30.17 30.17l-37.713 37.712zm-135.766 0L107.729 77.57l-30.17 30.17l37.713 37.713zm163.891 98.052a98 98 0 0 1-.084 4.066c-19.701 5.704-36.973 17.11-49.913 32.29a111.7 111.7 0 0 0-27.955-3.536c-33.184 0-62.985 14.485-83.426 37.478c-18.838-17.528-30.622-42.537-30.622-70.298c0-53.02 42.981-96 96-96c53.02 0 96 42.98 96 96m28.715 0c16.507 0 32.11 3.868 45.952 10.748v-32.082h-53.333v21.593q3.657-.259 7.381-.259M122.185 334.646a110.9 110.9 0 0 1 13.01-33.509l-19.92-19.92l-37.713 37.712l30.17 30.17zM42.667 192.001H96v42.667H42.667zm377.41 126.78q.026-1.028.026-2.062c0-45.315-36.736-82.051-82.052-82.051c-30.068 0-56.358 16.173-70.646 40.295c-11.034-4.808-23.216-7.475-36.02-7.475c-49.848 0-90.257 40.41-90.257 90.257s40.409 90.256 90.257 90.256h172.307c36.253 0 65.641-29.388 65.641-65.641c0-30.595-20.931-56.301-49.256-63.579" clip-rule="evenodd"/></svg>