<svg xmlns="http://www.w3.org/2000/svg" width="3em" height="3em" viewBox="0 0 512 512"><path fill="currentColor" fill-rule="evenodd" d="M192 42.668v53.333h42.667V42.668zm89.208 72.615l37.713-37.713l30.17 30.17l-37.713 37.712zm-135.766 0L107.729 77.57l-30.17 30.17l37.713 37.713zm121.225 98.052c0 13.406-4.947 25.657-13.114 35.027q2.92.59 5.783 1.329c12.94-15.18 30.212-26.586 49.913-32.29a98 98 0 0 0 .084-4.066c0-53.02-42.98-96-96-96c-53.019 0-96 42.98-96 96c0 27.761 11.784 52.77 30.622 70.298a112 112 0 0 1 35.005-26.453c-13.875-9.63-22.96-25.677-22.96-43.845c0-29.456 23.878-53.334 53.333-53.334c29.456 0 53.334 23.878 53.334 53.334m71.381 0c16.507 0 32.11 3.868 45.952 10.748v-32.082h-53.333v21.593q3.657-.259 7.381-.259M122.185 334.646a110.9 110.9 0 0 1 13.01-33.509l-19.92-19.92l-37.713 37.712l30.17 30.17zM42.667 192.001H96v42.667H42.667zM377.42 317.729l-.836 33.93l32.872 8.446c9.922 2.55 17.207 11.605 17.207 22.255c0 12.689-10.286 22.975-22.974 22.975H231.381c-26.283 0-47.589-21.307-47.589-47.59s21.306-47.59 47.589-47.59c6.831 0 13.219 1.413 18.977 3.923l34.548 15.053l19.205-32.424c6.925-11.689 19.556-19.372 33.937-19.372c21.752 0 39.385 17.633 39.385 39.384q0 .507-.013 1.01m-146.039-50.241c12.805 0 24.987 2.667 36.021 7.475c14.288-24.122 40.578-40.295 70.646-40.295c45.316 0 82.051 36.736 82.051 82.051q0 1.034-.025 2.062c28.324 7.278 49.256 32.984 49.256 63.579c0 36.253-29.388 65.641-65.641 65.641H231.381c-49.847 0-90.256-40.409-90.256-90.256s40.409-90.257 90.256-90.257" clip-rule="evenodd"/></svg>