<svg xmlns="http://www.w3.org/2000/svg" width="3em" height="3em" viewBox="0 0 24 24"><g fill="none"><g stroke="currentColor" stroke-linejoin="round" stroke-miterlimit="10" stroke-width="1.5" clip-path="url(#)"><path d="m3.798 8.889l-1.98 1.98a1.6 1.6 0 0 0 0 2.262l1.98 1.98a1.6 1.6 0 0 0 2.262 0l1.98-1.98a1.6 1.6 0 0 0 0-2.262l-1.98-1.98a1.6 1.6 0 0 0-2.262 0Zm7.071-7.071l-1.98 1.98a1.6 1.6 0 0 0 0 2.262l1.98 1.98a1.6 1.6 0 0 0 2.262 0l1.98-1.98a1.6 1.6 0 0 0 0-2.262l-1.98-1.98a1.6 1.6 0 0 0-2.262 0Zm0 14.142l-1.98 1.98a1.6 1.6 0 0 0 0 2.262l1.98 1.98a1.6 1.6 0 0 0 2.262 0l1.98-1.98a1.6 1.6 0 0 0 0-2.262l-1.98-1.98a1.6 1.6 0 0 0-2.262 0Zm7.071-7.071l-1.98 1.98a1.6 1.6 0 0 0 0 2.262l1.98 1.98a1.6 1.6 0 0 0 2.262 0l1.98-1.98a1.6 1.6 0 0 0 0-2.262l-1.98-1.98a1.6 1.6 0 0 0-2.262 0Z"/></g><defs><clipPath id=""><path fill="#fff" d="M0 0h24v24H0z"/></clipPath></defs></g></svg>