<svg xmlns="http://www.w3.org/2000/svg" width="3em" height="3em" viewBox="0 0 256 256"><defs><linearGradient id="" x1="8.59%" x2="77.471%" y1="1.954%" y2="73.896%"><stop offset="0%" stop-color="#4CB36B"/><stop offset="100%" stop-color="#3EA16F"/></linearGradient><path id="" d="M256 128c0 70.692-57.308 128-128 128S0 198.692 0 128S57.308 0 128 0s128 57.308 128 128"/></defs><mask id="" fill="#fff"><use href="#"/></mask><use fill="#67BF79" href="#"/><path fill="#67BF79" d="M256 128c0 70.692-57.308 128-128 128S0 198.692 0 128S57.308 0 128 0s128 57.308 128 128" mask="url(#)"/><path fill="url(#)" d="M63.111 187.022L96.178 72l64.533 60.978L200 90.133l87.533 86.289l-110.844 124.889z" mask="url(#)"/><path fill="#FFF" d="M77 189.6c-16.733 0-16.733 0-16.733-16.733V81c0-16.733 0-16.733 16.733-16.733h3.334c16.733 0 16.733 0 16.733 16.733v91.867c0 16.733 0 16.733-16.733 16.733zm44.041 0c-5.699 0-8.508-2.809-8.508-8.508V72.774c0-5.698 2.809-8.507 8.508-8.507h37.537c32.178 0 52.628 32.273 52.628 63.025S190.578 189.6 158.578 189.6z" mask="url(#)"/></svg>