<svg xmlns="http://www.w3.org/2000/svg" width="3em" height="3em" viewBox="0 0 48 48"><path fill="currentColor" stroke="currentColor" stroke-width="2" d="m38.9 25.978l-.086-.178c-.981-2.033-.956-3.776-.93-5.502v-.054c.008-.497.015-.99.003-1.507zm0 0l.145.13m-.145-.13l.145.13m0 0v.001m0 0l.003.002l.015.015l.07.065a9.6 9.6 0 0 1 1.034 1.172c.274.37.515.763.667 1.14c.155.382.19.678.151.893c-.032.175-.141.37-.392.584c-.255.218-.604.41-.993.569a7.5 7.5 0 0 1-1.485.425l-.02.004h-.002l-.848.13v.858c0 2.294-.718 3.618-1.654 4.415c-.974.828-2.334 1.214-3.831 1.311c-1.486.097-2.998-.099-4.156-.327a20 20 0 0 1-1.767-.432l-.095-.03l-.022-.006l-.004-.001h-.001l-1.31-.43v2.596l-.063.109a2.8 2.8 0 0 1-.61.686c-.616.51-1.808 1.128-4.035 1.128h-.04l-.039.003c-.928.074-2.307-.2-3.6-.77c-1.208-.534-2.127-1.231-2.551-1.913v-6.692l-.402-.3C9.543 28.681 7 25.265 7 20.94c0-3.681 1.536-7.222 4.286-9.84C14.04 8.48 17.782 7 21.695 7a21.7 21.7 0 0 1 8.798 1.843l.016.007l.016.007a13.4 13.4 0 0 1 5.356 3.89a10.8 10.8 0 0 1 2.006 5.99zM20.49 29.628l-.647-.556l-.646-.555q-.512-.437-1.127-.943l-.023-.02c-1.22-1.008-2.693-2.227-3.925-3.569c-1.649-1.796-3.213-4.17-3.118-7.086v-.003c.065-1.906 1.002-3.766 2.602-4.892zm0 0l.65-.55m-.65.55l.65-.55m0 0l.651-.55q.466-.393 1.014-.84l.023-.02c1.253-1.028 2.784-2.284 4.06-3.68c1.649-1.802 3.209-4.184 3.107-7.094c-.065-1.904-1-3.762-2.6-4.888m-6.254 17.072l6.255-17.072m0 0c-1.575-1.115-3.338-1.199-4.84-.755c-.552.164-1.027.49-1.402.796c-.233.19-.456.395-.655.584c-.2-.19-.423-.395-.657-.585c-.375-.304-.849-.63-1.4-.792c-1.5-.442-3.261-.359-4.836.75zM32.5 28a2.5 2.5 0 1 0 0-5a2.5 2.5 0 0 0 0 5Z"/></svg>