<svg xmlns="http://www.w3.org/2000/svg" width="3em" height="3em" viewBox="0 0 48 48"><g fill="none"><g fill="currentColor" fill-rule="evenodd" clip-path="url(#)" clip-rule="evenodd"><path d="M48 0H0v48h48zM8.999 6S5.901 22.06 6.002 25.07C6.147 29.338 10 42 10 42h28s3.853-12.661 3.998-16.93C42.099 22.06 39 6 39 6z"/><path d="M23 23v10a1 1 0 1 0 2 0V23h2v10a3 3 0 1 1-6 0V23zm-3 2v1a1 1 0 0 0 1 1v2a3 3 0 0 1-3-3v-1zm8 1v-1h2v1a3 3 0 0 1-3 3v-2a1 1 0 0 0 1-1"/><path d="M23 42v-7h2v7z"/></g><defs><clipPath id=""><path d="M0 0h48v48H0z"/></clipPath></defs></g></svg>