<svg xmlns="http://www.w3.org/2000/svg" width="3em" height="3em" viewBox="0 0 32 32"><g fill="none"><path fill="url(#)" d="M15 6a1 1 0 1 0 0 2h14a1 1 0 1 0 0-2z"/><path fill="url(#)" d="M15 19a1 1 0 1 0 0 2h14a1 1 0 1 0 0-2z"/><path fill="url(#)" d="M14 11a1 1 0 0 1 1-1h9a1 1 0 1 1 0 2h-9a1 1 0 0 1-1-1"/><path fill="url(#)" d="M15 23a1 1 0 1 0 0 2h9a1 1 0 1 0 0-2z"/><path fill="url(#)" d="M2 8a3 3 0 0 1 3-3h3a3 3 0 0 1 3 3v3a3 3 0 0 1-3 3H5a3 3 0 0 1-3-3z"/><path fill="url(#)" d="M5 18a3 3 0 0 0-3 3v3a3 3 0 0 0 3 3h3a3 3 0 0 0 3-3v-3a3 3 0 0 0-3-3z"/><defs><linearGradient id="" x1="11.6" x2="26.904" y1="3.286" y2="26.008" gradientUnits="userSpaceOnUse"><stop stop-color="#36DFF1"/><stop offset="1" stop-color="#0094F0"/></linearGradient><linearGradient id="" x1="11.6" x2="26.904" y1="3.286" y2="26.008" gradientUnits="userSpaceOnUse"><stop stop-color="#36DFF1"/><stop offset="1" stop-color="#0094F0"/></linearGradient><linearGradient id="" x1="11.6" x2="26.904" y1="3.286" y2="26.008" gradientUnits="userSpaceOnUse"><stop stop-color="#36DFF1"/><stop offset="1" stop-color="#0094F0"/></linearGradient><linearGradient id="" x1="11.6" x2="26.904" y1="3.286" y2="26.008" gradientUnits="userSpaceOnUse"><stop stop-color="#36DFF1"/><stop offset="1" stop-color="#0094F0"/></linearGradient><linearGradient id="" x1="4.14" x2="9.334" y1="7.925" y2="25.65" gradientUnits="userSpaceOnUse"><stop offset=".125" stop-color="#9C6CFE"/><stop offset="1" stop-color="#7A41DC"/></linearGradient><linearGradient id="" x1="4.14" x2="9.334" y1="7.925" y2="25.65" gradientUnits="userSpaceOnUse"><stop offset=".125" stop-color="#9C6CFE"/><stop offset="1" stop-color="#7A41DC"/></linearGradient></defs></g></svg>