<svg xmlns="http://www.w3.org/2000/svg" width="3em" height="3em" viewBox="0 0 20 20"><g fill="none"><path fill="url(#)" d="M8.75 2.097a8 8 0 0 1 2.271-.032a1 1 0 1 1-.253 1.984a6 6 0 0 0-1.708.024a1 1 0 1 1-.31-1.976"/><path fill="url(#)" d="M8.75 2.097a8 8 0 0 1 2.271-.032a1 1 0 1 1-.253 1.984a6 6 0 0 0-1.708.024a1 1 0 1 1-.31-1.976"/><path fill="url(#)" d="M12.562 3.407a1 1 0 0 1 1.362-.38A8 8 0 0 1 15.5 4.191V3a1 1 0 1 1 2 0v3.5a1 1 0 0 1-1 1H13a1 1 0 1 1 0-2h.969a6 6 0 0 0-1.027-.73a1 1 0 0 1-.38-1.363"/><path fill="url(#)" d="M12.562 3.407a1 1 0 0 1 1.362-.38A8 8 0 0 1 15.5 4.191V3a1 1 0 1 1 2 0v3.5a1 1 0 0 1-1 1H13a1 1 0 1 1 0-2h.969a6 6 0 0 0-1.027-.73a1 1 0 0 1-.38-1.363"/><path fill="url(#)" d="M6.474 5.145a1 1 0 0 0-1.177-1.617a8 8 0 0 0-1.77 1.769a1 1 0 0 0 1.618 1.177c.37-.51.82-.958 1.329-1.329"/><path fill="url(#)" d="M6.474 5.145a1 1 0 0 0-1.177-1.617a8 8 0 0 0-1.77 1.769a1 1 0 0 0 1.618 1.177c.37-.51.82-.958 1.329-1.329"/><path fill="url(#)" d="M3.24 7.917a1 1 0 0 1 .833 1.143a6 6 0 0 0 0 1.88a1 1 0 0 1-1.976.31a8 8 0 0 1 0-2.5a1 1 0 0 1 1.143-.833"/><path fill="url(#)" d="M3.24 7.917a1 1 0 0 1 .833 1.143a6 6 0 0 0 0 1.88a1 1 0 0 1-1.976.31a8 8 0 0 1 0-2.5a1 1 0 0 1 1.143-.833"/><path fill="url(#)" d="M3.748 13.306a1 1 0 0 1 1.397.22c.37.51.82.958 1.329 1.329a1 1 0 0 1-1.177 1.617a8 8 0 0 1-1.77-1.769a1 1 0 0 1 .221-1.397"/><path fill="url(#)" d="M3.748 13.306a1 1 0 0 1 1.397.22c.37.51.82.958 1.329 1.329a1 1 0 0 1-1.177 1.617a8 8 0 0 1-1.77-1.769a1 1 0 0 1 .221-1.397"/><path fill="url(#)" d="M7.917 16.76a1 1 0 0 1 1.143-.833q.389.061.794.071q.049.017.1.03l.35.082a1 1 0 0 1 .727 1.26l-.126.422a1 1 0 0 0-.034.161a8 8 0 0 1-2.122-.05a1 1 0 0 1-.832-1.143"/><path fill="url(#)" d="M7.917 16.76a1 1 0 0 1 1.143-.833q.389.061.794.071q.049.017.1.03l.35.082a1 1 0 0 1 .727 1.26l-.126.422a1 1 0 0 0-.034.161a8 8 0 0 1-2.122-.05a1 1 0 0 1-.832-1.143"/><path fill="url(#)" d="M10.635 13.92a2 2 0 0 0 1.43-2.478l-.155-.557q.382-.293.821-.497l.338.358a2 2 0 0 0 2.91.001l.324-.343q.448.211.835.518l-.126.422a2 2 0 0 0 1.456 2.519l.349.082a4.7 4.7 0 0 1 .01 1.017l-.46.118a2 2 0 0 0-1.431 2.478l.156.556q-.383.295-.822.498l-.338-.358a2 2 0 0 0-2.909-.002l-.325.345a4.3 4.3 0 0 1-.835-.518l.127-.423a2 2 0 0 0-1.456-2.519l-.35-.083a4.7 4.7 0 0 1-.01-1.016zm4.865.58a1 1 0 1 0-2 0a1 1 0 0 0 2 0"/><defs><linearGradient id="" x1="4.25" x2="3.578" y1="2" y2="22.528" gradientUnits="userSpaceOnUse"><stop stop-color="#0FAFFF"/><stop offset=".923" stop-color="#0067BF"/></linearGradient><linearGradient id="" x1="9.965" x2="22.053" y1=".095" y2="22.581" gradientUnits="userSpaceOnUse"><stop stop-color="#885EDB" stop-opacity="0"/><stop offset="1" stop-color="#E362F8"/></linearGradient><linearGradient id="" x1="4.25" x2="3.578" y1="2" y2="22.528" gradientUnits="userSpaceOnUse"><stop stop-color="#0FAFFF"/><stop offset=".923" stop-color="#0067BF"/></linearGradient><linearGradient id="" x1="9.965" x2="22.053" y1=".095" y2="22.581" gradientUnits="userSpaceOnUse"><stop stop-color="#885EDB" stop-opacity="0"/><stop offset="1" stop-color="#E362F8"/></linearGradient><linearGradient id="" x1="4.25" x2="3.578" y1="2" y2="22.528" gradientUnits="userSpaceOnUse"><stop stop-color="#0FAFFF"/><stop offset=".923" stop-color="#0067BF"/></linearGradient><linearGradient id="" x1="9.965" x2="22.053" y1=".095" y2="22.581" gradientUnits="userSpaceOnUse"><stop stop-color="#885EDB" stop-opacity="0"/><stop offset="1" stop-color="#E362F8"/></linearGradient><linearGradient id="" x1="4.25" x2="3.578" y1="2" y2="22.528" gradientUnits="userSpaceOnUse"><stop stop-color="#0FAFFF"/><stop offset=".923" stop-color="#0067BF"/></linearGradient><linearGradient id="" x1="9.965" x2="22.053" y1=".095" y2="22.581" gradientUnits="userSpaceOnUse"><stop stop-color="#885EDB" stop-opacity="0"/><stop offset="1" stop-color="#E362F8"/></linearGradient><linearGradient id="" x1="4.25" x2="3.578" y1="2" y2="22.528" gradientUnits="userSpaceOnUse"><stop stop-color="#0FAFFF"/><stop offset=".923" stop-color="#0067BF"/></linearGradient><linearGradient id="" x1="9.965" x2="22.053" y1=".095" y2="22.581" gradientUnits="userSpaceOnUse"><stop stop-color="#885EDB" stop-opacity="0"/><stop offset="1" stop-color="#E362F8"/></linearGradient><linearGradient id="" x1="4.25" x2="3.578" y1="2" y2="22.528" gradientUnits="userSpaceOnUse"><stop stop-color="#0FAFFF"/><stop offset=".923" stop-color="#0067BF"/></linearGradient><linearGradient id="" x1="9.965" x2="22.053" y1=".095" y2="22.581" gradientUnits="userSpaceOnUse"><stop stop-color="#885EDB" stop-opacity="0"/><stop offset="1" stop-color="#E362F8"/></linearGradient><linearGradient id="" x1="16.674" x2="12.277" y1="18.294" y2="10.738" gradientUnits="userSpaceOnUse"><stop stop-color="#70777D"/><stop offset="1" stop-color="#B9C0C7"/></linearGradient></defs></g></svg>