<svg xmlns="http://www.w3.org/2000/svg" width="3em" height="3em" viewBox="0 0 28 28"><g fill="none"><path fill="url(#)" d="M14 5.5c-.635-.648-1.52-1.5-2.5-1.5H4a2 2 0 0 0-2 2v16a2 2 0 0 0 2 2h7.5a3.5 3.5 0 0 0 2.5-1.05L15 14z"/><path fill="url(#)" d="M14 5.5c.635-.648 1.52-1.5 2.5-1.5H24a2 2 0 0 1 2 2v16a2 2 0 0 1-2 2h-7.5a3.5 3.5 0 0 1-2.5-1.05L13 14z"/><path fill="url(#)" d="M3.5 4.5A.5.5 0 0 1 4 4h8.5A1.5 1.5 0 0 1 14 5.5l.5 4.5l-.5 10.5a2 2 0 0 1-2 2H4a.5.5 0 0 1-.5-.5z"/><path fill="url(#)" d="M24.5 4.5A.5.5 0 0 0 24 4h-8.5A1.5 1.5 0 0 0 14 5.5v15a2 2 0 0 0 2 2h8a.5.5 0 0 0 .5-.5z"/><defs><linearGradient id="" x1="6.485" x2="10.234" y1="7.742" y2="29.063" gradientUnits="userSpaceOnUse"><stop stop-color="#20AC9D"/><stop offset="1" stop-color="#2052CB"/></linearGradient><linearGradient id="" x1="21.515" x2="17.766" y1="7.742" y2="29.063" gradientUnits="userSpaceOnUse"><stop stop-color="#20AC9D"/><stop offset="1" stop-color="#2052CB"/></linearGradient><linearGradient id="" x1="2" x2="33.694" y1="3.288" y2="17.524" gradientUnits="userSpaceOnUse"><stop stop-color="#B6EFFF"/><stop offset=".851" stop-color="#58AAFE"/></linearGradient><linearGradient id="" x1="23.844" x2="-.603" y1="5.156" y2="10.158" gradientUnits="userSpaceOnUse"><stop offset=".123" stop-color="#9DEAFF"/><stop offset=".616" stop-color="#4894FE"/></linearGradient></defs></g></svg>