<svg xmlns="http://www.w3.org/2000/svg" width="3em" height="3em" viewBox="0 0 20 20"><g fill="none"><path fill="url(#)" d="M4.5 15H16s-.5.5-.5 1.5s.5 1 .5 1H5.5a1 1 0 0 1-1-1z"/><path fill="url(#)" d="M4 4v12a2 2 0 0 0 2 2h9.5a.5.5 0 0 0 0-1H6a1 1 0 0 1-1-1h10a1 1 0 0 0 1-1V4a2 2 0 0 0-2-2H6a2 2 0 0 0-2 2"/><path fill="url(#)" d="M6 5a1 1 0 0 1 1-1h6a1 1 0 0 1 1 1v1a1 1 0 0 1-1 1H7a1 1 0 0 1-1-1z"/><defs><linearGradient id="" x1="10" x2="10" y1="17" y2="15" gradientUnits="userSpaceOnUse"><stop stop-color="#9DEAFF"/><stop offset=".716" stop-color="#58AAFE"/></linearGradient><linearGradient id="" x1="8.14" x2="10.759" y1="4.994" y2="22.178" gradientUnits="userSpaceOnUse"><stop stop-color="#20AC9D"/><stop offset="1" stop-color="#2052CB"/></linearGradient><linearGradient id="" x1="8.759" x2="12.116" y1="3.485" y2="9.055" gradientUnits="userSpaceOnUse"><stop stop-color="#9FF0F9"/><stop offset="1" stop-color="#6CE0FF"/></linearGradient></defs></g></svg>