<svg xmlns="http://www.w3.org/2000/svg" width="3em" height="3em" viewBox="0 0 24 24"><g fill="none"><path fill="url(#)" d="M17.753 14a2.25 2.25 0 0 1 2.25 2.25v.905A3.75 3.75 0 0 1 18.696 20C17.13 21.344 14.89 22.001 12 22.001s-5.128-.657-6.691-2a3.75 3.75 0 0 1-1.305-2.844v-.907A2.25 2.25 0 0 1 6.254 14z"/><path fill="url(#)" d="M17.753 14a2.25 2.25 0 0 1 2.25 2.25v.905A3.75 3.75 0 0 1 18.696 20C17.13 21.344 14.89 22.001 12 22.001s-5.128-.657-6.691-2a3.75 3.75 0 0 1-1.305-2.844v-.907A2.25 2.25 0 0 1 6.254 14z"/><path fill="url(#)" d="m12 2.5l-.102.007a.75.75 0 0 0-.648.743L11.243 5h1.5l.007-1.75l-.007-.102A.75.75 0 0 0 12 2.5"/><path fill="url(#)" d="M18 6.25A2.25 2.25 0 0 0 15.75 4h-7.5A2.25 2.25 0 0 0 6 6.25v3.5A2.25 2.25 0 0 0 8.25 12h7.5A2.25 2.25 0 0 0 18 9.75z"/><path fill="url(#)" d="M14.242 6.5a1.25 1.25 0 1 0 0 2.499a1.25 1.25 0 0 0 0-2.499"/><path fill="url(#)" d="M9.75 6.5a1.25 1.25 0 1 0 0 2.499a1.25 1.25 0 0 0 0-2.499"/><defs><linearGradient id="" x1="12.003" x2="15.623" y1="13.047" y2="26.573" gradientUnits="userSpaceOnUse"><stop stop-color="#885EDB" stop-opacity="0"/><stop offset="1" stop-color="#E362F8"/></linearGradient><linearGradient id="" x1="11.209" x2="12.984" y1="2" y2="3.871" gradientUnits="userSpaceOnUse"><stop stop-color="#8B52F4"/><stop offset="1" stop-color="#3D35B1"/></linearGradient><linearGradient id="" x1="13.585" x2="15.479" y1="6.596" y2="9.865" gradientUnits="userSpaceOnUse"><stop stop-color="#FDFDFD"/><stop offset="1" stop-color="#F9DCFA"/></linearGradient><linearGradient id="" x1="9.092" x2="10.986" y1="6.596" y2="9.865" gradientUnits="userSpaceOnUse"><stop stop-color="#FDFDFD"/><stop offset="1" stop-color="#F9DCFA"/></linearGradient><radialGradient id="" cx="0" cy="0" r="1" gradientTransform="matrix(19.19176 11.26316 -17.94042 30.56942 .311 11.538)" gradientUnits="userSpaceOnUse"><stop stop-color="#F08AF4"/><stop offset=".535" stop-color="#9C6CFE"/><stop offset="1" stop-color="#4E44DB"/></radialGradient><radialGradient id="" cx="0" cy="0" r="1" gradientTransform="matrix(15.82499 12.22856 -23.10104 29.89508 1.8 .571)" gradientUnits="userSpaceOnUse"><stop stop-color="#F08AF4"/><stop offset=".535" stop-color="#9C6CFE"/><stop offset="1" stop-color="#4E44DB"/></radialGradient></defs></g></svg>