<svg xmlns="http://www.w3.org/2000/svg" width="3em" height="3em" viewBox="0 0 20 20"><g fill="none"><path fill="url(#)" d="M10.25 17.998c2.616-.033 4.195-.595 5.122-1.44c.875-.8 1.089-1.777 1.123-2.556h.005v-.69a1.81 1.81 0 0 0-1.81-1.809H11.5V11.5h-3v.003H5.31c-1 0-1.81.81-1.81 1.81v.689h.005c.034.78.248 1.757 1.123 2.555c.927.846 2.506 1.408 5.122 1.441V18h.5z"/><path fill="url(#)" d="M10.25 17.998c2.616-.033 4.195-.595 5.122-1.44c.875-.8 1.089-1.777 1.123-2.556h.005v-.69a1.81 1.81 0 0 0-1.81-1.809H11.5V11.5h-3v.003H5.31c-1 0-1.81.81-1.81 1.81v.689h.005c.034.78.248 1.757 1.123 2.555c.927.846 2.506 1.408 5.122 1.441V18h.5z"/><path fill="url(#)" d="M10.5 2.5a.5.5 0 0 0-1 0v1h1z"/><path fill="url(#)" d="M5 4.5A1.5 1.5 0 0 1 6.5 3h7A1.5 1.5 0 0 1 15 4.5v4a1.5 1.5 0 0 1-1.5 1.5h-7A1.5 1.5 0 0 1 5 8.5z"/><path fill="url(#)" d="M12 5.5a1 1 0 1 0 0 2a1 1 0 0 0 0-2"/><path fill="url(#)" d="M7 6.5a1 1 0 1 1 2 0a1 1 0 0 1-2 0"/><defs><linearGradient id="" x1="10" x2="12.941" y1="10.726" y2="21.714" gradientUnits="userSpaceOnUse"><stop stop-color="#885EDB" stop-opacity="0"/><stop offset="1" stop-color="#E362F8"/></linearGradient><linearGradient id="" x1="9.477" x2="10.532" y1="2" y2="3.229" gradientUnits="userSpaceOnUse"><stop stop-color="#8B52F4"/><stop offset="1" stop-color="#3D35B1"/></linearGradient><linearGradient id="" x1="11.474" x2="12.99" y1="5.577" y2="8.193" gradientUnits="userSpaceOnUse"><stop stop-color="#FDFDFD"/><stop offset="1" stop-color="#F9DCFA"/></linearGradient><linearGradient id="" x1="7.474" x2="8.99" y1="5.577" y2="8.193" gradientUnits="userSpaceOnUse"><stop stop-color="#FDFDFD"/><stop offset="1" stop-color="#F9DCFA"/></linearGradient><radialGradient id="" cx="0" cy="0" r="1" gradientTransform="matrix(15.59372 9.14999 -14.57328 24.83628 .5 9.5)" gradientUnits="userSpaceOnUse"><stop stop-color="#F08AF4"/><stop offset=".535" stop-color="#9C6CFE"/><stop offset="1" stop-color="#4E44DB"/></radialGradient><radialGradient id="" cx="0" cy="0" r="1" gradientTransform="rotate(39.055 .75 2.115)scale(16.9824 32.4423)" gradientUnits="userSpaceOnUse"><stop stop-color="#F08AF4"/><stop offset=".535" stop-color="#9C6CFE"/><stop offset="1" stop-color="#4E44DB"/></radialGradient></defs></g></svg>