<svg xmlns="http://www.w3.org/2000/svg" width="3em" height="3em" viewBox="0 0 20 20"><g fill="none"><path fill="url(#)" d="M2 4a2 2 0 0 1 2-2h6a2 2 0 0 1 2 2v13a1 1 0 0 1-1 1H3a1 1 0 0 1-1-1z"/><path fill="url(#)" fill-opacity=".2" d="M2 4a2 2 0 0 1 2-2h6a2 2 0 0 1 2 2v13a1 1 0 0 1-1 1H3a1 1 0 0 1-1-1z"/><path fill="url(#)" d="M2 4a2 2 0 0 1 2-2h6a2 2 0 0 1 2 2v13a1 1 0 0 1-1 1H3a1 1 0 0 1-1-1z"/><path fill="url(#)" d="M5.25 6.5a.75.75 0 1 0 0-1.5a.75.75 0 0 0 0 1.5"/><path fill="url(#)" d="M6 8.75a.75.75 0 1 0-1.5 0a.75.75 0 0 0 1.5 0"/><path fill="url(#)" d="M6 11.75a.75.75 0 1 1-1.5 0a.75.75 0 0 1 1.5 0"/><path fill="url(#)" d="M5.25 15.5a.75.75 0 1 0 0-1.5a.75.75 0 0 0 0 1.5"/><path fill="url(#)" d="M16 5a2 2 0 0 1 2 2v10a1 1 0 0 1-1 1H9a1 1 0 0 1-1-1V7a2 2 0 0 1 2-2z"/><path fill="url(#)" d="M11 15.5a.5.5 0 0 1 .5-.5h3a.5.5 0 0 1 .5.5V18h-4z"/><path fill="url(#)" d="M11.25 9.5a.75.75 0 1 0 0-1.5a.75.75 0 0 0 0 1.5"/><path fill="url(#)" d="M14.75 9.5a.75.75 0 1 0 0-1.5a.75.75 0 0 0 0 1.5"/><path fill="url(#)" d="M12 11.75a.75.75 0 1 1-1.5 0a.75.75 0 0 1 1.5 0"/><path fill="url(#)" d="M14.75 12.5a.75.75 0 1 0 0-1.5a.75.75 0 0 0 0 1.5"/><defs><linearGradient id="" x1="2.357" x2="12.451" y1="5" y2="11.555" gradientUnits="userSpaceOnUse"><stop stop-color="#A3A3FF"/><stop offset="1" stop-color="#5750E2"/></linearGradient><linearGradient id="" x1="5.5" x2="9" y1="4" y2="4" gradientUnits="userSpaceOnUse"><stop stop-color="#30116E" stop-opacity="0"/><stop offset="1" stop-color="#30116E"/></linearGradient><linearGradient id="" x1="9.125" x2="9" y1="6.875" y2="2" gradientUnits="userSpaceOnUse"><stop stop-color="#A3A3FF" stop-opacity="0"/><stop offset="1" stop-color="#A3A3FF"/></linearGradient><linearGradient id="" x1="4" x2="6" y1="4.5" y2="16" gradientUnits="userSpaceOnUse"><stop stop-color="#FDFDFD"/><stop offset="1" stop-color="#D1D1FF"/></linearGradient><linearGradient id="" x1="4" x2="6" y1="4.5" y2="16" gradientUnits="userSpaceOnUse"><stop stop-color="#FDFDFD"/><stop offset="1" stop-color="#D1D1FF"/></linearGradient><linearGradient id="" x1="4" x2="6" y1="4.5" y2="16" gradientUnits="userSpaceOnUse"><stop stop-color="#FDFDFD"/><stop offset="1" stop-color="#D1D1FF"/></linearGradient><linearGradient id="" x1="4" x2="6" y1="4.5" y2="16" gradientUnits="userSpaceOnUse"><stop stop-color="#FDFDFD"/><stop offset="1" stop-color="#D1D1FF"/></linearGradient><linearGradient id="" x1="8" x2="20.405" y1="5.406" y2="17.623" gradientUnits="userSpaceOnUse"><stop stop-color="#3BD5FF"/><stop offset="1" stop-color="#2764E7"/></linearGradient><linearGradient id="" x1="11.143" x2="13.109" y1="15.563" y2="18.287" gradientUnits="userSpaceOnUse"><stop stop-color="#0067BF"/><stop offset="1" stop-color="#003580"/></linearGradient><linearGradient id="" x1="12" x2="13.5" y1="7.5" y2="13.5" gradientUnits="userSpaceOnUse"><stop stop-color="#FDFDFD"/><stop offset="1" stop-color="#B3E0FF"/></linearGradient><linearGradient id="" x1="12" x2="13.5" y1="7.5" y2="13.5" gradientUnits="userSpaceOnUse"><stop stop-color="#FDFDFD"/><stop offset="1" stop-color="#B3E0FF"/></linearGradient><linearGradient id="" x1="12" x2="13.5" y1="7.5" y2="13.5" gradientUnits="userSpaceOnUse"><stop stop-color="#FDFDFD"/><stop offset="1" stop-color="#B3E0FF"/></linearGradient><linearGradient id="" x1="12" x2="13.5" y1="7.5" y2="13.5" gradientUnits="userSpaceOnUse"><stop stop-color="#FDFDFD"/><stop offset="1" stop-color="#B3E0FF"/></linearGradient></defs></g></svg>