<svg xmlns="http://www.w3.org/2000/svg" width="3em" height="3em" viewBox="0 0 20 20"><g fill="none"><path fill="url(#)" d="M17 6H3v8.5A2.5 2.5 0 0 0 5.5 17h9a2.5 2.5 0 0 0 2.5-2.5z"/><path fill="url(#)" d="M17 6H3v8.5A2.5 2.5 0 0 0 5.5 17h9a2.5 2.5 0 0 0 2.5-2.5z"/><path fill="url(#)" fill-opacity=".3" d="M17 6H3v8.5A2.5 2.5 0 0 0 5.5 17h9a2.5 2.5 0 0 0 2.5-2.5z"/><path fill="url(#)" fill-opacity=".3" d="M17 6H3v8.5A2.5 2.5 0 0 0 5.5 17h9a2.5 2.5 0 0 0 2.5-2.5z"/><path fill="url(#)" d="M17 5.5A2.5 2.5 0 0 0 14.5 3h-9A2.5 2.5 0 0 0 3 5.5V7h14z"/><path fill="url(#)" d="M16.75 18c1.65 0 2.25-.912 2.25-1.8a1.2 1.2 0 0 0-1.2-1.2h-2.1a1.2 1.2 0 0 0-1.2 1.2c0 .888.6 1.8 2.25 1.8"/><path fill="url(#)" fill-opacity=".5" d="M16.75 18c1.65 0 2.25-.912 2.25-1.8a1.2 1.2 0 0 0-1.2-1.2h-2.1a1.2 1.2 0 0 0-1.2 1.2c0 .888.6 1.8 2.25 1.8"/><path fill="url(#)" d="M13 19c2.2 0 3-1.216 3-2.4a1.6 1.6 0 0 0-1.6-1.6h-2.8a1.6 1.6 0 0 0-1.6 1.6c0 1.183.8 2.4 3 2.4"/><path fill="url(#)" d="M13 19c2.2 0 3-1.216 3-2.4a1.6 1.6 0 0 0-1.6-1.6h-2.8a1.6 1.6 0 0 0-1.6 1.6c0 1.183.8 2.4 3 2.4"/><path fill="#5750E2" fill-opacity=".2" d="M13 19c2.2 0 3-1.216 3-2.4a1.6 1.6 0 0 0-1.6-1.6h-2.8a1.6 1.6 0 0 0-1.6 1.6c0 1.183.8 2.4 3 2.4"/><path fill="url(#)" d="M18 12.75a1.25 1.25 0 1 1-2.5 0a1.25 1.25 0 0 1 2.5 0"/><path fill="url(#)" d="M14.75 12.25a1.75 1.75 0 1 1-3.5 0a1.75 1.75 0 0 1 3.5 0"/><path fill="#5750E2" fill-opacity=".2" d="M14.75 12.25a1.75 1.75 0 1 1-3.5 0a1.75 1.75 0 0 1 3.5 0"/><defs><linearGradient id="" x1="8" x2="11.5" y1="6" y2="17" gradientUnits="userSpaceOnUse"><stop stop-color="#B3E0FF"/><stop offset="1" stop-color="#8CD0FF"/></linearGradient><linearGradient id="" x1="11.5" x2="13.5" y1="10.5" y2="19.5" gradientUnits="userSpaceOnUse"><stop stop-color="#DCF8FF" stop-opacity="0"/><stop offset="1" stop-color="#FF6CE8" stop-opacity=".7"/></linearGradient><linearGradient id="" x1="3.563" x2="4.904" y1="3" y2="9.816" gradientUnits="userSpaceOnUse"><stop stop-color="#0094F0"/><stop offset="1" stop-color="#2764E7"/></linearGradient><linearGradient id="" x1="15.57" x2="16.779" y1="15.399" y2="18.293" gradientUnits="userSpaceOnUse"><stop offset=".125" stop-color="#9C6CFE"/><stop offset="1" stop-color="#7A41DC"/></linearGradient><linearGradient id="" x1="11.427" x2="13.038" y1="15.532" y2="19.391" gradientUnits="userSpaceOnUse"><stop offset=".125" stop-color="#BD96FF"/><stop offset="1" stop-color="#9C6CFE"/></linearGradient><linearGradient id="" x1="13" x2="15.293" y1="14.524" y2="20.952" gradientUnits="userSpaceOnUse"><stop stop-color="#885EDB" stop-opacity="0"/><stop offset="1" stop-color="#E362F8"/></linearGradient><linearGradient id="" x1="16.095" x2="17.369" y1="11.832" y2="13.867" gradientUnits="userSpaceOnUse"><stop offset=".125" stop-color="#9C6CFE"/><stop offset="1" stop-color="#7A41DC"/></linearGradient><linearGradient id="" x1="12.082" x2="13.866" y1="10.965" y2="13.813" gradientUnits="userSpaceOnUse"><stop offset=".125" stop-color="#BD96FF"/><stop offset="1" stop-color="#9C6CFE"/></linearGradient><radialGradient id="" cx="0" cy="0" r="1" gradientTransform="matrix(4.5 0 0 3.01516 13 16.5)" gradientUnits="userSpaceOnUse"><stop stop-color="#4A43CB"/><stop offset=".914" stop-color="#4A43CB" stop-opacity="0"/></radialGradient><radialGradient id="" cx="0" cy="0" r="1" gradientTransform="matrix(0 2.5 -2.5 0 13.5 13)" gradientUnits="userSpaceOnUse"><stop stop-color="#4A43CB"/><stop offset="1" stop-color="#4A43CB" stop-opacity="0"/></radialGradient><radialGradient id="" cx="0" cy="0" r="1" gradientTransform="matrix(2.96146 -.4375 .51533 3.48828 13.93 16.5)" gradientUnits="userSpaceOnUse"><stop offset=".392" stop-color="#3B148A"/><stop offset="1" stop-color="#3B148A" stop-opacity="0"/></radialGradient></defs></g></svg>