<svg xmlns="http://www.w3.org/2000/svg" width="3em" height="3em" viewBox="0 0 24 24"><g fill="none"><path fill="url(#)" d="M4.75 3A2.75 2.75 0 0 0 2 5.75V14h.5c0 .954.381 1.818 1 2.45V18h15.75A2.75 2.75 0 0 0 22 15.25v-9.5A2.75 2.75 0 0 0 19.25 3z"/><path fill="url(#)" fill-opacity=".9" d="M6.75 7a.75.75 0 0 0 0 1.5h10.5a.75.75 0 0 0 0-1.5zm6 5a.75.75 0 0 0 0 1.5h4.5a.75.75 0 0 0 0-1.5z"/><path fill="url(#)" d="M9 16c-.835.628-1.874 1-3 1a4.98 4.98 0 0 1-3-.999v5.248c0 .57.605.92 1.09.669l.09-.055L6 20.592l1.82 1.272a.75.75 0 0 0 1.172-.51L9 21.249z"/><path fill="url(#)" d="M6 10a4 4 0 1 0 0 8.001A4 4 0 0 0 6 10"/><defs><radialGradient id="" cx="0" cy="0" r="1" gradientTransform="matrix(0 9.45684 -13.2458 0 6 15.064)" gradientUnits="userSpaceOnUse"><stop stop-color="#163697"/><stop offset="1" stop-color="#29C3FF"/></radialGradient><radialGradient id="" cx="0" cy="0" r="1" gradientTransform="matrix(24.57537 37.29174 -31.9386 21.04764 -15.29 -18.005)" gradientUnits="userSpaceOnUse"><stop offset=".772" stop-color="#FFCD0F"/><stop offset=".991" stop-color="#E67505"/></radialGradient><linearGradient id="" x1="2.714" x2="12.547" y1="5.813" y2="19.433" gradientUnits="userSpaceOnUse"><stop stop-color="#0FAFFF"/><stop offset="1" stop-color="#2764E7"/></linearGradient><linearGradient id="" x1="23.4" x2="15.824" y1="21.95" y2=".869" gradientUnits="userSpaceOnUse"><stop stop-color="#9DEAFF"/><stop offset="1" stop-color="#fff"/></linearGradient></defs></g></svg>