<svg xmlns="http://www.w3.org/2000/svg" width="3em" height="3em" viewBox="0 0 20 20"><g fill="none"><path fill="url(#)" d="M10 2a8 8 0 1 1-3.613 15.14l-.121-.065l-3.645.91a.5.5 0 0 1-.62-.441v-.082l.014-.083l.91-3.644l-.063-.12a8 8 0 0 1-.83-2.887l-.025-.382L2 10a8 8 0 0 1 8-8M6.5 9.5a.5.5 0 0 0 0 1h3v3a.5.5 0 0 0 1 0v-3h3a.5.5 0 0 0 0-1h-3v-3a.5.5 0 0 0-1 0v3z"/><path fill="url(#)" d="M6.5 9.5a.5.5 0 0 0 0 1h3v3a.5.5 0 0 0 1 0v-3h3a.5.5 0 0 0 0-1h-3v-3a.5.5 0 0 0-1 0v3z"/><defs><linearGradient id="" x1="2.571" x2="16.54" y1="5" y2="28.815" gradientUnits="userSpaceOnUse"><stop stop-color="#0FAFFF"/><stop offset="1" stop-color="#CC23D1"/></linearGradient><linearGradient id="" x1="6.7" x2="8.03" y1="6.14" y2="14.715" gradientUnits="userSpaceOnUse"><stop stop-color="#FDFDFD"/><stop offset="1" stop-color="#CCEAFF"/></linearGradient></defs></g></svg>