<svg xmlns="http://www.w3.org/2000/svg" width="3em" height="3em" viewBox="0 0 24 24"><g fill="none"><path fill="url(#)" d="M12 2C6.477 2 2 6.477 2 12s4.477 10 10 10s10-4.477 10-10S17.523 2 12 2"/><path fill="url(#)" d="M11.993 6.648a.75.75 0 0 0-1.493.102v6l.007.102a.75.75 0 0 0 .743.648h4l.102-.007A.75.75 0 0 0 15.25 12H12V6.75z"/><defs><linearGradient id="" x1="5.333" x2="15.333" y1=".889" y2="23.111" gradientUnits="userSpaceOnUse"><stop stop-color="#1EC8B0"/><stop offset="1" stop-color="#2764E7"/></linearGradient><linearGradient id="" x1="10.981" x2="9.01" y1="7.148" y2="13.094" gradientUnits="userSpaceOnUse"><stop stop-color="#FDFDFD"/><stop offset="1" stop-color="#D1D1FF"/></linearGradient></defs></g></svg>