<svg xmlns="http://www.w3.org/2000/svg" width="3em" height="3em" viewBox="0 0 24 24"><g fill="none"><path fill="url(#)" d="M6.08 10.02a6.001 6.001 0 0 1 11.84 0A4.5 4.5 0 0 1 17.5 19h-11a4.5 4.5 0 0 1-.42-8.98"/><path fill="url(#)" fill-opacity=".3" d="M11 14.5a4.5 4.5 0 1 1-9 0a4.5 4.5 0 0 1 9 0"/><path fill="url(#)" fill-opacity=".3" d="M12 17a6 6 0 1 0-5.92-6.98q.207-.02.42-.02a4.5 4.5 0 0 1 3.88 6.779A6 6 0 0 0 12 17"/><path fill="url(#)" d="M12 17a6 6 0 1 0-5.92-6.98q.207-.02.42-.02a4.5 4.5 0 0 1 3.88 6.779A6 6 0 0 0 12 17"/><path fill="url(#)" fill-opacity=".5" d="M6.08 10.02a6.001 6.001 0 0 1 11.84 0A4.5 4.5 0 0 1 17.5 19h-11a4.5 4.5 0 0 1-.42-8.98"/><path fill="url(#)" fill-opacity=".95" d="M10 9.5a.75.75 0 0 0 0 1.5h4a.75.75 0 0 0 0-1.5zm-4.5 4.75a.75.75 0 0 1 .75-.75h4a.75.75 0 0 1 0 1.5h-4a.75.75 0 0 1-.75-.75m8.25-.75a.75.75 0 0 0 0 1.5h4a.75.75 0 0 0 0-1.5z"/><defs><linearGradient id="" x1="2.714" x2="11.675" y1="7.625" y2="20.925" gradientUnits="userSpaceOnUse"><stop stop-color="#0FAFFF"/><stop offset="1" stop-color="#367AF2"/></linearGradient><linearGradient id="" x1="2" x2="8.067" y1="11.542" y2="16.912" gradientUnits="userSpaceOnUse"><stop stop-color="#fff"/><stop offset="1" stop-color="#FCFCFC" stop-opacity="0"/></linearGradient><linearGradient id="" x1="8.146" x2="9.738" y1="5.675" y2="13.946" gradientUnits="userSpaceOnUse"><stop stop-color="#fff"/><stop offset="1" stop-color="#FCFCFC" stop-opacity="0"/></linearGradient><linearGradient id="" x1="22.833" x2="16.2" y1="18.667" y2="1.95" gradientUnits="userSpaceOnUse"><stop stop-color="#B3E0FF"/><stop offset="1" stop-color="#fff"/></linearGradient><radialGradient id="" cx="0" cy="0" r="1" gradientTransform="rotate(-22.986 39.73 -8.686)scale(7.29834 6.53738)" gradientUnits="userSpaceOnUse"><stop offset=".412" stop-color="#2C87F5"/><stop offset="1" stop-color="#2C87F5" stop-opacity="0"/></radialGradient><radialGradient id="" cx="0" cy="0" r="1" gradientTransform="matrix(7.70831 15.51136 -111.9801 55.64808 11.167 4.125)" gradientUnits="userSpaceOnUse"><stop offset=".5" stop-color="#DD3CE2" stop-opacity="0"/><stop offset="1" stop-color="#DD3CE2"/></radialGradient></defs></g></svg>