<svg xmlns="http://www.w3.org/2000/svg" width="3em" height="3em" viewBox="0 0 32 32"><g fill="none"><path fill="url(#)" d="M16 30c5.523 0 10-2.462 10-5.5v-3H6v3c0 3.038 4.477 5.5 10 5.5"/><ellipse cx="16" cy="21.5" fill="url(#)" rx="10" ry="5.5"/><path fill="url(#)" d="M16 23c5.523 0 10-2.462 10-5.5v-3H6v3c0 3.038 4.477 5.5 10 5.5"/><ellipse cx="16" cy="14.5" fill="url(#)" rx="10" ry="5.5"/><path fill="url(#)" d="M16 16c5.523 0 10-2.462 10-5.5v-3H6v3c0 3.038 4.477 5.5 10 5.5"/><ellipse cx="16" cy="7.5" fill="url(#)" rx="10" ry="5.5"/><defs><linearGradient id="" x1="11.305" x2="14.301" y1="23.586" y2="30.645" gradientUnits="userSpaceOnUse"><stop stop-color="#FFA43D"/><stop offset="1" stop-color="#FB5937"/></linearGradient><linearGradient id="" x1="26.029" x2="16.157" y1="26.996" y2="12.314" gradientUnits="userSpaceOnUse"><stop stop-color="#FF8A69"/><stop offset="1" stop-color="#FFCD0F"/></linearGradient><linearGradient id="" x1="11.305" x2="14.301" y1="16.586" y2="23.645" gradientUnits="userSpaceOnUse"><stop stop-color="#FFA43D"/><stop offset="1" stop-color="#FB5937"/></linearGradient><linearGradient id="" x1="26.029" x2="16.157" y1="19.996" y2="5.314" gradientUnits="userSpaceOnUse"><stop stop-color="#FF8A69"/><stop offset="1" stop-color="#FFCD0F"/></linearGradient><linearGradient id="" x1="11.305" x2="14.301" y1="9.586" y2="16.645" gradientUnits="userSpaceOnUse"><stop stop-color="#FFA43D"/><stop offset="1" stop-color="#FB5937"/></linearGradient><linearGradient id="" x1="26.029" x2="16.157" y1="12.996" y2="-1.686" gradientUnits="userSpaceOnUse"><stop stop-color="#FF8A69"/><stop offset="1" stop-color="#FFCD0F"/></linearGradient></defs></g></svg>