<svg xmlns="http://www.w3.org/2000/svg" width="3em" height="3em" viewBox="0 0 16 16"><g fill="none"><path fill="#CD3E1D" d="M3 4a2 2 0 0 1 2-2h6a4 4 0 0 1 4 4v3a2 2 0 0 1-2 2H7.5A4.5 4.5 0 0 1 3 6.5z"/><path fill="url(#)" d="M1 6a2 2 0 0 1 2-2h8a2 2 0 0 1 2 2v5a2 2 0 0 1-2 2H7.073l-2.485 1.807A1 1 0 0 1 3 13.998V13a2 2 0 0 1-2-2z"/><defs><radialGradient id="" cx="0" cy="0" r="1" gradientTransform="matrix(14.39416 15.48454 -28.1757 26.19164 -1.769 .615)" gradientUnits="userSpaceOnUse"><stop stop-color="#FAB500"/><stop offset=".535" stop-color="#FE8401"/><stop offset="1" stop-color="#FB5937"/></radialGradient></defs></g></svg>