<svg xmlns="http://www.w3.org/2000/svg" width="3em" height="3em" viewBox="0 0 24 24"><g fill="none"><path fill="url(#)" d="M9 6a3 3 0 1 0 0 6a3 3 0 0 0 0-6"/><path fill="url(#)" d="M15 12a3 3 0 1 0 0 6a3 3 0 0 0 0-6"/><path fill="url(#)" d="M14 7a3 3 0 1 1 6 0a3 3 0 0 1-6 0"/><path fill="url(#)" d="M5 4a1 1 0 0 0-2 0v13.5A3.5 3.5 0 0 0 6.5 21H20a1 1 0 1 0 0-2H6.5A1.5 1.5 0 0 1 5 17.5z"/><defs><linearGradient id="" x1="6.75" x2="13.204" y1="6.25" y2="13.884" gradientUnits="userSpaceOnUse"><stop stop-color="#36DFF1"/><stop offset="1" stop-color="#0078D4"/></linearGradient><linearGradient id="" x1="18" x2="8.4" y1="18" y2="8.4" gradientUnits="userSpaceOnUse"><stop stop-color="#6D37CD"/><stop offset=".641" stop-color="#EA71EF"/></linearGradient><linearGradient id="" x1="19.5" x2="15.2" y1="8.9" y2="4" gradientUnits="userSpaceOnUse"><stop stop-color="#E23CB4"/><stop offset="1" stop-color="#EA71EF"/></linearGradient><linearGradient id="" x1="19.313" x2="3.56" y1="4.125" y2="27.58" gradientUnits="userSpaceOnUse"><stop stop-color="#70777D"/><stop offset="1" stop-color="#B9C0C7"/></linearGradient></defs></g></svg>