<svg xmlns="http://www.w3.org/2000/svg" width="3em" height="3em" viewBox="0 0 20 20"><g fill="none"><path fill="url(#)" d="M12 5a1 1 0 0 1 1-1h4a1 1 0 0 1 1 1v4a1 1 0 1 1-2 0V7.414l-4.293 4.293a1 1 0 0 1-1.414 0L9 10.414l-2.293 2.293a1 1 0 0 1-1.414-1.414l3-3a1 1 0 0 1 1.414 0L11 9.586L14.586 6H13a1 1 0 0 1-1-1"/><path fill="url(#)" d="M2.75 2a.75.75 0 0 1 .75.75v12.5c0 .69.56 1.25 1.25 1.25h12.5a.75.75 0 0 1 0 1.5H4.75A2.75 2.75 0 0 1 2 15.25V2.75A.75.75 0 0 1 2.75 2"/><defs><linearGradient id="" x1="4" x2="22" y1="12.5" y2="6" gradientUnits="userSpaceOnUse"><stop stop-color="#0FAFFF"/><stop offset=".445" stop-color="#9C6CFE"/><stop offset=".957" stop-color="#E656EB"/></linearGradient><linearGradient id="" x1="16.5" x2="2.498" y1="3" y2="23.849" gradientUnits="userSpaceOnUse"><stop stop-color="#70777D"/><stop offset="1" stop-color="#B9C0C7"/></linearGradient></defs></g></svg>