<svg xmlns="http://www.w3.org/2000/svg" width="3em" height="3em" viewBox="0 0 20 20"><g fill="none"><circle cx="7.5" cy="7.5" r="2.5" fill="url(#)"/><circle cx="12.5" cy="12.5" r="2.5" fill="url(#)"/><circle cx="14.5" cy="5.5" r="2.5" fill="url(#)"/><path fill="url(#)" d="M2.75 2a.75.75 0 0 1 .75.75v12.5c0 .69.56 1.25 1.25 1.25h12.5a.75.75 0 0 1 0 1.5H4.75A2.75 2.75 0 0 1 2 15.25V2.75A.75.75 0 0 1 2.75 2"/><defs><linearGradient id="" x1="5.625" x2="11.003" y1="5.208" y2="11.57" gradientUnits="userSpaceOnUse"><stop stop-color="#36DFF1"/><stop offset="1" stop-color="#0078D4"/></linearGradient><linearGradient id="" x1="15" x2="7" y1="15" y2="7" gradientUnits="userSpaceOnUse"><stop stop-color="#6D37CD"/><stop offset=".641" stop-color="#EA71EF"/></linearGradient><linearGradient id="" x1="16.583" x2="13" y1="7.083" y2="3" gradientUnits="userSpaceOnUse"><stop stop-color="#E23CB4"/><stop offset="1" stop-color="#EA71EF"/></linearGradient><linearGradient id="" x1="16.5" x2="2.498" y1="3" y2="23.849" gradientUnits="userSpaceOnUse"><stop stop-color="#70777D"/><stop offset="1" stop-color="#B9C0C7"/></linearGradient></defs></g></svg>