<svg xmlns="http://www.w3.org/2000/svg" width="3em" height="3em" viewBox="0 0 16 16"><g fill="none"><path fill="url(#)" d="M12.495 8.831a1 1 0 0 0-1 0l-1.99 1.15a1 1 0 0 0-.5.865v2.298a1 1 0 0 0 .5.866l1.99 1.149a1 1 0 0 0 1 0l1.99-1.15a1 1 0 0 0 .5-.865v-2.298a1 1 0 0 0-.5-.866z"/><path fill="url(#)" d="M4 9a3 3 0 1 0 0 6a3 3 0 0 0 0-6"/><path fill="url(#)" d="M10.5 1A1.5 1.5 0 0 0 9 2.5v3A1.5 1.5 0 0 0 10.5 7h3A1.5 1.5 0 0 0 15 5.5v-3A1.5 1.5 0 0 0 13.5 1z"/><path fill="url(#)" d="M2.913 1.674a1.214 1.214 0 0 1 2.174 0l1.78 3.537C7.277 6.03 6.688 7 5.778 7H2.22c-.91 0-1.5-.97-1.087-1.79z"/><defs><linearGradient id="" x1="5.517" x2="13.624" y1="5.949" y2="14.339" gradientUnits="userSpaceOnUse"><stop stop-color="#52D17C"/><stop offset="1" stop-color="#22918B"/></linearGradient><linearGradient id="" x1="1" x2="7" y1="9" y2="15" gradientUnits="userSpaceOnUse"><stop stop-color="#0FAFFF"/><stop offset="1" stop-color="#2764E7"/></linearGradient><linearGradient id="" x1="6.5" x2="13.875" y1="-2" y2="7.563" gradientUnits="userSpaceOnUse"><stop stop-color="#FFCD0F"/><stop offset="1" stop-color="#FE8401"/></linearGradient><linearGradient id="" x1="1.214" x2="5.355" y1="2.125" y2="6.427" gradientUnits="userSpaceOnUse"><stop stop-color="#F24A9D"/><stop offset="1" stop-color="#D7257D"/></linearGradient></defs></g></svg>