<svg xmlns="http://www.w3.org/2000/svg" width="3em" height="3em" viewBox="0 0 24 24"><g fill="none"><path fill="url(#)" d="M17.625 12.745a1.25 1.25 0 0 0-1.25 0l-2.748 1.586a1.25 1.25 0 0 0-.625 1.083v3.172c0 .447.239.86.625 1.083l2.748 1.586a1.25 1.25 0 0 0 1.25 0l2.748-1.586a1.25 1.25 0 0 0 .625-1.083v-3.172c0-.447-.239-.86-.625-1.083z"/><path fill="url(#)" d="M15.25 3A2.25 2.25 0 0 0 13 5.25v3.5A2.25 2.25 0 0 0 15.25 11h3.5A2.25 2.25 0 0 0 21 8.75v-3.5A2.25 2.25 0 0 0 18.75 3z"/><path fill="url(#)" d="M7 13a4 4 0 1 0 0 8a4 4 0 0 0 0-8"/><path fill="url(#)" d="M5.55 3.898a1.619 1.619 0 0 1 2.9 0l2.372 4.716C11.37 9.707 10.585 11 9.372 11H4.628c-1.213 0-1.999-1.293-1.45-2.386z"/><defs><linearGradient id="" x1="8.339" x2="19.212" y1="8.892" y2="20.111" gradientUnits="userSpaceOnUse"><stop stop-color="#52D17C"/><stop offset="1" stop-color="#22918B"/></linearGradient><linearGradient id="" x1="9.667" x2="19.5" y1="-1" y2="11.75" gradientUnits="userSpaceOnUse"><stop stop-color="#FFCD0F"/><stop offset="1" stop-color="#FE8401"/></linearGradient><linearGradient id="" x1="3" x2="11" y1="13" y2="21" gradientUnits="userSpaceOnUse"><stop stop-color="#0FAFFF"/><stop offset="1" stop-color="#2764E7"/></linearGradient><linearGradient id="" x1="3.286" x2="8.807" y1="4.5" y2="10.236" gradientUnits="userSpaceOnUse"><stop stop-color="#F24A9D"/><stop offset="1" stop-color="#D7257D"/></linearGradient></defs></g></svg>