<svg xmlns="http://www.w3.org/2000/svg" width="3em" height="3em" viewBox="0 0 20 20"><g fill="none"><path fill="url(#)" d="M10 2H5.5A1.5 1.5 0 0 0 4 3.5v13A1.5 1.5 0 0 0 5.5 18h9a1.5 1.5 0 0 0 1.5-1.5V8l-4-2z"/><path fill="url(#)" fill-opacity=".5" d="M10 2H5.5A1.5 1.5 0 0 0 4 3.5v13A1.5 1.5 0 0 0 5.5 18h9a1.5 1.5 0 0 0 1.5-1.5V8l-4-2z"/><path fill="url(#)" fill-opacity=".5" d="M10 2H5.5A1.5 1.5 0 0 0 4 3.5v13A1.5 1.5 0 0 0 5.5 18h9a1.5 1.5 0 0 0 1.5-1.5V8l-4-2z"/><path fill="url(#)" d="M10.01 6.5V2l6 6h-4.5a1.5 1.5 0 0 1-1.5-1.5"/><path fill="url(#)" d="M10 14.5a4.5 4.5 0 1 0-9 0a4.5 4.5 0 0 0 9 0"/><path fill="url(#)" d="M5.013 12.5a.5.5 0 0 1 1 0v4a.5.5 0 0 1-1 0z"/><path fill="url(#)" d="M7.51 13.989a.5.5 0 0 1 .005 1l-4 .022a.5.5 0 1 1-.005-1z"/><defs><linearGradient id="" x1="12.4" x2="13.782" y1="2" y2="15.479" gradientUnits="userSpaceOnUse"><stop stop-color="#6CE0FF"/><stop offset="1" stop-color="#4894FE"/></linearGradient><linearGradient id="" x1="13" x2="11.5" y1="4.5" y2="7" gradientUnits="userSpaceOnUse"><stop stop-color="#9FF0F9"/><stop offset="1" stop-color="#B3E0FF"/></linearGradient><linearGradient id="" x1="1.321" x2="7.533" y1="11.688" y2="18.141" gradientUnits="userSpaceOnUse"><stop stop-color="#52D17C"/><stop offset="1" stop-color="#22918B"/></linearGradient><linearGradient id="" x1="3.95" x2="5.484" y1="12.51" y2="17.926" gradientUnits="userSpaceOnUse"><stop stop-color="#fff"/><stop offset="1" stop-color="#E3FFD9"/></linearGradient><linearGradient id="" x1="3.95" x2="5.484" y1="12.51" y2="17.926" gradientUnits="userSpaceOnUse"><stop stop-color="#fff"/><stop offset="1" stop-color="#E3FFD9"/></linearGradient><radialGradient id="" cx="0" cy="0" r="1" gradientTransform="rotate(131.781 7.69 4.942)scale(9.75567 5.7303)" gradientUnits="userSpaceOnUse"><stop offset=".362" stop-color="#4A43CB"/><stop offset="1" stop-color="#4A43CB" stop-opacity="0"/></radialGradient><radialGradient id="" cx="0" cy="0" r="1" gradientTransform="matrix(0 6.4 -6.26562 0 6.5 15.6)" gradientUnits="userSpaceOnUse"><stop offset=".535" stop-color="#4A43CB"/><stop offset="1" stop-color="#4A43CB" stop-opacity="0"/></radialGradient></defs></g></svg>