<svg xmlns="http://www.w3.org/2000/svg" width="3em" height="3em" viewBox="0 0 16 16"><g fill="none"><path fill="url(#)" d="M8.004 1L9.5 4.5L13 6l-.008 7.5a1.5 1.5 0 0 1-1.5 1.5H4.5A1.5 1.5 0 0 1 3 13.5v-11A1.5 1.5 0 0 1 4.5 1z"/><path fill="url(#)" fill-opacity=".5" d="M8.004 1L9.5 4.5L13 6l-.008 7.5a1.5 1.5 0 0 1-1.5 1.5H4.5A1.5 1.5 0 0 1 3 13.5v-11A1.5 1.5 0 0 1 4.5 1z"/><path fill="url(#)" d="M8 4.5V1l5 5H9.5A1.5 1.5 0 0 1 8 4.5"/><path fill="url(#)" fill-opacity=".9" d="M5.5 8a.5.5 0 0 0 0 1h5a.5.5 0 0 0 0-1zM5 10.5a.5.5 0 0 1 .5-.5h5a.5.5 0 0 1 0 1h-5a.5.5 0 0 1-.5-.5m.5 1.5a.5.5 0 0 0 0 1h5a.5.5 0 0 0 0-1z"/><defs><linearGradient id="" x1="9.994" x2="11.264" y1="1" y2="12.781" gradientUnits="userSpaceOnUse"><stop stop-color="#6CE0FF"/><stop offset="1" stop-color="#4894FE"/></linearGradient><linearGradient id="" x1="10.492" x2="9.242" y1="3.083" y2="5.167" gradientUnits="userSpaceOnUse"><stop stop-color="#9FF0F9"/><stop offset="1" stop-color="#B3E0FF"/></linearGradient><linearGradient id="" x1="11" x2="5.553" y1="15" y2="5.677" gradientUnits="userSpaceOnUse"><stop stop-color="#9DEAFF"/><stop offset="1" stop-color="#fff"/></linearGradient><radialGradient id="" cx="0" cy="0" r="1" gradientTransform="rotate(130.372 6.372 3.818)scale(8.35524 4.87457)" gradientUnits="userSpaceOnUse"><stop offset=".362" stop-color="#4A43CB"/><stop offset="1" stop-color="#4A43CB" stop-opacity="0"/></radialGradient></defs></g></svg>