<svg xmlns="http://www.w3.org/2000/svg" width="3em" height="3em" viewBox="0 0 32 32"><g fill="none"><path fill="url(#)" d="M17 2H8a3 3 0 0 0-3 3v22a3 3 0 0 0 3 3h16a3 3 0 0 0 3-3V12l-7-3z"/><path fill="url(#)" fill-opacity=".5" d="M17 2H8a3 3 0 0 0-3 3v22a3 3 0 0 0 3 3h16a3 3 0 0 0 3-3V12l-7-3z"/><path fill="url(#)" d="M17 10V2l10 10h-8a2 2 0 0 1-2-2"/><path fill="url(#)" d="M5.5 19.5H5A2.5 2.5 0 0 0 2.5 22v6A2.5 2.5 0 0 0 5 30.5h8a2.5 2.5 0 0 0 2.5-2.5v-6a2.5 2.5 0 0 0-2.5-2.5h-.5V19a3.5 3.5 0 1 0-7 0zm2-.5a1.5 1.5 0 0 1 3 0v.5h-3z"/><path fill="#944600" d="M11 25a2 2 0 1 1-4 0a2 2 0 0 1 4 0"/><defs><linearGradient id="" x1="20.4" x2="22.711" y1="2" y2="25.61" gradientUnits="userSpaceOnUse"><stop stop-color="#6CE0FF"/><stop offset="1" stop-color="#4894FE"/></linearGradient><linearGradient id="" x1="21.983" x2="19.483" y1="6.167" y2="10.333" gradientUnits="userSpaceOnUse"><stop stop-color="#9FF0F9"/><stop offset="1" stop-color="#B3E0FF"/></linearGradient><linearGradient id="" x1="15.519" x2="1.418" y1="31.146" y2="21.565" gradientUnits="userSpaceOnUse"><stop stop-color="#FF6F47"/><stop offset="1" stop-color="#FFD638"/></linearGradient><radialGradient id="" cx="0" cy="0" r="1" gradientTransform="rotate(133.108 13.335 7.491)scale(17.438 10.2853)" gradientUnits="userSpaceOnUse"><stop offset=".362" stop-color="#4A43CB"/><stop offset="1" stop-color="#4A43CB" stop-opacity="0"/></radialGradient></defs></g></svg>