<svg xmlns="http://www.w3.org/2000/svg" width="3em" height="3em" viewBox="0 0 16 16"><g fill="none"><path fill="url(#)" d="M3.5 14a.5.5 0 0 1-.5-.5v-4h1v4a.5.5 0 0 1-.5.5"/><path fill="url(#)" d="M13 10H3.5a.5.5 0 0 1-.5-.5v-7a.5.5 0 0 1 .5-.5H13a.5.5 0 0 1 .407.79L11.114 6l2.293 3.21A.5.5 0 0 1 13 10"/><defs><linearGradient id="" x1="4" x2="3.69" y1="15.446" y2="9.659" gradientUnits="userSpaceOnUse"><stop stop-color="#889096"/><stop offset="1" stop-color="#63686E"/></linearGradient><linearGradient id="" x1=".703" x2="5.169" y1="-.286" y2="10.475" gradientUnits="userSpaceOnUse"><stop stop-color="#F97DBD"/><stop offset="1" stop-color="#D7257D"/></linearGradient></defs></g></svg>