<svg xmlns="http://www.w3.org/2000/svg" width="3em" height="3em" viewBox="0 0 28 28"><g fill="none"><path fill="url(#)" d="M4.75 25a.75.75 0 0 1-.75-.75V16.5h1.5v7.75a.75.75 0 0 1-.75.75"/><path fill="url(#)" d="M23.25 18H4.5a.5.5 0 0 1-.5-.5V3.75A.75.75 0 0 1 4.75 3h18.5c.59 0 .95.65.635 1.15l-3.999 6.35l3.999 6.35A.75.75 0 0 1 23.25 18"/><defs><linearGradient id="" x1="5.5" x2="4.764" y1="27.732" y2="16.82" gradientUnits="userSpaceOnUse"><stop stop-color="#889096"/><stop offset="1" stop-color="#63686E"/></linearGradient><linearGradient id="" x1="-.375" x2="7.906" y1="-1.286" y2="18.982" gradientUnits="userSpaceOnUse"><stop stop-color="#F97DBD"/><stop offset="1" stop-color="#D7257D"/></linearGradient></defs></g></svg>