<svg xmlns="http://www.w3.org/2000/svg" width="3em" height="3em" viewBox="0 0 48 48"><g fill="none"><path fill="url(#)" fill-rule="evenodd" d="M35.75 4A4.25 4.25 0 0 1 40 8.25v31.5A4.25 4.25 0 0 1 35.75 44h-23.5A4.25 4.25 0 0 1 8 39.75V8.25A4.25 4.25 0 0 1 12.25 4zm-14.5 5a1.25 1.25 0 1 0 0 2.5h5.5a1.25 1.25 0 1 0 0-2.5z" clip-rule="evenodd"/><path fill="url(#)" fill-opacity=".7" fill-rule="evenodd" d="M35.75 4A4.25 4.25 0 0 1 40 8.25v31.5A4.25 4.25 0 0 1 35.75 44h-23.5A4.25 4.25 0 0 1 8 39.75V8.25A4.25 4.25 0 0 1 12.25 4zm-14.5 5a1.25 1.25 0 1 0 0 2.5h5.5a1.25 1.25 0 1 0 0-2.5z" clip-rule="evenodd"/><path fill="url(#)" fill-opacity=".9" d="M17.8 28a3.8 3.8 0 0 0-3.8 3.8c0 2.407 1.198 4.27 3.074 5.475C18.902 38.451 21.35 39 24 39s5.098-.55 6.926-1.725C32.802 36.07 34 34.207 34 31.8a3.8 3.8 0 0 0-3.8-3.8z"/><path fill="url(#)" fill-opacity=".9" d="M18.5 20.5a5.5 5.5 0 1 1 11 0a5.5 5.5 0 0 1-11 0"/><defs><linearGradient id="" x1="-2.667" x2="37.639" y1="-4.747" y2="32.911" gradientUnits="userSpaceOnUse"><stop stop-color="#36DFF1"/><stop offset=".218" stop-color="#35DAF1"/><stop offset="1" stop-color="#2764E7"/></linearGradient><linearGradient id="" x1="28.952" x2="40.898" y1="8.912" y2="49.655" gradientUnits="userSpaceOnUse"><stop offset=".549" stop-color="#FF6CE8" stop-opacity="0"/><stop offset="1" stop-color="#FF6CE8"/></linearGradient><linearGradient id="" x1="39.009" x2="27.59" y1="48.429" y2="10.353" gradientUnits="userSpaceOnUse"><stop stop-color="#9DEAFF"/><stop offset="1" stop-color="#fff"/></linearGradient><linearGradient id="" x1="32.255" x2="14.812" y1="35.429" y2="3.44" gradientUnits="userSpaceOnUse"><stop stop-color="#9DEAFF"/><stop offset="1" stop-color="#fff"/></linearGradient></defs></g></svg>