<svg xmlns="http://www.w3.org/2000/svg" width="3em" height="3em" viewBox="0 0 20 20"><g fill="none"><path fill="url(#)" d="M6 3a3 3 0 0 0-3 3v8a3 3 0 0 0 3 3h8a3 3 0 0 0 3-3V6a3 3 0 0 0-3-3z"/><path fill="url(#)" d="m16.122 16.121l-5.238-5.237a1.25 1.25 0 0 0-1.768 0L3.88 16.12A3 3 0 0 0 6 17h8a3 3 0 0 0 2.122-.879"/><circle cx="12.5" cy="7.5" r="1.5" fill="url(#)"/><defs><linearGradient id="" x1="8.251" x2="9.715" y1="10.518" y2="17.343" gradientUnits="userSpaceOnUse"><stop stop-color="#B3E0FF"/><stop offset="1" stop-color="#8CD0FF"/></linearGradient><linearGradient id="" x1="11.9" x2="12.996" y1="5.667" y2="9.612" gradientUnits="userSpaceOnUse"><stop stop-color="#FDFDFD"/><stop offset="1" stop-color="#B3E0FF"/></linearGradient><radialGradient id="" cx="0" cy="0" r="1" gradientTransform="rotate(51.687 3.782 -5.018)scale(38.7123 35.2114)" gradientUnits="userSpaceOnUse"><stop offset=".338" stop-color="#0FAFFF"/><stop offset=".529" stop-color="#367AF2"/></radialGradient></defs></g></svg>