<svg xmlns="http://www.w3.org/2000/svg" width="3em" height="3em" viewBox="0 0 28 28"><g fill="none"><path fill="url(#)" d="M3 6.75A3.75 3.75 0 0 1 6.75 3h14.5A3.75 3.75 0 0 1 25 6.75v14.5A3.75 3.75 0 0 1 21.25 25H6.75A3.75 3.75 0 0 1 3 21.25z"/><path fill="url(#)" d="m24.368 23.334l-8.97-8.767a2 2 0 0 0-2.796 0l-8.97 8.767A3.75 3.75 0 0 0 6.75 25h14.5c1.3 0 2.445-.661 3.118-1.666"/><path fill="url(#)" d="M19 12a2 2 0 1 0 0-4a2 2 0 0 0 0 4"/><path fill="url(#)" d="M3 6.75A3.75 3.75 0 0 1 6.75 3h14.5A3.75 3.75 0 0 1 25 6.75v14.5A3.75 3.75 0 0 1 21.25 25H6.75A3.75 3.75 0 0 1 3 21.25z"/><path fill="url(#)" d="M2.293 2.293a1 1 0 0 1 1.414 0l22 22a1 1 0 0 1-1.414 1.414l-22-22a1 1 0 0 1 0-1.414"/><defs><linearGradient id="" x1="11.038" x2="13.526" y1="13.998" y2="25.579" gradientUnits="userSpaceOnUse"><stop stop-color="#E7DEDE"/><stop offset="1" stop-color="#D3D3D3"/></linearGradient><linearGradient id="" x1="18.2" x2="19.661" y1="7.556" y2="12.816" gradientUnits="userSpaceOnUse"><stop stop-color="#FDFDFD"/><stop offset="1" stop-color="#E4E4E4"/></linearGradient><linearGradient id="" x1="25" x2="3" y1="3" y2="25" gradientUnits="userSpaceOnUse"><stop offset=".464" stop-opacity="0"/><stop offset=".484"/><stop offset=".58" stop-opacity="0"/></linearGradient><linearGradient id="" x1="2" x2="21.5" y1="-2.5" y2="26.75" gradientUnits="userSpaceOnUse"><stop stop-color="#E82C41"/><stop offset="1" stop-color="#AA1D2D"/></linearGradient><radialGradient id="" cx="0" cy="0" r="1" gradientTransform="matrix(37.7143 47.73215 -43.41556 34.30366 -5.643 -9.375)" gradientUnits="userSpaceOnUse"><stop offset=".338" stop-color="#A9A9A9"/><stop offset=".695" stop-color="#898989"/></radialGradient></defs></g></svg>