<svg xmlns="http://www.w3.org/2000/svg" width="3em" height="3em" viewBox="0 0 24 24"><g fill="none"><path fill="url(#)" d="M14 4.238a2.25 2.25 0 0 0-3.016-2.115l-6.84 2.475A3.25 3.25 0 0 0 2 7.654v6.108a2.25 2.25 0 0 0 3.016 2.116l7.83-2.834A1.75 1.75 0 0 0 14 11.4z"/><path fill="url(#)" d="M18 7.238a2.25 2.25 0 0 0-3.016-2.115l-6.84 2.475A3.25 3.25 0 0 0 6 10.654v6.108a2.25 2.25 0 0 0 3.016 2.116l7.83-2.834A1.75 1.75 0 0 0 18 14.4z"/><path fill="url(#)" d="M22 10.238a2.25 2.25 0 0 0-3.016-2.115l-6.84 2.475A3.25 3.25 0 0 0 10 13.654v6.108a2.25 2.25 0 0 0 3.016 2.116l7.83-2.834A1.75 1.75 0 0 0 22 17.4z"/><path fill="url(#)" d="M23 19.875C23 21.431 21.714 23 18.5 23S14 21.437 14 19.875v-.103c0-.98.794-1.772 1.773-1.772h5.454c.98 0 1.773.793 1.773 1.772z"/><path fill="url(#)" d="M21 14.5a2.5 2.5 0 1 1-5 0a2.5 2.5 0 0 1 5 0"/><defs><linearGradient id="" x1="2.429" x2="12.05" y1="4.617" y2="13.167" gradientUnits="userSpaceOnUse"><stop stop-color="#0078D4"/><stop offset="1" stop-color="#1B44B1"/></linearGradient><linearGradient id="" x1="6.429" x2="16.049" y1="7.617" y2="16.167" gradientUnits="userSpaceOnUse"><stop stop-color="#0FAFFF"/><stop offset="1" stop-color="#2764E7"/></linearGradient><linearGradient id="" x1="10.429" x2="20.049" y1="10.617" y2="19.167" gradientUnits="userSpaceOnUse"><stop stop-color="#6CE0FF"/><stop offset="1" stop-color="#58AAFE"/></linearGradient><linearGradient id="" x1="16.14" x2="17.898" y1="18.665" y2="23.718" gradientUnits="userSpaceOnUse"><stop offset=".125" stop-color="#9C6CFE"/><stop offset="1" stop-color="#7A41DC"/></linearGradient><linearGradient id="" x1="17.189" x2="19.737" y1="12.665" y2="16.734" gradientUnits="userSpaceOnUse"><stop offset=".125" stop-color="#9C6CFE"/><stop offset="1" stop-color="#7A41DC"/></linearGradient></defs></g></svg>