<svg xmlns="http://www.w3.org/2000/svg" width="3em" height="3em" viewBox="0 0 20 20"><g fill="none"><path fill="url(#)" d="M11.017 17.995c.805-.06 1.486-.618 1.67-1.389l.966-4.033a.2.2 0 0 1 .059-.1C15.226 11.075 16 9.51 16 7.801C16 4.597 13.314 2 10 2S4 4.596 4 7.8c0 1.709.775 3.274 2.29 4.672q.045.042.06.1l.962 4.032l.037.134c.242.745.958 1.26 1.777 1.26h1.748z"/><path fill="url(#)" d="M11.017 17.995c.805-.06 1.486-.618 1.67-1.389l.966-4.033a.2.2 0 0 1 .059-.1C15.226 11.075 16 9.51 16 7.801C16 4.597 13.314 2 10 2S4 4.596 4 7.8c0 1.709.775 3.274 2.29 4.672q.045.042.06.1l.962 4.032l.037.134c.242.745.958 1.26 1.777 1.26h1.748z"/><path fill="url(#)" fill-opacity=".2" d="M11.017 17.995c.805-.06 1.486-.618 1.67-1.389l.966-4.033a.2.2 0 0 1 .059-.1C15.226 11.075 16 9.51 16 7.801C16 4.597 13.314 2 10 2S4 4.596 4 7.8c0 1.709.775 3.274 2.29 4.672q.045.042.06.1l.962 4.032l.037.134c.242.745.958 1.26 1.777 1.26h1.748z"/><path fill="url(#)" fill-opacity=".2" d="M11.017 17.995c.805-.06 1.486-.618 1.67-1.389l.966-4.033a.2.2 0 0 1 .059-.1C15.226 11.075 16 9.51 16 7.801C16 4.597 13.314 2 10 2S4 4.596 4 7.8c0 1.709.775 3.274 2.29 4.672q.045.042.06.1l.962 4.032l.037.134c.242.745.958 1.26 1.777 1.26h1.748z"/><path fill="url(#)" fill-opacity=".2" d="M11.017 17.995c.805-.06 1.486-.618 1.67-1.389l.966-4.033a.2.2 0 0 1 .059-.1C15.226 11.075 16 9.51 16 7.801C16 4.597 13.314 2 10 2S4 4.596 4 7.8c0 1.709.775 3.274 2.29 4.672q.045.042.06.1l.962 4.032l.037.134c.242.745.958 1.26 1.777 1.26h1.748z"/><path fill="url(#)" fill-opacity=".2" d="M11.017 17.995c.805-.06 1.486-.618 1.67-1.389l.966-4.033a.2.2 0 0 1 .059-.1C15.226 11.075 16 9.51 16 7.801C16 4.597 13.314 2 10 2S4 4.596 4 7.8c0 1.709.775 3.274 2.29 4.672q.045.042.06.1l.962 4.032l.037.134c.242.745.958 1.26 1.777 1.26h1.748z"/><rect width="1.023" height="5.561" x="9.488" y="8.999" fill="url(#)" rx=".512"/><rect width=".992" height="1.988" x="9.503" y="6.005" fill="url(#)" rx=".496"/><path fill="url(#)" d="M7.132 8.16a.522.522 0 1 1 .738-.739l.687.687a.522.522 0 0 1-.738.738z"/><path fill="url(#)" d="M12.866 8.16a.522.522 0 1 0-.738-.739l-.687.687a.522.522 0 1 0 .738.738z"/><path fill="url(#)" d="M6.929 15h6.143l.24-1H6.69z"/><defs><linearGradient id="" x1="10" x2="10" y1="2" y2="18" gradientUnits="userSpaceOnUse"><stop offset=".766" stop-color="#D34719" stop-opacity="0"/><stop offset=".791" stop-color="#D34719"/><stop offset="1" stop-color="#D34719" stop-opacity="0"/></linearGradient><linearGradient id="" x1="9.999" x2="9.999" y1="8.999" y2="14.563" gradientUnits="userSpaceOnUse"><stop stop-color="#FFF2BE"/><stop offset=".437" stop-color="#FFD638"/></linearGradient><linearGradient id="" x1="9.503" x2="10.495" y1="6.999" y2="6.999" gradientUnits="userSpaceOnUse"><stop stop-color="#FFF2BE"/><stop offset="1" stop-color="#FFD638"/></linearGradient><linearGradient id="" x1="7.495" x2="8.197" y1="8.493" y2="7.791" gradientUnits="userSpaceOnUse"><stop stop-color="#FFF2BE"/><stop offset="1" stop-color="#FFD638"/></linearGradient><linearGradient id="" x1="11.774" x2="12.471" y1="7.817" y2="8.514" gradientUnits="userSpaceOnUse"><stop stop-color="#FFF2BE"/><stop offset="1" stop-color="#FFD638"/></linearGradient><linearGradient id="" x1="9.477" x2="10.231" y1="14.397" y2="16.396" gradientUnits="userSpaceOnUse"><stop stop-color="#FFC7A3"/><stop offset="1" stop-color="#FF9C70"/></linearGradient><radialGradient id="" cx="0" cy="0" r="1" gradientTransform="matrix(3.94518 13.74408 -20.92106 6.0053 6 3.571)" gradientUnits="userSpaceOnUse"><stop stop-color="#FFE06B"/><stop offset=".376" stop-color="#FFA43D"/><stop offset="1" stop-color="#E67505"/></radialGradient><radialGradient id="" cx="0" cy="0" r="1" gradientTransform="matrix(.89063 1.26563 -1.0119 .71208 7.922 8.438)" gradientUnits="userSpaceOnUse"><stop offset=".165" stop-color="#741C06"/><stop offset=".854" stop-color="#741C06" stop-opacity="0"/></radialGradient><radialGradient id="" cx="0" cy="0" r="1" gradientTransform="matrix(0 1.70312 -1.27734 0 10 7.281)" gradientUnits="userSpaceOnUse"><stop offset=".165" stop-color="#741C06"/><stop offset=".854" stop-color="#741C06" stop-opacity="0"/></radialGradient><radialGradient id="" cx="0" cy="0" r="1" gradientTransform="rotate(130.752 4.217 7.094)scale(1.53839 1.15379)" gradientUnits="userSpaceOnUse"><stop offset=".165" stop-color="#741C06"/><stop offset=".854" stop-color="#741C06" stop-opacity="0"/></radialGradient><radialGradient id="" cx="0" cy="0" r="1" gradientTransform="matrix(-1.53152 0 0 -4.41097 10 11.719)" gradientUnits="userSpaceOnUse"><stop offset=".165" stop-color="#741C06"/><stop offset=".777" stop-color="#741C06" stop-opacity="0"/></radialGradient></defs></g></svg>