<svg xmlns="http://www.w3.org/2000/svg" width="3em" height="3em" viewBox="0 0 20 20"><g fill="none"><path fill="url(#)" d="M12.688 16.606c-.185.77-.866 1.329-1.671 1.389l-.143.005H9.126c-.819 0-1.535-.516-1.777-1.261l-.037-.134l-.503-2.105h6.383z"/><path fill="url(#)" d="M12.688 16.606c-.185.77-.866 1.329-1.671 1.389l-.143.005H9.126c-.819 0-1.535-.516-1.777-1.261l-.037-.134l-.503-2.105h6.383z"/><path fill="url(#)" d="M6.81 14.5h6.382l.46-1.927a.2.2 0 0 1 .06-.1C15.226 11.075 16 9.51 16 7.801C16 4.597 13.314 2 10 2S4 4.596 4 7.8c0 1.709.775 3.274 2.29 4.672q.045.042.06.1z"/><path fill="url(#)" d="M6.929 15h6.143l.24-1H6.69z"/><defs><radialGradient id="" cx="0" cy="0" r="1" gradientTransform="matrix(3.94518 13.74408 -20.92106 6.0053 6 3.571)" gradientUnits="userSpaceOnUse"><stop stop-color="#FFE06B"/><stop offset=".376" stop-color="#FFA43D"/><stop offset="1" stop-color="#E67505"/></radialGradient><radialGradient id="" cx="0" cy="0" r="1" gradientTransform="matrix(3.94518 13.74408 -20.92106 6.0053 6 3.571)" gradientUnits="userSpaceOnUse"><stop stop-color="#FFE06B"/><stop offset=".376" stop-color="#FFA43D"/><stop offset="1" stop-color="#E67505"/></radialGradient><linearGradient id="" x1="10" x2="10" y1="14.5" y2="18" gradientUnits="userSpaceOnUse"><stop stop-color="#D34719"/><stop offset="1" stop-color="#D34719" stop-opacity="0"/></linearGradient><linearGradient id="" x1="9.477" x2="10.231" y1="14.397" y2="16.396" gradientUnits="userSpaceOnUse"><stop stop-color="#FFC7A3"/><stop offset="1" stop-color="#FF9C70"/></linearGradient></defs></g></svg>