<svg xmlns="http://www.w3.org/2000/svg" width="3em" height="3em" viewBox="0 0 28 28"><g fill="none"><path fill="url(#)" d="m18.421 21.5l-.482 2.008A3.25 3.25 0 0 1 14.78 26h-1.56a3.25 3.25 0 0 1-3.16-2.492L9.579 21.5z"/><path fill="url(#)" d="m18.421 21.5l-.482 2.008A3.25 3.25 0 0 1 14.78 26h-1.56a3.25 3.25 0 0 1-3.16-2.492L9.579 21.5z"/><path fill="url(#)" d="M14 2a9 9 0 0 0-5.79 15.89c.402.339.679.736.78 1.158L9.46 21h9.082l.469-1.952c.101-.422.378-.819.78-1.158A9 9 0 0 0 14 2"/><path fill="url(#)" d="M18.661 20.5H9.34L9.7 22h8.6z"/><defs><radialGradient id="" cx="0" cy="0" r="1" gradientTransform="rotate(72.812 -.822 9.459)scale(18.4961 29.9717)" gradientUnits="userSpaceOnUse"><stop stop-color="#FFE06B"/><stop offset=".376" stop-color="#FFA43D"/><stop offset="1" stop-color="#E67505"/></radialGradient><radialGradient id="" cx="0" cy="0" r="1" gradientTransform="matrix(5.9181 20.89185 -31.4453 8.9076 8 4.388)" gradientUnits="userSpaceOnUse"><stop stop-color="#FFE06B"/><stop offset=".376" stop-color="#FFA43D"/><stop offset="1" stop-color="#E67505"/></radialGradient><linearGradient id="" x1="13.999" x2="14" y1="21.5" y2="26" gradientUnits="userSpaceOnUse"><stop stop-color="#D34719"/><stop offset="1" stop-color="#D34719" stop-opacity="0"/></linearGradient><linearGradient id="" x1="13.263" x2="14.448" y1="21.096" y2="24.045" gradientUnits="userSpaceOnUse"><stop stop-color="#FFC7A3"/><stop offset="1" stop-color="#FF9C70"/></linearGradient></defs></g></svg>