<svg xmlns="http://www.w3.org/2000/svg" width="3em" height="3em" viewBox="0 0 16 16"><g fill="none"><path fill="url(#)" d="m5.437 11.5l.38 1.395A1.5 1.5 0 0 0 7.264 14h1.472a1.5 1.5 0 0 0 1.448-1.105l.38-1.395z"/><path fill="url(#)" d="m5.437 11.5l.38 1.395A1.5 1.5 0 0 0 7.264 14h1.472a1.5 1.5 0 0 0 1.448-1.105l.38-1.395z"/><path fill="url(#)" d="M10.564 11.5H5.436l-.41-1.505a.65.65 0 0 0-.181-.287a4.5 4.5 0 1 1 6.31 0a.65.65 0 0 0-.18.287z"/><path fill="url(#)" d="m10.427 12l.273-1H5.3l.273 1z"/><defs><radialGradient id="" cx="0" cy="0" r="1" gradientTransform="matrix(3.1694 9.81748 -16.47486 5.31863 4.786 3.694)" gradientUnits="userSpaceOnUse"><stop stop-color="#FFE06B"/><stop offset=".376" stop-color="#FFA43D"/><stop offset="1" stop-color="#E67505"/></radialGradient><radialGradient id="" cx="0" cy="0" r="1" gradientTransform="matrix(2.95904 10.44588 -15.72265 4.4538 5 3.193)" gradientUnits="userSpaceOnUse"><stop stop-color="#FFE06B"/><stop offset=".376" stop-color="#FFA43D"/><stop offset="1" stop-color="#E67505"/></radialGradient><linearGradient id="" x1="8" x2="8" y1="11.5" y2="14" gradientUnits="userSpaceOnUse"><stop stop-color="#D34719"/><stop offset="1" stop-color="#D34719" stop-opacity="0"/></linearGradient><linearGradient id="" x1="7.573" x2="8.443" y1="11.397" y2="13.278" gradientUnits="userSpaceOnUse"><stop stop-color="#FFC7A3"/><stop offset="1" stop-color="#FF9C70"/></linearGradient></defs></g></svg>