<svg xmlns="http://www.w3.org/2000/svg" width="3em" height="3em" viewBox="0 0 32 32"><g fill="none"><path fill="url(#)" d="M17.78 29.99c1.408-.104 2.6-1.08 2.923-2.43l1.69-7.057a.35.35 0 0 1 .102-.175c2.65-2.446 4.005-5.186 4.005-8.177C26.5 6.545 21.799 2 16 2S5.5 6.545 5.5 12.15c0 2.992 1.356 5.732 4.007 8.178a.35.35 0 0 1 .103.175l1.685 7.056l.066.234C11.783 29.097 13.037 30 14.47 30h3.058z"/><path fill="url(#)" d="M17.78 29.99c1.408-.104 2.6-1.08 2.923-2.43l1.69-7.057a.35.35 0 0 1 .102-.175c2.65-2.446 4.005-5.186 4.005-8.177C26.5 6.545 21.799 2 16 2S5.5 6.545 5.5 12.15c0 2.992 1.356 5.732 4.007 8.178a.35.35 0 0 1 .103.175l1.685 7.056l.066.234C11.783 29.097 13.037 30 14.47 30h3.058z"/><path fill="url(#)" fill-opacity=".2" d="M17.78 29.99c1.408-.104 2.6-1.08 2.923-2.43l1.69-7.057a.35.35 0 0 1 .102-.175c2.65-2.446 4.005-5.186 4.005-8.177C26.5 6.545 21.799 2 16 2S5.5 6.545 5.5 12.15c0 2.992 1.356 5.732 4.007 8.178a.35.35 0 0 1 .103.175l1.685 7.056l.066.234C11.783 29.097 13.037 30 14.47 30h3.058z"/><path fill="url(#)" fill-opacity=".2" d="M17.78 29.99c1.408-.104 2.6-1.08 2.923-2.43l1.69-7.057a.35.35 0 0 1 .102-.175c2.65-2.446 4.005-5.186 4.005-8.177C26.5 6.545 21.799 2 16 2S5.5 6.545 5.5 12.15c0 2.992 1.356 5.732 4.007 8.178a.35.35 0 0 1 .103.175l1.685 7.056l.066.234C11.783 29.097 13.037 30 14.47 30h3.058z"/><path fill="url(#)" fill-opacity=".2" d="M17.78 29.99c1.408-.104 2.6-1.08 2.923-2.43l1.69-7.057a.35.35 0 0 1 .102-.175c2.65-2.446 4.005-5.186 4.005-8.177C26.5 6.545 21.799 2 16 2S5.5 6.545 5.5 12.15c0 2.992 1.356 5.732 4.007 8.178a.35.35 0 0 1 .103.175l1.685 7.056l.066.234C11.783 29.097 13.037 30 14.47 30h3.058z"/><path fill="url(#)" fill-opacity=".2" d="M17.78 29.99c1.408-.104 2.6-1.08 2.923-2.43l1.69-7.057a.35.35 0 0 1 .102-.175c2.65-2.446 4.005-5.186 4.005-8.177C26.5 6.545 21.799 2 16 2S5.5 6.545 5.5 12.15c0 2.992 1.356 5.732 4.007 8.178a.35.35 0 0 1 .103.175l1.685 7.056l.066.234C11.783 29.097 13.037 30 14.47 30h3.058z"/><rect width="2.176" height="11.828" x="14.91" y="13.199" fill="url(#)" rx="1.088"/><rect width="2.176" height="4.199" x="14.91" y="7.598" fill="url(#)" rx="1.088"/><path fill="url(#)" d="M9.858 12.245a1.088 1.088 0 1 1 1.539-1.538l1.43 1.43a1.088 1.088 0 0 1-1.538 1.54z"/><path fill="url(#)" d="M22.144 12.245a1.088 1.088 0 0 0-1.539-1.538l-1.43 1.43a1.088 1.088 0 1 0 1.538 1.54z"/><path fill="url(#)" d="M10.874 25.797h10.251l.503-2.102H10.373z"/><defs><linearGradient id="" x1="16" x2="16" y1="2" y2="30" gradientUnits="userSpaceOnUse"><stop offset=".792" stop-color="#D34719" stop-opacity="0"/><stop offset=".835" stop-color="#D34719"/><stop offset="1" stop-color="#D34719" stop-opacity="0"/></linearGradient><linearGradient id="" x1="15.998" x2="15.998" y1="13.199" y2="25.034" gradientUnits="userSpaceOnUse"><stop stop-color="#FFF2BE"/><stop offset=".437" stop-color="#FFD638"/></linearGradient><linearGradient id="" x1="14.91" x2="17.086" y1="9.697" y2="9.697" gradientUnits="userSpaceOnUse"><stop stop-color="#FFF2BE"/><stop offset="1" stop-color="#FFD638"/></linearGradient><linearGradient id="" x1="10.614" x2="12.078" y1="12.941" y2="11.477" gradientUnits="userSpaceOnUse"><stop stop-color="#FFF2BE"/><stop offset="1" stop-color="#FFD638"/></linearGradient><linearGradient id="" x1="19.868" x2="21.321" y1="11.533" y2="12.985" gradientUnits="userSpaceOnUse"><stop stop-color="#FFF2BE"/><stop offset="1" stop-color="#FFD638"/></linearGradient><linearGradient id="" x1="15.084" x2="16.404" y1="23.695" y2="27.194" gradientUnits="userSpaceOnUse"><stop stop-color="#FFC7A3"/><stop offset="1" stop-color="#FF9C70"/></linearGradient><radialGradient id="" cx="0" cy="0" r="1" gradientTransform="rotate(73.984 1.348 8.347)scale(25.0244 38.0917)" gradientUnits="userSpaceOnUse"><stop stop-color="#FFE06B"/><stop offset=".376" stop-color="#FFA43D"/><stop offset="1" stop-color="#E67505"/></radialGradient><radialGradient id="" cx="0" cy="0" r="1" gradientTransform="rotate(46.818 -9.538 19.643)scale(2.78564 2.22718)" gradientUnits="userSpaceOnUse"><stop offset=".165" stop-color="#741C06"/><stop offset=".854" stop-color="#741C06" stop-opacity="0"/></radialGradient><radialGradient id="" cx="0" cy="0" r="1" gradientTransform="matrix(0 3.50959 -2.63219 0 16 10.084)" gradientUnits="userSpaceOnUse"><stop offset=".165" stop-color="#741C06"/><stop offset=".854" stop-color="#741C06" stop-opacity="0"/></radialGradient><radialGradient id="" cx="0" cy="0" r="1" gradientTransform="rotate(133.802 7.546 10.933)scale(3.3453 2.50898)" gradientUnits="userSpaceOnUse"><stop offset=".165" stop-color="#741C06"/><stop offset=".854" stop-color="#741C06" stop-opacity="0"/></radialGradient><radialGradient id="" cx="0" cy="0" r="1" gradientTransform="matrix(-2.6813 0 0 -7.72245 16 18.4)" gradientUnits="userSpaceOnUse"><stop offset=".165" stop-color="#741C06"/><stop offset=".777" stop-color="#741C06" stop-opacity="0"/></radialGradient></defs></g></svg>