<svg xmlns="http://www.w3.org/2000/svg" width="3em" height="3em" viewBox="0 0 24 24"><g fill="none"><path fill="url(#)" fill-rule="evenodd" d="M1 10a5 5 0 0 1 5-5h7a5 5 0 0 1 0 10H6a5 5 0 0 1-5-5m5-3a3 3 0 0 0 0 6h7a3 3 0 1 0 0-6z" clip-rule="evenodd"/><path fill="url(#)" fill-rule="evenodd" d="M1 10a5 5 0 0 1 5-5h7a5 5 0 0 1 0 10H6a5 5 0 0 1-5-5m5-3a3 3 0 0 0 0 6h7a3 3 0 1 0 0-6z" clip-rule="evenodd"/><path fill="url(#)" fill-rule="evenodd" d="M1 10a5 5 0 0 1 5-5h7a5 5 0 0 1 0 10H6a5 5 0 0 1-5-5m5-3a3 3 0 0 0 0 6h7a3 3 0 1 0 0-6z" clip-rule="evenodd"/><path fill="url(#)" d="M15.83 9H11a5 5 0 0 0 0 10h7a5 5 0 0 0 0-10h-.1a5 5 0 0 1 0 2h.1a3 3 0 1 1 0 6h-7a3 3 0 1 1 0-6h4.83a3 3 0 0 0 0-2"/><path fill="url(#)" d="M15.83 9H11a5 5 0 0 0 0 10h7a5 5 0 0 0 0-10h-.1a5 5 0 0 1 0 2h.1a3 3 0 1 1 0 6h-7a3 3 0 1 1 0-6h4.83a3 3 0 0 0 0-2"/><path fill="url(#)" d="M15.83 9H11a5 5 0 0 0 0 10h7a5 5 0 0 0 0-10h-.1a5 5 0 0 1 0 2h.1a3 3 0 1 1 0 6h-7a3 3 0 1 1 0-6h4.83a3 3 0 0 0 0-2"/><defs><radialGradient id="" cx="0" cy="0" r="1" gradientTransform="matrix(13.90911 10.76923 -9.6353 12.44458 1.773 5)" gradientUnits="userSpaceOnUse"><stop stop-color="#0FAFFF"/><stop offset=".429" stop-color="#367AF2"/><stop offset=".942" stop-color="#5750E2"/><stop offset="1" stop-color="#6F47DF"/></radialGradient><radialGradient id="" cx="0" cy="0" r="1" gradientTransform="matrix(-7 0 0 -7.77785 10.5 14.5)" gradientUnits="userSpaceOnUse"><stop offset=".239" stop-color="#261D82" stop-opacity="0"/><stop offset=".424" stop-color="#261D82"/><stop offset=".568" stop-color="#261D82"/><stop offset=".754" stop-color="#261D82" stop-opacity="0"/></radialGradient><radialGradient id="" cx="0" cy="0" r="1" gradientTransform="matrix(7 0 0 7.77785 13.5 9.5)" gradientUnits="userSpaceOnUse"><stop offset=".246" stop-color="#2764E7" stop-opacity="0"/><stop offset=".396" stop-color="#2764E7"/><stop offset=".578" stop-color="#2764E7"/><stop offset=".748" stop-color="#2764E7" stop-opacity="0"/></radialGradient><linearGradient id="" x1="17" x2="8.382" y1="15.5" y2="5.667" gradientUnits="userSpaceOnUse"><stop stop-color="#5157E4" stop-opacity="0"/><stop offset=".066" stop-color="#5157E4"/><stop offset=".319" stop-color="#5157E4"/><stop offset=".6" stop-color="#5157E4" stop-opacity="0"/></linearGradient><linearGradient id="" x1=".536" x2="11.117" y1="4.188" y2="28.777" gradientUnits="userSpaceOnUse"><stop stop-color="#36DFF1"/><stop offset="1" stop-color="#2764E7"/></linearGradient><linearGradient id="" x1="8.5" x2="16.77" y1="5" y2="12.103" gradientUnits="userSpaceOnUse"><stop stop-color="#31B3EE" stop-opacity=".243"/><stop offset=".208" stop-color="#31B3EE"/><stop offset=".569" stop-color="#31B3EE"/><stop offset=".763" stop-color="#31B3EE" stop-opacity="0"/></linearGradient></defs></g></svg>