<svg xmlns="http://www.w3.org/2000/svg" width="3em" height="3em" viewBox="0 0 48 48"><g fill="none"><path fill="url(#)" d="M16 12v3h2.5v-3a5.5 5.5 0 1 1 11 0v3H32v-3a8 8 0 1 0-16 0"/><path fill="url(#)" d="M40 20.25A6.25 6.25 0 0 0 33.75 14h-19.5A6.25 6.25 0 0 0 8 20.25v15.5A6.25 6.25 0 0 0 14.25 42h19.5A6.25 6.25 0 0 0 40 35.75z"/><path fill="url(#)" d="M27 28a3 3 0 1 1-6 0a3 3 0 0 1 6 0"/><defs><linearGradient id="" x1="19.429" x2="31.67" y1="1.899" y2="22.113" gradientUnits="userSpaceOnUse"><stop stop-color="#FFC205"/><stop offset="1" stop-color="#FB5937"/></linearGradient><linearGradient id="" x1="42.286" x2="13.084" y1="43.75" y2="16.556" gradientUnits="userSpaceOnUse"><stop stop-color="#FF6F47"/><stop offset="1" stop-color="#FFCD0F"/></linearGradient><radialGradient id="" cx="0" cy="0" r="1" gradientTransform="rotate(-105.945 24.442 5.883)scale(10.9202 15.1517)" gradientUnits="userSpaceOnUse"><stop stop-color="#944600"/><stop offset="1" stop-color="#CD8E02"/></radialGradient></defs></g></svg>