<svg xmlns="http://www.w3.org/2000/svg" width="3em" height="3em" viewBox="0 0 16 16"><g fill="none"><path fill="url(#)" d="M11 3.5v1h-1v-1a2 2 0 1 0-4 0v1H5v-1a3 3 0 0 1 6 0"/><path fill="url(#)" d="M14 6.5A2.5 2.5 0 0 0 11.5 4h-7A2.5 2.5 0 0 0 2 6.5v5A2.5 2.5 0 0 0 4.5 14h7a2.5 2.5 0 0 0 2.5-2.5z"/><path fill="url(#)" d="M9 9a1 1 0 1 1-2 0a1 1 0 0 1 2 0"/><defs><linearGradient id="" x1="6.286" x2="10.672" y1="-.264" y2="7.206" gradientUnits="userSpaceOnUse"><stop stop-color="#FFC205"/><stop offset="1" stop-color="#FB5937"/></linearGradient><linearGradient id="" x1="14.857" x2="4.404" y1="14.625" y2="4.404" gradientUnits="userSpaceOnUse"><stop stop-color="#FF6F47"/><stop offset="1" stop-color="#FFCD0F"/></linearGradient><radialGradient id="" cx="0" cy="0" r="1" gradientTransform="matrix(-.99997 -3.5 4.85626 -1.38747 8.5 10)" gradientUnits="userSpaceOnUse"><stop stop-color="#944600"/><stop offset="1" stop-color="#CD8E02"/></radialGradient></defs></g></svg>