<svg xmlns="http://www.w3.org/2000/svg" width="3em" height="3em" viewBox="0 0 32 32"><g fill="none"><path fill="#367AF2" d="m30 10l-13.526 7.292a1 1 0 0 1-.948 0L2 10v12.5A4.5 4.5 0 0 0 6.5 27h19a4.5 4.5 0 0 0 4.5-4.5z"/><path fill="url(#)" d="m30 10l-13.526 7.292a1 1 0 0 1-.948 0L2 10v12.5A4.5 4.5 0 0 0 6.5 27h19a4.5 4.5 0 0 0 4.5-4.5z"/><path fill="url(#)" d="m30 10l-13.526 7.292a1 1 0 0 1-.948 0L2 10v12.5A4.5 4.5 0 0 0 6.5 27h19a4.5 4.5 0 0 0 4.5-4.5z"/><path fill="url(#)" fill-opacity=".75" d="m30 10l-13.526 7.292a1 1 0 0 1-.948 0L2 10v12.5A4.5 4.5 0 0 0 6.5 27h19a4.5 4.5 0 0 0 4.5-4.5z"/><path fill="url(#)" fill-opacity=".7" d="m30 10l-13.526 7.292a1 1 0 0 1-.948 0L2 10v12.5A4.5 4.5 0 0 0 6.5 27h19a4.5 4.5 0 0 0 4.5-4.5z"/><path fill="url(#)" d="M2 9.5A4.5 4.5 0 0 1 6.5 5h19c1.414 0 2.675.652 3.5 1.671V10h1v.59l-13.526 7.292a1 1 0 0 1-.948 0L2 10.59z"/><path fill="url(#)" fill-opacity=".3" d="M6.5 5A4.5 4.5 0 0 0 2 9.5v13A4.5 4.5 0 0 0 6.5 27h19a4.5 4.5 0 0 0 4.5-4.5V10h-1V6.671A4.5 4.5 0 0 0 25.5 5z"/><path fill="url(#)" fill-opacity=".3" d="M6.5 5A4.5 4.5 0 0 0 2 9.5v13A4.5 4.5 0 0 0 6.5 27h19a4.5 4.5 0 0 0 4.5-4.5V10h-1V6.671A4.5 4.5 0 0 0 25.5 5z"/><path fill="url(#)" fill-opacity=".3" d="M6.5 5A4.5 4.5 0 0 0 2 9.5v13A4.5 4.5 0 0 0 6.5 27h19a4.5 4.5 0 0 0 4.5-4.5V10h-1V6.671A4.5 4.5 0 0 0 25.5 5z"/><path fill="url(#)" fill-opacity=".3" d="M6.5 5A4.5 4.5 0 0 0 2 9.5v13A4.5 4.5 0 0 0 6.5 27h19a4.5 4.5 0 0 0 4.5-4.5V10h-1V6.671A4.5 4.5 0 0 0 25.5 5z"/><circle cx="24.5" cy="13" r="3" fill="url(#)"/><path fill="url(#)" d="M19.729 5A5 5 0 0 1 29.5 6.5v2.657l2.308 2.596A.75.75 0 0 1 31.299 13h-13.6a.75.75 0 0 1-.508-1.247L19.5 9.156V6.5c0-.523.08-1.026.229-1.5"/><defs><linearGradient id="" x1="19.555" x2="26.862" y1="13.332" y2="27.873" gradientUnits="userSpaceOnUse"><stop offset=".199" stop-color="#0094F0" stop-opacity="0"/><stop offset=".431" stop-color="#0094F0"/></linearGradient><linearGradient id="" x1="12" x2="4.914" y1="11.79" y2="28.328" gradientUnits="userSpaceOnUse"><stop offset=".191" stop-color="#0094F0" stop-opacity="0"/><stop offset=".431" stop-color="#0094F0"/></linearGradient><linearGradient id="" x1="23.383" x2="24.532" y1="20.142" y2="28.575" gradientUnits="userSpaceOnUse"><stop stop-color="#2764E7" stop-opacity="0"/><stop offset="1" stop-color="#2764E7"/></linearGradient><linearGradient id="" x1="20.333" x2="22.43" y1="12.088" y2="29.25" gradientUnits="userSpaceOnUse"><stop offset=".533" stop-color="#FF6CE8" stop-opacity="0"/><stop offset="1" stop-color="#FF6CE8"/></linearGradient><linearGradient id="" x1="10.318" x2="18.903" y1=".976" y2="23.436" gradientUnits="userSpaceOnUse"><stop stop-color="#6CE0FF"/><stop offset=".462" stop-color="#29C3FF"/><stop offset="1" stop-color="#4894FE"/></linearGradient><linearGradient id="" x1="24.519" x2="24.519" y1="12.499" y2="15.999" gradientUnits="userSpaceOnUse"><stop stop-color="#EB4824"/><stop offset="1" stop-color="#FFCD0F" stop-opacity=".988"/></linearGradient><linearGradient id="" x1="32.02" x2="20.9" y1="12.995" y2="1.131" gradientUnits="userSpaceOnUse"><stop stop-color="#FF6F47"/><stop offset="1" stop-color="#FFCD0F"/></linearGradient><radialGradient id="" cx="0" cy="0" r="1" gradientTransform="matrix(0 5 -5.06764 0 24.5 13)" gradientUnits="userSpaceOnUse"><stop offset=".535" stop-color="#4A43CB"/><stop offset="1" stop-color="#4A43CB" stop-opacity="0"/></radialGradient><radialGradient id="" cx="0" cy="0" r="1" gradientTransform="matrix(0 2 -9.1875 0 24.5 12.5)" gradientUnits="userSpaceOnUse"><stop offset=".535" stop-color="#4A43CB"/><stop offset="1" stop-color="#4A43CB" stop-opacity="0"/></radialGradient><radialGradient id="" cx="0" cy="0" r="1" gradientTransform="matrix(1 1.5 -1.875 1.25 19 11)" gradientUnits="userSpaceOnUse"><stop stop-color="#4A43CB"/><stop offset="1" stop-color="#4A43CB" stop-opacity="0"/></radialGradient><radialGradient id="" cx="0" cy="0" r="1" gradientTransform="rotate(90.406 9.271 15.163)scale(8.5 6.24951)" gradientUnits="userSpaceOnUse"><stop offset=".604" stop-color="#4A43CB"/><stop offset="1" stop-color="#4A43CB" stop-opacity="0"/></radialGradient></defs></g></svg>