<svg xmlns="http://www.w3.org/2000/svg" width="3em" height="3em" viewBox="0 0 20 20"><g fill="none"><path fill="#367AF2" d="M2.757 6.071A.5.5 0 0 0 2 6.5v8A2.5 2.5 0 0 0 4.5 17h11a2.5 2.5 0 0 0 2.5-2.5v-8a.5.5 0 0 0-.757-.429L10 10.417z"/><path fill="url(#)" d="M2.757 6.071A.5.5 0 0 0 2 6.5v8A2.5 2.5 0 0 0 4.5 17h11a2.5 2.5 0 0 0 2.5-2.5v-8a.5.5 0 0 0-.757-.429L10 10.417z"/><path fill="url(#)" d="M2.757 6.071A.5.5 0 0 0 2 6.5v8A2.5 2.5 0 0 0 4.5 17h11a2.5 2.5 0 0 0 2.5-2.5v-8a.5.5 0 0 0-.757-.429L10 10.417z"/><path fill="url(#)" fill-opacity=".75" d="M2.757 6.071A.5.5 0 0 0 2 6.5v8A2.5 2.5 0 0 0 4.5 17h11a2.5 2.5 0 0 0 2.5-2.5v-8a.5.5 0 0 0-.757-.429L10 10.417z"/><path fill="url(#)" fill-opacity=".7" d="M2.757 6.071A.5.5 0 0 0 2 6.5v8A2.5 2.5 0 0 0 4.5 17h11a2.5 2.5 0 0 0 2.5-2.5v-8a.5.5 0 0 0-.757-.429L10 10.417z"/><path fill="url(#)" d="M4.5 4A2.5 2.5 0 0 0 2 6.5v.6a.5.5 0 0 0 .247.431l7.5 4.4a.5.5 0 0 0 .506 0l7.5-4.4A.5.5 0 0 0 18 7.1v-.6A2.5 2.5 0 0 0 15.5 4z"/><rect width="16" height="13" x="2" y="4" fill="url(#)" rx="2.5"/><rect width="16" height="13" x="2" y="4" fill="url(#)" fill-opacity=".3" rx="2.5"/><path fill="url(#)" d="M19 5.5a4.5 4.5 0 1 0-9 0a4.5 4.5 0 0 0 9 0"/><path fill="url(#)" fill-rule="evenodd" d="M14.5 3a.5.5 0 0 1 .5.5V5h1a.5.5 0 0 1 0 1h-1.5a.5.5 0 0 1-.5-.5v-2a.5.5 0 0 1 .5-.5" clip-rule="evenodd"/><defs><linearGradient id="" x1="12.031" x2="16.923" y1="8.156" y2="16.616" gradientUnits="userSpaceOnUse"><stop offset=".228" stop-color="#0094F0" stop-opacity="0"/><stop offset=".431" stop-color="#0094F0"/></linearGradient><linearGradient id="" x1="7.714" x2="2.272" y1="7.158" y2="17.134" gradientUnits="userSpaceOnUse"><stop offset=".228" stop-color="#0094F0" stop-opacity="0"/><stop offset=".431" stop-color="#0094F0"/></linearGradient><linearGradient id="" x1="14.219" x2="15.057" y1="12.563" y2="17.991" gradientUnits="userSpaceOnUse"><stop stop-color="#2764E7" stop-opacity="0"/><stop offset="1" stop-color="#2764E7"/></linearGradient><linearGradient id="" x1="12.476" x2="14.006" y1="7.351" y2="18.41" gradientUnits="userSpaceOnUse"><stop offset=".533" stop-color="#FF6CE8" stop-opacity="0"/><stop offset="1" stop-color="#FF6CE8"/></linearGradient><linearGradient id="" x1="6.753" x2="12.394" y1="1.507" y2="15.118" gradientUnits="userSpaceOnUse"><stop stop-color="#6CE0FF"/><stop offset=".462" stop-color="#29C3FF"/><stop offset="1" stop-color="#4894FE"/></linearGradient><linearGradient id="" x1="11.25" x2="15.938" y1="-.25" y2="10" gradientUnits="userSpaceOnUse"><stop stop-color="#1EC8B0"/><stop offset="1" stop-color="#1B44B1"/></linearGradient><linearGradient id="" x1="14.219" x2="13.509" y1="3.459" y2="5.892" gradientUnits="userSpaceOnUse"><stop stop-color="#FDFDFD"/><stop offset="1" stop-color="#D1D1FF"/></linearGradient><radialGradient id="" cx="0" cy="0" r="1" gradientTransform="matrix(0 5.8125 -7.5625 0 14.563 5.563)" gradientUnits="userSpaceOnUse"><stop offset=".43" stop-color="#3BD5FF"/><stop offset="1" stop-color="#3BD5FF" stop-opacity="0"/></radialGradient><radialGradient id="" cx="0" cy="0" r="1" gradientTransform="matrix(0 5.5 -5.39062 0 14.5 6.5)" gradientUnits="userSpaceOnUse"><stop offset=".535" stop-color="#4A43CB"/><stop offset="1" stop-color="#4A43CB" stop-opacity="0"/></radialGradient></defs></g></svg>