<svg xmlns="http://www.w3.org/2000/svg" width="3em" height="3em" viewBox="0 0 24 24"><g fill="none"><path fill="url(#)" fill-rule="evenodd" d="M8 18a4 4 0 1 1 8 0a4 4 0 0 1-8 0m4-2.5a2.5 2.5 0 1 0 0 5a2.5 2.5 0 0 0 0-5" clip-rule="evenodd"/><path fill="url(#)" fill-opacity=".8" fill-rule="evenodd" d="M8 18a4 4 0 1 1 8 0a4 4 0 0 1-8 0m4-2.5a2.5 2.5 0 1 0 0 5a2.5 2.5 0 0 0 0-5" clip-rule="evenodd"/><path fill="url(#)" d="M9.076 4.318a2.325 2.325 0 0 1 3.795-.577l7.006 7.506a2.325 2.325 0 0 1-.758 3.712L6.968 20.343a1.8 1.8 0 0 1-1.964-.337L3.565 18.65a1.8 1.8 0 0 1-.387-2.091z"/><path fill="url(#)" fill-opacity=".8" d="M9.076 4.318a2.325 2.325 0 0 1 3.795-.577l7.006 7.506a2.325 2.325 0 0 1-.758 3.712L6.968 20.343a1.8 1.8 0 0 1-1.964-.337L3.565 18.65a1.8 1.8 0 0 1-.387-2.091z"/><path fill="url(#)" d="M17.212 2.237a.75.75 0 0 0-1.423-.474l-.75 2.249a.75.75 0 0 0 1.423.474zm4.568-.017a.75.75 0 0 1 0 1.06l-2.5 2.5a.75.75 0 1 1-1.06-1.06l2.5-2.5a.75.75 0 0 1 1.06 0M19 8.25a.75.75 0 0 1 .75-.75h2a.75.75 0 0 1 0 1.5h-2a.75.75 0 0 1-.75-.75"/><defs><linearGradient id="" x1="17.714" x2="14.271" y1="27.143" y2="18.684" gradientUnits="userSpaceOnUse"><stop stop-color="#43E5CA"/><stop offset="1" stop-color="#0C74A1"/></linearGradient><linearGradient id="" x1="10.286" x2="13.717" y1="15.143" y2="23.713" gradientUnits="userSpaceOnUse"><stop offset=".08" stop-color="#E362F8"/><stop offset=".656" stop-color="#96F" stop-opacity="0"/></linearGradient><linearGradient id="" x1="3.625" x2="15.699" y1="6.282" y2="18.832" gradientUnits="userSpaceOnUse"><stop stop-color="#43E5CA"/><stop offset="1" stop-color="#1384B1"/></linearGradient><linearGradient id="" x1="11.752" x2="19.408" y1="12.841" y2="25.419" gradientUnits="userSpaceOnUse"><stop stop-color="#96F" stop-opacity="0"/><stop offset=".63" stop-color="#E362F8"/></linearGradient><radialGradient id="" cx="0" cy="0" r="1" gradientTransform="matrix(16.15331 -16.69065 16.69331 16.15589 7.212 17.047)" gradientUnits="userSpaceOnUse"><stop offset=".623" stop-color="#FB5937"/><stop offset=".935" stop-color="#FFA43D"/></radialGradient></defs></g></svg>