<svg xmlns="http://www.w3.org/2000/svg" width="3em" height="3em" viewBox="0 0 20 20"><g fill="none"><path fill="#212121" fill-rule="evenodd" d="m12.335 7.17l-6 3l-.67-1.34l6-3z" clip-rule="evenodd"/><path fill="url(#)" fill-rule="evenodd" d="m12.335 7.17l-6 3l-.67-1.34l6-3z" clip-rule="evenodd"/><path fill="url(#)" fill-rule="evenodd" d="m12.335 7.17l-6 3l-.67-1.34l6-3z" clip-rule="evenodd"/><path fill="url(#)" fill-rule="evenodd" d="m12.335 7.17l-6 3l-.67-1.34l6-3z" clip-rule="evenodd"/><path fill="url(#)" fill-rule="evenodd" d="m12.335 7.17l-6 3l-.67-1.34l6-3z" clip-rule="evenodd"/><path fill="#242424" fill-rule="evenodd" d="m12.165 15.67l-5-2.5l.67-1.34l5 2.5z" clip-rule="evenodd"/><path fill="url(#)" fill-rule="evenodd" d="m12.165 15.67l-5-2.5l.67-1.34l5 2.5z" clip-rule="evenodd"/><path fill="url(#)" fill-rule="evenodd" d="m12.165 15.67l-5-2.5l.67-1.34l5 2.5z" clip-rule="evenodd"/><path fill="url(#)" fill-rule="evenodd" d="m12.165 15.67l-5-2.5l.67-1.34l5 2.5z" clip-rule="evenodd"/><circle cx="13" cy="6" r="4" fill="url(#)"/><circle cx="5.5" cy="11.5" r="3.5" fill="url(#)"/><circle cx="13.5" cy="15.5" r="2.5" fill="url(#)"/><defs><radialGradient id="" cx="0" cy="0" r="1" gradientTransform="rotate(151.687 1.987 5.645)scale(2.35056 2.51001)" gradientUnits="userSpaceOnUse"><stop offset=".563" stop-color="#70777D"/><stop offset="1" stop-color="#70777D" stop-opacity="0"/></radialGradient><radialGradient id="" cx="0" cy="0" r="1" gradientTransform="rotate(-28.313 20.03 -17.196)scale(2.35056 2.51001)" gradientUnits="userSpaceOnUse"><stop offset=".563" stop-color="#70777D"/><stop offset="1" stop-color="#70777D" stop-opacity="0"/></radialGradient><radialGradient id="" cx="0" cy="0" r="1" gradientTransform="rotate(151.687 1.987 5.645)scale(2.35056 2.51001)" gradientUnits="userSpaceOnUse"><stop offset=".563" stop-color="#70777D"/><stop offset="1" stop-color="#70777D" stop-opacity="0"/></radialGradient><radialGradient id="" cx="0" cy="0" r="1" gradientTransform="matrix(2.60262 0 0 2.94798 7.397 12.335)" gradientUnits="userSpaceOnUse"><stop offset=".563" stop-color="#70777D"/><stop offset="1" stop-color="#70777D" stop-opacity="0"/></radialGradient><radialGradient id="" cx="0" cy="0" r="1" gradientTransform="rotate(-90.884 14.028 1.121)scale(2.89471 2.77447)" gradientUnits="userSpaceOnUse"><stop offset=".563" stop-color="#70777D"/><stop offset="1" stop-color="#70777D" stop-opacity="0"/></radialGradient><linearGradient id="" x1="5.665" x2="6.746" y1="5.829" y2="10.578" gradientUnits="userSpaceOnUse"><stop stop-color="#B9C0C7"/><stop offset="1" stop-color="#70777D"/></linearGradient><linearGradient id="" x1="7.165" x2="8.157" y1="11.829" y2="16.014" gradientUnits="userSpaceOnUse"><stop stop-color="#B9C0C7"/><stop offset="1" stop-color="#70777D"/></linearGradient><linearGradient id="" x1="9.286" x2="14.807" y1="3.5" y2="9.236" gradientUnits="userSpaceOnUse"><stop stop-color="#2BDABE"/><stop offset="1" stop-color="#22918B"/></linearGradient><linearGradient id="" x1="2.25" x2="7.081" y1="9.313" y2="14.332" gradientUnits="userSpaceOnUse"><stop stop-color="#EC318F"/><stop offset="1" stop-color="#B91D6B"/></linearGradient><linearGradient id="" x1="11.781" x2="15.063" y1="12.219" y2="18.469" gradientUnits="userSpaceOnUse"><stop stop-color="#FFCD0F"/><stop offset="1" stop-color="#FE8401"/></linearGradient></defs></g></svg>