<svg xmlns="http://www.w3.org/2000/svg" width="3em" height="3em" viewBox="0 0 28 28"><g fill="none"><path fill="url(#)" d="M26 8.25a.75.75 0 0 1-.75.75H2.75a.75.75 0 0 1 0-1.5h22.5a.75.75 0 0 1 .75.75"/><path fill="url(#)" d="M26 8.25a.75.75 0 0 1-.75.75H2.75a.75.75 0 0 1 0-1.5h22.5a.75.75 0 0 1 .75.75"/><path fill="url(#)" d="M26 8.25a.75.75 0 0 1-.75.75H2.75a.75.75 0 0 1 0-1.5h22.5a.75.75 0 0 1 .75.75"/><path fill="url(#)" d="M2 19.75c0 .414.336.75.75.75h22.5a.75.75 0 0 0 0-1.5H2.75a.75.75 0 0 0-.75.75"/><path fill="url(#)" d="M2 19.75c0 .414.336.75.75.75h22.5a.75.75 0 0 0 0-1.5H2.75a.75.75 0 0 0-.75.75"/><path fill="url(#)" d="M2 19.75c0 .414.336.75.75.75h22.5a.75.75 0 0 0 0-1.5H2.75a.75.75 0 0 0-.75.75"/><circle cx="10.25" cy="19.75" r="3.75" fill="url(#)"/><circle cx="17.75" cy="8.25" r="3.75" fill="url(#)"/><defs><radialGradient id="" cx="0" cy="0" r="1" gradientTransform="matrix(5.5 -.3125 .19742 3.4746 18 8.313)" gradientUnits="userSpaceOnUse"><stop offset=".549" stop-color="#70777D"/><stop offset="1" stop-color="#70777D" stop-opacity="0"/></radialGradient><radialGradient id="" cx="0" cy="0" r="1" gradientTransform="matrix(5.5 0 0 3.47459 10 20)" gradientUnits="userSpaceOnUse"><stop offset=".549" stop-color="#70777D"/><stop offset="1" stop-color="#70777D" stop-opacity="0"/></radialGradient><radialGradient id="" cx="0" cy="0" r="1" gradientTransform="matrix(5.5 -.3125 .19742 3.4746 18 8.313)" gradientUnits="userSpaceOnUse"><stop offset=".549" stop-color="#70777D"/><stop offset="1" stop-color="#70777D" stop-opacity="0"/></radialGradient><radialGradient id="" cx="0" cy="0" r="1" gradientTransform="matrix(5.5 0 0 3.47459 10 20)" gradientUnits="userSpaceOnUse"><stop offset=".549" stop-color="#70777D"/><stop offset="1" stop-color="#70777D" stop-opacity="0"/></radialGradient><linearGradient id="" x1="27.5" x2="17.047" y1="21.8" y2="-2.535" gradientUnits="userSpaceOnUse"><stop stop-color="#8C959B"/><stop offset="1" stop-color="#A3ACB5"/></linearGradient><linearGradient id="" x1="27.5" x2="17.047" y1="21.8" y2="-2.535" gradientUnits="userSpaceOnUse"><stop stop-color="#8C959B"/><stop offset="1" stop-color="#A3ACB5"/></linearGradient><linearGradient id="" x1="7.25" x2="13.25" y1="16" y2="23.5" gradientUnits="userSpaceOnUse"><stop stop-color="#29B4FB"/><stop offset="1" stop-color="#2764E7"/></linearGradient><linearGradient id="" x1="14.75" x2="20.75" y1="4.5" y2="12" gradientUnits="userSpaceOnUse"><stop stop-color="#29B4FB"/><stop offset="1" stop-color="#2764E7"/></linearGradient></defs></g></svg>