<svg xmlns="http://www.w3.org/2000/svg" width="3em" height="3em" viewBox="0 0 32 32"><g fill="none"><path fill="url(#)" d="M2 9a1 1 0 0 1 1-1h26a1 1 0 1 1 0 2H3a1 1 0 0 1-1-1"/><path fill="url(#)" d="M2 9a1 1 0 0 1 1-1h26a1 1 0 1 1 0 2H3a1 1 0 0 1-1-1"/><path fill="url(#)" d="M2 9a1 1 0 0 1 1-1h26a1 1 0 1 1 0 2H3a1 1 0 0 1-1-1"/><path fill="url(#)" d="M30 23a1 1 0 0 0-1-1H3a1 1 0 1 0 0 2h26a1 1 0 0 0 1-1"/><path fill="url(#)" d="M30 23a1 1 0 0 0-1-1H3a1 1 0 1 0 0 2h26a1 1 0 0 0 1-1"/><path fill="url(#)" d="M30 23a1 1 0 0 0-1-1H3a1 1 0 1 0 0 2h26a1 1 0 0 0 1-1"/><path fill="url(#)" d="M16.028 23a4.5 4.5 0 1 1-9 0a4.5 4.5 0 0 1 9 0"/><path fill="url(#)" d="M24.973 9a4.5 4.5 0 1 1-9 0a4.5 4.5 0 0 1 9 0"/><defs><radialGradient id="" cx="0" cy="0" r="1" gradientTransform="matrix(6.33333 0 0 4.22088 20.667 9)" gradientUnits="userSpaceOnUse"><stop offset=".549" stop-color="#70777D"/><stop offset="1" stop-color="#70777D" stop-opacity="0"/></radialGradient><radialGradient id="" cx="0" cy="0" r="1" gradientTransform="matrix(6 0 0 3.99873 11.5 23)" gradientUnits="userSpaceOnUse"><stop offset=".549" stop-color="#70777D"/><stop offset="1" stop-color="#70777D" stop-opacity="0"/></radialGradient><radialGradient id="" cx="0" cy="0" r="1" gradientTransform="matrix(6.33333 0 0 4.22088 20.667 9)" gradientUnits="userSpaceOnUse"><stop offset=".549" stop-color="#70777D"/><stop offset="1" stop-color="#70777D" stop-opacity="0"/></radialGradient><radialGradient id="" cx="0" cy="0" r="1" gradientTransform="matrix(6 0 0 3.99873 11.5 23)" gradientUnits="userSpaceOnUse"><stop offset=".549" stop-color="#70777D"/><stop offset="1" stop-color="#70777D" stop-opacity="0"/></radialGradient><linearGradient id="" x1="31.75" x2="18.413" y1="25.6" y2="-3.834" gradientUnits="userSpaceOnUse"><stop stop-color="#8C959B"/><stop offset="1" stop-color="#A3ACB5"/></linearGradient><linearGradient id="" x1="31.75" x2="18.413" y1="25.6" y2="-3.834" gradientUnits="userSpaceOnUse"><stop stop-color="#8C959B"/><stop offset="1" stop-color="#A3ACB5"/></linearGradient><linearGradient id="" x1="7.927" x2="15.127" y1="18.5" y2="27.5" gradientUnits="userSpaceOnUse"><stop stop-color="#29B4FB"/><stop offset="1" stop-color="#2764E7"/></linearGradient><linearGradient id="" x1="16.873" x2="24.073" y1="4.5" y2="13.5" gradientUnits="userSpaceOnUse"><stop stop-color="#29B4FB"/><stop offset="1" stop-color="#2764E7"/></linearGradient></defs></g></svg>