<svg xmlns="http://www.w3.org/2000/svg" width="3em" height="3em" viewBox="0 0 48 48"><g fill="none"><path fill="url(#)" d="M44 14.25c0 .69-.56 1.25-1.25 1.25H5.25a1.25 1.25 0 1 1 0-2.5h37.5c.69 0 1.25.56 1.25 1.25"/><path fill="url(#)" d="M44 14.25c0 .69-.56 1.25-1.25 1.25H5.25a1.25 1.25 0 1 1 0-2.5h37.5c.69 0 1.25.56 1.25 1.25"/><path fill="url(#)" d="M44 14.25c0 .69-.56 1.25-1.25 1.25H5.25a1.25 1.25 0 1 1 0-2.5h37.5c.69 0 1.25.56 1.25 1.25"/><path fill="url(#)" d="M44 33.25c0 .69-.56 1.25-1.25 1.25H5.25a1.25 1.25 0 1 1 0-2.5h37.5c.69 0 1.25.56 1.25 1.25"/><path fill="url(#)" d="M44 33.25c0 .69-.56 1.25-1.25 1.25H5.25a1.25 1.25 0 1 1 0-2.5h37.5c.69 0 1.25.56 1.25 1.25"/><path fill="url(#)" d="M44 33.25c0 .69-.56 1.25-1.25 1.25H5.25a1.25 1.25 0 1 1 0-2.5h37.5c.69 0 1.25.56 1.25 1.25"/><circle cx="17" cy="33.25" r="6.25" fill="url(#)"/><circle cx="31.25" cy="14.25" r="6.25" fill="url(#)"/><defs><radialGradient id="" cx="0" cy="0" r="1" gradientTransform="matrix(8 0 0 5.01508 31.5 14.5)" gradientUnits="userSpaceOnUse"><stop offset=".549" stop-color="#70777D"/><stop offset="1" stop-color="#70777D" stop-opacity="0"/></radialGradient><radialGradient id="" cx="0" cy="0" r="1" gradientTransform="matrix(8.5 0 0 5.32852 17 33)" gradientUnits="userSpaceOnUse"><stop offset=".549" stop-color="#70777D"/><stop offset="1" stop-color="#70777D" stop-opacity="0"/></radialGradient><radialGradient id="" cx="0" cy="0" r="1" gradientTransform="matrix(8 0 0 5.01508 31.5 14.5)" gradientUnits="userSpaceOnUse"><stop offset=".549" stop-color="#70777D"/><stop offset="1" stop-color="#70777D" stop-opacity="0"/></radialGradient><radialGradient id="" cx="0" cy="0" r="1" gradientTransform="matrix(8.5 0 0 5.32852 17 33)" gradientUnits="userSpaceOnUse"><stop offset=".549" stop-color="#70777D"/><stop offset="1" stop-color="#70777D" stop-opacity="0"/></radialGradient><linearGradient id="" x1="46.5" x2="29.305" y1="36.65" y2="-3.693" gradientUnits="userSpaceOnUse"><stop stop-color="#8C959B"/><stop offset="1" stop-color="#A3ACB5"/></linearGradient><linearGradient id="" x1="46.5" x2="29.305" y1="36.65" y2="-3.693" gradientUnits="userSpaceOnUse"><stop stop-color="#8C959B"/><stop offset="1" stop-color="#A3ACB5"/></linearGradient><linearGradient id="" x1="12" x2="22" y1="27" y2="39.5" gradientUnits="userSpaceOnUse"><stop stop-color="#29B4FB"/><stop offset="1" stop-color="#2764E7"/></linearGradient><linearGradient id="" x1="26.25" x2="36.25" y1="8" y2="20.5" gradientUnits="userSpaceOnUse"><stop stop-color="#29B4FB"/><stop offset="1" stop-color="#2764E7"/></linearGradient></defs></g></svg>