<svg xmlns="http://www.w3.org/2000/svg" width="3em" height="3em" viewBox="0 0 32 32"><g fill="none"><path fill="url(#)" d="M6 3a1 1 0 0 1 1-1h18a1 1 0 0 1 1 1v12H6z"/><path fill="url(#)" d="M26 15.5H6v3.25A3.25 3.25 0 0 0 9.25 22H13v5a3 3 0 1 0 6 0v-5h3.75A3.25 3.25 0 0 0 26 18.75z"/><path fill="url(#)" d="M6 15a1 1 0 0 1 1-1h18a1 1 0 0 1 1 1v1H6z"/><path fill="url(#)" d="M17 2v5a1 1 0 1 0 2 0V2z"/><path fill="url(#)" d="M23 9V2h-2v7a1 1 0 1 0 2 0"/><defs><linearGradient id="" x1="12" x2="18.902" y1="-2.062" y2="20.028" gradientUnits="userSpaceOnUse"><stop offset=".085" stop-color="#FFCD0F"/><stop offset=".991" stop-color="#E67505"/></linearGradient><linearGradient id="" x1="6" x2="7.262" y1="10.383" y2="33.752" gradientUnits="userSpaceOnUse"><stop offset=".125" stop-color="#AC80FF"/><stop offset="1" stop-color="#5750E2"/></linearGradient><linearGradient id="" x1="10.756" x2="10.897" y1="14.266" y2="16.523" gradientUnits="userSpaceOnUse"><stop offset=".125" stop-color="#9C6CFE"/><stop offset="1" stop-color="#5750E2"/></linearGradient><linearGradient id="" x1="17" x2="23.575" y1="-.222" y2="7.877" gradientUnits="userSpaceOnUse"><stop stop-color="#FF921F"/><stop offset="1" stop-color="#EB4824"/></linearGradient><linearGradient id="" x1="17" x2="23.575" y1="-.222" y2="7.877" gradientUnits="userSpaceOnUse"><stop stop-color="#FF921F"/><stop offset="1" stop-color="#EB4824"/></linearGradient></defs></g></svg>