<svg xmlns="http://www.w3.org/2000/svg" width="3em" height="3em" viewBox="0 0 24 24"><g fill="none"><path fill="url(#)" d="M19 2.75a.75.75 0 0 0-.75-.75H5.75a.75.75 0 0 0-.75.75v9.75h14z"/><path fill="url(#)" d="M5 12v2.252a2.25 2.25 0 0 0 2.25 2.25H10V20a2 2 0 1 0 4 0v-3.498h2.75a2.25 2.25 0 0 0 2.25-2.25V12z"/><path fill="url(#)" d="M5 12a1 1 0 0 1 1-1h12a1 1 0 0 1 1 1v.5H5z"/><path fill="url(#)" d="M12.5 5.252V2H14v3.252a.75.75 0 0 1-1.5 0"/><path fill="url(#)" d="M15 6.251V2h1.5v4.251a.75.75 0 0 1-1.5 0"/><defs><linearGradient id="" x1="9.2" x2="15.448" y1="-1.281" y2="16.05" gradientUnits="userSpaceOnUse"><stop offset=".085" stop-color="#FFCD0F"/><stop offset=".991" stop-color="#E67505"/></linearGradient><linearGradient id="" x1="5" x2="5.857" y1="8.471" y2="24.589" gradientUnits="userSpaceOnUse"><stop offset=".125" stop-color="#AC80FF"/><stop offset="1" stop-color="#5750E2"/></linearGradient><linearGradient id="" x1="8.329" x2="8.443" y1="11.199" y2="12.891" gradientUnits="userSpaceOnUse"><stop offset=".125" stop-color="#9C6CFE"/><stop offset="1" stop-color="#5750E2"/></linearGradient><linearGradient id="" x1="12.5" x2="16.548" y1=".611" y2="5.929" gradientUnits="userSpaceOnUse"><stop stop-color="#FF921F"/><stop offset="1" stop-color="#EB4824"/></linearGradient><linearGradient id="" x1="12.5" x2="16.548" y1=".611" y2="5.929" gradientUnits="userSpaceOnUse"><stop stop-color="#FF921F"/><stop offset="1" stop-color="#EB4824"/></linearGradient></defs></g></svg>