<svg xmlns="http://www.w3.org/2000/svg" width="3em" height="3em" viewBox="0 0 16 16"><g fill="none"><path fill="url(#)" d="M3 1.5a.5.5 0 0 1 .5-.5h9a.5.5 0 0 1 .5.5V8H3z"/><path fill="url(#)" d="M13 7.5H3V9a2 2 0 0 0 2 2h1.5v2.5a1.5 1.5 0 0 0 3 0V11H11a2 2 0 0 0 2-2z"/><path fill="url(#)" d="M3 7.5a.5.5 0 0 1 .5-.5h9a.5.5 0 0 1 .5.5V8H3z"/><path fill="url(#)" d="M10 1v3.5a.5.5 0 0 0 1 0V1z"/><path fill="url(#)" d="M9 3.5V1H8v2.5a.5.5 0 0 0 1 0"/><defs><linearGradient id="" x1="6" x2="9.946" y1="-1.187" y2="10.541" gradientUnits="userSpaceOnUse"><stop offset=".085" stop-color="#FFCD0F"/><stop offset=".991" stop-color="#E67505"/></linearGradient><linearGradient id="" x1="3" x2="3.675" y1="4.853" y2="16.939" gradientUnits="userSpaceOnUse"><stop offset=".125" stop-color="#AC80FF"/><stop offset="1" stop-color="#5750E2"/></linearGradient><linearGradient id="" x1="5.378" x2="5.449" y1="7.133" y2="8.261" gradientUnits="userSpaceOnUse"><stop offset=".125" stop-color="#9C6CFE"/><stop offset="1" stop-color="#5750E2"/></linearGradient><linearGradient id="" x1="8" x2="11.287" y1="-.111" y2="3.938" gradientUnits="userSpaceOnUse"><stop stop-color="#FF921F"/><stop offset="1" stop-color="#EB4824"/></linearGradient><linearGradient id="" x1="8" x2="11.287" y1="-.111" y2="3.938" gradientUnits="userSpaceOnUse"><stop stop-color="#FF921F"/><stop offset="1" stop-color="#EB4824"/></linearGradient></defs></g></svg>