<svg xmlns="http://www.w3.org/2000/svg" width="3em" height="3em" viewBox="0 0 32 32"><g fill="none"><path fill="url(#)" d="M16 3a4.5 4.5 0 1 0 0 9a4.5 4.5 0 0 0 0-9"/><path fill="url(#)" d="M6 6a4 4 0 1 0 0 8a4 4 0 0 0 0-8"/><path fill="url(#)" d="M26 6a4 4 0 1 0 0 8a4 4 0 0 0 0-8"/><path fill="url(#)" d="M21.382 15.296a2.5 2.5 0 0 0-3.062 1.768l-.906 3.38a6 6 0 0 0 11.591 3.107l.906-3.381a2.5 2.5 0 0 0-1.768-3.062z"/><path fill="url(#)" d="M10.614 15.296a2.5 2.5 0 0 1 3.062 1.768l.906 3.38A6 6 0 1 1 2.99 23.552l-.906-3.381a2.5 2.5 0 0 1 1.768-3.062z"/><path fill="url(#)" d="M12.5 14a2.5 2.5 0 0 0-2.5 2.5V22a6 6 0 0 0 12 0v-5.5a2.5 2.5 0 0 0-2.5-2.5z"/><defs><radialGradient id="" cx="0" cy="0" r="1" gradientTransform="rotate(59.931 2.224 16.204)scale(5.6215)" gradientUnits="userSpaceOnUse"><stop offset=".339" stop-color="#3DCBFF"/><stop offset="1" stop-color="#14B1FF"/></radialGradient><radialGradient id="" cx="0" cy="0" r="1" gradientTransform="rotate(47.573 -7.4 9.109)scale(6.55959)" gradientUnits="userSpaceOnUse"><stop stop-color="#008CE2"/><stop offset="1" stop-color="#0068C6"/></radialGradient><radialGradient id="" cx="0" cy="0" r="1" gradientTransform="rotate(78.837 7.344 19.156)scale(5.86806)" gradientUnits="userSpaceOnUse"><stop stop-color="#0078D4"/><stop offset="1" stop-color="#004695"/></radialGradient><radialGradient id="" cx="0" cy="0" r="1" gradientTransform="rotate(78.837 -.66 22.507)scale(9.38062)" gradientUnits="userSpaceOnUse"><stop stop-color="#0078D4"/><stop offset="1" stop-color="#004695"/></radialGradient><radialGradient id="" cx="0" cy="0" r="1" gradientTransform="rotate(61.056 -10.838 12.257)scale(13.9298 10.0267)" gradientUnits="userSpaceOnUse"><stop stop-color="#008CE2"/><stop offset="1" stop-color="#0068C6"/></radialGradient><radialGradient id="" cx="0" cy="0" r="1" gradientTransform="rotate(63.608 -7.83 21.427)scale(8.44834 7.75814)" gradientUnits="userSpaceOnUse"><stop offset=".339" stop-color="#3DCBFF"/><stop offset="1" stop-color="#14B1FF"/></radialGradient></defs></g></svg>