<svg xmlns="http://www.w3.org/2000/svg" width="3em" height="3em" viewBox="0 0 16 16"><g fill="none"><path fill="url(#)" d="M9.5 10.5A1.5 1.5 0 0 0 8 9H3a1.5 1.5 0 0 0-1.5 1.5v.075s0 2.925 4 2.925c3.812 0 3.991-2.656 4-2.906z"/><path fill="url(#)" d="M9.5 10.5A1.5 1.5 0 0 0 8 9H3a1.5 1.5 0 0 0-1.5 1.5v.075s0 2.925 4 2.925c3.812 0 3.991-2.656 4-2.906z"/><path fill="url(#)" d="M11.5 8a2 2 0 1 0 0-4a2 2 0 0 0 0 4"/><path fill="url(#)" d="M8 5.5a2.5 2.5 0 1 1-5 0a2.5 2.5 0 0 1 5 0"/><path fill="url(#)" d="M7 9a2 2 0 0 1 2-2h5a2 2 0 0 1 2 2v5a2 2 0 0 1-2 2H9a2 2 0 0 1-2-2z"/><path fill="url(#)" d="M9.5 9a.5.5 0 0 0 0 1h4a.5.5 0 0 0 0-1zm0 2a.5.5 0 0 0 0 1h4a.5.5 0 0 0 0-1zm0 2a.5.5 0 0 0 0 1h4a.5.5 0 0 0 0-1z"/><defs><linearGradient id="" x1="3.402" x2="5" y1="9.598" y2="14.134" gradientUnits="userSpaceOnUse"><stop offset=".125" stop-color="#BD96FF"/><stop offset="1" stop-color="#9C6CFE"/></linearGradient><linearGradient id="" x1="5.5" x2="7.75" y1="8.464" y2="15.939" gradientUnits="userSpaceOnUse"><stop stop-color="#885EDB" stop-opacity="0"/><stop offset="1" stop-color="#E362F8"/></linearGradient><linearGradient id="" x1="10.451" x2="12.49" y1="4.532" y2="7.787" gradientUnits="userSpaceOnUse"><stop offset=".125" stop-color="#9C6CFE"/><stop offset="1" stop-color="#7A41DC"/></linearGradient><linearGradient id="" x1="4.189" x2="6.737" y1="3.665" y2="7.734" gradientUnits="userSpaceOnUse"><stop offset=".125" stop-color="#BD96FF"/><stop offset="1" stop-color="#9C6CFE"/></linearGradient><linearGradient id="" x1="10.214" x2="13.662" y1="7" y2="15.515" gradientUnits="userSpaceOnUse"><stop stop-color="#B3E0FF"/><stop offset="1" stop-color="#8CD0FF"/></linearGradient><linearGradient id="" x1="6.5" x2="14" y1="5.5" y2="14" gradientUnits="userSpaceOnUse"><stop stop-color="#0FAFFF"/><stop offset="1" stop-color="#2764E7"/></linearGradient></defs></g></svg>