<svg xmlns="http://www.w3.org/2000/svg" width="3em" height="3em" viewBox="0 0 28 28"><g fill="none"><path fill="url(#)" d="M5.5 6a3.5 3.5 0 1 0 0 7a3.5 3.5 0 0 0 0-7"/><path fill="url(#)" d="M22.5 6a3.5 3.5 0 1 0 0 7a3.5 3.5 0 0 0 0-7"/><path fill="url(#)" d="M14 3a4 4 0 1 0 0 8a4 4 0 0 0 0-8"/><path fill="url(#)" d="M18.428 14.33a1.75 1.75 0 0 0-2.144 1.238l-.84 3.139a5 5 0 0 0 9.658 2.588l.841-3.14a1.75 1.75 0 0 0-1.237-2.142z"/><path fill="url(#)" d="M9.576 14.33a1.75 1.75 0 0 1 2.143 1.238l.841 3.139a5 5 0 0 1-9.659 2.588l-.84-3.14a1.75 1.75 0 0 1 1.237-2.142z"/><path fill="url(#)" d="M10.75 13A1.75 1.75 0 0 0 9 14.75V20a5 5 0 0 0 10 0v-5.25A1.75 1.75 0 0 0 17.25 13z"/><defs><radialGradient id="" cx="0" cy="0" r="1" gradientTransform="rotate(47.573 -7.2 8.629)scale(5.73964)" gradientUnits="userSpaceOnUse"><stop stop-color="#008CE2"/><stop offset="1" stop-color="#0068C6"/></radialGradient><radialGradient id="" cx="0" cy="0" r="1" gradientTransform="rotate(78.837 5.844 16.985)scale(5.13456)" gradientUnits="userSpaceOnUse"><stop stop-color="#0078D4"/><stop offset="1" stop-color="#004695"/></radialGradient><radialGradient id="" cx="0" cy="0" r="1" gradientTransform="rotate(59.931 1.577 14.377)scale(4.99689)" gradientUnits="userSpaceOnUse"><stop offset=".339" stop-color="#3DCBFF"/><stop offset="1" stop-color="#14B1FF"/></radialGradient><radialGradient id="" cx="0" cy="0" r="1" gradientTransform="rotate(78.837 -1.054 20.146)scale(7.87208)" gradientUnits="userSpaceOnUse"><stop stop-color="#0078D4"/><stop offset="1" stop-color="#004695"/></radialGradient><radialGradient id="" cx="0" cy="0" r="1" gradientTransform="rotate(61.056 -10.21 11.312)scale(11.6897 8.41429)" gradientUnits="userSpaceOnUse"><stop stop-color="#008CE2"/><stop offset="1" stop-color="#0068C6"/></radialGradient><radialGradient id="" cx="0" cy="0" r="1" gradientTransform="matrix(3.12953 6.48666 -5.85464 2.82461 13.037 17.213)" gradientUnits="userSpaceOnUse"><stop offset=".339" stop-color="#3DCBFF"/><stop offset="1" stop-color="#14B1FF"/></radialGradient></defs></g></svg>