<svg xmlns="http://www.w3.org/2000/svg" width="3em" height="3em" viewBox="0 0 24 24"><g fill="none"><path fill="url(#)" d="M12 3a3.25 3.25 0 1 0 0 6.5A3.25 3.25 0 0 0 12 3"/><path fill="url(#)" d="M5 5a3 3 0 1 0 0 6a3 3 0 0 0 0-6"/><path fill="url(#)" d="M19 5a3 3 0 1 0 0 6a3 3 0 0 0 0-6"/><path fill="url(#)" d="M15.39 11.442a1.75 1.75 0 0 0-2.143 1.237l-.712 2.656a4.5 4.5 0 0 0 8.694 2.33l.711-2.657a1.75 1.75 0 0 0-1.237-2.143z"/><path fill="url(#)" d="M8.61 11.442a1.75 1.75 0 0 1 2.142 1.237l.712 2.656a4.5 4.5 0 0 1-8.693 2.33l-.712-2.657a1.75 1.75 0 0 1 1.238-2.143z"/><path fill="url(#)" d="M9.25 11a1.75 1.75 0 0 0-1.75 1.75v3.75a4.5 4.5 0 1 0 9 0v-3.75A1.75 1.75 0 0 0 14.75 11z"/><defs><radialGradient id="" cx="0" cy="0" r="1" gradientTransform="rotate(59.931 1.106 12.505)scale(4.05997)" gradientUnits="userSpaceOnUse"><stop offset=".339" stop-color="#3DCBFF"/><stop offset="1" stop-color="#14B1FF"/></radialGradient><radialGradient id="" cx="0" cy="0" r="1" gradientTransform="rotate(47.573 -5.867 7.649)scale(4.91969)" gradientUnits="userSpaceOnUse"><stop stop-color="#008CE2"/><stop offset="1" stop-color="#0068C6"/></radialGradient><radialGradient id="" cx="0" cy="0" r="1" gradientTransform="rotate(78.837 4.954 14.313)scale(4.40105)" gradientUnits="userSpaceOnUse"><stop stop-color="#0078D4"/><stop offset="1" stop-color="#004695"/></radialGradient><radialGradient id="" cx="0" cy="0" r="1" gradientTransform="rotate(78.837 -.741 16.557)scale(7.05605)" gradientUnits="userSpaceOnUse"><stop stop-color="#0078D4"/><stop offset="1" stop-color="#004695"/></radialGradient><radialGradient id="" cx="0" cy="0" r="1" gradientTransform="matrix(5.07088 9.16923 -6.6 3.65001 4.357 11.832)" gradientUnits="userSpaceOnUse"><stop stop-color="#008CE2"/><stop offset="1" stop-color="#0068C6"/></radialGradient><radialGradient id="" cx="0" cy="0" r="1" gradientTransform="matrix(2.81659 5.40554 -5.10866 2.6619 11.133 14.51)" gradientUnits="userSpaceOnUse"><stop offset=".339" stop-color="#3DCBFF"/><stop offset="1" stop-color="#14B1FF"/></radialGradient></defs></g></svg>