<svg xmlns="http://www.w3.org/2000/svg" width="3em" height="3em" viewBox="0 0 28 28"><g fill="none"><path fill="url(#)" d="M2 18.25A2.25 2.25 0 0 1 4.25 16h10.5A2.25 2.25 0 0 1 17 18.25v.5S17 24 9.5 24S2 18.75 2 18.75z"/><path fill="url(#)" d="M2 18.25A2.25 2.25 0 0 1 4.25 16h10.5A2.25 2.25 0 0 1 17 18.25v.5S17 24 9.5 24S2 18.75 2 18.75z"/><path fill="url(#)" fill-opacity=".75" d="M2 18.25A2.25 2.25 0 0 1 4.25 16h10.5A2.25 2.25 0 0 1 17 18.25v.5S17 24 9.5 24S2 18.75 2 18.75z"/><path fill="url(#)" d="M23.5 10.5a3.5 3.5 0 1 1-7 0a3.5 3.5 0 0 1 7 0"/><path fill="url(#)" d="M9.5 14a4.5 4.5 0 1 0 0-9a4.5 4.5 0 0 0 0 9"/><path fill="url(#)" d="M14 17a2 2 0 0 1 2-2h9a2 2 0 0 1 2 2v8a2 2 0 0 1-2 2h-9a2 2 0 0 1-2-2z"/><path fill="url(#)" d="M16.75 17a.75.75 0 0 0 0 1.5h7.5a.75.75 0 0 0 0-1.5zm0 3.25a.75.75 0 0 0 0 1.5h7.5a.75.75 0 0 0 0-1.5zm0 3.25a.75.75 0 0 0 0 1.5h7.5a.75.75 0 0 0 0-1.5z"/><defs><linearGradient id="" x1="5.567" x2="8.291" y1="17.064" y2="25.217" gradientUnits="userSpaceOnUse"><stop offset=".125" stop-color="#BD96FF"/><stop offset="1" stop-color="#9C6CFE"/></linearGradient><linearGradient id="" x1="9.5" x2="13.325" y1="15.048" y2="28.448" gradientUnits="userSpaceOnUse"><stop stop-color="#885EDB" stop-opacity="0"/><stop offset="1" stop-color="#E362F8"/></linearGradient><linearGradient id="" x1="18" x2="12" y1="21" y2="21" gradientUnits="userSpaceOnUse"><stop stop-color="#0A1852" stop-opacity=".75"/><stop offset="1" stop-color="#0A1852" stop-opacity="0"/></linearGradient><linearGradient id="" x1="18.165" x2="21.732" y1="7.931" y2="13.627" gradientUnits="userSpaceOnUse"><stop offset=".125" stop-color="#9C6CFE"/><stop offset="1" stop-color="#7A41DC"/></linearGradient><linearGradient id="" x1="7.14" x2="11.727" y1="6.196" y2="13.52" gradientUnits="userSpaceOnUse"><stop offset=".125" stop-color="#BD96FF"/><stop offset="1" stop-color="#9C6CFE"/></linearGradient><linearGradient id="" x1="18.643" x2="22.977" y1="15" y2="26.595" gradientUnits="userSpaceOnUse"><stop stop-color="#B3E0FF"/><stop offset="1" stop-color="#8CD0FF"/></linearGradient><linearGradient id="" x1="11.501" x2="23.246" y1="11.4" y2="26.376" gradientUnits="userSpaceOnUse"><stop stop-color="#0FAFFF"/><stop offset="1" stop-color="#2764E7"/></linearGradient></defs></g></svg>