<svg xmlns="http://www.w3.org/2000/svg" width="3em" height="3em" viewBox="0 0 20 20"><g fill="none"><path fill="url(#)" d="M8 4a2 2 0 1 1 4 0v12a2 2 0 1 1-4 0z"/><path fill="url(#)" d="M14 8a2 2 0 1 1 4 0v8a2 2 0 1 1-4 0z"/><path fill="url(#)" d="M2 12a2 2 0 1 1 4 0v4a2 2 0 1 1-4 0z"/><defs><linearGradient id="" x1="11.667" x2="8.903" y1="15.067" y2="1.966" gradientUnits="userSpaceOnUse"><stop stop-color="#6D37CD"/><stop offset="1" stop-color="#EA71EF"/></linearGradient><linearGradient id="" x1="17.667" x2="16.082" y1="15.8" y2="5.788" gradientUnits="userSpaceOnUse"><stop stop-color="#E23CB4"/><stop offset="1" stop-color="#EA71EF"/></linearGradient><linearGradient id="" x1="2.5" x2="10.148" y1="10.333" y2="14.857" gradientUnits="userSpaceOnUse"><stop stop-color="#36DFF1"/><stop offset="1" stop-color="#0078D4"/></linearGradient></defs></g></svg>