<svg xmlns="http://www.w3.org/2000/svg" width="3em" height="3em" viewBox="0 0 20 20"><g fill="none"><path fill="url(#)" d="M5 3a2 2 0 0 0-2 2v9a3 3 0 0 0 3 3h8V5a2 2 0 0 0-2-2z"/><path fill="url(#)" d="M6 6.5a.5.5 0 0 1 .5-.5h4a.5.5 0 0 1 0 1h-4a.5.5 0 0 1-.5-.5"/><path fill="url(#)" d="M6 9.5a.5.5 0 0 1 .5-.5h4a.5.5 0 0 1 0 1h-4a.5.5 0 0 1-.5-.5"/><path fill="url(#)" d="M6 12.5a.5.5 0 0 1 .5-.5h2a.5.5 0 0 1 0 1h-2a.5.5 0 0 1-.5-.5"/><path fill="url(#)" d="M14 12h3v2a3 3 0 0 1-3 3z"/><defs><linearGradient id="" x1="5" x2="9.5" y1="3.5" y2="17" gradientUnits="userSpaceOnUse"><stop stop-color="#FFE06B"/><stop offset=".645" stop-color="#FFB357"/><stop offset="1" stop-color="#FF921F"/></linearGradient><linearGradient id="" x1="5" x2="12" y1="6" y2="12" gradientUnits="userSpaceOnUse"><stop stop-color="#FF921F"/><stop offset="1" stop-color="#CA6407"/></linearGradient><linearGradient id="" x1="5" x2="12" y1="6" y2="12" gradientUnits="userSpaceOnUse"><stop stop-color="#FF921F"/><stop offset="1" stop-color="#CA6407"/></linearGradient><linearGradient id="" x1="5" x2="12" y1="6" y2="12" gradientUnits="userSpaceOnUse"><stop stop-color="#FF921F"/><stop offset="1" stop-color="#CA6407"/></linearGradient><linearGradient id="" x1="17" x2="14.087" y1="14" y2="14.504" gradientUnits="userSpaceOnUse"><stop stop-color="#FE8401"/><stop offset="1" stop-color="#CA6407"/></linearGradient></defs></g></svg>