<svg xmlns="http://www.w3.org/2000/svg" width="3em" height="3em" viewBox="0 0 32 32"><g fill="none"><path fill="url(#)" d="m4.663 20l1.286-3.999l-1.286-3.999l16.092 3.016c1.088.204 1.088 1.762 0 1.966z"/><path fill="url(#)" d="M4.176 2.164c-1.188-.594-2.505.536-2.099 1.8l2.858 8.884a1 1 0 0 0 .787.68l11.869 1.979c.557.092.557.893 0 .986L5.723 18.471a1 1 0 0 0-.788.68l-2.858 8.886c-.407 1.265.91 2.395 2.099 1.8L29.17 17.343c1.106-.552 1.106-2.13 0-2.683z"/><path fill="url(#)" d="M4.176 2.164c-1.188-.594-2.505.536-2.099 1.8l2.858 8.884a1 1 0 0 0 .787.68l11.869 1.979c.557.092.557.893 0 .986L5.723 18.471a1 1 0 0 0-.788.68l-2.858 8.886c-.407 1.265.91 2.395 2.099 1.8L29.17 17.343c1.106-.552 1.106-2.13 0-2.683z"/><path fill="url(#)" fill-opacity=".3" d="M4.176 2.164c-1.188-.594-2.505.536-2.099 1.8l2.858 8.884a1 1 0 0 0 .787.68l11.869 1.979c.557.092.557.893 0 .986L5.723 18.471a1 1 0 0 0-.788.68l-2.858 8.886c-.407 1.265.91 2.395 2.099 1.8L29.17 17.343c1.106-.552 1.106-2.13 0-2.683z"/><path fill="url(#)" fill-rule="evenodd" d="M15.5 23a7.5 7.5 0 1 0 15 0a7.5 7.5 0 0 0-15 0" clip-rule="evenodd"/><path fill="url(#)" fill-rule="evenodd" d="M23.5 18.75a.75.75 0 0 0-1.5 0v4.5c0 .414.336.75.75.75h3.5a.75.75 0 0 0 0-1.5H23.5z" clip-rule="evenodd"/><defs><linearGradient id="" x1="2.002" x2="25.983" y1="-9.374" y2="22.488" gradientUnits="userSpaceOnUse"><stop stop-color="#3BD5FF"/><stop offset="1" stop-color="#0094F0"/></linearGradient><linearGradient id="" x1="16.001" x2="23.283" y1="9.548" y2="29.249" gradientUnits="userSpaceOnUse"><stop offset=".125" stop-color="#DCF8FF" stop-opacity="0"/><stop offset=".769" stop-color="#FF6CE8" stop-opacity=".7"/></linearGradient><linearGradient id="" x1="18" x2="25.5" y1="14.667" y2="31.333" gradientUnits="userSpaceOnUse"><stop stop-color="#43E5CA"/><stop offset="1" stop-color="#2764E7"/></linearGradient><linearGradient id="" x1="22.438" x2="21.018" y1="18.918" y2="23.784" gradientUnits="userSpaceOnUse"><stop stop-color="#FDFDFD"/><stop offset="1" stop-color="#D1D1FF"/></linearGradient><radialGradient id="" cx="0" cy="0" r="1" gradientTransform="matrix(13.9839 0 0 1.81128 .016 16.001)" gradientUnits="userSpaceOnUse"><stop stop-color="#0094F0"/><stop offset="1" stop-color="#2052CB"/></radialGradient><radialGradient id="" cx="0" cy="0" r="1" gradientTransform="matrix(0 10 -9.49405 0 23 24.5)" gradientUnits="userSpaceOnUse"><stop offset=".711" stop-color="#1B44B1"/><stop offset="1" stop-color="#1B44B1" stop-opacity="0"/></radialGradient></defs></g></svg>