<svg xmlns="http://www.w3.org/2000/svg" width="3em" height="3em" viewBox="0 0 24 24"><g fill="none"><path fill="url(#)" d="M17.75 3A3.25 3.25 0 0 1 21 6.25v11.5A3.25 3.25 0 0 1 17.75 21H6.25A3.25 3.25 0 0 1 3 17.75V6.25A3.25 3.25 0 0 1 6.25 3z"/><path fill="url(#)" d="M11.75 6a.75.75 0 0 0-.75.75v6c0 .414.336.75.75.75h4.498a.75.75 0 0 0 0-1.5H12.5V6.75a.75.75 0 0 0-.75-.75"/><defs><linearGradient id="" x1="6" x2="15" y1="2" y2="22" gradientUnits="userSpaceOnUse"><stop stop-color="#1EC8B0"/><stop offset="1" stop-color="#2764E7"/></linearGradient><linearGradient id="" x1="10.906" x2="8.694" y1="6.563" y2="13.988" gradientUnits="userSpaceOnUse"><stop stop-color="#FDFDFD"/><stop offset="1" stop-color="#DEDEFF"/></linearGradient></defs></g></svg>