<svg xmlns="http://www.w3.org/2000/svg" width="3em" height="3em" viewBox="0 0 32 32"><g fill="none"><path fill="url(#)" d="M17.348 3.84c-.549-1.12-2.144-1.12-2.693 0l-3.2 6.52l-7.17 1.05c-1.228.179-1.72 1.686-.834 2.555l5.196 5.096l-1.225 7.183c-.209 1.227 1.08 2.16 2.18 1.578l4.648-2.458l9.314-5.08l-.208-1.223l5.195-5.096c.886-.87.394-2.376-.833-2.556l-7.171-1.048z"/><path fill="url(#)" d="M17.348 3.84c-.549-1.12-2.144-1.12-2.693 0l-3.2 6.52l-7.17 1.05c-1.228.179-1.72 1.686-.834 2.555l5.196 5.096l-1.225 7.183c-.209 1.227 1.08 2.16 2.18 1.578l4.648-2.458l9.314-5.08l-.208-1.223l5.195-5.096c.886-.87.394-2.376-.833-2.556l-7.171-1.048z"/><path fill="url(#)" fill-opacity=".4" d="M17.348 3.84c-.549-1.12-2.144-1.12-2.693 0l-3.2 6.52l-7.17 1.05c-1.228.179-1.72 1.686-.834 2.555l5.196 5.096l-1.225 7.183c-.209 1.227 1.08 2.16 2.18 1.578l4.648-2.458l9.314-5.08l-.208-1.223l5.195-5.096c.886-.87.394-2.376-.833-2.556l-7.171-1.048z"/><path fill="url(#)" fill-opacity=".4" d="M17.348 3.84c-.549-1.12-2.144-1.12-2.693 0l-3.2 6.52l-7.17 1.05c-1.228.179-1.72 1.686-.834 2.555l5.196 5.096l-1.225 7.183c-.209 1.227 1.08 2.16 2.18 1.578l4.648-2.458l9.314-5.08l-.208-1.223l5.195-5.096c.886-.87.394-2.376-.833-2.556l-7.171-1.048z"/><path fill="url(#)" fill-opacity=".4" d="M17.348 3.84c-.549-1.12-2.144-1.12-2.693 0l-3.2 6.52l-7.17 1.05c-1.228.179-1.72 1.686-.834 2.555l5.196 5.096l-1.225 7.183c-.209 1.227 1.08 2.16 2.18 1.578l4.648-2.458l9.314-5.08l-.208-1.223l5.195-5.096c.886-.87.394-2.376-.833-2.556l-7.171-1.048z"/><path fill="#212121" fill-rule="evenodd" d="M17.226 20.964a1.52 1.52 0 0 0 1.117-1.928l-.467-1.513a7.5 7.5 0 0 1 2.737-1.635l1.236 1.272a1.53 1.53 0 0 0 2.193 0l1.26-1.3a7.5 7.5 0 0 1 2.75 1.596l-.496 1.724a1.52 1.52 0 0 0 1.096 1.893l1.697.423a7.5 7.5 0 0 1-.04 3.189l-1.535.351a1.52 1.52 0 0 0-1.117 1.927l.467 1.514a7.5 7.5 0 0 1-2.737 1.635l-1.236-1.273a1.53 1.53 0 0 0-2.193.001l-1.26 1.3a7.5 7.5 0 0 1-2.75-1.597l.496-1.724a1.52 1.52 0 0 0-1.096-1.892l-1.697-.424a7.5 7.5 0 0 1 .04-3.188zM23 25a2 2 0 1 0 0-4a2 2 0 0 0 0 4" clip-rule="evenodd"/><path fill="url(#)" fill-rule="evenodd" d="M17.226 20.964a1.52 1.52 0 0 0 1.117-1.928l-.467-1.513a7.5 7.5 0 0 1 2.737-1.635l1.236 1.272a1.53 1.53 0 0 0 2.193 0l1.26-1.3a7.5 7.5 0 0 1 2.75 1.596l-.496 1.724a1.52 1.52 0 0 0 1.096 1.893l1.697.423a7.5 7.5 0 0 1-.04 3.189l-1.535.351a1.52 1.52 0 0 0-1.117 1.927l.467 1.514a7.5 7.5 0 0 1-2.737 1.635l-1.236-1.273a1.53 1.53 0 0 0-2.193.001l-1.26 1.3a7.5 7.5 0 0 1-2.75-1.597l.496-1.724a1.52 1.52 0 0 0-1.096-1.892l-1.697-.424a7.5 7.5 0 0 1 .04-3.188zM23 25a2 2 0 1 0 0-4a2 2 0 0 0 0 4" clip-rule="evenodd"/><defs><radialGradient id="" cx="0" cy="0" r="1" gradientTransform="rotate(-174.264 12.29 12.063)scale(16.3311 19.63)" gradientUnits="userSpaceOnUse"><stop offset=".198" stop-color="#EB4824" stop-opacity=".6"/><stop offset=".701" stop-color="#EB4824" stop-opacity="0"/></radialGradient><radialGradient id="" cx="0" cy="0" r="1" gradientTransform="matrix(-9.5 0 0 -4.17464 23 23)" gradientUnits="userSpaceOnUse"><stop offset=".589" stop-color="#B03111"/><stop offset="1" stop-color="#B03111" stop-opacity="0"/></radialGradient><radialGradient id="" cx="0" cy="0" r="1" gradientTransform="rotate(-124.103 17.716 5.238)scale(9.4737 4.50623)" gradientUnits="userSpaceOnUse"><stop offset=".628" stop-color="#B03111"/><stop offset="1" stop-color="#B03111" stop-opacity="0"/></radialGradient><radialGradient id="" cx="0" cy="0" r="1" gradientTransform="matrix(5.04468 -8.55262 4.06781 2.39936 23.312 22.845)" gradientUnits="userSpaceOnUse"><stop offset=".671" stop-color="#B03111"/><stop offset=".972" stop-color="#B03111" stop-opacity="0"/></radialGradient><linearGradient id="" x1="28.999" x2="2.157" y1="28.557" y2="3.34" gradientUnits="userSpaceOnUse"><stop stop-color="#FF6F47"/><stop offset="1" stop-color="#FFCD0F"/></linearGradient><linearGradient id="" x1="26.749" x2="19.088" y1="29.587" y2="16.513" gradientUnits="userSpaceOnUse"><stop stop-color="#70777D"/><stop offset="1" stop-color="#B9C0C7"/></linearGradient></defs></g></svg>