<svg xmlns="http://www.w3.org/2000/svg" width="3em" height="3em" viewBox="0 0 16 16"><g fill="none"><path fill="url(#)" d="M4.5 2A2.5 2.5 0 0 0 2 4.5v7A2.5 2.5 0 0 0 4.5 14h7a2.5 2.5 0 0 0 2.5-2.5v-7A2.5 2.5 0 0 0 11.5 2z"/><path fill="url(#)" d="M5.5 5A.75.75 0 1 0 4 5a.75.75 0 0 0 1.5 0m0 3A.75.75 0 1 0 4 8a.75.75 0 0 0 1.5 0m-.75 3.75a.75.75 0 1 0 0-1.5a.75.75 0 0 0 0 1.5M6.5 5a.5.5 0 0 0 .5.5h4.5a.5.5 0 0 0 0-1H7a.5.5 0 0 0-.5.5M7 7.5a.5.5 0 0 0 0 1h4.5a.5.5 0 0 0 0-1zM6.5 11a.5.5 0 0 0 .5.5h4.5a.5.5 0 0 0 0-1H7a.5.5 0 0 0-.5.5"/><defs><linearGradient id="" x1="2.429" x2="10.71" y1="4.25" y2="12.854" gradientUnits="userSpaceOnUse"><stop stop-color="#0FAFFF"/><stop offset="1" stop-color="#2764E7"/></linearGradient><linearGradient id="" x1="5.538" x2="10.797" y1="4.827" y2="18.417" gradientUnits="userSpaceOnUse"><stop stop-color="#fff"/><stop offset="1" stop-color="#B3E0FF"/></linearGradient></defs></g></svg>