<svg xmlns="http://www.w3.org/2000/svg" width="3em" height="3em" viewBox="0 0 20 20"><g fill="none"><path fill="url(#)" d="M5.75 3h8.5A2.75 2.75 0 0 1 17 5.75v8.5A2.75 2.75 0 0 1 14.25 17h-8.5A2.75 2.75 0 0 1 3 14.25v-8.5A2.75 2.75 0 0 1 5.75 3"/><path fill="url(#)" d="M6.75 8a.75.75 0 1 0 0-1.5a.75.75 0 0 0 0 1.5m.75 2.25a.75.75 0 1 1-1.5 0a.75.75 0 0 1 1.5 0M6.75 14a.75.75 0 1 0 0-1.5a.75.75 0 0 0 0 1.5M9 7.5a.5.5 0 0 1 .5-.5h4a.5.5 0 0 1 0 1h-4a.5.5 0 0 1-.5-.5m.5 2.5a.5.5 0 0 0 0 1h4a.5.5 0 0 0 0-1zM9 13.5a.5.5 0 0 1 .5-.5h4a.5.5 0 0 1 0 1h-4a.5.5 0 0 1-.5-.5"/><defs><linearGradient id="" x1="3.5" x2="13.162" y1="5.625" y2="15.663" gradientUnits="userSpaceOnUse"><stop stop-color="#0FAFFF"/><stop offset="1" stop-color="#2764E7"/></linearGradient><linearGradient id="" x1="7.538" x2="12.797" y1="7.077" y2="20.667" gradientUnits="userSpaceOnUse"><stop stop-color="#fff"/><stop offset="1" stop-color="#B3E0FF"/></linearGradient></defs></g></svg>