<svg xmlns="http://www.w3.org/2000/svg" width="3em" height="3em" viewBox="0 0 24 24"><g fill="none"><path fill="url(#)" d="M7 7.5V6.252a2.25 2.25 0 0 1 2.25-2.25h5.5A2.25 2.25 0 0 1 17 6.252V7.5h-1.5V6.252a.75.75 0 0 0-.75-.75h-5.5a.75.75 0 0 0-.75.75V7.5z"/><path fill="url(#)" d="M4.25 19.997A2.25 2.25 0 0 1 2 17.747V11.5h20v6.247a2.25 2.25 0 0 1-2.25 2.25z"/><path fill="url(#)" d="M2 9.25A2.25 2.25 0 0 1 4.25 7h15.5A2.25 2.25 0 0 1 22 9.25V12H2z"/><path fill="url(#)" d="M16.75 10a.75.75 0 0 1 .75.75v2.5a.75.75 0 0 1-1.5 0v-2.5a.75.75 0 0 1 .75-.75"/><path fill="url(#)" d="M7.25 10a.75.75 0 0 1 .75.75v2.5a.75.75 0 0 1-1.5 0v-2.5a.75.75 0 0 1 .75-.75"/><defs><linearGradient id="" x1="3.429" x2="3.84" y1="4.002" y2="7.069" gradientUnits="userSpaceOnUse"><stop stop-color="#B9C0C7"/><stop offset="1" stop-color="#70777D"/></linearGradient><linearGradient id="" x1=".75" x2="2.577" y1="8.314" y2="28.314" gradientUnits="userSpaceOnUse"><stop offset=".125" stop-color="#F97DBD"/><stop offset="1" stop-color="#D7257D"/></linearGradient><linearGradient id="" x1=".75" x2="1.128" y1="5.125" y2="17.094" gradientUnits="userSpaceOnUse"><stop stop-color="#F97DBD"/><stop offset="1" stop-color="#D7257D"/></linearGradient><linearGradient id="" x1="2.571" x2="3.327" y1="10" y2="14.331" gradientUnits="userSpaceOnUse"><stop stop-color="#EFEFEF"/><stop offset="1" stop-color="#DADADA"/></linearGradient><linearGradient id="" x1="2.571" x2="3.327" y1="10" y2="14.331" gradientUnits="userSpaceOnUse"><stop stop-color="#EFEFEF"/><stop offset="1" stop-color="#DADADA"/></linearGradient></defs></g></svg>