<svg xmlns="http://www.w3.org/2000/svg" width="3em" height="3em" viewBox="0 0 28 28"><g fill="none"><path fill="url(#)" d="M8.002 8.5V6.248a2.25 2.25 0 0 1 2.25-2.25h7.501a2.25 2.25 0 0 1 2.25 2.25V8.5h-1.5V6.248a.75.75 0 0 0-.75-.75h-7.501a.75.75 0 0 0-.75.75V8.5z"/><path fill="url(#)" d="M4.25 23.996A2.25 2.25 0 0 1 2 21.746V13.5h24.004v8.246a2.25 2.25 0 0 1-2.25 2.25z"/><path fill="url(#)" d="M2 10.246a2.25 2.25 0 0 1 2.25-2.25h19.504a2.25 2.25 0 0 1 2.25 2.25V14H2z"/><path fill="url(#)" d="M19.756 12a.75.75 0 0 1 .75.75v3a.75.75 0 0 1-1.5 0v-3a.75.75 0 0 1 .75-.75"/><path fill="url(#)" d="M8.256 12a.75.75 0 0 1 .75.75v3a.75.75 0 0 1-1.5 0v-3a.75.75 0 0 1 .75-.75"/><defs><linearGradient id="" x1="3.716" x2="4.283" y1="3.998" y2="7.934" gradientUnits="userSpaceOnUse"><stop stop-color="#B9C0C7"/><stop offset="1" stop-color="#70777D"/></linearGradient><linearGradient id="" x1=".5" x2="2.403" y1="10.939" y2="33.316" gradientUnits="userSpaceOnUse"><stop offset=".125" stop-color="#F97DBD"/><stop offset="1" stop-color="#D7257D"/></linearGradient><linearGradient id="" x1=".5" x2="1.118" y1="5.369" y2="22.131" gradientUnits="userSpaceOnUse"><stop stop-color="#F97DBD"/><stop offset="1" stop-color="#D7257D"/></linearGradient><linearGradient id="" x1="2.863" x2="3.64" y1="12" y2="16.783" gradientUnits="userSpaceOnUse"><stop stop-color="#EFEFEF"/><stop offset="1" stop-color="#DADADA"/></linearGradient><linearGradient id="" x1="2.863" x2="3.64" y1="12" y2="16.783" gradientUnits="userSpaceOnUse"><stop stop-color="#EFEFEF"/><stop offset="1" stop-color="#DADADA"/></linearGradient></defs></g></svg>