<svg xmlns="http://www.w3.org/2000/svg" width="3em" height="3em" viewBox="0 0 1000 1000"><path fill="currentColor" d="M0 0v142.844h142.844V0zm285.719 0v142.844h142.844V0zm285.719 0v142.844h142.844V0zm285.719 0v142.844h142.844V0zM.001 285.719v142.844h142.844V285.719zm857.156 0v142.844h142.844V285.719zM.001 571.438v142.844h142.844V571.438zm857.156 0v142.844h142.844V571.438zM.001 857.157v142.844h142.844V857.157zm285.719 0v142.844h142.844V857.157zm285.719 0v142.844h142.844V857.157zm285.719 0v142.844h142.844V857.157z"/></svg>