<svg xmlns="http://www.w3.org/2000/svg" width="3em" height="3em" viewBox="0 0 72 72"><defs><path id="" d="m55.19 44.14l.425 1.381h3.504l.336-1.381m-2.165.13v1.229m-7.369 1.044l.425 1.381h3.504l.336-1.381m-2.165.13v1.229m3.115-1.359l.425 1.381h3.504l.336-1.381m-2.165.13v1.229m-2.031 3.389l.425 1.381h3.504l.336-1.381m-2.165.13v1.229m-5.007-3.657l.425 1.381h3.504l.336-1.381m-2.165.13v1.229m5.952-3.809l.425 1.381h3.504l.336-1.381m-2.165.13v1.229m-4.438 1.091l.425 1.381h3.504l.336-1.381m-2.165.13v1.229"/><path id="" d="M8.613 26.61s1.511-7.361 3.138 0"/><path id="" d="m10.18 19.58l.005 2.448"/><path id="" d="M8.909 20.01v2.077"/><path id="" d="M11.46 20v2.099"/><path id="" d="M8.544 22.09h3.286m2.292 4.405s1.511-7.361 3.138 0"/><path id="" d="m15.689 19.465l.005 2.448"/><path id="" d="M14.418 19.895v2.077"/><path id="" d="M16.969 19.885v2.099"/><path id="" d="M14.053 21.975h3.286m-3.217 4.52s1.511-7.361 3.138 0"/><path id="" d="M14.053 21.975h3.286M8.634 34.643s1.511-7.361 3.138 0"/><path id="" d="m10.201 27.613l.005 2.448"/><path id="" d="M8.93 28.043v2.077"/><path id="" d="M11.481 28.033v2.099"/><path id="" d="M8.565 30.123h3.286m2.271 4.406s1.511-7.361 3.138 0"/><path id="" d="m15.689 27.499l.005 2.448"/><path id="" d="M14.418 27.929v2.077"/><path id="" d="M16.969 27.919v2.099"/><path id="" d="M14.053 30.009h3.286"/></defs><g fill="none" stroke="#000" stroke-linecap="round"><use href="#" stroke-width=".75"/><use href="#"/><use href="#" stroke-width=".999"/><use href="#" stroke-width=".924"/><use href="#" stroke-width=".928"/><use href="#"/><use href="#" stroke-width=".999"/><use href="#" stroke-width=".924"/><use href="#" stroke-width=".928"/><use href="#"/><use href="#" stroke-width=".999"/><use href="#" stroke-width=".924"/><use href="#" stroke-width=".928"/><use href="#"/><use href="#" stroke-width=".999"/><use href="#" stroke-width=".924"/><use href="#" stroke-width=".928"/><use href="#"/><use href="#" stroke-width=".999"/><use href="#" stroke-width=".924"/><use href="#" stroke-width=".928"/><use href="#"/></g><path fill="#781e32" d="M5 17h62v38H5z"/><use href="#" fill="none" stroke="#fcea2b" stroke-linecap="round" stroke-width=".75"/><g fill="none" stroke="#fcea2b" stroke-linecap="round"><use href="#"/><use href="#" stroke-width=".999"/><use href="#" stroke-width=".924"/><use href="#" stroke-width=".928"/><use href="#"/><use href="#" stroke-width=".999"/><use href="#" stroke-width=".924"/><use href="#" stroke-width=".928"/><use href="#"/><use href="#" stroke-width=".999"/><use href="#" stroke-width=".924"/><use href="#" stroke-width=".928"/><use href="#"/><use href="#" stroke-width=".999"/><use href="#" stroke-width=".924"/><use href="#" stroke-width=".928"/><use href="#"/><use href="#" stroke-width=".999"/><use href="#" stroke-width=".924"/><use href="#" stroke-width=".928"/><use href="#"/></g><path fill="none" stroke="#000" stroke-linecap="round" stroke-linejoin="round" stroke-width="2" d="M5 17h62v38H5z"/></svg>