<svg xmlns="http://www.w3.org/2000/svg" width="3em" height="3em" viewBox="0 0 24 24"><g fill="#FF9100" stroke-linejoin="round" stroke-miterlimit="2"><path d="M18.167 8.98c-.45-.624-1.483-1.906-3.07-3.811c-.69-.826-1.28-1.528-1.571-1.872l-.407-.48l-.173-.205l-.094-.11l-.018-.028l-.009-.003l-.4-.471l-.508.407a11.1 11.1 0 0 0-3.07 3.87a9.5 9.5 0 0 0-.87 2.649c-.04.2-.073.408-.1.615a9 9 0 0 0-.577-.03a6.2 6.2 0 0 0-1.902.229l-.264.074l-.136.239a8 8 0 0 0-1.044 3.682a7.95 7.95 0 0 0 1.32 4.691a8 8 0 0 0 3.686 3.012l.197.08l.06.02h.002a8 8 0 0 0 2.738.478a7.9 7.9 0 0 0 3.077-.618l.007.003l.261-.121a8.03 8.03 0 0 0 3.275-2.782a8 8 0 0 0 1.369-4.204c.063-1.803-.536-3.59-1.78-5.314zm-5.907 5.584c.273 1.037.22 2.034-.16 2.967c-.946-.934-1.64-1.962-2.064-3.057c-.453-1.17-.726-2.285-.812-3.315c.4.131.769.305 1.097.519c.943.615 1.596 1.586 1.939 2.886m.172 5.022q.606.46 1.262.857a6.6 6.6 0 0 1-2.287.21q.574-.496 1.025-1.067m1.124-5.364c-.43-1.632-1.273-2.866-2.504-3.668a6.2 6.2 0 0 0-1.83-.792a8 8 0 0 1 .075-.594a9.7 9.7 0 0 1 .758-2.307l.004-.007c.147-.298.313-.599.509-.92l.076-.127l-.002-.002a9.7 9.7 0 0 1 1.62-1.926l.24.283c.56.664 1.087 1.292 1.566 1.866c1.077 1.292 2.473 2.989 3.012 3.737c1.065 1.476 1.579 2.984 1.527 4.482a6.65 6.65 0 0 1-3.332 5.539c-.53-.265-1.3-.7-2.118-1.333c.66-1.314.794-2.737.4-4.231zm-2.148 4.501a6.6 6.6 0 0 1-1.743 1.549l-.203-.079l-.054-.02a6.65 6.65 0 0 1-3.03-2.512a6.6 6.6 0 0 1-1.084-3.88a6.6 6.6 0 0 1 .736-2.818q.396-.088.8-.109l.07-.002q.205-.005.4 0q.284.014.564.059c.06 1.261.37 2.622.922 4.046c.53 1.37 1.412 2.637 2.622 3.766"/><path d="M17.837 9.14c-.426-.59-1.404-1.805-2.908-3.61a368 368 0 0 0-1.488-1.772l-.385-.455l-.164-.194l-.089-.104l-.017-.026l-.008-.003l-.38-.446l-.48.386A10.5 10.5 0 0 0 9.01 6.58a9 9 0 0 0-.825 2.509q-.055.286-.095.582a9 9 0 0 0-.546-.028a5.9 5.9 0 0 0-1.8.217l-.25.07l-.13.226a7.6 7.6 0 0 0-.988 3.488a7.53 7.53 0 0 0 1.25 4.442a7.56 7.56 0 0 0 3.491 2.852l.186.075l.056.02l.003-.001a7.6 7.6 0 0 0 2.593.453a7.5 7.5 0 0 0 2.914-.585l.007.003l.247-.115a7.6 7.6 0 0 0 3.101-2.634a7.56 7.56 0 0 0 1.296-3.982c.06-1.707-.507-3.4-1.684-5.032m-5.594 5.288c.259.982.208 1.926-.151 2.81c-.896-.885-1.554-1.858-1.955-2.895c-.43-1.109-.688-2.164-.77-3.14q.572.188 1.04.492c.893.582 1.51 1.502 1.836 2.733m.163 4.756c.38.29.782.562 1.195.812a6.3 6.3 0 0 1-2.166.198q.544-.468.97-1.01zm1.064-5.08c-.408-1.545-1.206-2.714-2.371-3.473a5.8 5.8 0 0 0-1.733-.75a7 7 0 0 1 .07-.563a9.2 9.2 0 0 1 .719-2.184l.003-.007c.14-.282.297-.567.482-.872l.073-.12l-.003-.002a9.2 9.2 0 0 1 1.534-1.824l.228.269c.53.628 1.03 1.223 1.483 1.767c1.02 1.223 2.342 2.83 2.852 3.538c1.01 1.399 1.496 2.827 1.446 4.245a6.3 6.3 0 0 1-3.155 5.245a12.3 12.3 0 0 1-2.006-1.262c.625-1.244.752-2.591.378-4.007m-2.034 4.263a6.2 6.2 0 0 1-1.65 1.466l-.193-.074l-.05-.02a6.3 6.3 0 0 1-2.871-2.377a6.27 6.27 0 0 1-1.026-3.675c.032-.94.267-1.838.697-2.67q.376-.083.758-.102l.066-.002q.194-.005.378 0q.269.013.535.056c.057 1.194.35 2.483.873 3.832c.502 1.298 1.337 2.497 2.483 3.566"/></g></svg>