<svg xmlns="http://www.w3.org/2000/svg" width="3em" height="3em" viewBox="0 0 32 32"><g fill-rule="evenodd" stroke-linejoin="round" stroke-miterlimit="2"><path fill="#2196F3" fill-rule="nonzero" d="M28.967 12H9.442c-.859 0-1.627.553-1.898 1.368L4 24V10h24c0-1.097-.903-2-2-2H15.124c-.468 0-.921-.164-1.28-.464l-1.288-1.072A2 2 0 0 0 11.276 6H4c-1.097 0-2 .903-2 2v16c0 1.097.903 2 2 2h22l4.805-11.212c.107-.249.162-.517.162-.788c0-1.097-.903-2-2-2"/><path fill="#BBDEFB" d="M21.981 17.988h2.037v1.996h-2.037zm-2.982.021h2.037v1.996h-2.037zm5.998 0h1.996v1.996h-1.996z"/><g fill="#BBDEFB"><path d="M29 14h3v10h-3z"/><path d="m26 12l2-2l4 4l-2 2zm0 14l2 2l4-4l-2-2z"/></g><g fill="#BBDEFB"><path d="M14 14h3v10h-3z"/><path d="m20 12l-2-2l-4 4l2 2zm0 14l-2 2l-4-4l2-2z"/></g></g></svg>