<svg xmlns="http://www.w3.org/2000/svg" width="3em" height="3em" viewBox="0 0 100 100"><path fill="currentColor" d="M81.232 15.389H18.769a3.407 3.407 0 0 0-3.407 3.407v3.143a3.407 3.407 0 0 0 3.407 3.407h62.463a3.407 3.407 0 0 0 3.407-3.407v-3.143a3.407 3.407 0 0 0-3.407-3.407m0 19.755H18.769a3.407 3.407 0 0 0-3.407 3.407v3.143a3.407 3.407 0 0 0 3.407 3.407h62.463a3.407 3.407 0 0 0 3.407-3.407v-3.143a3.41 3.41 0 0 0-3.407-3.407m0 19.755H18.769a3.407 3.407 0 0 0-3.407 3.407v3.143a3.407 3.407 0 0 0 3.407 3.407h62.463a3.407 3.407 0 0 0 3.407-3.407v-3.143a3.41 3.41 0 0 0-3.407-3.407m0 19.755H18.769a3.407 3.407 0 0 0-3.407 3.407v3.143a3.407 3.407 0 0 0 3.407 3.407h62.463a3.407 3.407 0 0 0 3.407-3.407v-3.143a3.41 3.41 0 0 0-3.407-3.407"/></svg>