<svg xmlns="http://www.w3.org/2000/svg" width="3em" height="3em" viewBox="0 0 32 32"><defs><linearGradient id="" x1="-547.975" x2="-547" y1="-244.974" y2="-244.974" gradientTransform="matrix(4 0 0 -4 2204 -974)" gradientUnits="userSpaceOnUse"><stop offset="0" stop-color="#eea831"/><stop offset="1" stop-color="#ffc929"/></linearGradient><linearGradient id="" x1="-547" x2="-544.762" y1="-247.171" y2="-247.171" gradientTransform="matrix(4 0 0 -4 2204 -974)" gradientUnits="userSpaceOnUse"><stop offset="0" stop-color="#b32629"/><stop offset=".583" stop-color="#8c1e21"/><stop offset="1" stop-color="#7a1a1d"/></linearGradient><linearGradient id="" x1="-547" x2="-546.025" y1="-244.974" y2="-244.974" gradientTransform="matrix(4 0 0 -4 2204 -974)" gradientUnits="userSpaceOnUse"><stop offset="0" stop-color="#e8a333"/><stop offset=".612" stop-color="#c68931"/><stop offset="1" stop-color="#ab762f"/></linearGradient><linearGradient id="" x2="-543.5" y1="-249.368" y2="-249.368" href="#"/><linearGradient id="" x1="-550.5" x2="-547" y1="-249.368" y2="-249.368" gradientTransform="matrix(4 0 0 -4 2204 -974)" gradientUnits="userSpaceOnUse"><stop offset="0" stop-color="#ae2524"/><stop offset=".563" stop-color="#d01d19"/><stop offset="1" stop-color="#ed1913"/></linearGradient><linearGradient id="" x1="-549.238" y1="-247.171" y2="-247.171" href="#"/></defs><path fill="url(#)" d="M16 9.792V2l-3.903 5.77z"/><path fill="url(#)" d="M16 12.097v7.806l8.952-4.667l-3.904-5.769z"/><path fill="url(#)" d="m16 9.792l3.903-2.022L16 2z"/><path fill="url(#)" d="M26.097 16.947L16 22.208V30l14-7.283z"/><path fill="url(#)" d="M2 22.717L16 30v-7.792L5.903 16.947z"/><path fill="url(#)" d="m10.952 9.467l-3.904 5.769L16 19.903v-7.806z"/></svg>