<svg xmlns="http://www.w3.org/2000/svg" width="3em" height="3em" viewBox="0 0 24 24"><path fill="currentColor" d="M16 .5a.5.5 0 0 0-1 0v23a.5.5 0 0 0 1 0zM3.5 3a.5.5 0 0 1 .5.5v17a.5.5 0 0 1-1 0v-17a.5.5 0 0 1 .5-.5m-3 5a.5.5 0 0 1 .5.5v7a.5.5 0 0 1-1 0v-7A.5.5 0 0 1 .5 8m6-1a.5.5 0 0 1 .5.5v9a.5.5 0 0 1-1 0v-9a.5.5 0 0 1 .5-.5m3.5 3.5a.5.5 0 0 0-1 0v3a.5.5 0 0 0 1 0zM12.5 7a.5.5 0 0 1 .5.5v9a.5.5 0 0 1-1 0v-9a.5.5 0 0 1 .5-.5m6-3a.5.5 0 0 1 .5.5v15a.5.5 0 0 1-1 0v-15a.5.5 0 0 1 .5-.5M22 8.5a.5.5 0 0 0-1 0v7a.5.5 0 0 0 1 0z"/></svg>