<svg xmlns="http://www.w3.org/2000/svg" width="3em" height="3em" viewBox="0 0 24 24"><g fill="none"><path fill="#4B7C4C" d="M14.934 4.127H8.227c-.31 0-.57.169-.661.254l-.917 1.136l5.043 4.405l4.87-4.404a36 36 0 0 1-.906-1.112c-.187-.252-.56-.29-.723-.28m-11.62 5.23l1.374-1.492v8.331c-.51-1.711-1.556-5.266-1.662-5.793c-.107-.527.147-.916.287-1.046m16.448 0l-1.224-1.492v8.331c.454-1.711 1.386-5.266 1.48-5.793c.096-.527-.131-.916-.256-1.046M11.176 19.78l-3.6-1.75v-3.086l3.045-.363l3.079-.973l1.968 4.422c-1.06.512-3.274 1.578-3.65 1.75c-.378.171-.719.072-.842 0"/><path fill="#1D6834" d="M6.485 5.25H5.211c-.401 0-.52.25-.522.375c.002 3.85.005 11.649 0 12.043a.483.483 0 0 0 .455.519h3.064c.368 0 .414-.351.418-.52v-2.626c1.192-.238 1.872-.145 2.604-.145c.584 0 .495.67.376 1.003c-.185.555-.619 1.697-.878 1.827c-.325.161-.596.386-.711.738c-.115.351.03.879.554 1.117c.523.237 1.15-.062 1.359-.518c.167-.364.033-.745-.055-.89c.164-.41.57-1.323.886-1.712c.394-.488.502-.634.896-.78c.315-.116.9.359 1.154.61v1.435c0 .284.24.43.36.46h3.005c.457-.02.57-.32.569-.46v-6.643c.804-.35 2.379-1.477 2.247-3.174s-1.553-1.924-2.247-1.826v-.38c-.036-.297-.295-.425-.42-.453h-1.257c-.181 0-.438.19-.544.284l-4.772 4.22C10.298 8.502 7.323 5.92 7.058 5.626c-.266-.295-.493-.373-.573-.375"/><path fill="#4B7C4C" d="M8.506 13.743v-1.558l1.571 1.37z"/><path fill="#61A761" d="m15.667 10.98l3.06-3.296c.003-.245.007-.63.009-1c.167-.164.545-.133.713-.098c.35.097 1.05.533 1.05 1.502c0 1.21-.495 1.814-1.875 2.553c-1.103.59-2.686 1.733-3.34 2.23c-.21.147-.645.589-.709 1.19c-.079.75 1.345 2.089 1.345 2.035c0-.052.37-.119.598 0c.229.12.33.342.229.652c-.102.309-.512.391-.827.245c-.253-.117-.274-.475-.253-.64c-1.235-1.094-1.939-1.192-2.136-1.105c-.185.026-.67.253-1.132.959s-.87 1.693-1.015 2.098c.084.067.23.274.141.56c-.088.288-.354.351-.575.344a.515.515 0 0 1-.498-.546c0-.41.39-.518.59-.543c.826-1.16 1.06-2.347 1.075-2.795c.039-.31-.186-.923-1.398-.906s-2.252.204-2.62.295c0 .2-.193.39-.462.39c-.373 0-.562-.28-.562-.522s.17-.522.562-.522c.248 0 .41.157.461.229c.23-.005.997-.067 2.223-.229c1.226-.161 1.542-.488 1.545-.63c.04-.11.018-.47-.37-1.032s-1.153-1.277-1.487-1.564c-.499.274-.85-.101-.864-.343c-.013-.242.09-.61.588-.59c.499.022.556.502.522.74c.307.533 1.242 1.63 2.528 1.757c1.286.126 2.458-.893 2.884-1.418"/><path fill="#fff" d="M6.424 5.813H5.25v11.811h2.812V15.41c-.09.048-.301.14-.554.124a1.005 1.005 0 0 1-.92-.895c-.084-.64.522-1.025.847-1.056c.26-.025.515.057.627.102a47 47 0 0 1 0-1.766c.016-.62.486-.498.703-.359l1.965 1.706c.108.082.367.222.546.123c.178-.099.074-.37 0-.495c-.42-.686-1.03-1.379-1.302-1.617c-.386.1-.607.102-.969-.119c-.271-.165-.63-.887-.131-1.407c.498-.52 1.064-.384 1.461-.078c.3.232.372.663.36.877c.667 1.039 1.368 1.397 2.38 1.369c.81-.023 1.574-.58 1.854-.854l3.258-3.529V5.812h-1.1c-1.568 1.375-4.767 4.184-5.023 4.404a.47.47 0 0 1-.629 0zm8.95 7.561c.33-.423 2-1.52 2.813-2.017v6.267h-2.813v-.523c.176.25.49.384.598.403h.002a1.09 1.09 0 0 0 1.078-.403c.334-.415.124-1.018-.209-1.317c-.266-.238-.691-.246-.871-.22l-.598-.692z"/></g></svg>