<svg xmlns="http://www.w3.org/2000/svg" width="3em" height="3em" viewBox="0 0 24 24"><g fill="none"><path fill="url(#)" d="M3 8.71v6.875l1.5 1.01V7.7L3 8.715z"/><path fill="url(#)" d="M4.5 7.7v8.9L6 15.585V8.71z"/><path fill="url(#)" d="M6 5.95v12.384l1.5 1.01v-14.4L6 5.954z"/><path fill="url(#)" d="M7.5 19.35L9 18.34V5.95L7.5 4.935z"/><path fill="url(#)" d="M21 8.71v6.875l-1.5 1.01V7.7L21 8.715z"/><path fill="url(#)" d="M19.5 7.7v8.9L18 15.585V8.71z"/><path fill="url(#)" d="M18 5.95v12.384l-1.5 1.01v-14.4l1.5 1.01z"/><path fill="url(#)" d="M16.5 19.35L15 18.34V5.95l1.5-1.015z"/><path fill="url(#)" d="M9 4.01v15.98L10.495 21h.005V3z"/><path fill="url(#)" d="M10.5 21h.005l1.494-1.01V4.01L10.5 3z"/><path fill="url(#)" d="M12 4.01v15.98L13.495 21h.005V3z"/><path fill="url(#)" d="M13.5 21h.005L15 19.99V4.01L13.5 3z"/><defs><linearGradient id="" x1="12" x2="12" y1="3" y2="21" gradientUnits="userSpaceOnUse"><stop stop-color="#670057"/><stop offset="1" stop-color="#230059"/></linearGradient><linearGradient id="" x1="12" x2="12" y1="3" y2="20.99" gradientUnits="userSpaceOnUse"><stop stop-color="#CC1B99"/><stop offset="1" stop-color="#471288"/></linearGradient><linearGradient id="" x1="12" x2="12" y1="2.993" y2="20.999" gradientUnits="userSpaceOnUse"><stop stop-color="#670057"/><stop offset="1" stop-color="#230059"/></linearGradient><linearGradient id="" x1="12" x2="12" y1="3.006" y2="20.993" gradientUnits="userSpaceOnUse"><stop stop-color="#CC1B99"/><stop offset="1" stop-color="#471288"/></linearGradient><linearGradient id="" x1="12" x2="12" y1="3" y2="21" gradientUnits="userSpaceOnUse"><stop stop-color="#CC1B99"/><stop offset="1" stop-color="#471288"/></linearGradient><linearGradient id="" x1="12.001" x2="12.001" y1="3" y2="20.99" gradientUnits="userSpaceOnUse"><stop stop-color="#670057"/><stop offset="1" stop-color="#230059"/></linearGradient><linearGradient id="" x1="12.001" x2="12.001" y1="2.993" y2="20.999" gradientUnits="userSpaceOnUse"><stop stop-color="#CC1B99"/><stop offset="1" stop-color="#471288"/></linearGradient><linearGradient id="" x1="12" x2="12" y1="3.006" y2="20.993" gradientUnits="userSpaceOnUse"><stop stop-color="#670057"/><stop offset="1" stop-color="#230059"/></linearGradient><linearGradient id="" x1="12" x2="12" y1="3" y2="21.005" gradientUnits="userSpaceOnUse"><stop stop-color="#670057"/><stop offset="1" stop-color="#230059"/></linearGradient><linearGradient id="" x1="14.249" x2="14.249" y1="3" y2="21.005" gradientUnits="userSpaceOnUse"><stop stop-color="#CC1B99"/><stop offset="1" stop-color="#471288"/></linearGradient><linearGradient id="" x1="12" x2="12" y1="3" y2="21.005" gradientUnits="userSpaceOnUse"><stop stop-color="#670057"/><stop offset="1" stop-color="#230059"/></linearGradient><linearGradient id="" x1="14.25" x2="14.25" y1="3" y2="21.005" gradientUnits="userSpaceOnUse"><stop stop-color="#CC1B99"/><stop offset="1" stop-color="#471288"/></linearGradient></defs></g></svg>