<svg xmlns="http://www.w3.org/2000/svg" width="3em" height="3em" viewBox="0 0 24 24"><g fill="none"><path fill="#E61E28" d="M11.986 14.362c.016-.031.051-.013.068 0l.326 3.824l-.36.34l-.378-.34c.108-1.262.329-3.793.344-3.824"/><path fill="url(#)" d="m11.249 11.573l.344-.428l.418.887l.424-.886l.344.427l-.768 1.655z"/><path fill="url(#)" d="m11.648 10.668l.369-.378l.374.378l-.375.687z"/><path fill="url(#)" d="m4.974 10.96l-.335-.978l6.802 2.861l.432.756l-.591 4.271l-.517-.48l.855-3.791z"/><path fill="url(#)" d="m19.027 10.96l.335-.978l-6.802 2.861l-.433.756l.592 4.271l.517-.48l-.855-3.791z"/><path fill="url(#)" d="M10.163 10.483L3 5.475l.713 1.954l6.876 3.856z"/><path fill="url(#)" d="M13.837 10.483L21 5.475l-.713 1.954l-6.876 3.856z"/><path fill="url(#)" d="m4.45 9.462l-.537-1.487l6.875 3.691l.424.787z"/><path fill="url(#)" d="m19.55 9.462l.538-1.487l-6.876 3.691l-.423.787z"/><defs><linearGradient id="" x1="11.997" x2="11.997" y1="5.475" y2="18.526" gradientUnits="userSpaceOnUse"><stop stop-color="#E9231E"/><stop offset="1" stop-color="#E42021"/></linearGradient><linearGradient id="" x1="12" x2="12" y1="5.475" y2="18.525" gradientUnits="userSpaceOnUse"><stop stop-color="#E53A2D"/><stop offset="1" stop-color="#E82620"/></linearGradient><linearGradient id="" x1="3" x2="15.288" y1="5.475" y2="18.774" gradientUnits="userSpaceOnUse"><stop stop-color="#F0341E"/><stop offset="1" stop-color="#E31D26"/></linearGradient><linearGradient id="" x1="21" x2="8.711" y1="5.475" y2="18.774" gradientUnits="userSpaceOnUse"><stop stop-color="#F0341E"/><stop offset="1" stop-color="#E31D26"/></linearGradient><linearGradient id="" x1="3.312" x2="20.385" y1="5.475" y2="19.286" gradientUnits="userSpaceOnUse"><stop stop-color="#F7691F"/><stop offset="1" stop-color="#E9342A"/></linearGradient><linearGradient id="" x1="20.689" x2="3.615" y1="5.475" y2="19.286" gradientUnits="userSpaceOnUse"><stop stop-color="#F7691F"/><stop offset="1" stop-color="#E9342A"/></linearGradient><linearGradient id="" x1="3" x2="22.493" y1="5.475" y2="15.154" gradientUnits="userSpaceOnUse"><stop stop-color="#EE511F"/><stop offset="1" stop-color="#EE1B21"/></linearGradient><linearGradient id="" x1="20.088" x2="12.758" y1="7.975" y2="12.274" gradientUnits="userSpaceOnUse"><stop stop-color="#EE511F"/><stop offset="1" stop-color="#EE1B21"/></linearGradient></defs></g></svg>