<svg xmlns="http://www.w3.org/2000/svg" width="3em" height="3em" viewBox="0 0 24 24"><g fill="none"><path fill="url(#)" d="M11.57 3.113a.88.88 0 0 1 .86 0l7.142 4.076c.265.15.43.43.43.735v8.152a.85.85 0 0 1-.43.735l-7.142 4.076a.88.88 0 0 1-.86 0l-7.142-4.076a.85.85 0 0 1-.43-.735V7.924c0-.3.165-.585.43-.735z"/><path fill="url(#)" d="M12.02 12L4.998 8l7.022-4.001l6.982 4z"/><path fill="url(#)" d="m12 11.976l-.006 8.027l-6.986-4.026L4.998 8z"/><path fill="url(#)" d="m12 11.976l.005 8.027l6.986-4.026l.01-7.977z"/><path fill="url(#)" d="M4.758 10.564L12.16 14.7c.265.15.355.48.2.74a.55.55 0 0 1-.75.2l-7.402-4.136z"/><path fill="url(#)" d="M19.127 13.536L11.7 9.28a.537.537 0 0 1-.2-.745a.55.55 0 0 1 .745-.2l7.437 4.266l-.55.935z"/><defs><linearGradient id="" x1="3.998" x2="20.897" y1="15.896" y2="7.999" gradientUnits="userSpaceOnUse"><stop stop-color="#EBECF3"/><stop offset="1" stop-color="#ACB2C6"/></linearGradient><linearGradient id="" x1="3.591" x2="19.493" y1="11.798" y2="11.775" gradientUnits="userSpaceOnUse"><stop stop-color="#DD79B2"/><stop offset=".5" stop-color="#D4399B"/><stop offset="1" stop-color="#B94299"/></linearGradient><linearGradient id="" x1="4.798" x2="17.175" y1="15.203" y2="4.715" gradientUnits="userSpaceOnUse"><stop stop-color="#DD79B2"/><stop offset=".5" stop-color="#D4399B"/><stop offset="1" stop-color="#B94299"/></linearGradient><linearGradient id="" x1="4.512" x2="16.967" y1="7.973" y2="19.32" gradientUnits="userSpaceOnUse"><stop stop-color="#A7036C"/><stop offset="1" stop-color="#8C136D"/></linearGradient><linearGradient id="" x1="3.997" x2="22.217" y1="2.999" y2="9.138" gradientUnits="userSpaceOnUse"><stop stop-color="#E5E7EF"/><stop offset="1" stop-color="#ACB2C6"/></linearGradient><linearGradient id="" x1="19.518" x2="11.601" y1="10.75" y2="9.84" gradientUnits="userSpaceOnUse"><stop stop-color="#B7BDCE"/><stop offset="1" stop-color="#D0D3E1"/></linearGradient></defs></g></svg>