<svg xmlns="http://www.w3.org/2000/svg" width="3em" height="3em" viewBox="0 0 24 24"><g fill="none"><path fill="url(#)" d="M21 12a9 9 0 1 1-18 0a9 9 0 0 1 18 0m-9 8.47a8.47 8.47 0 1 0 0-16.94a8.47 8.47 0 0 0 0 16.94"/><path fill="url(#)" d="m10.285 8.83l1.948 1.884l4.326-4.606l-6.274 2.716zm7.232-3.712l.307.413l-5.575 5.94l-2.895-2.806z"/><path fill="url(#)" d="m14.276 14.15l-1.996-1.912l-5.183 5.38zm-8.1 4.468l-.297-.424l6.385-6.723l2.912 2.848z"/><defs><linearGradient id="" x1="18.088" x2="6.706" y1="5.118" y2="18.618" gradientUnits="userSpaceOnUse"><stop stop-color="#37FAF9"/><stop offset="1" stop-color="#08ACFC"/></linearGradient><linearGradient id="" x1="20.011" x2="3.772" y1="3.676" y2="13.615" gradientUnits="userSpaceOnUse"><stop stop-color="#3EFFFA"/><stop offset="1" stop-color="#29E0EE"/></linearGradient><linearGradient id="" x1="7.31" x2="13.636" y1="17.829" y2="12.91" gradientUnits="userSpaceOnUse"><stop stop-color="#14AAFE"/><stop offset="1" stop-color="#1CD2F1"/></linearGradient></defs></g></svg>