<svg xmlns="http://www.w3.org/2000/svg" width="3em" height="3em" viewBox="0 0 24 24"><path fill="currentColor" fill-rule="evenodd" d="M10.96 2.074h.58c1.6 0 2.86 0 3.86.1c1.02.1 1.86.3 2.6.75c.77.47 1.42 1.12 1.9 1.9c.45.74.65 1.58.75 2.6c.09 1 .09 2.26.09 3.86v.04c0 .41-.34.75-.75.75s-.75-.34-.75-.75c0-1.65 0-2.84-.09-3.76c-.09-.91-.25-1.49-.54-1.96c-.35-.57-.83-1.05-1.4-1.4c-.46-.28-1.04-.45-1.96-.54c-.93-.09-2.11-.09-3.76-.09h-.5c-1.89 0-3.25 0-4.3.11c-1.04.11-1.69.33-2.2.7c-.36.26-.68.58-.94.94c-.37.51-.59 1.16-.7 2.2c-.11 1.05-.11 2.41-.11 4.3s0 3.25.11 4.3c.11 1.04.33 1.69.7 2.2c.26.36.58.68.94.94c.51.37 1.16.59 2.2.7c1.05.11 2.41.11 4.3.11c.41 0 .75.34.75.75s-.34.75-.75.75h-.04c-1.84 0-3.28 0-4.42-.12c-1.17-.13-2.11-.39-2.92-.97c-.49-.36-.92-.78-1.27-1.27c-.59-.81-.85-1.75-.97-2.92c-.12-1.14-.12-2.58-.12-4.42v-.09c0-1.84 0-3.28.12-4.42c.13-1.17.39-2.11.97-2.92c.35-.49.78-.92 1.27-1.27c.81-.59 1.75-.85 2.92-.97c1.14-.12 2.58-.12 4.42-.12zm5.75 12.88c.46-1.17 2.12-1.17 2.58 0c.44 1.12 1.46 2.14 2.58 2.58c1.17.46 1.17 2.12 0 2.58c-1.12.44-2.14 1.46-2.58 2.58c-.46 1.17-2.12 1.17-2.58 0c-.44-1.12-1.46-2.14-2.58-2.58c-1.17-.46-1.17-2.12 0-2.58c1.12-.44 2.14-1.46 2.58-2.58m1.29.8c-.6 1.32-1.75 2.48-3.07 3.07c1.32.6 2.47 1.75 3.07 3.07c.6-1.32 1.75-2.48 3.07-3.07a6.36 6.36 0 0 1-3.07-3.07M7 7.074c-.41 0-.75.34-.75.75v1c0 .41.34.75.75.75s.75-.34.75-.75v-.25h2.5v6.5H10c-.41 0-.75.34-.75.75s.34.75.75.75h2c.41 0 .75-.34.75-.75s-.34-.75-.75-.75h-.25v-6.5h2.5v.25c0 .41.34.75.75.75s.75-.34.75-.75v-1c0-.41-.34-.75-.75-.75z" color="currentColor"/></svg>