<svg xmlns="http://www.w3.org/2000/svg" width="3em" height="3em" viewBox="0 0 24 24"><path fill="currentColor" fill-rule="evenodd" d="M17.25 5.25c0 .41.34.75.75.75s.75-.34.75-.75v-.406c.434.138.777.333 1.05.606c.456.456.693 1.105.816 2.05H3.384c.123-.945.36-1.594.816-2.05c.273-.273.616-.468 1.05-.606v.406c0 .41.34.75.75.75s.75-.34.75-.75v-.67c.96-.08 2.184-.08 3.75-.08h3c1.566 0 2.79 0 3.75.08zM3.276 9h17.448c.026.774.026 1.683.026 2.75v2.5c0 3.56 0 5.35-.95 6.3s-2.74.95-6.3.95h-3c-3.56 0-5.35 0-6.3-.95s-.95-2.74-.95-6.3v-2.5c0-1.067 0-1.976.026-2.75M18.75 3.286V2.25c0-.41-.34-.75-.75-.75s-.75.34-.75.75v.826C16.235 3 15.01 3 13.5 3h-3c-1.51 0-2.735 0-3.75.076V2.25c0-.41-.34-.75-.75-.75s-.75.34-.75.75v1.036c-.868.198-1.54.534-2.11 1.104c-1.39 1.39-1.39 3.39-1.39 7.36v2.5c0 3.98 0 5.97 1.39 7.36S6.53 23 10.5 23h3c3.97 0 5.97 0 7.36-1.39s1.39-3.39 1.39-7.36v-2.5c0-3.98 0-5.97-1.39-7.36c-.57-.57-1.242-.906-2.11-1.104M10.78 18.9c.08.63.6 1.1 1.22 1.1s1.14-.47 1.22-1.1a2.8 2.8 0 0 1 2.43-2.43c.63-.08 1.1-.6 1.1-1.22s-.47-1.14-1.1-1.22a2.8 2.8 0 0 1-2.43-2.43c-.08-.63-.6-1.1-1.22-1.1s-1.14.47-1.22 1.1a2.8 2.8 0 0 1-2.43 2.43c-.63.08-1.1.6-1.1 1.22s.47 1.14 1.1 1.22c1.27.16 2.27 1.16 2.43 2.43M12 17.65a4.3 4.3 0 0 0-2.4-2.4a4.32 4.32 0 0 0 2.4-2.4c.43 1.09 1.3 1.96 2.4 2.4a4.32 4.32 0 0 0-2.4 2.4" color="currentColor"/></svg>