<svg xmlns="http://www.w3.org/2000/svg" width="3em" height="3em" viewBox="0 0 24 24"><path fill="currentColor" fill-rule="evenodd" d="M16.25 5.322c0 .41.34.75.75.75s.75-.34.75-.75v-.534c.681.138 1.18.364 1.55.734c.532.532.766 1.328.87 2.55H3.83c.104-1.222.338-2.018.87-2.55c.37-.37.869-.596 1.55-.734v.534c0 .41.34.75.75.75s.75-.34.75-.75V4.62c.876-.047 1.944-.047 3.25-.047h2c1.306 0 2.374 0 3.25.047zM3.763 9.572h16.474c.013.659.013 1.404.013 2.25v2.5c0 3.56 0 5.35-.95 6.3s-2.74.95-6.3.95h-2c-3.56 0-5.35 0-6.3-.95s-.95-2.74-.95-6.3v-2.5c0-.846 0-1.591.013-2.25m13.987-6.31v-.94c0-.41-.34-.75-.75-.75s-.75.34-.75.75v.796c-.91-.046-1.979-.046-3.25-.046h-2c-1.271 0-2.34 0-3.25.046v-.796c0-.41-.34-.75-.75-.75s-.75.34-.75.75v.94c-1.118.178-1.935.525-2.61 1.2c-1.39 1.39-1.39 3.38-1.39 7.36v2.5c0 3.98 0 5.97 1.39 7.36s3.38 1.39 7.36 1.39h2c3.98 0 5.97 0 7.36-1.39s1.39-3.38 1.39-7.36v-2.5c0-3.98 0-5.97-1.39-7.36c-.675-.675-1.492-1.022-2.61-1.2m-6.82 15.31H11c.27 0 .53-.15.66-.39l.01-.017c.16-.28 2.16-3.775 4.58-4.633c.39-.14.6-.57.46-.96a.754.754 0 0 0-.96-.46c-2.1.75-3.83 2.91-4.73 4.25c-.76-.9-1.73-1.23-1.79-1.25a.74.74 0 0 0-.94.47c-.14.39.07.81.46.95l.019.009c.153.064 1.167.491 1.51 1.521c.1.28.35.48.65.51" color="currentColor"/></svg>