<svg xmlns="http://www.w3.org/2000/svg" width="3em" height="3em" viewBox="0 0 24 24"><path fill="currentColor" fill-rule="evenodd" d="M20.242 22.317c0 .41.34.75.75.75h.01c.41 0 .75-.34.75-.75v-11.29c0-1.23 0-1.85-.16-2.45a4.7 4.7 0 0 0-2.75-3.17c-.522-.232-1.09-.315-2.184-.473l-.116-.017l-.11-.02c-.5-.07-.77-.11-.92-.17a1.26 1.26 0 0 1-.72-.85c-.04-.15-.04-.43-.04-.93v-.64c0-.41-.34-.75-.75-.75s-.75.34-.75.75v.64c0 .63 0 .98.09 1.31c.21.82.8 1.52 1.59 1.85c.33.14.67.19 1.29.27l.1.02l.253.038c.874.134 1.338.205 1.677.352c.93.39 1.62 1.18 1.88 2.17c.11.41.11.96.11 2.07zm-7-13.5c0 1.24 1.01 2.25 2.25 2.25c.41 0 .75-.34.75-.75s-.34-.75-.75-.75s-.75-.34-.75-.75s-.34-.75-.75-.75s-.75.34-.75.75m-5.5 1.5c0 .41.34.75.75.75c1.24 0 2.25-1.01 2.25-2.25c0-.41-.34-.75-.75-.75s-.75.34-.75.75s-.34.75-.75.75s-.75.34-.75.75m-4.75 12.75c-.41 0-.75-.34-.75-.75v-11.29c0-1.24 0-1.86.15-2.45c.39-1.45 1.39-2.6 2.76-3.17c.52-.222 1.088-.304 2.177-.462l.123-.018l.1-.02c.5-.07.78-.11.93-.17c.35-.15.62-.46.71-.83c.05-.17.05-.45.05-.95v-.64c0-.41.34-.75.75-.75s.75.34.75.75v.64c0 .63 0 .98-.1 1.33c-.2.8-.79 1.5-1.58 1.83c-.33.14-.68.19-1.3.27h-.1l-.36.058c-.805.13-1.245.201-1.57.342c-.94.39-1.62 1.18-1.89 2.17c-.1.4-.1.96-.1 2.07v11.29c0 .41-.34.75-.75.75m8.25-.75c0 .41.34.75.75.75s.75-.34.75-.75v-9c0-.41-.34-.75-.75-.75s-.75.34-.75.75zm6.75.75a.75.75 0 0 1-.74-.63c-.02-.12-.48-2.95-.51-4.88c-.048-2.768.438-5.482.503-5.844l.006-.036c.08-.41.47-.67.88-.59s.67.47.59.88l-.012.074c-.08.463-.514 2.997-.477 5.506c.026 1.602.386 3.971.471 4.536l.018.124c.07.41-.21.79-.62.86zm-12.12 0h.11c.36 0 .68-.26.74-.63c.02-.12.48-2.95.51-4.88c.048-2.768-.438-5.482-.503-5.844l-.007-.036a.75.75 0 0 0-.88-.59c-.4.08-.67.47-.59.88c.01.03.54 2.83.49 5.58c-.026 1.602-.386 3.971-.471 4.536l-.019.124c-.07.41.21.79.62.86" color="currentColor"/></svg>