<svg xmlns="http://www.w3.org/2000/svg" width="3em" height="3em" viewBox="0 0 24 24"><path fill="currentColor" d="M12.747 22.315h.002q.764 0 1.442-.002a1 1 0 0 0 .121 0c3.393-.02 5.26-.172 6.676-1.378c.24-.2.44-.41.64-.64c1.38-1.62 1.38-3.83 1.38-8.24s0-6.62-1.38-8.24c-.2-.24-.41-.44-.64-.64c-1.62-1.38-3.83-1.38-8.24-1.38s-6.62 0-8.24 1.38c-.24.2-.44.41-.64.64c-1.38 1.62-1.38 3.83-1.38 8.24s0 6.62 1.38 8.24c.2.24.41.44.64.64c1.62 1.38 3.84 1.38 8.24 1.38m.001-1.52c-.796 0-1.513 0-2.162-.008L21.48 9.884q.01.975.008 2.17v1.211l-7.53 7.529zm7.26-1.02c-.805.685-1.986.91-3.894.984l5.338-5.339c-.074 1.909-.299 3.09-.984 3.895c-.14.17-.29.32-.46.46M11.556 3.316l1.192-.001q1.198-.002 2.173.008L4.016 14.236c-.008-.653-.008-1.378-.008-2.181l.001-1.192zm-2.154.034L4.044 8.71c.073-1.92.297-3.106.984-3.914c.14-.17.29-.32.46-.46c.81-.688 1.991-.912 3.914-.985m10.265.736L4.779 18.973c-.402-.645-.594-1.5-.686-2.692L16.965 3.399c1.197.091 2.055.284 2.702.687M5.84 20.03L20.725 5.148c.398.645.588 1.5.68 2.69L8.542 20.713c-1.195-.09-2.054-.282-2.7-.68" color="currentColor"/></svg>