<svg xmlns="http://www.w3.org/2000/svg" width="3em" height="3em" viewBox="0 0 24 24"><path fill="currentColor" fill-rule="evenodd" d="M9.25 6.75C9.25 4.49 10.65 3 12 3s2.75 1.49 2.75 3.75s-1.4 3.75-2.75 3.75s-2.75-1.49-2.75-3.75M12 1.5c-2.51 0-4.25 2.54-4.25 5.25c0 2.49 1.47 4.83 3.65 5.2c.04.17.07.39.1.63c.07.69.07 1.57-.21 2.44c-.84 2.54-.85 4.42-.63 5.69c.11.64.28 1.11.43 1.44c.08.17.15.3.2.39c.03.04.05.08.07.11l.03.03l.01.02c.25.33.72.4 1.05.15s.4-.71.15-1.04c0 0-.01-.03-.02-.05a1.5 1.5 0 0 1-.12-.23c-.1-.22-.23-.57-.32-1.08c-.18-1-.19-2.63.57-4.97c.37-1.13.37-2.25.28-3.06c-.02-.2-.05-.38-.08-.54c2.01-.52 3.34-2.76 3.34-5.13c0-2.71-1.74-5.25-4.25-5.25m3.75 14.25c0-2.26 1.4-3.75 2.75-3.75s2.75 1.49 2.75 3.75s-1.4 3.75-2.75 3.75s-2.75-1.49-2.75-3.75m3.46 5.18c2.12-.43 3.54-2.73 3.54-5.18c0-2.71-1.74-5.25-4.25-5.25s-4.25 2.54-4.25 5.25c0 2.42 1.38 4.69 3.45 5.16c-.01.08-.02.16-.04.23c-.03.17-.07.31-.11.43c-.04.1-.08.14-.08.15c-.29.29-.29.77 0 1.06s.77.29 1.06 0c.2-.2.33-.45.42-.67c.08-.22.14-.46.19-.68c.03-.17.05-.34.07-.5M1.25 15.75c0-2.71 1.74-5.25 4.25-5.25s4.25 2.54 4.25 5.25c0 2.42-1.38 4.69-3.45 5.16c.01.08.02.16.04.23c.03.17.07.31.11.43c.04.1.08.14.08.15c.29.29.29.77 0 1.06s-.77.29-1.06 0c-.2-.2-.33-.45-.42-.67a6 6 0 0 1-.19-.68c-.03-.17-.05-.34-.07-.5c-2.12-.43-3.54-2.73-3.54-5.18M5.5 19.5c1.35 0 2.75-1.49 2.75-3.75S6.85 12 5.5 12s-2.75 1.49-2.75 3.75s1.4 3.75 2.75 3.75" color="currentColor"/></svg>