<svg xmlns="http://www.w3.org/2000/svg" width="3em" height="3em" viewBox="0 0 24 24"><path fill="currentColor" d="M15.492 22.082c-1.58 0-2.78-1.8-3.5-3.28c-.72 1.47-1.92 3.28-3.5 3.28c-2.43 0-5.25-2.87-5.25-4.75c0-1.2.66-2.02 1.48-2.59c-1.55-.6-2.57-1.87-2.96-3.76c-.44-2.22-1-6.17.26-7.7c.38-.46.89-.7 1.48-.7c3.45 0 6.97 5.18 8.5 7.74c1.53-2.55 5.05-7.74 8.5-7.74c.59 0 1.1.24 1.48.7c1.26 1.53.7 5.48.26 7.7c-.39 1.89-1.41 3.16-2.96 3.76c.82.56 1.48 1.39 1.48 2.59c0 1.88-2.82 4.75-5.25 4.75zm-3.5-6c.32 0 .61.21.71.51c.54 1.61 1.8 3.98 2.79 3.98c1.65 0 3.75-2.2 3.75-3.25c0-1.78-3.31-2.25-3.34-2.26a.744.744 0 0 1-.65-.83c.05-.41.41-.7.83-.66c2.68.3 4.21-.65 4.68-2.91c.62-3.13.65-5.72.05-6.45a.37.37 0 0 0-.32-.15c-2.71 0-6.2 5.08-7.83 8.08c-.13.24-.39.4-.66.4s-.53-.14-.66-.38l-.01-.02c-1.63-3-5.12-8.08-7.83-8.08c-.14 0-.23.04-.32.15c-.59.73-.57 3.32.05 6.45c.47 2.25 2 3.2 4.68 2.9c.42-.04.78.25.83.66s-.24.78-.65.83c-.03 0-3.34.48-3.34 2.26c0 1.05 2.1 3.25 3.75 3.25c.99 0 2.25-2.38 2.79-3.98c.1-.31.39-.51.71-.51z" color="currentColor"/></svg>