<svg xmlns="http://www.w3.org/2000/svg" width="3em" height="3em" viewBox="0 0 24 24"><path fill="currentColor" d="M9.797 1.572c-2.07 0-3.75 1.68-3.75 3.75c0 .14-.11.25-.25.25a3.751 3.751 0 0 0-2.25 6.75a3.751 3.751 0 0 0 2.25 6.75c.14 0 .25.11.25.25a3.751 3.751 0 0 0 6.75 2.25a3.751 3.751 0 0 0 6.75-2.25c0-.14.11-.25.25-.25a3.751 3.751 0 0 0 2.25-6.75a3.751 3.751 0 0 0-2.25-6.75c-.14 0-.25-.11-.25-.25a3.751 3.751 0 0 0-6.75-2.25c-.68-.91-1.77-1.5-3-1.5m2.25 3.75v14c0 1.24-1.01 2.25-2.25 2.25s-2.25-1.01-2.25-2.25c0-.97-.78-1.75-1.75-1.75c-1.24 0-2.25-1.01-2.25-2.25s1.01-2.25 2.25-2.25c.41 0 .75-.34.75-.75s-.34-.75-.75-.75c-1.24 0-2.25-1.01-2.25-2.25s1.01-2.25 2.25-2.25c.97 0 1.75-.78 1.75-1.75c0-1.24 1.01-2.25 2.25-2.25s2.25 1.01 2.25 2.25m1.5 14v-14c0-1.24 1.01-2.25 2.25-2.25s2.25 1.01 2.25 2.25c0 .97.78 1.75 1.75 1.75c1.24 0 2.25 1.01 2.25 2.25s-1.01 2.25-2.25 2.25c-.41 0-.75.34-.75.75s.34.75.75.75c1.24 0 2.25 1.01 2.25 2.25s-1.01 2.25-2.25 2.25c-.97 0-1.75.78-1.75 1.75c0 1.24-1.01 2.25-2.25 2.25s-2.25-1.01-2.25-2.25" color="currentColor"/></svg>