<svg xmlns="http://www.w3.org/2000/svg" width="3em" height="3em" viewBox="0 0 24 24"><path fill="currentColor" d="M19.33 20.932c.328.14.646.14 1.17.14c.534 0 .852 0 1.16-.14c.44-.18.78-.51.95-.94c.14-.32.14-.62.14-1.17v-3.08c0-1.23 0-1.91-.2-2.59c-.205-.672-.59-1.25-1.22-2.195l-.05-.075l-.26-.386l1.43-1.074a.75.75 0 0 0-.9-1.2l-1.23.923l-.59-1.423c-.77-1.86-1.2-2.89-2.15-3.53c-.95-.62-2.06-.62-4.08-.62h-3.001c-2.02 0-3.13 0-4.079.63c-.934.62-1.356 1.625-2.11 3.426l-.04.094l-.59 1.422l-1.23-.922a.75.75 0 0 0-.9 1.2l1.43 1.073l-.26.387l-.05.075c-.63.945-1.015 1.523-1.22 2.195c-.2.68-.2 1.36-.2 2.59v3.08c0 .55 0 .85.13 1.16c.18.44.52.78.94.95c.33.14.64.14 1.179.14H3.5c.54 0 .86 0 1.169-.14c.44-.18.78-.51.95-.94c.14-.32.14-.62.14-1.17c0-.26 0-.53.02-.6c.03-.06.07-.1.14-.13c.07-.02.33-.02.59-.02h11c.26 0 .52 0 .6.02c.06.03.1.07.13.13c.02.07.02.34.02.6c0 .55 0 .85.13 1.16c.18.44.52.78.94.95M4.335 11.181l1.245.311c.21.05.44.08.67.08h11.5c.23 0 .46-.03.67-.08l1.254-.313l.366.543c.63.95.94 1.42 1.08 1.87c.14.46.14 1.03.14 2.15v3.08c0 .26 0 .53-.02.6c-.03.06-.07.1-.14.13c-.13.04-1.03.05-1.19 0a.27.27 0 0 1-.13-.13c-.02-.07-.02-.34-.02-.6c0-.55 0-.85-.13-1.16a1.72 1.72 0 0 0-.94-.95c-.33-.14-.65-.14-1.179-.14H6.51c-.54 0-.86 0-1.169.14c-.44.18-.78.51-.95.94c-.14.32-.14.62-.14 1.17c0 .26 0 .53-.02.6c-.03.06-.07.1-.14.13c-.13.04-1.03.05-1.19 0a.27.27 0 0 1-.13-.13c-.02-.07-.02-.34-.02-.6v-3.08c0-1.13 0-1.69.14-2.15c.14-.45.45-.92 1.08-1.87zm.7-1.374l.625-1.505c.74-1.76 1.06-2.48 1.6-2.85c.57-.38 1.46-.38 3.248-.38h3.002c1.78 0 2.68 0 3.24.37c.55.37.87 1.1 1.6 2.86l.624 1.502l-.924.228c-.1.03-.2.04-.3.04H6.24c-.1 0-.2-.01-.3-.04zm12.975 5.525c-.55 0-1-.45-1-1s.45-1 1-1s1 .44 1 1s-.45 1.01-1 1.01zm-13-1c0 .55.45 1 1 1v.01c.55 0 1-.45 1-1.01s-.45-1-1-1s-1 .45-1 1" color="currentColor"/></svg>