<svg xmlns="http://www.w3.org/2000/svg" width="3em" height="3em" viewBox="0 0 24 24"><path fill="currentColor" fill-rule="evenodd" d="M17.01 11.066c-2.62 0-4.75-2.13-4.75-4.75s2.13-4.75 4.75-4.75s4.75 2.13 4.75 4.75s-2.13 4.75-4.75 4.75m0-8c-1.79 0-3.25 1.46-3.25 3.25s1.46 3.25 3.25 3.25s3.25-1.46 3.25-3.25s-1.46-3.25-3.25-3.25m3.5 20c-.53 0-.85 0-1.18-.14a1.72 1.72 0 0 1-.94-.95c-.13-.31-.13-.61-.13-1.16c0-.26 0-.53-.02-.6a.27.27 0 0 0-.13-.13c-.08-.02-.34-.02-.6-.02h-11c-.26 0-.52 0-.59.02c-.07.03-.11.07-.14.13c-.02.07-.02.34-.02.6c0 .55 0 .85-.14 1.17c-.17.43-.51.76-.95.94c-.31.14-.63.14-1.168.14h-.003c-.54 0-.849 0-1.179-.14a1.72 1.72 0 0 1-.94-.95c-.13-.31-.13-.61-.13-1.16v-3.08c0-1.23 0-1.91.2-2.59c.205-.672.59-1.25 1.22-2.195l.05-.075l.26-.39l-1.43-1.07a.75.75 0 0 1 .9-1.2l1.23.92l.59-1.42l.04-.094c.755-1.8 1.176-2.806 2.11-3.426c.95-.63 2.06-.63 4.08-.63c.41 0 .75.34.75.75s-.34.75-.75.75c-1.79 0-2.679 0-3.249.38c-.54.37-.86 1.09-1.6 2.85l-.63 1.5l.68.17c.22.06.32.08.42.1h11.82c.031 0 .097-.017.212-.048l.118-.032l1.55-.39c.31-.08.63.05.8.31l.66.98l.05.075c.63.946 1.016 1.523 1.22 2.195c.2.68.2 1.36.2 2.59v3.08c0 .55 0 .85-.14 1.17c-.17.43-.51.76-.95.94c-.31.14-.63.14-1.169.14zm-13.991-4.5h10.993c.529 0 .848 0 1.178.14c.42.17.76.51.94.95c.13.31.13.61.13 1.16c0 .26 0 .53.02.6c.03.06.07.1.13.13c.16.05 1.06.04 1.19 0c.07-.03.11-.07.14-.13c.02-.07.02-.34.02-.6v-3.08c0-1.12 0-1.69-.14-2.15c-.14-.45-.45-.92-1.08-1.87l-.36-.54l-1.01.25c-.28.07-.41.1-.54.12c-.2.02-.34.02-.61.02H6.5c-.28 0-.41 0-.55-.01a6 6 0 0 1-.53-.11l-.04-.01l-1.04-.26l-.36.54c-.63.95-.94 1.42-1.08 1.87c-.14.46-.14 1.02-.14 2.15v3.08c0 .26 0 .53.02.6c.03.06.07.1.13.13c.16.05 1.06.04 1.19 0c.07-.03.11-.07.14-.13c.02-.07.02-.34.02-.6c0-.55 0-.85.14-1.17c.17-.43.51-.76.95-.94c.31-.14.63-.14 1.169-.14m11.49-1.24c-.55 0-1-.45-1-1s.45-1 1-1s1 .44 1 1s-.45 1.01-1 1.01zm-13-1c0 .55.45 1 1 1v.01c.55 0 1-.45 1-1.01s-.45-1-1-1s-1 .45-1 1m13.26-8.8a.75.75 0 0 0 .48-1.42l-.99-.33v-1.46c0-.41-.34-.75-.75-.75s-.75.34-.75.75v2c0 .32.2.61.51.71z" color="currentColor"/></svg>