<svg xmlns="http://www.w3.org/2000/svg" width="3em" height="3em" viewBox="0 0 24 24"><path fill="currentColor" fill-rule="evenodd" d="M12.26 6.317c0 2.62 2.13 4.75 4.75 4.75s4.75-2.13 4.75-4.75s-2.13-4.75-4.75-4.75s-4.75 2.13-4.75 4.75m1.5 0c0-1.79 1.46-3.25 3.25-3.25s3.25 1.46 3.25 3.25s-1.46 3.25-3.25 3.25s-3.25-1.46-3.25-3.25m6.75 16.75l-.02.01h.002c.539 0 .858 0 1.168-.14c.44-.18.78-.51.95-.94c.14-.32.14-.62.14-1.17v-3.08c0-1.23 0-1.91-.2-2.59c-.204-.672-.59-1.25-1.22-2.194l-.05-.075l-.66-.98a.74.74 0 0 0-.8-.31l-1.55.39l-.118.03a1 1 0 0 1-.212.05H6.12c-.1-.02-.2-.04-.42-.1l-.68-.17l.63-1.5c.74-1.76 1.06-2.48 1.6-2.85c.57-.38 1.46-.38 3.249-.38h.001c.41 0 .75-.34.75-.75s-.34-.75-.75-.75c-2.02 0-3.13 0-4.08.63c-.934.619-1.355 1.624-2.11 3.425l-.04.094l-.59 1.42l-1.23-.92a.75.75 0 0 0-.9 1.2l1.43 1.07l-.26.39l-.05.075c-.63.946-1.015 1.523-1.22 2.196c-.2.68-.2 1.36-.2 2.59v3.08c0 .55 0 .85.13 1.16c.18.44.52.78.94.95c.33.14.64.14 1.179.14h.003c.539 0 .859 0 1.168-.14c.44-.18.78-.51.95-.94c.14-.32.14-.62.14-1.17c0-.26 0-.53.02-.6c.03-.06.07-.1.14-.13c.07-.02.33-.02.59-.02h11c.26 0 .52 0 .6.02c.06.03.1.07.13.13c.02.07.02.34.02.6c0 .55 0 .85.13 1.16c.18.44.52.78.94.95c.33.14.65.14 1.18.14m-13.99-4.5c-.54 0-.859 0-1.169.14c-.44.18-.78.51-.95.94c-.14.32-.14.62-.14 1.17c0 .26 0 .53-.02.6c-.03.06-.07.1-.14.13c-.13.04-1.03.05-1.19 0a.27.27 0 0 1-.13-.13c-.02-.07-.02-.34-.02-.6v-3.08c0-1.13 0-1.69.14-2.15c.14-.45.45-.92 1.08-1.87l.36-.54l1.04.26l.04.01c.224.054.341.082.53.11c.14.01.27.01.55.01h11.02c.27 0 .41 0 .61-.02c.13-.02.26-.05.54-.12l1.01-.25l.36.54c.63.95.94 1.42 1.08 1.87c.14.46.14 1.03.14 2.15v3.08c0 .26 0 .53-.02.6c-.03.06-.07.1-.14.13c-.13.04-1.03.05-1.19 0a.27.27 0 0 1-.13-.13c-.02-.07-.02-.34-.02-.6c0-.55 0-.85-.13-1.16a1.72 1.72 0 0 0-.94-.95c-.33-.14-.65-.14-1.178-.14zm10.49-2.24c0 .55.45 1 1 1v.01c.55 0 1-.45 1-1.01s-.45-1-1-1s-1 .45-1 1m-11 1c-.55 0-1-.45-1-1s.45-1 1-1s1 .44 1 1s-.45 1.01-1 1.01zm11-10.26c-.41 0-.75-.34-.75-.75v-2c0-.41.34-.75.75-.75s.75.34.75.75v2c0 .41-.34.75-.75.75m-.75 1.25c0 .41.34.75.75.75v.01c.41 0 .75-.34.75-.76a.749.749 0 1 0-1.5 0" color="currentColor"/></svg>