<svg xmlns="http://www.w3.org/2000/svg" width="3em" height="3em" viewBox="0 0 24 24"><path fill="currentColor" fill-rule="evenodd" d="m18.586 10.46l-.928-1.158c-.26-.32-.21-.8.12-1.05c.33-.26.8-.21 1.05.12l2 2.5c.26.32.21.8-.12 1.05l-2.5 2c-.14.11-.3.16-.47.16l.01-.01c-.22 0-.44-.1-.59-.28c-.26-.32-.21-.8.12-1.05l1-.8c-2.617-.38-8.324-1.854-14.06-7.59a.755.755 0 0 1 0-1.06c.29-.29.77-.29 1.06 0c5.47 5.47 10.974 6.83 13.308 7.169M5.75 22.572c-.53 0-.85 0-1.17-.13c-.43-.18-.77-.52-.95-.95c-.13-.32-.13-.64-.13-1.17v-9c0-.53 0-.85.13-1.17c.18-.43.52-.77.95-.95c.32-.13.64-.13 1.17-.13s.85 0 1.17.13c.43.18.77.52.95.95c.13.32.13.64.13 1.17v9c0 .53 0 .85-.13 1.17c-.18.43-.52.77-.95.95c-.32.13-.64.13-1.17.13m0-12c-.26 0-.53 0-.6.02c-.06.02-.1.07-.13.13c-.02.06-.02.33-.02.6v9c0 .26 0 .53.02.6c.02.06.07.11.13.13c.13.04 1.06.04 1.2 0c.06-.02.1-.07.13-.13c.02-.06.02-.33.02-.6v-9c0-.26 0-.53-.02-.6a.21.21 0 0 0-.13-.13c-.06-.02-.33-.02-.6-.02m7 12c-.53 0-.85 0-1.17-.13c-.43-.18-.77-.52-.95-.95c-.13-.32-.13-.64-.13-1.17v-5.5c0-.53 0-.85.13-1.17c.18-.43.52-.77.95-.95c.32-.13.64-.13 1.17-.13s.85 0 1.17.13c.43.18.77.52.95.95c.13.32.13.64.13 1.17v5.5c0 .53 0 .85-.13 1.17c-.18.43-.52.77-.95.95c-.32.13-.64.13-1.17.13m0-8.5c-.26 0-.53 0-.6.02c-.06.02-.1.07-.13.13c-.02.06-.02.33-.02.6v5.5c0 .26 0 .53.02.6c.02.06.07.11.13.13c.13.04 1.06.04 1.2 0c.06-.02.1-.07.13-.13c.02-.06.02-.33.02-.6v-5.5c0-.26 0-.53-.02-.6a.21.21 0 0 0-.13-.13c-.06-.02-.33-.02-.6-.02m5.83 8.37c.32.13.64.13 1.17.13s.85 0 1.17-.13c.43-.18.77-.52.95-.95c.13-.32.13-.64.13-1.17v-3c0-.53 0-.85-.13-1.17c-.18-.43-.52-.77-.95-.95c-.32-.13-.64-.13-1.17-.13s-.85 0-1.17.13c-.43.18-.77.52-.95.95c-.13.32-.13.64-.13 1.17v3c0 .53 0 .85.13 1.17c.18.43.52.77.95.95m.57-5.85c.07-.02.34-.02.6-.02c.27 0 .54 0 .6.02s.11.07.13.13c.02.07.02.34.02.6v3c0 .27 0 .54-.02.6c-.03.06-.07.11-.13.13c-.14.04-1.07.04-1.2 0a.21.21 0 0 1-.13-.13c-.02-.07-.02-.34-.02-.6v-3c0-.27 0-.54.02-.6c.03-.06.07-.11.13-.13" color="currentColor"/></svg>