<svg xmlns="http://www.w3.org/2000/svg" width="3em" height="3em" viewBox="0 0 24 24"><path fill="currentColor" fill-rule="evenodd" d="M7.412 17.353a8.75 8.75 0 0 1-3.742-5.54a2.244 2.244 0 0 1-2.17-2.25c0-1.22 1.01-2.25 2.25-2.25h.19c1.18-3.56 4.51-6 8.31-6s7.15 2.45 8.32 6.02c1.09.16 1.93 1.09 1.93 2.23c0 1.04-.7 1.91-1.66 2.17a8.74 8.74 0 0 1-3.754 5.62A6.77 6.77 0 0 1 19 22.063c0 .41-.34.75-.75.75s-.75-.34-.75-.75a5.27 5.27 0 0 0-1.8-3.96a8.7 8.7 0 0 1-3.45.71a8.7 8.7 0 0 1-3.45-.709l-.02.019c-1.13 1-1.78 2.44-1.78 3.94c0 .41-.34.75-.75.75s-.75-.34-.75-.75c0-1.76.69-3.455 1.912-4.71M12.25 5.152a6.76 6.76 0 0 1-6 3.66h-1.5a1 1 0 0 1-.123-.01a1 1 0 0 1-.127.01h-.75c-.41 0-.75.34-.75.75s.34.75.75.75h.56c.38 0 .7.28.74.66c.45 3.62 3.54 6.34 7.2 6.34s6.75-2.73 7.2-6.34c.05-.38.37-.66.74-.66c.47 0 .81-.34.81-.75s-.34-.75-.75-.75H20a1 1 0 0 1-.125-.01a1 1 0 0 1-.125.01h-1.5a6.76 6.76 0 0 1-6-3.66m6.707 2.16h-.707c-2.62 0-4.804-1.939-5.19-4.454a7.25 7.25 0 0 1 5.897 4.454m-12.707 0c2.62 0 4.804-1.939 5.19-4.454a7.25 7.25 0 0 0-5.9 4.454zm6 8.5c-.96 0-1.75-.79-1.75-1.75c0-.41.34-.75.75-.75h2c.41 0 .75.34.75.75c0 .96-.79 1.75-1.75 1.75m-3-4.74c-.55 0-1-.45-1-1s.45-1 1-1s1 .44 1 1s-.45 1.01-1 1.01zm5-1c0 .55.45 1 1 1v.01c.55 0 1-.45 1-1.01s-.45-1-1-1s-1 .45-1 1" color="currentColor"/></svg>