<svg xmlns="http://www.w3.org/2000/svg" width="3em" height="3em" viewBox="0 0 24 24"><path fill="currentColor" fill-rule="evenodd" d="M8.96 4.5h6.08c1.37 0 2.45 0 3.32.09c.89.09 1.63.28 2.28.71c.52.35.96.79 1.31 1.31c.43.65.62 1.39.71 2.28c.09.86.09 1.95.09 3.32v.08c0 1.37 0 2.46-.09 3.32c-.09.89-.28 1.63-.71 2.28c-.35.52-.79.96-1.31 1.31c-.65.43-1.39.62-2.28.71c-.87.09-1.95.09-3.32.09H8.96c-1.37 0-2.45 0-3.32-.09c-.89-.09-1.63-.28-2.28-.71c-.52-.35-.96-.79-1.31-1.31c-.43-.65-.62-1.39-.71-2.28c-.09-.86-.09-1.95-.09-3.32v-.08c0-1.37 0-2.46.09-3.32c.09-.89.28-1.63.71-2.28c.35-.52.79-.96 1.31-1.31c.65-.43 1.39-.62 2.28-.71c.87-.09 1.95-.09 3.32-.09M5.79 6.08c-.77.08-1.23.23-1.6.47c-.35.23-.66.54-.9.89c-.24.37-.39.83-.47 1.6c-.08.78-.08 1.79-.08 3.21s0 2.43.08 3.21c.08.77.23 1.23.47 1.6c.24.35.54.66.9.89c.36.24.83.39 1.6.47c.78.08 1.79.08 3.21.08h6c1.42 0 2.43 0 3.21-.08c.77-.08 1.23-.23 1.6-.47c.35-.23.66-.54.9-.89c.24-.37.39-.83.47-1.6c.08-.78.08-1.79.08-3.21s0-2.43-.08-3.21c-.08-.77-.23-1.23-.47-1.6c-.24-.35-.54-.66-.9-.89c-.36-.24-.83-.39-1.6-.47C17.43 6 16.42 6 15 6H9c-1.42 0-2.43 0-3.21.08m10.04 4.02c-.17.12-.38.32-.73.66l-.59.57c-.3.29-.77.28-1.06-.02a.746.746 0 0 1 .02-1.06l.59-.57l.03-.03c.31-.29.59-.57.85-.76c.29-.21.63-.39 1.06-.39s.77.18 1.06.39c.26.19.54.47.85.76l.03.03l.59.57c.3.29.3.77.02 1.06c-.29.3-.76.31-1.06.02l-.59-.57c-.35-.34-.56-.54-.73-.66a.6.6 0 0 0-.15-.09C16.01 10 16 10 16 10l-.02.01c-.02.01-.07.03-.15.09m-2.37 3.09c.29-.3.76-.31 1.06-.02l.59.57c.35.34.56.54.73.66c.08.06.12.08.15.09c.01.01.02.01.02.01l.02-.01c.02-.01.07-.03.15-.09c.17-.12.38-.32.73-.66l.59-.57c.3-.29.77-.28 1.06.02c.29.29.28.77-.02 1.06l-.59.57l-.03.03c-.31.29-.59.57-.85.76c-.29.21-.63.39-1.06.39s-.77-.18-1.06-.39c-.26-.19-.54-.47-.85-.76l-.03-.03l-.59-.57c-.3-.29-.3-.77-.02-1.06M6 11.5c-.41 0-.75.34-.75.75s.34.75.75.75h4c.41 0 .75-.34.75-.75s-.34-.75-.75-.75z" color="currentColor"/></svg>