<svg xmlns="http://www.w3.org/2000/svg" width="3em" height="3em" viewBox="0 0 24 24"><path fill="currentColor" fill-rule="evenodd" d="M3.256 10.315c0-4.83 3.92-8.75 8.75-8.75s8.75 3.92 8.75 8.75v8.7c0 .59 0 1.09-.04 1.49c-.04.42-.12.82-.33 1.18c-.24.42-.59.77-1.01 1.01c-.37.21-.76.29-1.18.33c-.4.04-.9.04-1.49.04h-9.72c-.46 0-.85 0-1.18-.04c-.42-.04-.82-.12-1.18-.33a2.7 2.7 0 0 1-1.01-1.01c-.21-.36-.29-.76-.33-1.18c-.04-.4-.04-.9-.04-1.49v-8.7zm4.5 11.25h8.92c.64 0 1.06 0 1.39-.03c.32-.03.47-.08.57-.14c.19-.11.35-.27.46-.46c.06-.1.11-.25.14-.57c.03-.31.03-.72.03-1.31H9.016c-.49 0-.79 0-1 .03c-.1.01-.15.03-.17.04v.01c0 .02-.02.07-.04.17c-.03.21-.03.5-.03 1v1.25zm2.5-4h-1.29c-.43 0-.83 0-1.15.04c-.36.05-.73.16-1.04.47s-.42.68-.47 1.04c-.04.32-.04.72-.04 1.15v1.28c-.11 0-.22-.01-.31-.02c-.32-.03-.47-.08-.57-.14c-.19-.11-.35-.27-.46-.46c-.06-.1-.11-.25-.14-.57c-.03-.33-.03-.76-.03-1.39v-8.67c0-4 3.25-7.25 7.25-7.25c3.75 0 6.84 2.85 7.21 6.5h-2.26c-.43 0-.83 0-1.15.04c-.36.05-.73.16-1.04.47s-.42.68-.47 1.04c-.04.32-.04.72-.04 1.15v1.3h-1.29c-.43 0-.83 0-1.15.04c-.36.05-.73.16-1.04.47s-.42.68-.47 1.04c-.04.32-.04.72-.04 1.15v1.3zm1.5 0h7.5v-2.5h-6.25c-.49 0-.79 0-1 .03c-.1.01-.15.03-.17.04h-.01v.01c0 .02-.02.07-.04.17c-.03.21-.03.5-.03 1zm4-4h3.5v-2.5h-2.25c-.49 0-.79 0-1 .03c-.1.01-.15.03-.17.04h-.01v.01c0 .02-.02.07-.04.17c-.03.21-.03.5-.03 1z" color="currentColor"/></svg>