<svg xmlns="http://www.w3.org/2000/svg" width="3em" height="3em" viewBox="0 0 24 24"><path fill="currentColor" d="M20.103 22.504H3.913c-.53 0-1.03-.24-1.34-.64a1.49 1.49 0 0 1-.27-1.29a4.85 4.85 0 0 1 3.27-3.43l3.18-.96v-.95c-1.08-.17-2.09-.43-3.01-.77a.747.747 0 0 1-.41-1.04c.45-.9.92-2.27.92-5.57c0-4.03 2.36-5.26 3.37-5.6c1.67-.56 3.59-.18 4.68.88c.95-.09 1.7.1 2.26.59c1.19 1.01 1.19 2.92 1.19 5.13s.6 3.95.92 4.58a.746.746 0 0 1-.41 1.04c-.92.34-1.93.6-3.01.77v.95l3.18.96c1.61.49 2.86 1.8 3.27 3.42c.11.45.01.92-.27 1.29c-.31.4-.81.64-1.34.64zm-13.07-9.18c.79.24 1.66.41 2.57.53c.38.05.66.37.66.74v2.16c0 .33-.22.62-.53.72l-3.72 1.12c-1.1.33-1.97 1.24-2.25 2.36c0 .01.07.06.16.06h16.19c.09 0 .15-.04.16-.06a3.37 3.37 0 0 0-2.25-2.35l-3.71-1.12a.75.75 0 0 1-.53-.72v-2.16c0-.38.28-.7.66-.74c.92-.12 1.79-.29 2.59-.53c-.36-1.01-.75-2.61-.75-4.46s0-3.42-.66-3.98c-.29-.24-.78-.31-1.47-.2a.72.72 0 0 1-.72-.29c-.53-.7-1.99-1.15-3.31-.7c-1.51.51-2.35 2-2.35 4.18c0 2.82-.33 4.4-.73 5.46z" color="currentColor"/></svg>