<svg xmlns="http://www.w3.org/2000/svg" width="3em" height="3em" viewBox="0 0 24 24"><path fill="currentColor" fill-rule="evenodd" d="M3.758 14.5c0 4.549 3.697 8.248 8.245 8.25h-.005h.01h-.005c4.547-.002 8.245-3.701 8.245-8.25c0-1.06 0-3.26-2.16-5.97a.748.748 0 0 0-1.33.44c-.01.4-.18 1.33-.59 1.65c-.1.08-.25.16-.57.09c-.68-.14-.79-.65-.84-2.46v-.003c-.06-2.24-.142-5.307-3.95-6.936c-.24-.1-.5-.08-.71.06s-.34.38-.34.63c0 2.11-1.21 3.52-2.61 5.15c-1.59 1.84-3.39 3.94-3.39 7.35m4.53-6.38c1.23-1.43 2.5-2.91 2.87-4.94c1.999 1.29 2.05 3.218 2.1 5.097v.004c.04 1.63.09 3.48 2.03 3.89c.87.18 1.46-.11 1.81-.38c.34-.26.58-.61.75-.98c.92 1.64.92 2.92.92 3.68c0 3.72-3.03 6.75-6.75 6.75s-6.75-3.03-6.75-6.75c0-2.844 1.463-4.553 3.01-6.358zM7.758 15c0 2.75 1.79 4.75 4.25 4.75c2.34 0 4.25-2.35 4.25-5.25a.754.754 0 0 0-1.01-.71c-.88.33-1.6.33-2.15-.02c-.85-.53-1.25-1.82-1.34-2.84a.75.75 0 0 0-.35-.57a.79.79 0 0 0-.67-.06c-1.79.68-2.98 3.28-2.98 4.7m1.5 0c0-.7.52-1.94 1.22-2.71c.24.93.76 2.1 1.81 2.76q1.035.645 2.37.45c-.32 1.58-1.39 2.75-2.65 2.75c-1.64 0-2.75-1.31-2.75-3.25" color="currentColor"/></svg>