<svg xmlns="http://www.w3.org/2000/svg" width="3em" height="3em" viewBox="0 0 24 24"><path fill="currentColor" fill-rule="evenodd" d="M17 2.5a.755.755 0 0 1 0 1.51a.755.755 0 0 1 0-1.51M6.28 3.55a.764.764 0 0 0-.98.42c-.15.39.04.82.42.98C8.31 5.98 9.85 8 10.64 9.63c-4.25-2.08-7.68-1.02-9.09.05a.75.75 0 0 0-.15 1.05c.25.33.72.39 1.05.14c.93-.69 3.68-1.7 7.36.03c-.62.22-1.22.51-1.75.83c-1.12.66-2.06 1.45-2.59 1.99c-.29.3-.29.77 0 1.06c.3.29.77.29 1.06 0c.46-.46 1.29-1.17 2.29-1.76c.39-.23.79-.43 1.19-.59c-.22.29-.44.63-.66 1c-1.05 1.78-2.1 4.41-2.1 7.82c0 .41.34.75.75.75s.75-.34.75-.75c0-3.09.95-5.46 1.9-7.06c.44-.74.88-1.32 1.22-1.72c.62 1.04 1.09 2.69.78 5.7c-.04.42.26.78.67.83c.42.04.78-.26.83-.67c.25-2.51.01-4.25-.47-5.54c.27.15.55.32.84.52c1.46.99 3.07 2.61 3.76 5.14c.11.4.52.63.92.52s.63-.52.52-.92c-.81-2.97-2.7-4.85-4.36-5.98c-.78-.53-1.51-.9-2.08-1.14c1.47-1.48 4.46-3.21 8.5-1.96c.39.12.81-.1.94-.49a.75.75 0 0 0-.5-.94c-4.01-1.25-7.17.03-9.11 1.55c.57-1.68 1.69-2.81 2.31-3.22c.34-.23.43-.69.2-1.04a.75.75 0 0 0-1.04-.2c-.81.54-2.14 1.87-2.85 3.85c-.98-1.8-2.7-3.83-5.45-4.93m7.47 17.19c0-.41-.34-.75-.75-.75a.755.755 0 0 0 0 1.51c.41 0 .75-.33.75-.75zm7-8.49c0-.41-.34-.75-.75-.75a.755.755 0 0 0 0 1.51c.41 0 .75-.34.75-.75zM11 3.5a.755.755 0 0 1 0 1.51a.755.755 0 0 1 0-1.51m7.75 7.75c0-.41-.34-.75-.75-.75a.755.755 0 0 0 0 1.51c.41 0 .75-.34.75-.75zM3 2.5a.755.755 0 0 1 0 1.51a.755.755 0 0 1 0-1.51m1.75 13.75c0-.41-.34-.75-.75-.75a.755.755 0 0 0 0 1.51c.41 0 .75-.34.75-.75z" color="currentColor"/></svg>