<svg xmlns="http://www.w3.org/2000/svg" width="3em" height="3em" viewBox="0 0 24 24"><path fill="currentColor" d="M8.955 2.846h6.09c.433 0 .83 0 1.152.043c.356.048.731.16 1.04.47c.31.308.422.684.47 1.04c.043.322.043.72.043 1.152v1.045a6.75 6.75 0 0 1-.89 3.349l-.007.012l-1.103 1.846v6.818c0 .444 0 .815-.02 1.12a2.8 2.8 0 0 1-.19.907a2.75 2.75 0 0 1-1.488 1.488c-.29.12-.59.167-.907.189c-.304.02-.675.02-1.12.02h-.05c-.445 0-.816 0-1.12-.02a2.8 2.8 0 0 1-.907-.189a2.75 2.75 0 0 1-1.489-1.488c-.12-.29-.167-.59-.188-.907c-.021-.305-.021-.676-.021-1.12v-6.818L7.147 9.957l-.008-.012a6.75 6.75 0 0 1-.889-3.346V5.551c0-.433 0-.83.043-1.152c.048-.356.16-.732.47-1.04c.309-.31.684-.422 1.04-.47c.323-.043.72-.043 1.152-.043m-.517 6.348l1.206 2.017a.75.75 0 0 1 .106.385v7c0 .476 0 .796.017 1.043c.017.24.046.358.078.435c.127.306.37.55.677.676c.077.032.194.062.435.078c.247.017.567.018 1.043.018s.796 0 1.043-.018c.241-.016.358-.046.435-.078c.307-.126.55-.37.677-.676c.032-.077.061-.194.078-.435c.017-.247.017-.567.017-1.043v-7a.75.75 0 0 1 .106-.385l1.206-2.017c.326-.573.54-1.2.634-1.848H7.804a5.3 5.3 0 0 0 .634 1.848m7.812-3.598c0-.493-.002-.787-.03-.998a.7.7 0 0 0-.042-.177l-.001-.002l-.003-.001l-.01-.005a.7.7 0 0 0-.167-.037c-.21-.029-.504-.03-.997-.03H9c-.493 0-.787.001-.997.03a.7.7 0 0 0-.177.042h-.003l-.001.003l-.005.01a.7.7 0 0 0-.037.167c-.028.211-.03.505-.03.998v.25h8.5zm-3.5 8a.75.75 0 0 0-1.5 0v2a.75.75 0 0 0 1.5 0z" color="currentColor"/></svg>