<svg xmlns="http://www.w3.org/2000/svg" width="3em" height="3em" viewBox="0 0 24 24"><path fill="currentColor" fill-rule="evenodd" d="M2.48 2.679a.735.735 0 0 0-1.05.09c-.27.32-.23.79.09 1.05c.37.31.77.6 1.21.87l-1.45 4.84a.757.757 0 0 0 1 .92l1.96-.79l1.16 1.54c.17.22.44.34.72.29c.28-.04.5-.24.59-.5l1.44-4.33c.36.07.73.12 1.1.17v4.42c0 .28.16.54.41.67c.26.13.56.1.79-.07L12 10.69l1.55 1.16c.23.17.53.2.79.07a.76.76 0 0 0 .41-.67V6.83c.37-.05.74-.1 1.1-.17l1.44 4.33c.09.26.31.46.59.5c.28.05.55-.07.72-.29l1.16-1.54l1.96.79a.757.757 0 0 0 1-.92l-1.45-4.84c.44-.27.84-.56 1.21-.87c.32-.26.36-.73.09-1.05a.735.735 0 0 0-1.05-.09C19.53 4.34 16.05 5.5 12 5.5S4.47 4.34 2.48 2.68m17.44 2.73c-.8.37-1.67.68-2.6.92l.94 2.83l.64-.86c.2-.27.56-.37.88-.25l1.06.43zM3.17 8.479l.91-3.07c.8.37 1.67.68 2.6.92l-.94 2.83l-.64-.86a.76.76 0 0 0-.88-.25zm10.08-1.51a26 26 0 0 1-2.5 0v2.78l.8-.6c.27-.2.63-.2.9 0l.8.6zm-11.82 5.8c.26-.32.73-.36 1.05-.09c1.99 1.66 5.47 2.82 9.52 2.82s7.53-1.16 9.52-2.82c.32-.27.79-.23 1.05.09c.27.32.23.79-.09 1.05c-.37.31-.77.6-1.21.87l1.45 4.84a.757.757 0 0 1-1 .92l-1.96-.79l-1.16 1.54c-.17.22-.44.34-.72.29a.74.74 0 0 1-.59-.5l-1.44-4.33c-.36.07-.73.12-1.1.17v4.42c0 .28-.16.54-.41.67c-.26.13-.56.1-.79-.07L12 20.69l-1.55 1.16c-.23.17-.53.2-.79.07a.76.76 0 0 1-.41-.67v-4.42c-.37-.05-.74-.1-1.1-.17l-1.44 4.33a.74.74 0 0 1-.59.5a.74.74 0 0 1-.72-.29l-1.16-1.54l-1.96.79a.757.757 0 0 1-1-.92l1.45-4.84c-.44-.27-.84-.56-1.21-.87a.735.735 0 0 1-.09-1.05m15.89 3.56l.94 2.83l.64-.86c.2-.27.56-.37.88-.25l1.06.43l-.92-3.07c-.8.37-1.67.68-2.6.92m-13.24-.92c.8.37 1.67.68 2.6.92l-.94 2.83l-.64-.86a.76.76 0 0 0-.88-.25l-1.05.43zm6.67 1.56v2.78l.8-.6c.27-.2.63-.2.9 0l.8.6v-2.78a26 26 0 0 1-2.5 0" color="currentColor"/></svg>