<svg xmlns="http://www.w3.org/2000/svg" width="3em" height="3em" viewBox="0 0 24 24"><path fill="currentColor" fill-rule="evenodd" d="M7.606 13.484h.29l.02.03c.54 0 .92 0 1.3-.3c.36-.31.43-.72.51-1.2l.09-.56l.098-.056q.138-.077.272-.164l.52.19c.43.17.84.33 1.34.17c.435-.158.636-.492.901-.934l.01-.016l.2-.34c.23-.4.43-.75.34-1.17c-.08-.46-.38-.71-.8-1.05l-.45-.37v-.42l.47-.38l.012-.01c.384-.315.688-.565.757-.99c.1-.457-.108-.816-.366-1.262l-.004-.008l-.16-.27c-.26-.45-.47-.8-.92-.96c-.44-.15-.83-.01-1.31.17l-.53.19c-.12-.08-.25-.15-.379-.22l-.09-.56c-.08-.49-.15-.9-.52-1.21c-.36-.3-.77-.3-1.29-.3h-.29c-.53 0-.92 0-1.3.3c-.36.3-.43.7-.51 1.2l-.1.56c-.13.07-.26.14-.38.22l-.53-.2h-.003c-.489-.18-.868-.32-1.318-.17c-.45.16-.66.51-.92.96l-.19.32c-.24.41-.44.77-.35 1.19c.08.47.38.72.8 1.06l.45.37v.4l-.48.39c-.39.31-.7.56-.77.99c-.1.46.1.81.37 1.28l.17.29l.012.02c.254.42.455.753.918.92c.437.146.846-.01 1.253-.166l.037-.014l.53-.2c.13.08.25.15.38.22l.11.61c.07.45.14.85.53 1.18c.36.27.74.27 1.27.27m0-1.5h-.29l.04-.02l-.007-.053a3 3 0 0 0-.033-.207l-.17-.95a.74.74 0 0 0-.45-.56c-.27-.11-.52-.25-.77-.44c-.2-.16-.47-.2-.71-.11l-.91.34q-.059.018-.139.051c-.044.018-.09.036-.13.05q-.075-.105-.15-.24l-.19-.32c-.03-.06-.06-.11-.09-.16l.19-.16l.77-.62c.21-.17.32-.44.27-.71c-.03-.14-.03-.28-.03-.41s.01-.27.03-.4a.77.77 0 0 0-.27-.71l-.79-.63l-.063-.05c-.042-.034-.084-.067-.118-.1l.03-.051q.037-.065.09-.15l.16-.27c.026-.05.06-.106.091-.158l.05-.082l.14.05q.07.027.14.05l.9.33c.23.09.5.05.71-.11c.25-.19.5-.33.76-.43c.24-.1.41-.31.46-.57l.18-1.01q.006-.048.014-.09a.6.6 0 0 0 .015-.11h.87c.006.046.015.1.024.149l.016.101l.16.95c.05.26.22.47.47.57c.28.11.53.26.75.43c.2.16.48.2.72.11l.9-.33c.09-.03.2-.07.28-.1l.025.044c.035.061.075.132.115.196l.18.31c.04.07.07.12.1.17l-.083.067l-.117.093l-.76.62c-.2.16-.3.43-.27.68l.011.134c.01.1.02.203.02.306c0 .135-.017.26-.034.4l-.007.05c-.03.26.07.51.27.67l.78.64l.003.003l.167.137l-.03.051q-.037.065-.09.15l-.17.29v.001c-.05.08-.1.159-.14.228c-.1-.03-.21-.07-.28-.1l-.9-.33a.78.78 0 0 0-.71.11c-.24.18-.49.33-.77.44c-.24.1-.41.31-.45.57l-.16.95l-.007.054a2 2 0 0 1-.033.196zm8 11h.29l.02.02c.54 0 .92 0 1.3-.3c.36-.31.43-.72.51-1.2l.09-.56l.098-.056c.09-.052.184-.105.272-.164l.52.19c.43.17.84.33 1.34.17c.436-.158.636-.492.901-.934l.01-.016l.2-.34l.014-.026c.214-.39.404-.733.316-1.154c-.08-.46-.39-.72-.8-1.05l-.45-.36v-.41l.45-.37l.012-.01c.394-.325.708-.584.777-1.01c.09-.46-.1-.81-.37-1.28l-.17-.29l-.011-.019c-.255-.42-.456-.753-.918-.92c-.46-.15-.87.01-1.29.18l-.53.19c-.12-.08-.25-.15-.38-.22l-.09-.56c-.08-.48-.15-.89-.53-1.22c-.36-.29-.74-.29-1.28-.29h-.29c-.53 0-.91 0-1.31.3c-.35.31-.42.7-.5 1.2l-.1.57c-.13.07-.26.14-.38.22l-.52-.19c-.43-.17-.84-.33-1.34-.17c-.436.158-.636.492-.901.934l-.01.015l-.2.34l-.014.027c-.214.389-.404.733-.316 1.153c.08.46.39.72.8 1.05l.45.36v.4l-.46.37l-.012.01c-.394.326-.708.585-.777 1.01c-.09.46.1.81.37 1.28l.17.29l.011.02c.255.42.456.753.918.92c.437.146.846-.01 1.254-.166l.037-.014l.53-.2c.13.08.25.15.38.22l.11.61c.07.45.14.85.53 1.18c.36.27.74.27 1.27.27m-.28-1.5h.86a2 2 0 0 0 .04-.25l.16-.95c.04-.26.21-.47.45-.57c.28-.11.53-.26.77-.44c.2-.16.47-.19.71-.11l.9.33c.07.03.18.07.28.1c.04-.07.09-.15.14-.23l.17-.29q.053-.084.09-.149l.018-.03l.012-.02l-.026-.023a4 4 0 0 0-.173-.138l-.75-.61c-.2-.16-.3-.41-.28-.67l.008-.073c.017-.138.032-.259.032-.387c0-.15-.02-.3-.04-.44a.75.75 0 0 1 .27-.67l.76-.62l.1-.08l.1-.08c-.03-.05-.06-.1-.09-.16l-.19-.31q-.075-.135-.15-.24l-.131.05c-.052.02-.102.04-.14.05l-.91.34c-.24.09-.52.05-.72-.11c-.22-.17-.47-.32-.76-.44a.74.74 0 0 1-.45-.57l-.16-.95l-.016-.101l-.024-.149h-.87l-.03.2l-.18 1.01c-.04.25-.22.46-.45.56c-.28.11-.53.26-.77.44a.78.78 0 0 1-.71.11l-.9-.33c-.07-.03-.18-.07-.28-.1c-.04.07-.089.15-.139.229v.001l-.17.29l-.09.15l-.03.05l.025.022c.054.045.114.096.175.138l.77.62c.21.17.32.45.27.72c-.02.13-.03.26-.03.4s0 .27.03.4c.05.27-.05.54-.27.72l-.77.62l-.095.08h-.001l-.095.08c.03.05.06.1.09.16l.19.31q.075.135.15.24q.064-.02.132-.049c.051-.02.1-.04.139-.05l.91-.34c.24-.09.51-.05.71.11c.25.19.5.33.77.44c.24.1.41.31.45.56l.17.95q.021.115.032.207zm-7.58-12.5c-.83 0-1.5-.67-1.5-1.5s.67-1.5 1.5-1.5s1.5.67 1.5 1.5s-.67 1.5-1.5 1.5m6.5 8c0 .83.67 1.5 1.5 1.5s1.5-.67 1.5-1.5s-.67-1.5-1.5-1.5s-1.5.67-1.5 1.5" color="currentColor"/></svg>