<svg xmlns="http://www.w3.org/2000/svg" width="3em" height="3em" viewBox="0 0 24 24"><path fill="currentColor" d="M14.054 3.5h-4.11c-1.84 0-3.29 0-4.43.15c-1.17.16-2.12.49-2.87 1.24s-1.08 1.7-1.24 2.87c-.15 1.14-.15 2.6-.15 4.43v.12c0 1.83 0 3.29.15 4.43c.16 1.17.49 2.12 1.24 2.87s1.7 1.08 2.87 1.24c1.14.15 2.59.15 4.43.15h4.11c1.84 0 3.29 0 4.43-.15c1.17-.16 2.12-.49 2.87-1.24s1.08-1.7 1.24-2.87c.15-1.14.15-2.6.15-4.43v-.12c0-1.83 0-3.29-.15-4.43c-.16-1.17-.49-2.12-1.24-2.87s-1.7-1.08-2.87-1.24c-1.14-.15-2.59-.15-4.43-.15m-8.35 1.64c.89-.12 2.02-.14 3.54-.14v5.44l-1.72-1.72a.754.754 0 0 0-1.06 0c-.29.29-.29.77 0 1.06l1.72 1.72h-5.44c0-1.52.02-2.65.14-3.54c.14-1.01.39-1.58.81-2.01c.42-.42 1-.67 2.01-.81M8.184 13l-1.72 1.72c-.29.29-.29.77 0 1.06s.77.29 1.06 0l1.72-1.72v5.44c-1.52 0-2.65-.02-3.54-.14c-1.01-.14-1.59-.39-2.01-.81c-.42-.43-.67-1-.81-2.01c-.12-.89-.14-2.02-.14-3.54zm2.56 1.06l1.72 1.72c.29.29.77.29 1.06 0s.29-.77 0-1.06L11.804 13h9.44c0 1.52-.02 2.65-.14 3.54c-.13 1.01-.39 1.58-.81 2.01c-.42.42-1 .67-2.01.81c-1.03.14-2.38.14-4.29.14h-3.25zm1.06-2.56l1.72-1.72c.29-.29.29-.77 0-1.06a.754.754 0 0 0-1.06 0l-1.72 1.72V5h3.25c1.91 0 3.26 0 4.29.14c1.01.14 1.59.39 2.01.81c.42.43.67 1 .81 2.01c.12.89.14 2.02.14 3.54z" color="currentColor"/></svg>