<svg xmlns="http://www.w3.org/2000/svg" width="3em" height="3em" viewBox="0 0 24 24"><path fill="currentColor" fill-rule="evenodd" d="M11.25 6.022V4.5H9.5c-.41 0-.75-.34-.75-.75S9.09 3 9.5 3h5c.41 0 .75.34.75.75s-.34.75-.75.75h-1.75v1.522c4.076.349 7.42 3.509 7.929 7.628c.03.21.27.49.66.72c.61.4 1.02 1.03 1.14 1.72l.24.97a.754.754 0 0 1-.73.93l.01.01h-20a.754.754 0 0 1-.73-.93l.25-1.02c.11-.64.52-1.27 1.12-1.66c0 0 .01 0 .02-.01c.39-.24.63-.51.66-.73c.51-4.11 3.854-7.28 7.931-7.628M21.049 16.5H2.96l.028-.13c.05-.29.22-.54.47-.71c.8-.49 1.26-1.12 1.35-1.81c.45-3.61 3.54-6.34 7.2-6.34s6.75 2.72 7.2 6.34c.09.69.56 1.32 1.34 1.8c.25.16.42.42.48.76zm1.701 4.25c0 .41-.34.75-.75.75H2c-.41 0-.75-.34-.75-.75S1.59 20 2 20h20c.41 0 .75.34.75.75M20.5 9.5c-.28 0-.54-.15-.67-.42a.745.745 0 0 1 .34-1.01l1-.5c.37-.18.82-.04 1.01.34c.19.37.04.82-.34 1.01l-1 .5a.8.8 0 0 1-.33.08zm-2-2c-.11 0-.23-.03-.33-.08a.763.763 0 0 1-.34-1.01l.5-1c.19-.37.64-.52 1.01-.34c.37.19.52.64.34 1.01l-.5 1c-.13.26-.4.42-.67.42zM3.17 9.42c.1.05.22.08.33.08h.01c.27 0 .54-.16.67-.42c.18-.37.03-.82-.34-1.01l-1-.5a.763.763 0 0 0-1.01.34c-.18.37-.03.82.34 1.01zm1.66-2.34c.13.27.39.42.67.42h.01a.8.8 0 0 0 .33-.08c.38-.19.53-.64.34-1.01l-.5-1a.745.745 0 0 0-1.01-.34c-.38.19-.53.64-.34 1.01z" color="currentColor"/></svg>