<svg xmlns="http://www.w3.org/2000/svg" width="3em" height="3em" viewBox="0 0 24 24"><path fill="currentColor" fill-rule="evenodd" d="M3.058 20.55h.04c.44 0 .86-.16 1.22-.49c.04-.04.13-.13.57-.79l.25-.4c.03-.05.07-.14.07-.14l1.05-3.381v3.35q.002.202.008.277l.002.043c.01.29.08.58.22.93l.13.25c.19.37.31.6.41.73c.41.56 1.05.96 1.75 1.08c.22.04.45.04.85.04h4.76l-.01.03c.41 0 .63 0 .85-.04c.7-.13 1.34-.52 1.73-1.06c.112-.14.224-.358.393-.687l.037-.073l.16-.32c.12-.29.19-.58.19-.8c.02-.09.02-.19.02-.39v-3.394l.88 2.875l.2.54c.02.05.07.14.07.14l.26.42c.43.64.52.73.59.8c.33.3.75.46 1.19.46v.01h.01c.2 0 .36-.04.68-.12l.08-.021c.258-.069.448-.12.63-.22c.42-.24.73-.64.85-1.11c.04-.16.05-.42.05-1.16l-.03-.57a1 1 0 0 0-.02-.14l-2.75-9.56c-.37-1.3-.58-2.02-1.08-2.63c-.499-.599-1.148-.929-2.366-1.548l-.003-.001l-1.53-.775a.75.75 0 0 0-.461-.156h-5.93a.75.75 0 0 0-.448.104l-1.642.826c-1.2.6-1.85.94-2.35 1.54c-.485.591-.688 1.286-1.045 2.511l-.035.12l-2.63 9.08l-.12.49c-.02.05-.02.14-.02.14l-.03.61c0 .7.01.95.05 1.13c.12.46.43.86.85 1.09c.21.11.41.17.79.26l.023.005c.237.057.393.094.587.094M8.73 4.286l-1.033.522l-.035.018c-1.047.528-1.558.786-1.855 1.152c-.3.37-.47.94-.8 2.09l-2.71 9.44l-.03.5c0 .2 0 .61.02.77c0 .02.05.08.12.11c.046.02.105.036.192.058l.158.042l.041.011c.16.042.224.06.289.06c.02 0 .12-.02.18-.07l.04-.06c.094-.14.31-.462.31-.47l.2-.32l.17-.47l2.27-7.395V8.319c0-.41.34-.75.75-.75s.75.34.75.75v1.759a.76.76 0 0 1 0 .441v8.37c.01.19.04.31.09.44l.11.21l.05.101c.083.167.162.326.22.41c.2.27.49.45.81.51c.13.02.29.02.59.02h4.76c.3 0 .46 0 .59-.02c.33-.06.61-.23.79-.49c.051-.077.11-.191.175-.315q.055-.106.115-.216l.14-.27c.02-.07.05-.19.06-.31c.006-.072.004-.118.002-.167l-.002-.083v-8.356a1 1 0 0 1 0-.11V8.33c0-.41.34-.75.75-.75s.75.34.75.75v1.845l2.47 7.956l.21.34s.3.45.39.57c0 0 .06.02.12.02c.038 0 .079-.012.135-.028q.052-.015.126-.032l.157-.04c.131-.031.2-.048.253-.07c.06-.03.11-.09.13-.16c.006-.074.004-.284.002-.486l-.002-.274l-.03-.46l-.1-.42l-2.61-9.02c-.33-1.15-.5-1.73-.8-2.09c-.297-.356-.808-.614-1.834-1.132l-.036-.018l-1.059-.536l-1.772 2.915c-.68 1.12-2.32 1.12-3 0zm1.61-.238l1.447 2.38c.1.16.34.16.44 0l1.447-2.38z" color="currentColor"/></svg>