<svg xmlns="http://www.w3.org/2000/svg" width="3em" height="3em" viewBox="0 0 24 24"><path fill="currentColor" fill-rule="evenodd" d="M9.494 21.072c-3.46 0-5.2 0-6.51-1.08c-.22-.17-.44-.39-.65-.65c-1.08-1.32-1.08-3.06-1.08-6.52s0-5.2 1.08-6.52c.22-.26.44-.48.67-.66c1.3-1.07 3.04-1.07 6.5-1.07s5.2 0 6.51 1.08c.22.17.44.39.65.65c.683.836.934 1.84 1.026 3.34l1.304-1.74c.4-.52 1.02-.83 1.67-.83c1.15 0 2.08.93 2.08 2.08v7.34c0 1.15-.93 2.08-2.08 2.08h-.01c-.65 0-1.27-.31-1.66-.83l-1.304-1.74c-.092 1.5-.343 2.501-1.026 3.33c-.21.26-.44.48-.66.66c-1.31 1.08-3.05 1.08-6.51 1.08m0-15c-3.1 0-4.66 0-5.56.74c-.16.13-.31.27-.45.45c-.74.9-.74 2.46-.74 5.56s0 4.66.74 5.56c.14.17.29.32.44.44c.91.75 2.47.75 5.57.75s4.66 0 5.56-.74h.01c.15-.12.3-.26.44-.44c.74-.9.74-2.46.74-5.56s0-4.66-.74-5.56c-.14-.17-.29-.32-.44-.44c-.91-.75-2.47-.75-5.57-.75zm8.25 7.5l2.45 3.27c.11.14.28.23.47.23c.32 0 .58-.26.58-.58v-7.34a.58.58 0 0 0-.58-.58c-.18 0-.36.09-.47.23l-2.45 3.27zm-10.5-.75c0 1.24 1.01 2.25 2.25 2.25s2.25-1.01 2.25-2.25s-1.01-2.25-2.25-2.25s-2.25 1.01-2.25 2.25" color="currentColor"/></svg>