<svg xmlns="http://www.w3.org/2000/svg" width="3em" height="3em" viewBox="0 0 24 24"><path fill="currentColor" fill-rule="evenodd" d="M19.438 3.67c-.37-.8-1.51-.8-1.88 0l-.39.84c-.1.21-.27.38-.48.48l-.84.39c-.8.37-.8 1.51 0 1.88l.84.39c.21.1.38.27.48.48l.39.84c.37.8 1.51.8 1.88 0l.39-.84c.1-.21.27-.38.48-.48l.84-.39c.8-.37.8-1.51 0-1.88l-.84-.39c-.21-.1-.38-.27-.48-.48zm-2.06 2.65c.49-.24.88-.64 1.12-1.12c.24.49.64.88 1.12 1.12c-.49.24-.88.64-1.12 1.12c-.24-.49-.64-.88-1.12-1.12m-3.72 4.26c-.68-.68-1.78-.68-2.46 0l-.04.04l-.74.74l-7.53 7.53c-.84.84-.84 2.2 0 3.05s2.2.84 3.05 0l8.31-8.31c.68-.68.68-1.78 0-2.46l-.58-.58zm-9.72 9.38l7-7l.92.92l-7 7a.64.64 0 0 1-.92 0a.65.65 0 0 1 0-.92m15.5-5.29l.39.84c.1.21.27.38.48.48l.84.39c.8.37.8 1.51 0 1.88l-.84.39c-.21.1-.38.27-.48.48l-.39.84c-.37.8-1.51.8-1.88 0l-.39-.84c-.1-.21-.27-.38-.48-.48l-.84-.39c-.8-.37-.8-1.51 0-1.88l.84-.39c.21-.1.38-.27.48-.48l.39-.84c.37-.8 1.51-.8 1.88 0m-.94 1.53c-.24.49-.64.88-1.12 1.12c.49.24.88.64 1.12 1.12c.24-.49.64-.88 1.12-1.12c-.49-.24-.88-.64-1.12-1.12M8.438 3.67c-.37-.8-1.51-.8-1.88 0l-.39.84c-.1.21-.27.38-.48.48l-.84.39c-.8.37-.8 1.51 0 1.88l.84.39c.21.1.38.27.48.48l.39.84c.37.8 1.51.8 1.88 0l.39-.84c.1-.21.27-.38.48-.48l.84-.39c.8-.37.8-1.51 0-1.88l-.84-.39c-.21-.1-.38-.27-.48-.48zm-2.06 2.65c.49-.24.88-.64 1.12-1.12c.24.49.64.88 1.12 1.12c-.49.24-.88.64-1.12 1.12c-.24-.49-.64-.88-1.12-1.12" color="currentColor"/></svg>