<svg xmlns="http://www.w3.org/2000/svg" width="3em" height="3em" viewBox="0 0 24 24"><path fill="currentColor" d="m11.56 11.735l-3.918 1.78l1.736.668l8.423-3.611l-.554-.214l-1.917.737l-.07.026c-1.108.425-1.785.684-2.51.684c-.34 0-.67-.057-1.04-.162a.7.7 0 0 1-.15.092m-.179 3.222c.644.25 1.006.375 1.369.375c.412 0 .823-.161 1.647-.484l.393-.153l3.46-1.33l.09-.036c1.208-.47 2.543-.991 2.66-1.274c-.07-.169-.572-.422-1.221-.698zm-1.652-4.032l-1.476-.567l-1.003.387l-.09.035c-1.208.47-2.543.992-2.66 1.275c.07.168.568.42 1.215.695zm-3.563-1.37C4.121 8.76 3 8.235 3 7.055c0-1.28 1.32-1.79 3.71-2.71l3.46-1.33l.07-.027c1.108-.424 1.785-.683 2.51-.683s1.402.259 2.51.683l.07.027l3.46 1.33c2.39.92 3.71 1.43 3.71 2.71c0 1.18-1.12 1.705-3.166 2.5c2.045.795 3.166 1.32 3.166 2.5s-1.12 1.704-3.165 2.5c2.052.795 3.165 1.32 3.165 2.5c0 1.28-1.32 1.79-3.71 2.71l-3.46 1.33l-.07.026c-1.108.425-1.785.684-2.51.684s-1.402-.26-2.51-.684l-.07-.026l-3.46-1.33c-2.39-.92-3.71-1.43-3.71-2.71c0-1.18 1.12-1.705 3.166-2.5C4.121 13.76 3 13.234 3 12.055s1.12-1.705 3.166-2.5M8.26 15.36l-1.01.385c-1.23.47-2.63 1.01-2.75 1.31c.117.283 1.452.803 2.66 1.274l.09.036l3.46 1.33c1.095.425 1.567.637 2.04.637s.945-.212 2.04-.637l3.46-1.33l.09-.036c1.208-.47 2.543-.991 2.66-1.274c-.117-.283-1.452-.804-2.66-1.275l-.09-.035l-1.01-.385l-1.91.735l-.07.026c-1.108.425-1.785.684-2.51.684s-1.402-.26-2.51-.684l-.07-.026zm.245-6.513l.032.012l2.173.836l.393.153c.824.323 1.235.484 1.647.484s.823-.161 1.647-.484l.393-.153l3.46-1.33l.09-.036c1.208-.47 2.543-.991 2.66-1.274c-.117-.283-1.452-.804-2.66-1.275l-.09-.035l-3.46-1.33c-1.1-.42-1.6-.61-2.04-.61s-.95.19-2.04.61l-3.46 1.33l-.09.035c-1.208.47-2.543.992-2.66 1.275c.117.283 1.452.803 2.66 1.274l.09.036z" color="currentColor"/></svg>