<svg xmlns="http://www.w3.org/2000/svg" width="3em" height="3em" viewBox="0 0 24 24"><path fill="currentColor" fill-rule="evenodd" d="M15.15 16.189c.14.25.39.38.65.38v-.01c.12 0 .25-.03.37-.1l2.2-1.27a.746.746 0 0 0-.75-1.29l-2.2 1.27c-.35.2-.48.66-.27 1.02m-2.09-2.19c.34.21.74.32 1.15.32l.01-.01c.61 0 1.11-.29 2.01-.82c.87-.49 1.4-.8 1.73-1.35c.19-.36.29-.74.29-1.13c0-.63-.32-1.18-.81-2.01l-3.04-5.29a3.3 3.3 0 0 0-4.5-1.2a3.31 3.31 0 0 0-1.2 4.51l.705 1.215a2.26 2.26 0 0 0-.54.873c-2.593.315-4.615 2.536-4.615 5.212c0 2.71 2.077 4.955 4.72 5.223l-.508 1.527H4c-.41 0-.75.34-.75.75s.34.75.75.75h4.896q.105.015.209 0h4.394l-.01.01a1 1 0 0 0 .128-.01H20c.41 0 .75-.34.75-.75s-.34-.75-.75-.75h-5.963l-.498-1.5H18c.41 0 .75-.34.75-.75s-.34-.75-.75-.75h-4.958l-.103-.31c-.25-.71-.92-1.18-1.72-1.18c-.74 0-1.41.47-1.66 1.19l-.1.3a3.751 3.751 0 0 1-.563-7.452a2.255 2.255 0 0 0 2.672 1.379l.172.293l.005.008c.497.875.797 1.402 1.315 1.702m-.246-2.85l.226.39l.008.013c.336.593.593 1.048.772 1.157c.13.08.25.11.39.11c.191 0 .548-.207 1.093-.523l.167-.097l.078-.045c.579-.336.987-.573 1.102-.755a.8.8 0 0 0 .09-.38c0-.21-.23-.62-.61-1.26l-3.04-5.3a1.784 1.784 0 0 0-2.45-.65c-.86.5-1.15 1.6-.65 2.46l.762 1.313a2.253 2.253 0 0 1 2.498 2.236c0 .497-.162.957-.436 1.33m-2.155-1.997a.74.74 0 0 1 .34-.083c.411 0 .751.34.751.75s-.34.75-.75.75s-.75-.34-.75-.75c0-.288.168-.542.41-.667m1.801 11.917h-2.413l.932-2.82c.03-.11.13-.18.3-.18c.11 0 .21.08.24.17l.254.763q.014.05.033.097z" color="currentColor"/></svg>