<svg xmlns="http://www.w3.org/2000/svg" width="3em" height="3em" viewBox="0 0 24 24"><path fill="currentColor" fill-rule="evenodd" d="M10.958 3.932c-.5.73-1.06 1.86-1.85 3.46l-.98 2l3.87 3.87l3.87-3.87l-.98-2c-.79-1.6-1.34-2.73-1.85-3.46c-.51-.74-.82-.86-1.04-.86s-.53.12-1.04.86m5.61 6.88l-4.04 4.04c-.29.29-.77.29-1.06 0l-4.04-4.04c-.27.55-.45.94-.57 1.25c-.12.35-.13.54-.1.69c.03.16.1.33.34.61c.24.29.6.63 1.15 1.13l1.57 1.48c.66.61 1.09 1.02 1.46 1.29c.35.25.55.31.72.31s.37-.06.72-.31c.37-.27.81-.68 1.46-1.29l1.57-1.48c.54-.5.9-.84 1.15-1.13c.23-.28.31-.45.34-.61c.03-.15.02-.34-.1-.69c-.11-.31-.3-.7-.56-1.25zm-6.85-7.73c.57-.84 1.27-1.51 2.28-1.51s1.7.67 2.28 1.51c.57.84 1.17 2.06 1.93 3.59l1.62 3.29c.31.63.56 1.15.72 1.6c.17.48.26.95.17 1.46s-.34.92-.67 1.3l-.03.04c.22.45.4.85.53 1.2c.17.48.26.95.17 1.46s-.34.91-.67 1.3c-.31.37-.73.77-1.23 1.24l-1.64 1.53c-.61.58-1.12 1.06-1.58 1.39c-.48.34-.99.59-1.6.59s-1.12-.25-1.6-.59c-.46-.33-.97-.81-1.58-1.39l-.04-.03l-1.6-1.5c-.5-.47-.93-.87-1.23-1.24c-.33-.39-.57-.79-.67-1.3c-.09-.51 0-.98.17-1.46c.12-.35.31-.75.53-1.2l-.03-.04c-.33-.38-.57-.79-.67-1.3c-.09-.51 0-.98.17-1.46c.16-.45.42-.97.72-1.6l1.62-3.29c.75-1.53 1.35-2.75 1.93-3.59m7.09 12.48l.08-.07c.1.22.18.4.24.57c.12.34.13.53.1.69s-.1.33-.34.61c-.24.29-.6.62-1.15 1.13l-1.57 1.48c-.66.61-1.09 1.02-1.46 1.29c-.35.25-.55.31-.72.31s-.37-.06-.72-.31c-.37-.27-.81-.68-1.46-1.29l-1.57-1.48c-.54-.51-.9-.84-1.15-1.13c-.23-.28-.31-.45-.34-.61s-.02-.35.1-.69c.06-.17.14-.35.24-.57l.08.07l1.6 1.5l.04.04c.61.57 1.12 1.05 1.58 1.38c.48.35.99.59 1.6.59s1.12-.24 1.6-.59c.46-.33.97-.81 1.58-1.38z" color="currentColor"/></svg>