<svg xmlns="http://www.w3.org/2000/svg" width="3em" height="3em" viewBox="0 0 24 24"><path fill="currentColor" fill-rule="evenodd" d="M12 23C6.07 23 1.25 18.18 1.25 12.25S6.07 1.5 12 1.5s10.75 4.82 10.75 10.75S17.93 23 12 23m0-20c-5.1 0-9.25 4.15-9.25 9.25S6.9 21.5 12 21.5s9.25-4.15 9.25-9.25S17.1 3 12 3M7.3 18.5c-.44 0-.8-.13-1.11-.44c-.866-.866-.384-2.04.578-4.381l.012-.029l1.12-2.73l.045-.108c.35-.84.542-1.298.935-1.682c.4-.4.876-.6 1.717-.953l.063-.027l2.73-1.12c2.28-.95 3.53-1.46 4.4-.6c.867.867.384 2.04-.578 4.381l-.012.029l-1.12 2.73l-.045.108c-.35.84-.541 1.298-.935 1.682c-.4.4-.876.6-1.716.953l-.064.027l-2.73 1.12c-1.46.61-2.5 1.04-3.29 1.04m9.36-11.02c-.4 0-1.6.5-2.68.95l-2.73 1.12c-.78.32-1.1.46-1.29.65c-.19.18-.335.533-.59 1.152l-.04.098l-1.14 2.78l-.047.114c-.468 1.14-.979 2.386-.863 2.676c.27.1 1.6-.45 2.76-.93l2.74-1.12c.78-.32 1.1-.46 1.29-.65c.19-.18.335-.533.59-1.152l.04-.098l1.14-2.78l.047-.114c.468-1.14.98-2.386.863-2.676l-.032-.004q-.023-.005-.048-.006zM11 12.26c0 .55.45 1 1 1v.01c.55 0 1-.45 1-1.01s-.45-1-1-1s-1 .45-1 1" color="currentColor"/></svg>