<svg xmlns="http://www.w3.org/2000/svg" width="3em" height="3em" viewBox="0 0 24 24"><path fill="currentColor" fill-rule="evenodd" d="m13.87 2.073l4.2 1.61h.01l.012.005c2.442.937 3.668 1.407 3.668 2.625v12c0 1.219-1.226 1.689-3.669 2.626l-.011.004l-4.2 1.61c-.85.33-1.32.51-1.88.51s-1.03-.18-1.88-.51l-4.19-1.61l-.012-.004c-2.442-.937-3.668-1.407-3.668-2.626v-12c0-1.218 1.226-1.688 3.668-2.625l.012-.005l4.19-1.61c1.7-.65 2.05-.65 3.75 0m3.762 5.435c1.23-.479 2.472-.961 2.628-1.235v-.01c-.16-.21-1.46-.71-2.72-1.19l-.55-.21a.7.7 0 0 1-.2.13l-8.08 3.4l1.95.75l.353.14c.45.18.688.274.907.29c.02-.01.04-.02.08-.02q.03.001.052.012a.1.1 0 0 0 .038.008c.21-.016.452-.11.896-.283l.354-.137l4.2-1.61zM10.66 3.473l-4.2 1.61v-.01l-.146.057c-1.193.461-2.391.925-2.564 1.203v.02c.164.203 1.372.667 2.58 1.13l.13.05l.23.09h.02l8.32-3.5l-1.69-.65l-.037-.014c-.733-.28-1.037-.396-1.303-.396c-.27 0-.59.12-1.34.41M6.285 19.476l.175.067v-.01l4.2 1.61l.354.138q.128.053.236.092v-10.43c-.32-.08-.67-.21-1.13-.39l-2.37-.91v1.17c0 .41-.34.75-.75.75s-.75-.34-.75-.75v-1.74l-.32-.12l-.427-.167c-.697-.272-1.277-.499-1.753-.733v10.26c.134.23 1.331.695 2.535 1.163m7.055 1.677l4.2-1.61h-.01c1.27-.48 2.57-.98 2.72-1.27V8.053c-.57.28-1.29.56-2.18.9l-4.19 1.61l-.166.06a16 16 0 0 1-.964.33v10.43q.107-.04.236-.092zm-6.16-7.21l1.51.66l.02.01c.35.155.624.276.83.59c.2.31.2.62.2 1.02v.84c0 .84 0 1.45-.56 1.82c-.2.14-.41.19-.62.19c-.38 0-.79-.17-1.26-.38l-1.51-.66l-.02-.009c-.35-.155-.624-.277-.83-.59c-.2-.31-.2-.62-.2-1.02v-.84c0-.84 0-1.45.56-1.82c.57-.38 1.15-.13 1.88.19m1.07 3.12v-1.02a2 2 0 0 1-.16-.07l-1.5-.65l-.087-.04a3 3 0 0 0-.253-.11v1.41c.05.02.1.04.16.07l1.5.65l.087.04c.084.04.172.08.253.11z" color="currentColor"/></svg>