<svg xmlns="http://www.w3.org/2000/svg" width="3em" height="3em" viewBox="0 0 24 24"><path fill="currentColor" fill-rule="evenodd" d="M21 1.568c-.41 0-.75.34-.75.75v.25H7.75v-.25c0-.41-.34-.75-.75-.75s-.75.34-.75.75v2c0 .41.34.75.75.75s.75-.34.75-.75v-.25h12.5v.25c0 .41.34.75.75.75s.75-.34.75-.75v-2c0-.41-.34-.75-.75-.75m-16 6.5c.41 0 .75-.34.75-.75s-.34-.75-.75-.75H3c-.41 0-.75.34-.75.75s.34.75.75.75h.25v12.5H3c-.41 0-.75.34-.75.75s.34.75.75.75h2c.41 0 .75-.34.75-.75s-.34-.75-.75-.75h-.25v-12.5zm14.717-.39l.004-.01h-.024l.004-.01l-4.67-1.82c-.86-.33-1.25-.33-2.11 0l-4.67 1.82c-1.26.49-2.03.79-2.03 1.65v10c0 .86.76 1.16 2.03 1.65l4.67 1.82c.43.17.71.28 1.05.28s.63-.11 1.05-.28l4.67-1.82c1.26-.49 2.03-.79 2.03-1.65v-9.99c0-.854-.75-1.156-2.004-1.64m-.02-.008l-.006-.002h.006zm0 0l.02.008l-.276.69l-.27.7q.187.076.37.145l.27.105c-.19.08-.42.17-.64.25l-4.67 1.82c-.23.09-.45.17-.51.17s-.28-.08-.51-.17l-1.27-.5l5.55-2.38l1.4.55l.27-.7zm-6.206-.422l-4.67 1.82l.01.01c-.22.08-.45.17-.64.25q.13.053.27.105l.37.145l1.4.55l5.55-2.38l-1.27-.5c-.23-.09-.45-.17-.51-.17s-.28.08-.51.17m-4.67 12.32l4.43 1.73v-8.41a2 2 0 0 0-.139-.05q-.072-.024-.161-.06l-1.7-.66v1.19c0 .41-.34.75-.75.75s-.75-.34-.75-.75v-1.77l-1.47-.57c-.19-.07-.36-.14-.53-.21v8.36c.21.11.64.28 1.07.45m10.36 0c.42-.16.86-.33 1.07-.45v-8.36c-.17.07-.34.14-.53.21l-4.67 1.82c-.065.03-.122.048-.178.067q-.06.02-.122.043v8.4z" color="currentColor"/></svg>