<svg xmlns="http://www.w3.org/2000/svg" width="3em" height="3em" viewBox="0 0 24 24"><path fill="currentColor" fill-rule="evenodd" d="M12.797 23.072c-.41 0-.75-.34-.75-.75v-4.565l-3.49 3.836c-.3.31-.67.47-1.08.47c-.79 0-1.44-.65-1.44-1.44v-3.554c-1.104-.017-1.785-.112-2.33-.657c-.66-.66-.66-1.52-.66-3.09v-2c0-1.57 0-2.43.66-3.09c.36-.36.779-.523 1.34-.598V3.032c0-.8.66-1.46 1.46-1.46c.38 0 .74.15 1.02.41l4.52 4.528V2.322c0-.41.34-.75.75-.75s.75.34.75.75v4.19l4.51-4.51c.29-.28.66-.43 1.03-.43c.8 0 1.46.65 1.46 1.46v4.602c.56.075.98.238 1.34.598c.66.66.66 1.52.66 3.09v2c0 1.57 0 2.43-.66 3.09c-.55.55-1.238.642-2.36.657v3.554c0 .8-.65 1.44-1.44 1.44l.02.01c-.4 0-.78-.16-1.06-.46l-3.5-3.855v4.564c0 .41-.34.75-.75.75m-.75-7.53v-5.501l-4.09 3.752c-.26.24-.41.58-.41.92v5.78zm1.5-5.502v5.502l4.5 4.95v-5.779c0-.35-.15-.68-.41-.92zm5.98 5.53v-.877c0-.77-.32-1.5-.89-2.03l-3.912-3.59h4.072c1.09 0 1.81 0 2.03.22s.22.94.22 2.029v2c0 1.09 0 1.81-.22 2.03c-.166.167-.618.207-1.3.217M10.84 9.071H6.797c-1.09 0-1.81 0-2.03.22s-.22.94-.22 2.03v2c0 1.09 0 1.81.22 2.03c.164.164.605.206 1.27.217v-.876c0-.76.33-1.5.89-2.03zm7.958-1.5h-4.213l4.462-4.54v4.54zm-7.81 0l-4.51-4.51l.06 4.51z" color="currentColor"/></svg>