<svg xmlns="http://www.w3.org/2000/svg" width="3em" height="3em" viewBox="0 0 24 24"><path fill="currentColor" fill-rule="evenodd" d="M15.906 18.74h.49l.03.03c2.32 0 3.48 0 3.95-1.03c.48-1.05-.36-1.95-1.88-3.57l-.87-.93c.52-.06.88-.19 1.17-.48c.27-.27.44-.62.5-1.04c.07-.74-.41-1.29-1.37-2.39l-.96-1.08c.19-.04.34-.09.49-.18c.66-.4.98-1.16.8-1.91c-.116-.467-.469-.81-1.223-1.545l-.067-.065l-2.13-2.07c-.72-.71-1.25-1.22-1.98-1.22s-1.19.44-1.98 1.2l-2.17 2.09c-.78.74-1.17 1.11-1.29 1.59c-.19.75.14 1.54.82 1.94c.1.06.21.11.34.14l-1.17 1.17c-.92.92-1.38 1.39-1.43 2c-.06.59.19 1.16.66 1.52c.25.2.54.29.95.34l-.87 1.05l-.004.005c-1.337 1.597-2.065 2.466-1.566 3.485c.49.97 1.64.97 3.74.97h.86c.41 0 .75-.34.75-.75s-.34-.75-.75-.75h-.86c-1.09 0-2.21 0-2.39-.11c.01-.254.696-1.08 1.324-1.835l.046-.055l1.85-2.24c.18-.23.22-.54.1-.8a.76.76 0 0 0-.68-.43c-.74 0-1.44 0-1.58-.06c-.07-.05-.1-.12-.1-.16c.056-.158.458-.567.931-1.05l.11-.11l2.3-2.31c.21-.22.28-.54.16-.82a.74.74 0 0 0-.69-.46c-.61 0-1.18 0-1.29-.04c-.1-.06-.16-.17-.14-.24c.05-.118.371-.429.699-.746l.18-.174l2.19-2.11l.086-.081c.361-.344.714-.68.834-.68c.13 0 .61.47.93.79l2.13 2.07l.327.325c.286.282.517.51.553.576c.03.1-.01.2-.09.25c-.15.05-.73.05-1.34.05a.75.75 0 0 0-.56 1.25l1.99 2.24l.077.087c.446.513.895 1.03.933 1.143a.3.3 0 0 1-.042.125q-.008.01-.008.015c-.18.1-1.01.1-1.819.1c-.3 0-.57.18-.69.45s-.07.59.14.81l2.02 2.14c.74.79 1.57 1.68 1.63 1.89c-.22.18-1.44.18-2.61.18h-.49c-.41 0-.75.34-.75.75s.34.75.75.75m-3.93 3.25c0 .41.34.75.75.75s.75-.34.75-.75v-8c0-.41-.34-.75-.75-.75s-.75.34-.75.75z" color="currentColor"/></svg>