<svg xmlns="http://www.w3.org/2000/svg" width="3em" height="3em" viewBox="0 0 24 24"><path fill="currentColor" fill-rule="evenodd" d="M12.05 1.5h-.1c-2.07 0-3.7 0-4.97.16c-1.31.15-2.36.48-3.21 1.22c-.23.19-.45.41-.64.64c-.74.85-1.07 1.9-1.22 3.21c-.16 1.27-.16 2.9-.16 4.97v.1c0 2.07 0 3.7.16 4.97c.15 1.31.48 2.36 1.22 3.21c.19.23.41.45.64.64c.78.68 1.73 1.01 2.89 1.18c1.14.17 2.56.2 4.34.2c.41 0 .75-.33.75-.75s-.33-.75-.75-.75c-.64 0-1.22-.01-1.75-.02V9h11.48c.02.79.02 1.7.02 2.75c0 .41.34.75.75.75s.75-.34.75-.75v-.05c0-2.07 0-3.7-.16-4.97c-.15-1.31-.48-2.36-1.22-3.21c-.19-.23-.41-.45-.64-.64c-.85-.74-1.9-1.07-3.21-1.22c-1.27-.16-2.9-.16-4.97-.16m8.61 6H9.25V3.02C10.04 3 10.95 3 12 3c2.13 0 3.67 0 4.84.14c1.16.15 1.88.41 2.42.88c.17.14.33.3.47.47c.47.54.73 1.26.88 2.42c.02.19.04.38.05.59m-17.32 0h4.41V3.09c-.21.01-.4.03-.59.05c-1.16.15-1.88.41-2.42.88c-.17.14-.33.3-.47.47c-.47.54-.73 1.26-.88 2.42c-.02.19-.04.38-.05.59M7.75 9H3.27c-.02.79-.02 1.7-.02 2.75c0 2.13 0 3.67.14 4.84c.15 1.16.41 1.88.88 2.42c.14.17.3.33.47.47c.5.43 1.14.69 2.14.84q.405.06.87.09zm14.5 5.75c0-.41-.34-.75-.75-.75s-.75.34-.75.75c0 .95 0 1.61-.05 2.12c-.04.5-.13.79-.25 1.01c-.2.34-.48.62-.82.82c-.22.12-.51.21-1.01.25c-.51.05-1.17.05-2.12.05h-.96h.01c.24-.22.51-.42.75-.62l.06-.04c.24-.19.5-.4.66-.55c.3-.29.31-.77.02-1.06a.746.746 0 0 0-1.06-.02c-.09.09-.28.24-.55.45l-.06.05c-.24.19-.52.41-.79.64c-.3.25-.6.52-.83.8c-.12.13-.24.29-.32.46c-.09.16-.18.38-.18.64s.09.48.18.64c.08.17.2.33.32.46c.23.28.53.55.83.8c.27.23.55.45.79.64l.06.05c.27.21.46.36.55.45c.29.29.77.28 1.06-.02c.29-.29.28-.77-.02-1.06c-.16-.15-.42-.36-.66-.55l-.06-.04c-.24-.2-.51-.4-.75-.61h-.01l1-.01c.9 0 1.63 0 2.22-.05c.6-.06 1.13-.17 1.62-.45c.57-.33 1.04-.8 1.37-1.37c.28-.49.39-1.02.45-1.62c.05-.59.05-1.32.05-2.22z" color="currentColor"/></svg>