<svg xmlns="http://www.w3.org/2000/svg" width="3em" height="3em" viewBox="0 0 24 24"><path fill="currentColor" fill-rule="evenodd" d="M10.95 22.648v-.01c.47 0 .93-.17 1.3-.49l.005-.003l.015.013c.37.32.82.49 1.3.49v.01c.11 0 .21 0 .31-.02c2.68-.4 5.09-1.79 6.79-3.92c.37-.46.51-1.04.4-1.62l-.006-.031c.558-.191.986-.61 1.196-1.149c.49-1.24.74-2.57.74-3.93s-.25-2.69-.74-3.92c-.22-.55-.64-.96-1.2-1.16l-.009-.003a1.97 1.97 0 0 0-.4-1.617a10.72 10.72 0 0 0-6.8-3.92a1.95 1.95 0 0 0-1.597.457a1.98 1.98 0 0 0-1.584-.447c-2.67.4-5.09 1.79-6.79 3.92A1.94 1.94 0 0 0 3.466 6.9l-.026.01c-.56.19-.99.61-1.2 1.15c-.49 1.24-.74 2.56-.74 3.93s.25 2.69.74 3.93a2 2 0 0 0 1.21 1.163a1.99 1.99 0 0 0 .4 1.626c1.7 2.12 4.11 3.52 6.79 3.92c.11.02.21.02.31.02m-5.747-7.444l-.682.394a2 2 0 0 0-.114.07a.7.7 0 0 1-.457.01a.5.5 0 0 1-.3-.29c-.43-1.07-.64-2.2-.64-3.38s.22-2.31.64-3.38c.06-.14.16-.24.3-.29c.07-.03.14-.04.21-.04v.01c.13 0 .26.03.37.1l.68.39a7.7 7.7 0 0 0-.007 6.406m6.298-4.519L7.26 8.237A6.36 6.36 0 0 1 11.5 5.79zm-.743 1.312l-2.668 1.54l-1.58.911c-.33-.76-.5-1.6-.5-2.45s.17-1.68.5-2.45zm-4.791 4.5l-.006.011l-.68.39a.68.68 0 0 0-.34.46c-.02.1-.02.26.1.41a9.18 9.18 0 0 0 5.84 3.37c.19.03.33-.05.41-.12a.7.7 0 0 0 .23-.502l-.001-.018v-.8a7.77 7.77 0 0 1-5.546-3.206zm1.295-.748a6.24 6.24 0 0 0 4.249 2.45v-4.9zM13.02 4.29v-.78q0-.076-.005-.148a.7.7 0 0 1 .216-.383c.12-.1.25-.14.4-.12a9.2 9.2 0 0 1 5.85 3.38c.12.15.12.31.1.41a.65.65 0 0 1-.204.36q-.075.038-.147.08l-.681.393A7.77 7.77 0 0 0 13.02 4.29m4.228 3.943l-4.228 2.442V5.799a6.24 6.24 0 0 1 4.228 2.433M5.27 7.088l.684.395A7.8 7.8 0 0 1 11.5 4.278v-.79c0-.21-.09-.41-.23-.53a.47.47 0 0 0-.32-.12l.01.01h-.08c-2.3.35-4.38 1.54-5.85 3.38c-.12.15-.12.31-.1.41a.64.64 0 0 0 .254.404zm14.04 8.12l.15.086l.53.304c.18.1.4.13.58.06a.48.48 0 0 0 .3-.29c.42-1.07.64-2.2.64-3.38a8.9 8.9 0 0 0-.64-3.37a.5.5 0 0 0-.3-.29a.7.7 0 0 0-.58.07l-.68.39a7.7 7.7 0 0 1 0 6.42m-.06 1.69l-.672-.387a7.82 7.82 0 0 1-5.558 3.207l-.01-.01v.79c0 .21.09.4.23.53c.08.07.22.15.41.12c2.3-.35 4.38-1.54 5.85-3.38c.09-.12.13-.25.1-.4a.74.74 0 0 0-.349-.47zm-6.24-3.59v4.9a6.28 6.28 0 0 0 4.25-2.45zm.75-1.31l4.25 2.45c.33-.77.5-1.6.5-2.45s-.17-1.68-.5-2.45z" color="currentColor"/></svg>