<svg xmlns="http://www.w3.org/2000/svg" width="3em" height="3em" viewBox="0 0 24 24"><path fill="currentColor" fill-rule="evenodd" d="M10.642 22.617c.1.02.2.02.3.02v.02c.48 0 .93-.17 1.3-.49l.017-.014c.368.316.816.484 1.293.484v.01c.11 0 .21 0 .31-.02c2.68-.4 5.09-1.79 6.79-3.92c.37-.46.51-1.04.4-1.62l-.003-.016l.013-.004c.56-.19.99-.61 1.2-1.15c.49-1.24.74-2.57.74-3.93s-.25-2.69-.74-3.92c-.22-.55-.64-.96-1.2-1.16l-.02-.007a1.96 1.96 0 0 0-.4-1.613c-1.7-2.13-4.11-3.52-6.79-3.92a1.98 1.98 0 0 0-1.6.46c-.45-.38-1.02-.54-1.6-.46c-2.67.4-5.09 1.79-6.79 3.92a1.94 1.94 0 0 0-.413 1.604l-.017.006c-.56.2-.99.61-1.2 1.15c-.49 1.24-.74 2.56-.74 3.93s.25 2.69.74 3.93c.22.55.64.96 1.2 1.16l.01.004v.006c-.11.58.04 1.16.41 1.62c1.7 2.13 4.11 3.52 6.79 3.92m.85-11.94l-6.23-3.6l-.114-.06a.64.64 0 0 1-.236-.39c-.02-.1-.02-.26.1-.41a9.24 9.24 0 0 1 5.85-3.38h.08c.12 0 .23.04.32.12a.7.7 0 0 1 .23.54zm-6.687 4.75l-.293.17l-.03.018a.7.7 0 0 1-.55.052a.5.5 0 0 1-.3-.29c-.43-1.07-.64-2.2-.64-3.38s.22-2.31.64-3.38c.06-.14.16-.24.3-.29c.07-.03.14-.04.21-.04l-.01.01c.13 0 .26.03.37.1l6.24 3.6zm.43 1.476a.68.68 0 0 0-.313.444c-.02.1-.02.26.1.41a9.26 9.26 0 0 0 5.85 3.38c.15.02.28-.02.4-.12c.14-.12.23-.32.23-.53v-7.2h-.01L5.412 16.8l-.15.087zm14.036-9.838l-.039.022l-6.23 3.597V3.497L13 3.387a.7.7 0 0 1 .222-.42c.07-.06.18-.13.33-.13l-.01.01h.08a9.26 9.26 0 0 1 5.85 3.38c.1.12.13.25.1.4a.73.73 0 0 1-.301.438m-5.523 4.926l6.224-3.594l.075-.045a.7.7 0 0 1 .515-.035c.14.05.24.15.3.29a8.9 8.9 0 0 1 .64 3.37c0 1.18-.22 2.31-.64 3.38a.48.48 0 0 1-.3.29c-.18.07-.4.04-.58-.06zm-.756 1.296v7.2c0 .21.09.4.23.53c.08.07.22.15.41.12c2.3-.35 4.38-1.54 5.85-3.38c.09-.12.13-.25.1-.4a.75.75 0 0 0-.35-.47zm2.25-7.45c-.41 0-.75-.34-.75-.75v-.1c0-.41.34-.75.75-.75s.75.34.75.75v.1c0 .41-.34.75-.75.75m-6.25 10.25c0 .41.34.75.75.75s.75-.34.75-.75v-.1c0-.41-.34-.75-.75-.75s-.75.34-.75.75zm-2.75-3.25c-.41 0-.75-.34-.75-.75v-.1c0-.41.34-.75.75-.75s.75.34.75.75v.1c0 .41-.34.75-.75.75m12.25-.75c0 .41.34.75.75.75s.75-.34.75-.75v-.1c0-.41-.34-.75-.75-.75s-.75.34-.75.75zm-3.75-3.35c-.27 0-.54-.15-.67-.41a.745.745 0 0 1 .34-1.01l1-.5c.37-.18.82-.03 1.01.34s.04.82-.34 1.01l-1 .5a.8.8 0 0 1-.33.08zm-7.17-1.91c.13.26.4.41.67.41l.01.01a.8.8 0 0 0 .33-.08l1-.5c.38-.19.53-.64.34-1.01a.763.763 0 0 0-1.01-.34l-1 .5c-.38.19-.53.64-.34 1.01m1.17 12.91c-.27 0-.54-.15-.67-.41a.745.745 0 0 1 .34-1.01l1-.5c.37-.18.82-.03 1.01.34s.04.82-.34 1.01l-1 .5a.8.8 0 0 1-.33.08zm7.17-1.08c.1.05.22.08.33.08l.01-.01c.27 0 .54-.15.67-.41c.18-.37.03-.82-.34-1.01l-1-.5a.763.763 0 0 0-1.01.34c-.18.37-.03.82.34 1.01z" color="currentColor"/></svg>