<svg xmlns="http://www.w3.org/2000/svg" width="3em" height="3em" viewBox="0 0 24 24"><path fill="currentColor" fill-rule="evenodd" d="M12.002 22.256a27 27 0 0 1-4.22-.34c-1.39-.23-2.22-.37-2.87-1.14c-.66-.76-.66-1.7-.66-3.25v-4.962a1 1 0 0 1 0-.107V9.266c0-1.22 0-1.95.47-2.65c.468-.687 1.075-.938 1.99-1.315l.01-.005c.65-.26 1.28-.47 1.91-.63v-.17c0-1.07 0-1.72.51-2.23c.51-.52 1.16-.52 2.24-.52h1.24c1.08 0 1.73 0 2.24.52c.51.51.51 1.16.51 2.23v.17c.63.16 1.25.36 1.89.62l.002.001c.949.39 1.558.64 2.018 1.33c.47.699.47 1.429.47 2.649v8.26c0 1.55 0 2.48-.66 3.25c-.631.76-1.458.896-2.815 1.121l-.055.01c-1.37.23-2.79.34-4.22.34zm-6.25-10.728V9.276c0-1.11.01-1.51.21-1.81c.2-.29.48-.42 1.34-.77c.75-.31 1.47-.53 2.22-.68h.03c1.6-.33 3.3-.33 4.9 0h.03c.75.15 1.47.37 2.23.68c.85.35 1.13.47 1.33.77s.21.7.21 1.81v2.254c-4-1.014-8.498-1.015-12.5-.002m0 1.543c3.98-1.084 8.522-1.083 12.5.003v4.462c0 1.37-.01 1.94-.3 2.28c-.28.33-.72.41-1.97.62q-.609.1-1.23.17v-1.1c0-1.07 0-1.72-.52-2.24c-.51-.51-1.16-.51-2.23-.51s-1.71 0-2.24.52c-.51.51-.51 1.16-.51 2.23v1.1a23 23 0 0 1-1.23-.17c-1.24-.21-1.69-.29-1.97-.63c-.29-.33-.3-.9-.3-2.27zm7.5 6.435v1.221c-.832.042-1.67.042-2.5 0v-1.221c0-.5 0-1.07.06-1.17c.09-.08.69-.08 1.19-.08s1.11 0 1.18.07c.07.11.07.68.07 1.18m-1.87-16.25c-.5 0-1.07 0-1.18.07c-.07.1-.07.59-.07 1.06c1.24-.17 2.5-.17 3.74 0c0-.47 0-.96-.07-1.06c-.11-.07-.68-.07-1.18-.07z" color="currentColor"/></svg>