<svg xmlns="http://www.w3.org/2000/svg" width="3em" height="3em" viewBox="0 0 24 24"><path fill="currentColor" fill-rule="evenodd" d="M20 13.055c0 .41.34.75.75.75s.75-.34.75-.75v-2.34c0-.89 0-1.38-.21-1.89c-.2-.49-.55-.84-1.18-1.47l-4.74-4.74c-.54-.55-.84-.85-1.25-1.03c-.01 0-.18-.08-.18-.08l-.029-.015a.4.4 0 0 0-.081-.035c-.45-.15-.87-.15-1.62-.15c-3.42 0-5.13 0-6.44 1.06c-.26.21-.5.45-.71.71C4 4.375 4 6.095 4 9.515v3.54c0 .41.34.75.75.75s.75-.34.75-.75v-3.54c0-3.07 0-4.61.72-5.5c.14-.18.31-.34.49-.49c.9-.72 2.43-.72 5.5-.72c.36 0 .61 0 .79.01v.24c0 3.03 0 4.55 1.1 5.65s2.62 1.1 5.649 1.1h.231c.02.21.02.49.02.91zm-4.84-5.41c-.59-.59-.66-1.7-.66-3.78l4.44 4.44c-2.09-.01-3.19-.07-3.78-.66m-.415 15.16h.005h-.01zm-.715-.54c.1.328.397.537.715.54q.103 0 .205-.03c.4-.12.63-.53.51-.93l-1.75-6a.75.75 0 0 0-.72-.54h-.5a.75.75 0 0 0-.72.54l-1.75 6c-.12.4.11.81.51.93s.81-.11.93-.51l.43-1.46h1.71zm-.87-2.96h-.84l.42-1.43zm7.586 3.5h.004h-.01zm-.616-.33c.14.208.377.328.616.33a.8.8 0 0 0 .414-.13c.35-.23.44-.7.21-1.04l-1.32-1.98c.85-.32 1.45-1.14 1.45-2.1c0-1.24-1.01-2.25-2.25-2.25h-2c-.41 0-.75.34-.75.75v6c0 .41.34.75.75.75s.75-.34.75-.75v-2.25h.35zm-.88-4.17H18v-1.5h1.25c.41 0 .75.34.75.75s-.34.75-.75.75m-11.004 4.5h.004h-.01zm-.616-.33c.14.208.377.328.616.33a.8.8 0 0 0 .414-.13c.35-.23.44-.7.21-1.04l-1.32-1.98c.85-.32 1.45-1.14 1.45-2.1c0-1.24-1.01-2.25-2.25-2.25h-2c-.41 0-.75.34-.75.75v6c0 .41.34.75.75.75s.75-.34.75-.75v-2.25h.35zm-.88-4.17H5.5v-1.5h1.25c.41 0 .75.34.75.75s-.34.75-.75.75" color="currentColor"/></svg>