<svg xmlns="http://www.w3.org/2000/svg" width="3em" height="3em" viewBox="0 0 24 24"><path fill="currentColor" fill-rule="evenodd" d="m4.083 18.55l2.024-2.958c.41-.67.64-1.46.64-2.28c0-.72.234-1.387.63-1.93a2.8 2.8 0 0 1-.54-.76c-.21-.41-.52-.6-.99-.6c-.61 0-1.1.49-1.1 1.1v1.24c0 1.09-.44 2.17-1.22 2.94c-.15.15-.34.22-.53.22s-.38-.07-.53-.22a.754.754 0 0 1 0-1.06c.5-.5.78-1.18.78-1.88v-1.24c0-1.43 1.17-2.6 2.6-2.6c1.04 0 1.86.51 2.33 1.43c.098.2.227.344.341.444a3.26 3.26 0 0 1 1.52-.374h2.46c.48 0 .82-.45.92-.89c.6-2.85 2.61-4.16 3.13-4.46l1.42-1.42a.751.751 0 0 1 1.28.53v1.16l3.24 2.78c.29.25.35.67.14.99l-1 1.5c-.19.28-.54.4-.86.3l-2.38-.79l-.13.26v2.6c0 1.25.45 2.47 1.26 3.42l1.458 1.702q.252-.225.492-.463c.29-.29.77-.29 1.06 0s.29.77 0 1.06c-2.69 2.68-6.53 4.22-10.53 4.22s-7.84-1.54-10.53-4.22a.755.755 0 0 1 0-1.06c.29-.29.77-.29 1.06 0q.721.718 1.555 1.31m15.709.084l-1.425-1.652a6.78 6.78 0 0 1-1.63-4.4v-2.78c0-.12.03-.23.08-.33l.5-1c.17-.33.55-.49.91-.38l2.46.82l.31-.47l-3-2.57a.66.66 0 0 1-.21-.31l-.27.27c-.06.06-.12.1-.19.14c-.08.04-1.93 1.02-2.45 3.49c-.25 1.21-1.26 2.09-2.38 2.09h-2.46c-.99 0-1.79.8-1.79 1.79c0 1.1-.31 2.17-.89 3.1l-1.983 2.913q.309.17.63.322l1.844-2.636a5.9 5.9 0 0 1 4.84-2.52c1.69 0 3.29.72 4.41 1.98l2.19 2.465q.256-.16.504-.332m-1.857 1.07l-1.957-2.203a4.42 4.42 0 0 0-3.29-1.48c-1.44 0-2.79.7-3.61 1.88l-1.65 2.359c1.443.498 2.991.761 4.57.761c2.089 0 4.125-.462 5.937-1.317" color="currentColor"/></svg>