<svg xmlns="http://www.w3.org/2000/svg" width="3em" height="3em" viewBox="0 0 24 24"><path fill="currentColor" fill-rule="evenodd" d="M19.02 15.782a.746.746 0 0 0-1.06.02c-.29.29-.28.77.02 1.06c.16.15.42.36.66.55l.06.04c.24.2.51.4.76.61l-4.46.01c-.41 0-.75.34-.75.75s.34.75.75.75h4.46c-.25.22-.51.42-.76.62l-.06.04c-.24.19-.5.4-.66.55c-.3.29-.3.77-.02 1.06c.29.3.76.31 1.06.02q.135-.135.54-.45l.06-.05c.24-.19.53-.41.8-.64c.29-.25.59-.52.83-.8c.12-.13.23-.29.32-.46c.09-.16.17-.38.17-.64s-.09-.48-.17-.64c-.09-.17-.21-.33-.32-.46c-.23-.28-.54-.55-.83-.8c-.27-.23-.55-.45-.8-.64l-.06-.05q-.405-.315-.54-.45M12 19.072c-2.62 0-4.99.37-6.76.96a.749.749 0 1 1-.48-1.42c.16-.05.32-.11.49-.15v-4.45c-2.27-.36-4-2.32-4-4.69c0-2.62 2.13-4.75 4.75-4.75c.67 0 1.3.14 1.88.39a4.745 4.745 0 0 1 8.24 0a4.7 4.7 0 0 1 1.88-.39c2.62 0 4.75 2.13 4.75 4.75s-2.13 4.75-4.75 4.75c-.41 0-.75-.34-.75-.75s.34-.75.75-.75c1.79 0 3.25-1.46 3.25-3.25s-1.46-3.25-3.25-3.25c-.67 0-1.29.2-1.81.55c-.19.13-.43.16-.65.09a.78.78 0 0 1-.47-.47A3.26 3.26 0 0 0 12 4.072c-1.42 0-2.62.91-3.07 2.17a.78.78 0 0 1-.47.47c-.22.07-.46.04-.65-.09c-.52-.35-1.14-.55-1.81-.55c-1.79 0-3.25 1.46-3.25 3.25s1.46 3.25 3.25 3.25c.41 0 .75.34.75.75v4.76c1.57-.33 3.36-.51 5.25-.51c.41 0 .75.34.75.75s-.34.75-.75.75" color="currentColor"/></svg>