<svg xmlns="http://www.w3.org/2000/svg" width="3em" height="3em" viewBox="0 0 24 24"><path fill="currentColor" fill-rule="evenodd" d="M5 10.813h14c.99 0 1.54 0 2.06-.21c.67-.29 1.19-.81 1.48-1.49c.21-.5.21-1.06.21-2.05s0-1.54-.21-2.06c-.29-.67-.81-1.19-1.49-1.48c-.5-.21-1.05-.21-2.05-.21H5c-.99 0-1.54 0-2.06.21c-.67.29-1.19.81-1.48 1.49c-.21.5-.21 1.06-.21 2.05s0 1.54.21 2.06c.29.67.81 1.19 1.49 1.48c.5.21 1.05.21 2.05.21m0-6h14c.78 0 1.25 0 1.47.09c.31.13.55.37.68.67c.09.24.09.71.09 1.489v.001c0 .78 0 1.25-.09 1.47c-.13.31-.37.55-.67.68c-.24.09-.71.09-1.49.09h-14c-.78 0-1.25 0-1.47-.09c-.31-.13-.55-.37-.68-.67c-.09-.24-.09-.71-.09-1.49s0-1.25.09-1.47c.13-.31.37-.55.67-.68c.24-.09.71-.09 1.49-.09m0 16h14c.99 0 1.54 0 2.06-.21c.67-.29 1.19-.81 1.48-1.49c.21-.5.21-1.06.21-2.05s0-1.54-.21-2.06c-.29-.67-.81-1.19-1.49-1.48c-.5-.21-1.05-.21-2.05-.21H5c-.99 0-1.54 0-2.06.21c-.67.29-1.19.81-1.48 1.49c-.21.5-.21 1.06-.21 2.05s0 1.54.21 2.06c.29.67.81 1.19 1.49 1.48c.5.21 1.05.21 2.05.21m0-6h14c.78 0 1.25 0 1.47.09c.31.13.55.37.68.67c.09.24.09.71.09 1.489v.001c0 .78 0 1.25-.09 1.47c-.13.31-.37.55-.67.68c-.24.09-.71.09-1.49.09h-14c-.78 0-1.25 0-1.47-.09c-.31-.13-.55-.37-.68-.67c-.09-.24-.09-.71-.09-1.49s0-1.25.09-1.47c.13-.31.37-.55.67-.68c.24-.09.71-.09 1.49-.09m1.01 3.25c-.55 0-1-.45-1-1s.44-1 1-1c.55 0 1 .45 1 1s-.45 1-1 1m3-1c0 .55.45 1 1 1s1-.45 1-1s-.45-1-1-1c-.56 0-1 .45-1 1m-3-9c-.55 0-1-.45-1-1s.44-1 1-1c.55 0 1 .45 1 1s-.45 1-1 1m3-1c0 .55.45 1 1 1s1-.45 1-1s-.45-1-1-1c-.56 0-1 .45-1 1" color="currentColor"/></svg>