<svg xmlns="http://www.w3.org/2000/svg" width="3em" height="3em" viewBox="0 0 24 24"><path fill="currentColor" fill-rule="evenodd" d="M4.51 10.08c.24-.09.71-.09 1.49-.09h12c.78 0 1.25 0 1.47.09c.31.13.55.37.68.67c.09.24.09.71.09 1.49v.001c0 .78 0 1.25-.09 1.47c-.13.31-.37.55-.67.68c-.24.09-.71.09-1.49.09h-12c-.78 0-1.25 0-1.47-.09c-.31-.13-.55-.37-.68-.67c-.09-.24-.09-.71-.09-1.49s0-1.25.09-1.47c.13-.31.37-.55.67-.68M2.46 8.3c.156.361.38.679.658.94a2.8 2.8 0 0 0-.658.95c-.21.5-.21 1.06-.21 2.05s0 1.54.21 2.06c.156.361.38.679.658.94a2.8 2.8 0 0 0-.658.95c-.21.5-.21 1.06-.21 2.05s0 1.54.21 2.06c.29.67.81 1.19 1.49 1.48c.5.21 1.05.21 2.05.21h12c.99 0 1.54 0 2.06-.21c.67-.29 1.19-.81 1.48-1.49c.21-.5.21-1.06.21-2.05s0-1.54-.21-2.06a2.8 2.8 0 0 0-.658-.94a2.8 2.8 0 0 0 .658-.95c.21-.5.21-1.06.21-2.05s0-1.54-.21-2.06a2.8 2.8 0 0 0-.658-.94a2.8 2.8 0 0 0 .658-.95c.21-.5.21-1.06.21-2.05s0-1.54-.21-2.06c-.29-.67-.81-1.19-1.49-1.48c-.5-.21-1.05-.21-2.05-.21H6c-.99 0-1.54 0-2.06.21c-.67.29-1.19.81-1.48 1.49c-.21.5-.21 1.06-.21 2.05s0 1.54.21 2.06M6 15.99c-.78 0-1.25 0-1.49.09c-.3.13-.54.37-.67.68c-.09.22-.09.69-.09 1.47s0 1.25.09 1.49c.13.3.37.54.68.67c.22.09.69.09 1.47.09h12c.78 0 1.25 0 1.49-.09c.3-.13.54-.37.67-.68c.09-.22.09-.69.09-1.469v-.002c0-.78 0-1.249-.09-1.489c-.13-.3-.37-.54-.68-.67c-.22-.09-.69-.09-1.47-.09zm0-12c-.78 0-1.25 0-1.49.09c-.3.13-.54.37-.67.68c-.09.22-.09.69-.09 1.47s0 1.25.09 1.49c.13.3.37.54.68.67c.22.09.69.09 1.47.09h12c.78 0 1.25 0 1.49-.09c.3-.13.54-.37.67-.68c.09-.22.09-.69.09-1.469v-.002c0-.78 0-1.249-.09-1.489c-.13-.3-.37-.54-.68-.67c-.22-.09-.69-.09-1.47-.09zm.01 3a.749.749 0 1 1-.002-1.502a.749.749 0 0 1 .002 1.502m-.75 5.25c0 .41.34.75.75.75s.75-.34.75-.75s-.34-.75-.75-.75c-.42 0-.75.34-.75.75m.75 6.75a.749.749 0 1 1-.002-1.502a.749.749 0 0 1 .002 1.502M8.26 6.24c0 .41.34.75.75.75s.75-.34.75-.75s-.34-.75-.75-.75c-.42 0-.75.34-.75.75m.75 6.75a.749.749 0 1 1-.002-1.502a.749.749 0 0 1 .002 1.502m-.75 5.25c0 .41.34.75.75.75s.75-.34.75-.75s-.34-.75-.75-.75c-.42 0-.75.34-.75.75" color="currentColor"/></svg>