<svg xmlns="http://www.w3.org/2000/svg" width="3em" height="3em" viewBox="0 0 24 24"><path fill="currentColor" fill-rule="evenodd" d="m19.872 5.35l1.27 8.4v-.01c.4 2.65.61 5.37.61 8.06c0 .33-.21.62-.53.72l-5 1.5a.9.9 0 0 1-.36.02l-13-2.5a.74.74 0 0 1-.61-.79l1.02-12.99c.03-.31.24-.57.54-.66l2.53-.74c.03-.24.07-.48.11-.7c.66-3.21 2.71-5.43 4.71-5.04c.66.12 1.22.52 1.65 1.1h.09c.123-.002.25-.003.37.02c.9.17 1.64.89 2.09 1.99l.44-.13h.02c.1-.03.2-.04.3-.02c.02.01.03.01.05.01c.09.02.19.06.27.12h.01l1.3 1h1.38c.37 0 .69.27.74.64m-6.18-1.15l.21-.06c-.09-.2-.19-.36-.3-.5l.028.16c.024.131.048.266.062.4m-1.665-.695c-.429.3-.856.819-1.225 1.546l1.43-.42a6 6 0 0 0-.205-1.126m-.805-1.264a.9.9 0 0 0-.36-.16h.01c-.98-.19-2.43 1.33-2.95 3.81l1.05-.31c.5-1.51 1.32-2.7 2.25-3.34m4.03 3.07L4.712 8.39l-.91 11.81l11.45 2.2zm1.5 16.987V5.83l.29.22c.13.1.29.16.46.16h.98l1.17 7.76c.36 2.4.56 4.85.59 7.28zM9.193 8.76c1.45-.65 3.34.05 3.89.28v.02c.38.16.56.6.4.98a.75.75 0 0 1-.98.4c-.8-.33-1.99-.61-2.7-.29c-.28.13-.47.35-.59.69c-.31.9.63 1.87 1.47 2.53c2.37 1.87 2 3.66 1.41 4.42c-.51.67-1.25 1.09-2.13 1.19c-.16.03-.31.03-.47.03c-1.33 0-2.59-.63-3.17-1.1a.76.76 0 0 1-.11-1.06a.76.76 0 0 1 1.06-.11c.45.36 1.57.86 2.52.74c.48-.06.85-.26 1.12-.62c.23-.31.3-1.19-1.15-2.33c-2.22-1.73-2.3-3.23-1.97-4.19c.25-.74.73-1.28 1.4-1.58" color="currentColor"/></svg>