<svg xmlns="http://www.w3.org/2000/svg" width="3em" height="3em" viewBox="0 0 24 24"><path fill="currentColor" fill-rule="evenodd" d="M17 1.563h-.02zm-.01 0c.406.005.74.343.74.75c0 2.65-2.72 3.78-5.51 4.71c-4.91 1.64-6.49 3.04-6.49 5.79c0 2.97 2.48 4.28 2.59 4.33a.75.75 0 0 1-.34 1.42a.8.8 0 0 1-.33-.08l-.026-.015a6.7 6.7 0 0 1-1.194-.855c-.1.52-.19 1.18-.19 1.93c0 1.137.387 2.3.451 2.492l.009.027a.75.75 0 0 1-.45.96c-.08.03-.17.04-.25.04a.74.74 0 0 1-.722-.527c-.081-.246-.528-1.602-.528-2.992c0-1.62.35-2.89.49-3.32c-.56-.86-.99-1.99-.99-3.41c0-3.94 2.75-5.62 7.51-7.21c3.32-1.11 4.49-1.97 4.49-3.29c0-.407.334-.745.74-.75m2.01 7c-.06 0-.12 0-.18-.02l-2-.5c-.4-.1-.65-.51-.55-.91s.51-.65.91-.55l2 .5c.4.1.65.51.55.91c-.08.34-.39.57-.73.57m-2.86 10.5H19v.01c.41 0 .75-.34.75-.75s-.34-.75-.75-.75h-2.86c-1.09 0-2.1-.55-2.7-1.45l-.81-1.22a.744.744 0 0 0-1.04-.21c-.34.23-.44.7-.21 1.04l.81 1.22l.06.087v5.273c0 .41.34.75.75.75s.75-.34.75-.75v-3.894a4.75 4.75 0 0 0 2.39.643m1.86-2.99c-.41 0-.75-.34-.75-.75s.34-.75.75-.75s.75.33.75.75s-.34.76-.75.76z" color="currentColor"/></svg>