<svg xmlns="http://www.w3.org/2000/svg" width="3em" height="3em" viewBox="0 0 24 24"><path fill="currentColor" fill-rule="evenodd" d="M5.047 7.272a9.23 9.23 0 0 1 7.75-4.2a9.25 9.25 0 0 1 8.44 5.46c-.57-.29-1.23-.46-1.92-.46c-.64 0-1.28.26-1.85.58s-1.14.74-1.65 1.17c-.32.26-.36.73-.1 1.05c.27.32.74.36 1.06.1c.47-.39.96-.75 1.43-1.01c.48-.27.85-.39 1.11-.39c1.5 0 2.73 1.23 2.73 2.75s-1.23 2.75-2.73 2.75c-1.01 0-1.86-.42-2.69-1.14c-.85-.74-1.61-1.74-2.43-2.81h-.01c-.79-1.06-1.66-2.18-2.65-3.04c-1.02-.87-2.23-1.51-3.74-1.51c-1 0-1.93.25-2.75.7m0 10.1c.82.45 1.75.7 2.75.7s2.03-.51 2.9-1.11c.89-.62 1.74-1.41 2.42-2.12c.29-.3.28-.77-.02-1.06a.746.746 0 0 0-1.06.02c-.65.68-1.42 1.39-2.19 1.93c-.79.55-1.5.84-2.05.84c-2.35 0-4.25-1.9-4.25-4.25s1.9-4.25 4.25-4.25c1.04 0 1.92.43 2.76 1.15c.86.73 1.62 1.73 2.45 2.8l.04.07c.79 1.03 1.63 2.13 2.59 2.97c1.01.87 2.2 1.51 3.68 1.51c.69 0 1.35-.17 1.92-.46a9.25 9.25 0 0 1-8.44 5.46a9.23 9.23 0 0 1-7.75-4.2m18.5-5.05c0-5.94-4.81-10.75-10.75-10.75s-10.75 4.81-10.75 10.75s4.81 10.75 10.75 10.75s10.75-4.81 10.75-10.75" color="currentColor"/></svg>