<svg xmlns="http://www.w3.org/2000/svg" width="3em" height="3em" viewBox="0 0 24 24"><path fill="currentColor" fill-rule="evenodd" d="m18.571 13.71l2.14 4.38h.02c.35.71.59 1.2.42 1.68a.8.8 0 0 1-.3.43c-.43.31-1.16.35-2.04.11c-.36-.1-.8-.21-.88-.19c-.13.09-.27.44-.4.77c-.47 1.17-.97 1.76-1.57 1.85h-.23c-.714-.11-.956-.75-1.35-1.796l-.01-.024l-1.58-4.19l-.026.002c-.11.01-.212.018-.324.018q-.089-.001-.175-.01t-.175-.01l-1.58 4.18c-.44 1.17-.91 1.73-1.52 1.83h-.23c-.716-.1-.967-.734-1.383-1.784l-.007-.016l-.045-.111c-.126-.308-.253-.618-.325-.69c-.15-.05-.56.06-.93.16c-.87.24-1.62.2-2.05-.11a.64.64 0 0 1-.22-.24c-.304-.53-.058-1.042.311-1.81l.02-.04l2.14-4.39c-1-1.3-1.6-2.93-1.6-4.7c0-4.27 3.48-7.75 7.75-7.75s7.75 3.48 7.75 7.75c0 1.77-.6 3.39-1.6 4.7m-9.64 7.09c.05-.11.11-.25.17-.41l.01-.01l1.46-3.87a7.6 7.6 0 0 1-3.18-1.64l-1.89 3.87l-.09.18c.09-.01.18-.03.28-.06c.76-.21 1.22-.33 1.72-.17c.16.05.3.12.44.21c.438.292.62.745.897 1.432l.023.058q.049.132.101.26zm3.5-18.04c-3.45 0-6.25 2.8-6.25 6.25s2.8 6.25 6.25 6.25s6.25-2.8 6.25-6.25s-2.8-6.25-6.25-6.25m5.03 15.94c.5-.16.96-.04 1.72.17v.01c.11.02.2.04.28.06l-.04-.085q-.018-.041-.04-.085l-1.9-3.89c-.9.77-1.99 1.34-3.18 1.64l1.46 3.87q.065.153.12.301l.04.109c.06-.12.13-.27.2-.45c.28-.71.45-1.14.9-1.44c.14-.09.28-.16.44-.21m-3.29-12.31l1.57.26h.04c.41.07.75.36.88.76c.13.41.03.85-.26 1.16l-1.15 1.2l.25 1.68c.06.44-.12.86-.47 1.11c-.34.24-.79.27-1.16.07l-1.41-.75l-1.41.75c-.16.09-.34.13-.52.13c-.22 0-.45-.06-.64-.2c-.36-.25-.53-.68-.47-1.11l.25-1.68l-1.15-1.2c-.3-.31-.4-.75-.26-1.16c.13-.4.47-.69.88-.76l1.57-.26l.73-1.5c.19-.39.58-.63 1-.63s.81.24 1 .63zm-.46 3.42c-.05-.35.06-.71.3-.96l.8-.84l-1.09-.18a1.13 1.13 0 0 1-.82-.62l-.47-.97l-.47.97c-.16.33-.47.56-.82.62l-1.09.18l.8.84c.24.25.35.61.3.96l-.17 1.13l.93-.49c.16-.09.34-.13.52-.13s.36.04.52.13l.93.49z" color="currentColor"/></svg>