<svg xmlns="http://www.w3.org/2000/svg" width="3em" height="3em" viewBox="0 0 24 24"><path fill="currentColor" fill-rule="evenodd" d="M18.145 12.27c.399.17.817.25 1.235.25h-.005h.01h-.005c.969-.001 1.947-.441 2.865-1.3c.94-.87 1.34-2.6 0-4.32c-.61-.79-.93-1.56-1.04-2.55c-.06-.61-.15-1.38-.72-1.94c-.7-.67-1.69-.94-2.35-.91l-11.58.03c-1.1-.05-1.77.36-2.14.72c-.61.58-.83 1.38-.83 1.94c0 .38 0 1.1-1.02 2.63c-1.21 1.82-1.17 2.58-.42 3.96c.13.242.29.45.47.63v3.83c0 2.94 0 4.56 1.1 5.66s2.71 1.1 5.65 1.1h2c.41 0 .75-.34.75-.75s-.34-.75-.75-.75h-2c-2.62 0-3.93 0-4.59-.66s-.66-1.98-.66-4.6v-2.952c.532.175.978.224 1.1.232c1.05.02 1.98-.34 2.7-1.04c.24-.23.45-.5.62-.79c1.53 1.96 4.02 1.97 5.34 1.6c.87-.25 1.71-.84 2.33-1.59c.41.7 1.03 1.19 1.94 1.57m-1.69-4.29h-.05v-.01c-.35 0-.65.24-.73.58c-.2.87-1.13 1.99-2.19 2.29c-.14.04-3.36.89-4.41-2.35a.749.749 0 0 0-1.46.23c0 .45-.2 1.16-.74 1.69c-.43.42-.99.63-1.57.61c-.54-.05-1.51-.35-1.84-.95c-.47-.86-.56-1.04.35-2.42c1.12-1.68 1.27-2.65 1.27-3.46c0-.19.07-.59.36-.86c.23-.22.58-.32 1.07-.3L18.165 3h.05c.22-.02.82.09 1.23.49c.18.18.23.61.28 1.08c.13 1.21.56 2.24 1.35 3.25c.88 1.13.52 1.98.17 2.31c-.88.83-1.73 1.09-2.52.76c-1.05-.43-1.43-.98-1.57-2.24a.74.74 0 0 0-.7-.67M17.865 23c-.41 0-.75-.34-.75-.75v-.67c-.63-.14-1.19-.46-1.65-.92l-.7.45c-.35.22-.81.12-1.04-.23a.76.76 0 0 1 .23-1.04l.72-.46c-.13-.36-.19-.74-.19-1.13s.06-.77.19-1.13l-.72-.46a.754.754 0 0 1-.23-1.04c.22-.35.69-.45 1.04-.23l.7.45c.45-.46 1.02-.78 1.65-.92v-.67c0-.41.34-.75.75-.75s.75.34.75.75v.67c.63.14 1.19.46 1.65.92l.7-.45c.35-.22.81-.12 1.04.23c.22.35.12.81-.23 1.04l-.72.46c.13.36.19.75.19 1.13s-.06.77-.19 1.13l.72.46c.35.22.45.68.23 1.04c-.22.35-.69.45-1.04.23l-.7-.45c-.45.46-1.02.78-1.65.92v.67c0 .41-.34.75-.75.75m-1.59-3.73c.35.56.94.9 1.59.9s1.24-.33 1.59-.9a1.95 1.95 0 0 0 0-2.04c-.35-.56-.94-.89-1.59-.89s-1.24.33-1.59.89a1.95 1.95 0 0 0 0 2.04" color="currentColor"/></svg>