<svg xmlns="http://www.w3.org/2000/svg" width="3em" height="3em" viewBox="0 0 24 24"><path fill="currentColor" fill-rule="evenodd" d="M11.75 22.799h8l.01.01c.41 0 .75-.34.75-.75s-.34-.75-.75-.75h-8c-3.56 0-5.35 0-6.3-.95s-.95-2.74-.95-6.3v-4.54c0-3.07 0-4.61.72-5.5c.14-.18.31-.34.49-.49c.9-.72 2.43-.72 5.5-.72h.79v.24c0 3.03 0 4.55 1.1 5.65s2.62 1.1 5.649 1.1h.221c.03.36.03.84.03 1.25s.34.75.75.75s.75-.34.75-.75c0-1.07-.01-1.74-.21-2.23s-.55-.84-1.18-1.47l-4.74-4.74c-.54-.55-.84-.85-1.25-1.03l-.13-.06l-.013-.007a.6.6 0 0 0-.147-.063c-.45-.15-.86-.15-1.62-.15c-3.42 0-5.14 0-6.45 1.06c-.26.21-.5.45-.71.71C3 4.369 3 6.089 3 9.509v4.54c0 3.98 0 5.97 1.39 7.36s3.38 1.39 7.36 1.39m2.41-15.16c-.59-.59-.66-1.7-.66-3.78l4.44 4.44c-2.09-.01-3.19-.07-3.78-.66M19 19.049c0 .41.34.75.75.75s.75-.34.75-.75v-1.75h1.25c.41 0 .75-.34.75-.75s-.34-.75-.75-.75H20.5v-1h1.25c.41 0 .75-.34.75-.75s-.34-.75-.75-.75h-2c-.41 0-.75.34-.75.75zm-4.5 0c0 .41.34.75.75.75s.75-.34.75-.75v-1.75h1.25c.41 0 .75-.34.75-.75s-.34-.75-.75-.75H16v-1h1.25c.41 0 .75-.34.75-.75s-.34-.75-.75-.75h-2c-.41 0-.75.34-.75.75zm-2.5 0c0 .41.34.75.75.75s.75-.34.75-.75v-5c0-.41-.34-.75-.75-.75s-.75.34-.75.75zm-4 0c0 .41.34.75.75.75s.75-.34.75-.75v-4.25h.75c.41 0 .75-.34.75-.75s-.34-.75-.75-.75h-3c-.41 0-.75.34-.75.75s.34.75.75.75H8z" color="currentColor"/></svg>