<svg xmlns="http://www.w3.org/2000/svg" width="3em" height="3em" viewBox="0 0 24 24"><path fill="currentColor" d="M2.75 12.063c0-5.11 4.14-9.25 9.25-9.25s9.25 4.14 9.25 9.25s-4.14 9.25-9.25 9.25s-9.25-4.14-9.25-9.25M12 1.313c-5.94 0-10.75 4.81-10.75 10.75S6.06 22.813 12 22.813s10.75-4.81 10.75-10.75S17.94 1.313 12 1.313m-4.56 7.25l3.1 1.79c.21-.18.45-.32.71-.41v-3.58a5.74 5.74 0 0 0-3.81 2.2m2.35 3.09l-3.1-1.79c-.28.68-.44 1.42-.44 2.2s.16 1.52.44 2.2l3.1-1.79a2 2 0 0 1-.04-.41c0-.14.01-.28.04-.41m.75 2.12l-3.1 1.79c.91 1.18 2.26 2 3.81 2.2v-3.58c-.26-.09-.5-.23-.71-.41m2.21.41v3.58c1.55-.2 2.91-1.02 3.81-2.2l-3.1-1.79c-.21.18-.45.32-.71.41m1.46-1.71l3.1 1.79c.28-.68.44-1.42.44-2.2s-.16-1.52-.44-2.2l-3.1 1.79c.03.13.04.27.04.41s-.01.28-.04.41m-.75-2.12l3.1-1.79c-.9-1.18-2.26-2-3.81-2.2v3.58c.26.09.5.23.71.41m-2.1 1.32c.13-.21.37-.36.64-.36c.41 0 .75.34.75.75s-.34.75-.75.75c-.27 0-.51-.14-.64-.36c0 0-.01-.01-.01-.02s-.01-.01-.01-.02a.74.74 0 0 1-.09-.36q0-.195.09-.36s.01-.01.01-.02s.01-.01.01-.02zm-6.61.39c0-4 3.25-7.25 7.25-7.25s7.25 3.25 7.25 7.25s-3.25 7.25-7.25 7.25s-7.25-3.25-7.25-7.25" color="currentColor"/></svg>