<svg xmlns="http://www.w3.org/2000/svg" width="3em" height="3em" viewBox="0 0 24 24"><path fill="currentColor" fill-rule="evenodd" d="M12.847 2.072h-.1c-2.07 0-3.7 0-4.97.16c-1.31.15-2.36.48-3.21 1.22c-.23.19-.45.41-.64.64c-.74.85-1.07 1.9-1.22 3.21c-.16 1.27-.16 2.9-.16 4.97v.1c0 2.07 0 3.7.16 4.97c.15 1.31.48 2.36 1.22 3.21c.19.23.41.45.64.64c.85.74 1.9 1.07 3.21 1.22c1.27.16 2.9.16 4.97.16h.1c2.07 0 3.7 0 4.97-.16c1.31-.15 2.36-.48 3.21-1.22c.23-.19.45-.41.64-.64c.74-.85 1.07-1.9 1.22-3.21c.16-1.27.16-2.9.16-4.97v-.1c0-2.07 0-3.7-.16-4.97c-.15-1.31-.48-2.36-1.22-3.21c-.19-.23-.41-.45-.64-.64c-.85-.74-1.9-1.07-3.21-1.22c-1.27-.16-2.9-.16-4.97-.16m-7.31 2.52c.54-.47 1.26-.73 2.42-.88c1.17-.14 2.71-.14 4.84-.14s3.67 0 4.84.14c1.16.15 1.88.41 2.42.88c.17.14.33.3.47.47c.47.54.73 1.26.88 2.42c.14 1.17.14 2.71.14 4.84s0 3.67-.14 4.84c-.15 1.16-.41 1.88-.88 2.42c-.14.17-.3.33-.47.47c-.54.47-1.26.73-2.42.88c-1.17.14-2.71.14-4.84.14s-3.67 0-4.84-.14c-1.16-.15-1.88-.41-2.42-.88c-.17-.14-.33-.3-.47-.47c-.47-.54-.73-1.26-.88-2.42c-.14-1.17-.14-2.71-.14-4.84s0-3.67.14-4.84c.15-1.16.41-1.88.88-2.42c.14-.17.3-.33.47-.47m8.35 2.58c-.51-.8-1.67-.8-2.18 0l-.63.98c-.63.99-1.46 1.82-2.45 2.45l-.98.63c-.8.51-.8 1.67 0 2.18l.98.63c.99.63 1.82 1.46 2.45 2.45l.63.98c.51.8 1.67.8 2.18 0l.63-.98c.63-.99 1.46-1.82 2.45-2.45l.98-.63c.8-.51.8-1.67 0-2.18l-.98-.63a8 8 0 0 1-2.45-2.45zm-1.54 1.78l.45-.71l.45.71a9.5 9.5 0 0 0 2.92 2.92l.71.45l-.71.45a9.5 9.5 0 0 0-2.92 2.92l-.45.71l-.45-.71a9.5 9.5 0 0 0-2.92-2.92l-.71-.45l.71-.45a9.5 9.5 0 0 0 2.92-2.92" color="currentColor"/></svg>