<svg xmlns="http://www.w3.org/2000/svg" width="3em" height="3em" viewBox="0 0 24 24"><path fill="currentColor" fill-rule="evenodd" d="M22.008 16.072h-.005a.755.755 0 0 0 .745-.75v-3c0-2.02 0-3.14-.8-3.94c-.07-.07-.14-.13-.21-.19v-.02l-.35-1.78c-.33-1.65-.52-2.56-1.28-3.2c-.76-.62-1.7-.62-3.39-.62h-3.24c-1.69 0-2.62 0-3.39.62c-.65.53-.89 1.33-1.114 2.406c-.81.048-1.382.189-1.886.594c-.65.53-.89 1.33-1.114 2.406c-.915.038-1.54.167-2.076.604c-.76.64-.95 1.61-1.26 3.2l-.36 1.78v.002q-.11.086-.21.188c-.81.81-.81 1.92-.81 3.95v3c0 .415.336.75.75.75h1a.75.75 0 0 0 .75-.75v-1.25h10.5v1.25c0 .415.336.75.75.75h1a.75.75 0 0 0 .75-.75v-3c0-2.03 0-3.15-.8-3.94a2 2 0 0 0-.21-.186v-.004l-.36-1.78l-.066-.34c1.532.004 2.248.042 2.576.37c.35.35.36 1.13.36 2.88v3c0 .409.338.748.745.75h-.005h.01h-.005a.755.755 0 0 0 .745-.75v-3c0-2.02 0-3.14-.8-3.94c-.07-.07-.14-.13-.21-.19v-.02l-.35-1.78l-.064-.32c1.53.004 2.246.042 2.574.37c.35.35.36 1.13.36 2.88v3c0 .409.338.748.745.75h-.005zm-6.75 2.5v-.25c0-1.74-.01-2.53-.37-2.88c-.35-.36-1.14-.38-2.88-.38h-6c-1.74 0-2.53.01-2.88.37c-.36.35-.38 1.14-.38 2.88v.25l.01.01h2.94l.78-.78a.75.75 0 0 1 .53-.22h4a.75.75 0 0 1 .53.22l.78.78zm2.75-11h-.045c-.191-.594-.437-1.028-.855-1.38c-.76-.62-1.7-.62-3.39-.62H10.52c.158-.675.293-1.038.52-1.22c.34-.27.99-.28 2.44-.28h3.24c1.45 0 2.11.02 2.43.28c.34.29.48.92.77 2.34l.19.94c-.57-.06-1.26-.06-2.1-.06m-3.042 3h.042c.84 0 1.53 0 2.1.06l-.19-.94c-.29-1.42-.43-2.05-.77-2.34c-.32-.26-.98-.28-2.43-.28h-3.24c-1.45 0-2.1.01-2.44.28c-.227.183-.363.549-.521 1.23h3.211c1.69 0 2.63 0 3.39.62c.414.35.66.79.848 1.37m-1.048 2.12l.19.939c-.57-.059-1.256-.059-2.1-.059h-6c-.838 0-1.521 0-2.09.057l.19-.947c.27-1.37.41-2.05.75-2.33c.32-.27.98-.28 2.43-.28h3.44c1.45 0 2.11.02 2.43.28c.35.28.49.96.76 2.34" color="currentColor"/></svg>