<svg xmlns="http://www.w3.org/2000/svg" width="3em" height="3em" viewBox="0 0 24 24"><path fill="currentColor" fill-rule="evenodd" d="M6.78 10.49q-.15 0-.3-.06A3.73 3.73 0 0 1 4.25 7c0-2.07 1.68-3.75 3.75-3.75c.41 0 .75.34.75.75s-.34.75-.75.75C6.76 4.75 5.75 5.76 5.75 7c0 .89.52 1.7 1.33 2.05c.38.17.55.61.39.99c-.12.28-.4.45-.69.45m9.75-.45a.763.763 0 0 0 .99.39A3.751 3.751 0 0 0 16 3.25c-.41 0-.75.34-.75.75s.34.75.75.75c1.24 0 2.25 1.01 2.25 2.25c0 .89-.52 1.69-1.33 2.05c-.39.17-.56.61-.39.99M8.25 8c0 2.07 1.68 3.75 3.75 3.75s3.75-1.68 3.75-3.75S14.07 4.25 12 4.25S8.25 5.93 8.25 8m1.5 0c0-1.24 1.01-2.25 2.25-2.25S14.25 6.76 14.25 8s-1.01 2.25-2.25 2.25S9.75 9.24 9.75 8m6.53 12.75H7.71c-1.36 0-2.46-1.1-2.46-2.46c0-2.78 2.26-5.04 5.04-5.04h3.43c2.78 0 5.04 2.26 5.04 5.04c0 1.36-1.11 2.46-2.46 2.46zm-6-6c-1.95 0-3.54 1.59-3.54 3.54c0 .53.43.96.96.96h8.57c.53 0 .96-.43.96-.96c0-1.95-1.59-3.54-3.54-3.54zM19.531 19c0 .41.34.75.75.75c1.35 0 2.46-1.1 2.46-2.46c0-2.78-2.26-5.04-5.04-5.04c-.41 0-.75.34-.75.75s.34.75.75.75c1.95 0 3.54 1.59 3.54 3.54c0 .53-.43.96-.96.96c-.41 0-.75.34-.75.75M1.25 17.29c0 1.36 1.1 2.46 2.46 2.46c.41 0 .75-.34.75-.75s-.34-.75-.75-.75a.96.96 0 0 1-.96-.96c0-1.95 1.59-3.54 3.54-3.54c.41 0 .75-.34.75-.75s-.34-.75-.75-.75c-2.78 0-5.04 2.26-5.04 5.04" color="currentColor"/></svg>