<svg xmlns="http://www.w3.org/2000/svg" width="3em" height="3em" viewBox="0 0 24 24"><path fill="currentColor" fill-rule="evenodd" d="M14.058 3.5h-4.11c-1.84 0-3.29 0-4.43.15c-1.17.16-2.12.49-2.87 1.24s-1.08 1.7-1.24 2.87c-.09.67-.13 1.46-.14 2.36c0 .05-.01.09-.01.13v2.06c0 1.83 0 3.29.15 4.43c.16 1.17.49 2.12 1.24 2.87s1.7 1.08 2.87 1.24c1.14.15 2.59.15 4.43.15h4.11c1.84 0 3.29 0 4.43-.15c1.17-.16 2.12-.49 2.87-1.24s1.08-1.7 1.24-2.87c.15-1.14.15-2.6.15-4.43v-2.06c0-.04 0-.08-.01-.13c-.02-.9-.05-1.69-.14-2.36c-.16-1.17-.49-2.12-1.24-2.87s-1.7-1.08-2.87-1.24c-1.14-.15-2.59-.15-4.43-.15m7.16 6c-.02-.59-.05-1.09-.11-1.54c-.14-1.01-.39-1.58-.81-2.01c-.42-.42-1-.67-2.01-.81c-1.03-.14-2.38-.14-4.29-.14h-4c-1.91 0-3.26 0-4.29.14c-1.01.14-1.59.39-2.01.81c-.42.43-.68 1-.81 2.01c-.06.45-.09.95-.11 1.54h3.53c.61 0 1.09 0 1.53.15c.27.1.52.23.75.41c.37.28.64.68.98 1.19l.06.08c.43.64.55.81.69.92c.1.08.22.14.34.18c.17.06.38.07 1.14.07h.39c.77 0 .97-.01 1.14-.07c.12-.04.24-.1.34-.18c.15-.11.27-.28.69-.92l.06-.08c.34-.51.6-.91.98-1.19c.23-.18.48-.31.75-.41c.44-.15.92-.15 1.53-.15zM2.748 11v1.25c0 1.91 0 3.26.14 4.29c.14 1.01.39 1.58.81 2.01c.42.42 1 .67 2.01.81c1.03.14 2.38.14 4.29.14h4c1.91 0 3.26 0 4.29-.14c1.01-.14 1.59-.39 2.01-.81c.42-.43.68-1 .81-2.01c.14-1.03.14-2.38.14-4.29V11h-3.45c-.77 0-.97.01-1.14.07c-.12.04-.24.1-.34.18c-.15.11-.27.28-.69.92l-.06.09c-.34.5-.6.9-.98 1.19c-.23.17-.48.3-.75.4c-.44.15-.92.15-1.53.15h-.61c-.61 0-1.09 0-1.53-.15c-.27-.1-.52-.23-.75-.4c-.37-.29-.64-.69-.98-1.19l-.06-.09c-.43-.64-.55-.81-.69-.92c-.1-.08-.22-.14-.34-.18c-.17-.06-.38-.07-1.14-.07z" color="currentColor"/></svg>