<svg xmlns="http://www.w3.org/2000/svg" width="3em" height="3em" viewBox="0 0 24 24"><path fill="currentColor" fill-rule="evenodd" d="M11.238 3.346h-.79c-1.64 0-2.81 0-3.71.11c-.87.1-1.4.29-1.79.61c-.18.15-.34.31-.49.49c-.32.39-.51.92-.61 1.79c-.11.9-.11 2.07-.11 3.71v4.54c0 1.91 0 3.26.14 4.29c.14 1.01.39 1.58.81 2.01c.43.42 1 .67 2.01.81c1.03.14 2.38.14 4.29.14h8c.41 0 .75.34.75.75s-.34.75-.75.75h-8.06c-1.83 0-3.29 0-4.43-.15c-1.17-.16-2.12-.49-2.87-1.24s-1.08-1.7-1.24-2.87c-.15-1.14-.15-2.6-.15-4.43v-4.65c0-1.58 0-2.84.12-3.83c.11-1.02.36-1.86.93-2.56q.315-.405.72-.72c.7-.57 1.54-.82 2.56-.93c.99-.12 2.25-.12 3.83-.12h.15c.6 0 1.08 0 1.53.16c.09.03.18.07.27.11c.43.2.76.54 1.19.97l.07.07l4.74 4.74l.08.08c.5.5.89.89 1.1 1.4c.13.31.17.7.19 1.04c.02.36.02.77.02 1.17c0 .42-.34.76-.75.76s-.75-.34-.75-.75s0-.78-.02-1.09c0-.06 0-.11-.01-.16h-.27c-1.37 0-2.47 0-3.34-.12c-.9-.12-1.66-.38-2.26-.98s-.86-1.36-.98-2.26c-.12-.87-.12-1.97-.12-3.34zm1.5 1.05c0 1.02.02 1.78.1 2.38c.1.74.28 1.12.56 1.4s.66.46 1.4.56c.6.08 1.36.1 2.38.1zm6 9.48c.39-.13.82.07.96.46l1.29 3.69l1.29-3.69c.14-.39.57-.59.96-.46c.39.14.59.57.46.96l-1.75 5c-.11.3-.39.5-.71.5h-.5c-.32 0-.6-.2-.71-.5l-1.75-5c-.13-.39.07-.82.46-.96m-11.75-.04c.41 0 .75.34.75.75v2.86l.66-.83a.76.76 0 0 1 1.18 0l.66.83v-2.86c0-.41.34-.75.75-.75s.75.34.75.75v5c0 .32-.2.6-.5.71c-.3.1-.64.01-.84-.24l-1.41-1.77l-1.41 1.77c-.2.25-.54.34-.84.24c-.3-.11-.5-.39-.5-.71v-5c0-.41.34-.75.75-.75m7.54.5c.11-.3.39-.5.71-.5h.5c.32 0 .6.2.71.5l1.75 5c.13.39-.07.82-.46.96a.763.763 0 0 1-.96-.46l-.35-1h-1.88l-.35 1c-.14.39-.57.59-.96.46a.763.763 0 0 1-.46-.96zm.54 3h.84l-.42-1.19z" color="currentColor"/></svg>