<svg xmlns="http://www.w3.org/2000/svg" width="3em" height="3em" viewBox="0 0 24 24"><path fill="currentColor" fill-rule="evenodd" d="M8.433 15.82c.2.284.317.63.317 1.002c0 .965-.786 1.75-1.75 1.75s-1.75-.785-1.75-1.75a1.753 1.753 0 0 1 1.872-1.745l1.958-3.515a4.76 4.76 0 0 1-1.82-3.74c0-2.62 2.13-4.75 4.75-4.75s4.75 2.13 4.75 4.75c0 .41-.34.75-.75.75s-.75-.34-.75-.75c0-1.79-1.46-3.25-3.25-3.25s-3.25 1.46-3.25 3.25c0 1.18.64 2.27 1.68 2.85c.36.2.49.66.29 1.02zM12 9.572c-.96 0-1.75-.79-1.75-1.75s.79-1.75 1.75-1.75s1.75.79 1.75 1.75c0 .375-.12.724-.324 1.01l1.954 3.52a4.6 4.6 0 0 1 1.62-.28c2.62 0 4.75 2.13 4.75 4.75s-2.13 4.75-4.75 4.75c-1.08 0-2.14-.37-2.97-1.05a.747.747 0 0 1 .94-1.16c.58.47 1.28.71 2.03.71c1.79 0 3.25-1.46 3.25-3.25a3.256 3.256 0 0 0-4.82-2.85c-.17.1-.38.12-.57.07a.73.73 0 0 1-.45-.36l-2.29-4.114zM5.423 13.98a.75.75 0 1 0-.726-1.313a4.74 4.74 0 0 0-2.447 4.156a4.75 4.75 0 0 0 9.441.75h3.728c.282.59.885 1 1.581 1c.964 0 1.75-.785 1.75-1.75c0-.964-.786-1.75-1.75-1.75c-.696 0-1.3.41-1.58 1H11a.75.75 0 0 0-.75.75A3.25 3.25 0 0 1 7 20.072a3.25 3.25 0 0 1-3.25-3.25a3.24 3.24 0 0 1 1.673-2.843" color="currentColor"/></svg>