<svg xmlns="http://www.w3.org/2000/svg" width="3em" height="3em" viewBox="0 0 24 24"><path fill="currentColor" fill-rule="evenodd" d="M10 1.5c-1.63 0-2.75 1.36-2.75 2.89c0 1.84 1.22 3.25 2.27 4.13a11 11 0 0 0 1.96 1.31c.06.03.11.06.15.07l.04.02h.01c.2.1.44.1.64.01h.01l.04-.03c.04-.01.09-.04.15-.07a11 11 0 0 0 1.96-1.31c1.05-.88 2.27-2.29 2.27-4.13c0-1.53-1.12-2.89-2.75-2.89c-.59 0-1.12.13-1.6.42c-.14.09-.28.2-.4.31c-.12-.11-.26-.22-.4-.31c-.48-.29-1.01-.42-1.6-.42m2.24 6.77c-.09.05-.17.1-.24.14c-.07-.04-.15-.09-.24-.14a10 10 0 0 1-1.28-.9c-.95-.79-1.73-1.82-1.73-2.98C8.75 3.56 9.32 3 10 3c.36 0 .61.08.8.19c.19.12.37.32.53.64c.13.25.39.41.67.41s.54-.16.67-.41c.16-.32.34-.52.53-.64c.19-.11.44-.19.8-.19c.68 0 1.25.56 1.25 1.39c0 1.16-.78 2.19-1.73 2.98c-.46.39-.93.69-1.28.9M8.5 12c-2.62 0-4.75 2.13-4.75 4.75S5.88 21.5 8.5 21.5c.84 0 1.64-.22 2.32-.61a6.2 6.2 0 0 1-1.57-4.14c0-1.59.59-3.04 1.57-4.14c-.68-.39-1.48-.61-2.32-.61m0 11c1.3 0 2.5-.39 3.5-1.07c1 .68 2.2 1.07 3.5 1.07c3.45 0 6.25-2.8 6.25-6.25s-2.8-6.25-6.25-6.25c-1.3 0-2.5.39-3.5 1.07c-1-.68-2.2-1.07-3.5-1.07c-3.45 0-6.25 2.8-6.25 6.25S5.05 23 8.5 23m7-11c-.84 0-1.64.22-2.32.61c.98 1.1 1.57 2.55 1.57 4.14s-.59 3.04-1.57 4.14c.68.39 1.48.61 2.32.61c2.62 0 4.75-2.13 4.75-4.75S18.12 12 15.5 12m-2.25 4.75c0-1.24-.47-2.37-1.25-3.21c-.78.84-1.25 1.97-1.25 3.21s.47 2.37 1.25 3.21c.78-.84 1.25-1.97 1.25-3.21" color="currentColor"/></svg>