<svg xmlns="http://www.w3.org/2000/svg" width="3em" height="3em" viewBox="0 0 24 24"><path fill="currentColor" fill-rule="evenodd" d="M12.05 2.852h-.1c-1.83 0-3.27 0-4.41.12c-1.17.13-2.11.39-2.92.97c-.49.36-.92.78-1.27 1.27c-.59.81-.85 1.75-.98 2.92c-.12 1.14-.12 2.58-.12 4.42v.09c0 1.84 0 3.28.12 4.42c.13 1.17.39 2.11.98 2.92c.35.49.78.92 1.27 1.27c.81.59 1.75.85 2.92.97c1.14.12 2.58.12 4.41.12h.1c1.83 0 3.27 0 4.41-.12c1.17-.13 2.11-.39 2.92-.97c.49-.36.92-.78 1.27-1.27c.59-.81.85-1.75.98-2.92c.12-1.14.12-2.58.12-4.42v-.09c0-1.84 0-3.28-.12-4.42c-.13-1.17-.39-2.11-.98-2.92c-.35-.49-.78-.92-1.27-1.27c-.81-.59-1.75-.85-2.92-.97c-1.14-.12-2.58-.12-4.41-.12M5.5 5.162c.51-.37 1.16-.59 2.2-.7c1.05-.11 2.41-.11 4.3-.11s3.25 0 4.3.11c1.04.11 1.69.33 2.2.7c.36.26.68.58.94.94c.37.51.58 1.16.7 2.2c.11 1.05.11 2.41.11 4.3s0 3.25-.11 4.3c-.12 1.04-.33 1.69-.7 2.2c-.26.36-.58.68-.94.94c-.51.37-1.16.59-2.2.7c-1.05.11-2.41.11-4.3.11s-3.25 0-4.3-.11c-1.04-.11-1.69-.33-2.2-.7c-.36-.26-.68-.58-.94-.94c-.37-.51-.58-1.16-.69-2.2c-.12-1.05-.12-2.41-.12-4.3s0-3.25.12-4.3c.11-1.04.32-1.69.69-2.2c.26-.36.58-.68.94-.94m11.09 2.91a.751.751 0 0 0-1.18-.93l-8 10a.75.75 0 0 0 1.18.93z" color="currentColor"/></svg>