<svg xmlns="http://www.w3.org/2000/svg" width="3em" height="3em" viewBox="0 0 32 32"><g fill="none"><g stroke-width="1.4" filter="url(#)"><path stroke="#D2C2D4" d="M8.265 11.028h4.26a1 1 0 0 0 .809-.413l2.78-3.835"/><path stroke="url(#)" d="M8.265 11.028h4.26a1 1 0 0 0 .809-.413l2.78-3.835"/></g><path stroke="url(#)" stroke-width="1.4" d="M8.265 11.028h4.26a1 1 0 0 0 .809-.413l2.78-3.835"/><g stroke-width="1.4" filter="url(#)"><path stroke="#D2C2D4" d="M23.752 11.028h-4.26a1 1 0 0 1-.81-.413l-2.78-3.835"/><path stroke="url(#)" d="M23.752 11.028h-4.26a1 1 0 0 1-.81-.413l-2.78-3.835"/></g><path stroke="url(#)" d="M8.033 12.197v8.748"/><path stroke="url(#)" d="m13.468 20.472l-5.203-8.275"/><path stroke="url(#)" d="m13.468 20.472l-5.203-8.275"/><path stroke="url(#)" d="M23.956 12.197v8.748"/><path stroke="url(#)" d="m18.578 20.472l5.204-8.275"/><g filter="url(#)"><path stroke="#F8DDE7" stroke-width=".25" d="m18.578 20.472l5.204-8.275"/></g><path stroke="url(#)" d="m29.392 20.472l-5.204-8.275"/><path stroke="url(#)" d="m29.392 20.472l-5.204-8.275"/><circle cx="23.985" cy="11.004" r="1.627" fill="url(#)"/><circle cx="23.985" cy="11.004" r="1.627" fill="url(#)"/><circle cx="23.985" cy="11.004" r="1.627" fill="url(#)"/><path fill="url(#)" d="M18.595 19.998c-.414 0-.724.384-.585.775a6.341 6.341 0 0 0 11.95 0c.139-.39-.171-.775-.585-.775z"/><path fill="url(#)" d="M18.595 19.998c-.414 0-.724.384-.585.775a6.341 6.341 0 0 0 11.95 0c.139-.39-.171-.775-.585-.775z"/><path fill="url(#)" d="M18.595 19.998c-.414 0-.724.384-.585.775a6.341 6.341 0 0 0 11.95 0c.139-.39-.171-.775-.585-.775z"/><path fill="url(#)" d="M18.595 19.998c-.414 0-.724.384-.585.775a6.341 6.341 0 0 0 11.95 0c.139-.39-.171-.775-.585-.775z"/><path fill="url(#)" d="M18.595 19.998c-.414 0-.724.384-.585.775a6.341 6.341 0 0 0 11.95 0c.139-.39-.171-.775-.585-.775z"/><path fill="url(#)" d="M18.595 19.998c-.414 0-.724.384-.585.775a6.341 6.341 0 0 0 11.95 0c.139-.39-.171-.775-.585-.775z"/><path stroke="url(#)" d="m2.655 20.472l5.204-8.275"/><g filter="url(#)"><path stroke="#F8DDE7" stroke-width=".25" d="m2.812 20.472l5.203-8.275"/></g><path fill="url(#)" d="M2.626 19.998c-.415 0-.724.384-.586.775a6.341 6.341 0 0 0 11.95 0c.139-.39-.17-.775-.585-.775z"/><path fill="url(#)" d="M2.626 19.998c-.415 0-.724.384-.586.775a6.341 6.341 0 0 0 11.95 0c.139-.39-.17-.775-.585-.775z"/><path fill="url(#)" d="M2.626 19.998c-.415 0-.724.384-.586.775a6.341 6.341 0 0 0 11.95 0c.139-.39-.17-.775-.585-.775z"/><path fill="url(#)" d="M2.626 19.998c-.415 0-.724.384-.586.775a6.341 6.341 0 0 0 11.95 0c.139-.39-.17-.775-.585-.775z"/><path fill="url(#)" d="M2.626 19.998c-.415 0-.724.384-.586.775a6.341 6.341 0 0 0 11.95 0c.139-.39-.17-.775-.585-.775z"/><path fill="url(#)" d="M2.626 19.998c-.415 0-.724.384-.586.775a6.341 6.341 0 0 0 11.95 0c.139-.39-.17-.775-.585-.775z"/><circle cx="8.015" cy="11.004" r="1.627" fill="url(#)"/><circle cx="8.015" cy="11.004" r="1.627" fill="url(#)"/><circle cx="8.015" cy="11.004" r="1.627" fill="url(#)"/><g filter="url(#)"><path stroke="url(#)" stroke-linecap="round" stroke-width=".4" d="m16.456 6.953l2.766 3.813"/></g><path stroke="url(#)" stroke-width="1.5" d="M16 4.376V26.66"/><path stroke="url(#)" stroke-width="1.5" d="M16 4.376V26.66"/><path stroke="url(#)" stroke-width="1.5" d="M16 4.376V26.66"/><path stroke="url(#)" stroke-width="1.5" d="M16 4.376V26.66"/><path stroke="url(#)" stroke-width="1.5" d="M16 4.376V26.66"/><path fill="url(#)" d="M23.19 29.963c.64 0 .967-.737.485-1.16A11.58 11.58 0 0 0 16 25.906a11.58 11.58 0 0 0-7.676 2.895c-.48.424-.155 1.16.486 1.16z"/><path fill="url(#)" d="M23.19 29.963c.64 0 .967-.737.485-1.16A11.58 11.58 0 0 0 16 25.906a11.58 11.58 0 0 0-7.676 2.895c-.48.424-.155 1.16.486 1.16z"/><path fill="url(#)" d="M23.19 29.963c.64 0 .967-.737.485-1.16A11.58 11.58 0 0 0 16 25.906a11.58 11.58 0 0 0-7.676 2.895c-.48.424-.155 1.16.486 1.16z"/><path fill="url(#)" d="M23.19 29.963c.64 0 .967-.737.485-1.16A11.58 11.58 0 0 0 16 25.906a11.58 11.58 0 0 0-7.676 2.895c-.48.424-.155 1.16.486 1.16z"/><path fill="url(#)" d="M23.19 29.963c.64 0 .967-.737.485-1.16A11.58 11.58 0 0 0 16 25.906a11.58 11.58 0 0 0-7.676 2.895c-.48.424-.155 1.16.486 1.16z"/><g filter="url(#)"><path stroke="url(#)" stroke-width=".4" d="M16.393 4.906v17.125"/></g><circle cx="16" cy="3.666" r="1.627" fill="url(#)"/><circle cx="16" cy="3.666" r="1.627" fill="url(#)"/><circle cx="16" cy="3.666" r="1.627" fill="url(#)"/><defs><radialGradient id="" cx="0" cy="0" r="1" gradientTransform="matrix(1.40625 0 0 2.47157 9.248 11.028)" gradientUnits="userSpaceOnUse"><stop offset=".289" stop-color="#BDAAB9"/><stop offset="1" stop-color="#BDAAB9" stop-opacity="0"/></radialGradient><radialGradient id="" cx="0" cy="0" r="1" gradientTransform="matrix(5.125 -4.125 3.1941 3.96843 10.487 11.938)" gradientUnits="userSpaceOnUse"><stop offset=".726" stop-color="#99839C" stop-opacity="0"/><stop offset=".988" stop-color="#99839C"/></radialGradient><radialGradient id="" cx="0" cy="0" r="1" gradientTransform="matrix(-1.40625 0 0 -2.47157 22.768 11.028)" gradientUnits="userSpaceOnUse"><stop offset=".289" stop-color="#BDAAB9"/><stop offset="1" stop-color="#BDAAB9" stop-opacity="0"/></radialGradient><radialGradient id="" cx="0" cy="0" r="1" gradientTransform="rotate(110.554 8.92 13.723)scale(2.60891 2.71579)" gradientUnits="userSpaceOnUse"><stop offset=".319" stop-color="#FFC539"/><stop offset="1" stop-color="#F6973E"/></radialGradient><radialGradient id="" cx="0" cy="0" r="1" gradientTransform="rotate(134.483 10.685 10.428)scale(1.78636 1.9273)" gradientUnits="userSpaceOnUse"><stop stop-color="#FFF361"/><stop offset="1" stop-color="#FFF361" stop-opacity="0"/></radialGradient><radialGradient id="" cx="0" cy="0" r="1" gradientTransform="matrix(0 -1.37105 1.18631 0 23.985 12.834)" gradientUnits="userSpaceOnUse"><stop stop-color="#E98856"/><stop offset="1" stop-color="#E98856" stop-opacity="0"/></radialGradient><radialGradient id="" cx="0" cy="0" r="1" gradientTransform="matrix(0 4.80267 -8.93422 0 23.985 20.188)" gradientUnits="userSpaceOnUse"><stop offset=".482" stop-color="#FFB85E"/><stop offset="1" stop-color="#FF9D5B"/></radialGradient><radialGradient id="" cx="0" cy="0" r="1" gradientTransform="matrix(-3.28126 4.375 -2.905 -2.17876 28.676 19.438)" gradientUnits="userSpaceOnUse"><stop stop-color="#FFC635"/><stop offset="1" stop-color="#FFC635" stop-opacity="0"/></radialGradient><radialGradient id="" cx="0" cy="0" r="1" gradientTransform="matrix(0 4.49017 -8.65297 0 23.985 20.5)" gradientUnits="userSpaceOnUse"><stop offset=".592" stop-color="#FD9860" stop-opacity="0"/><stop offset="1" stop-color="#F18E9D"/></radialGradient><radialGradient id="" cx="0" cy="0" r="1" gradientTransform="rotate(52.677 -8.388 32.667)scale(7.11272 9.92047)" gradientUnits="userSpaceOnUse"><stop offset=".827" stop-color="#FFB651" stop-opacity="0"/><stop offset="1" stop-color="#E29471"/></radialGradient><radialGradient id="" cx="0" cy="0" r="1" gradientTransform="matrix(0 1.125 -8.32499 0 27.988 20.5)" gradientUnits="userSpaceOnUse"><stop stop-color="#FFF263"/><stop offset="1" stop-color="#FFD049" stop-opacity="0"/></radialGradient><radialGradient id="" cx="0" cy="0" r="1" gradientTransform="matrix(0 4.80267 -8.93422 0 8.015 20.188)" gradientUnits="userSpaceOnUse"><stop offset=".482" stop-color="#FFB85E"/><stop offset="1" stop-color="#FF9D5B"/></radialGradient><radialGradient id="" cx="0" cy="0" r="1" gradientTransform="matrix(-3.28126 4.375 -2.905 -2.17876 12.706 19.438)" gradientUnits="userSpaceOnUse"><stop stop-color="#FFC635"/><stop offset="1" stop-color="#FFC635" stop-opacity="0"/></radialGradient><radialGradient id="" cx="0" cy="0" r="1" gradientTransform="matrix(0 1.125 -8.32499 0 12.018 20.5)" gradientUnits="userSpaceOnUse"><stop stop-color="#FFF263"/><stop offset="1" stop-color="#FFD049" stop-opacity="0"/></radialGradient><radialGradient id="" cx="0" cy="0" r="1" gradientTransform="matrix(0 4.49017 -8.65297 0 8.015 20.5)" gradientUnits="userSpaceOnUse"><stop offset=".592" stop-color="#FD9860" stop-opacity="0"/><stop offset="1" stop-color="#F18E9D"/></radialGradient><radialGradient id="" cx="0" cy="0" r="1" gradientTransform="rotate(52.677 -16.373 16.538)scale(7.11272 9.92047)" gradientUnits="userSpaceOnUse"><stop offset=".827" stop-color="#FFB651" stop-opacity="0"/><stop offset="1" stop-color="#E29471"/></radialGradient><radialGradient id="" cx="0" cy="0" r="1" gradientTransform="rotate(110.554 .935 8.189)scale(2.60891 2.71579)" gradientUnits="userSpaceOnUse"><stop offset=".319" stop-color="#FFC539"/><stop offset="1" stop-color="#F6973E"/></radialGradient><radialGradient id="" cx="0" cy="0" r="1" gradientTransform="rotate(134.483 2.7 7.078)scale(1.78636 1.9273)" gradientUnits="userSpaceOnUse"><stop stop-color="#FFF361"/><stop offset="1" stop-color="#FFF361" stop-opacity="0"/></radialGradient><radialGradient id="" cx="0" cy="0" r="1" gradientTransform="matrix(0 -1.37105 1.18631 0 8.015 12.834)" gradientUnits="userSpaceOnUse"><stop stop-color="#E98856"/><stop offset="1" stop-color="#E98856" stop-opacity="0"/></radialGradient><radialGradient id="" cx="0" cy="0" r="1" gradientTransform="rotate(117.255 6.37 7.125)scale(2.15051 1.22508)" gradientUnits="userSpaceOnUse"><stop stop-color="#B59CAD"/><stop offset="1" stop-color="#B59CAD" stop-opacity="0"/></radialGradient><radialGradient id="" cx="0" cy="0" r="1" gradientTransform="matrix(0 14.473 -5.94303 0 16 12.188)" gradientUnits="userSpaceOnUse"><stop offset=".922" stop-color="#92767E" stop-opacity="0"/><stop offset="1" stop-color="#92767E"/></radialGradient><radialGradient id="" cx="0" cy="0" r="1" gradientTransform="matrix(-7.42474 0 0 -2.6875 23.425 29.75)" gradientUnits="userSpaceOnUse"><stop stop-color="#FFFF64"/><stop offset="1" stop-color="#FFFF64" stop-opacity="0"/></radialGradient><radialGradient id="" cx="0" cy="0" r="1" gradientTransform="matrix(-1.68751 -5.375 15.5425 -4.87966 15.362 30.969)" gradientUnits="userSpaceOnUse"><stop offset=".57" stop-color="#EB9E40" stop-opacity="0"/><stop offset="1" stop-color="#EB9E40"/></radialGradient><radialGradient id="" cx="0" cy="0" r="1" gradientTransform="matrix(.00003 -3.75 12.8622 .00009 16 29.375)" gradientUnits="userSpaceOnUse"><stop offset=".685" stop-color="#DDB761" stop-opacity="0"/><stop offset="1" stop-color="#D29F5F"/></radialGradient><radialGradient id="" cx="0" cy="0" r="1" gradientTransform="rotate(110.554 7.47 7.287)scale(2.60891 2.71579)" gradientUnits="userSpaceOnUse"><stop offset=".319" stop-color="#FFC539"/><stop offset="1" stop-color="#F6973E"/></radialGradient><radialGradient id="" cx="0" cy="0" r="1" gradientTransform="rotate(134.483 8.232 5.084)scale(1.78636 1.9273)" gradientUnits="userSpaceOnUse"><stop stop-color="#FFF361"/><stop offset="1" stop-color="#FFF361" stop-opacity="0"/></radialGradient><radialGradient id="" cx="0" cy="0" r="1" gradientTransform="matrix(0 -1.37105 1.18631 0 16 5.496)" gradientUnits="userSpaceOnUse"><stop stop-color="#E98856"/><stop offset="1" stop-color="#E98856" stop-opacity="0"/></radialGradient><linearGradient id="" x1="7.425" x2="8.862" y1="18.031" y2="18.063" gradientUnits="userSpaceOnUse"><stop offset=".188" stop-color="#BBA1B3"/><stop offset="1" stop-color="#D7B7C8"/></linearGradient><linearGradient id="" x1="10.503" x2="11.237" y1="16.334" y2="15.813" gradientUnits="userSpaceOnUse"><stop offset=".175" stop-color="#D0B6C3"/><stop offset="1" stop-color="#E6D2E4"/></linearGradient><linearGradient id="" x1="10.331" x2="10.53" y1="16.395" y2="16.266" gradientUnits="userSpaceOnUse"><stop stop-color="#C2A6B1"/><stop offset="1" stop-color="#C2A6B1" stop-opacity="0"/></linearGradient><linearGradient id="" x1="23.348" x2="24.785" y1="18.031" y2="18.063" gradientUnits="userSpaceOnUse"><stop offset=".188" stop-color="#BBA1B3"/><stop offset="1" stop-color="#D7B7C8"/></linearGradient><linearGradient id="" x1="20.473" x2="21.442" y1="16.334" y2="17.031" gradientUnits="userSpaceOnUse"><stop stop-color="#C1AFC0"/><stop offset="1" stop-color="#F6D6DE"/></linearGradient><linearGradient id="" x1="26.426" x2="27.16" y1="16.334" y2="15.813" gradientUnits="userSpaceOnUse"><stop offset=".175" stop-color="#D0B6C3"/><stop offset="1" stop-color="#E6D2E4"/></linearGradient><linearGradient id="" x1="26.254" x2="26.453" y1="16.395" y2="16.266" gradientUnits="userSpaceOnUse"><stop stop-color="#C2A6B1"/><stop offset="1" stop-color="#C2A6B1" stop-opacity="0"/></linearGradient><linearGradient id="" x1="23.985" x2="23.985" y1="19.998" y2="21.156" gradientUnits="userSpaceOnUse"><stop stop-color="#FFCF4D"/><stop offset="1" stop-color="#FFCF4D" stop-opacity="0"/></linearGradient><linearGradient id="" x1="4.55" x2="5.518" y1="16.334" y2="17.031" gradientUnits="userSpaceOnUse"><stop stop-color="#C1AFC0"/><stop offset="1" stop-color="#F6D6DE"/></linearGradient><linearGradient id="" x1="8.015" x2="8.015" y1="19.998" y2="21.156" gradientUnits="userSpaceOnUse"><stop stop-color="#FFCF4D"/><stop offset="1" stop-color="#FFCF4D" stop-opacity="0"/></linearGradient><linearGradient id="" x1="16.362" x2="19.421" y1="7.757" y2="11.981" gradientUnits="userSpaceOnUse"><stop stop-color="#FDEBFF"/><stop offset="1" stop-color="#FDEBFF" stop-opacity="0"/></linearGradient><linearGradient id="" x1="15.255" x2="16.375" y1="13.896" y2="13.896" gradientUnits="userSpaceOnUse"><stop stop-color="#C3AEC2"/><stop offset="1" stop-color="#E7D3E6"/></linearGradient><linearGradient id="" x1="15.294" x2="15.294" y1="26.294" y2="20.925" gradientUnits="userSpaceOnUse"><stop stop-color="#BC9EA3"/><stop offset="1" stop-color="#BC9EA3" stop-opacity="0"/></linearGradient><linearGradient id="" x1="15.151" x2="15.503" y1="16" y2="16" gradientUnits="userSpaceOnUse"><stop stop-color="#A38B8F"/><stop offset="1" stop-color="#CBB6CA" stop-opacity="0"/></linearGradient><linearGradient id="" x1="16" x2="16" y1="25.907" y2="29.719" gradientUnits="userSpaceOnUse"><stop offset=".254" stop-color="#F9C63C"/><stop offset=".754" stop-color="#FFCE37"/></linearGradient><linearGradient id="" x1="17.675" x2="17.675" y1="29.963" y2="29.219" gradientUnits="userSpaceOnUse"><stop stop-color="#FA8694"/><stop offset="1" stop-color="#FFA166" stop-opacity="0"/></linearGradient><linearGradient id="" x1="16.893" x2="16.893" y1="4.906" y2="22.031" gradientUnits="userSpaceOnUse"><stop stop-color="#EDD9EE"/><stop offset="1" stop-color="#EDD9EE" stop-opacity="0"/></linearGradient><filter id="" width="8.917" height="5.859" x="7.765" y="5.869" color-interpolation-filters="sRGB" filterUnits="userSpaceOnUse"><feFlood flood-opacity="0" result="BackgroundImageFix"/><feBlend in="SourceGraphic" in2="BackgroundImageFix" result="shape"/><feColorMatrix in="SourceAlpha" result="hardAlpha" values="0 0 0 0 0 0 0 0 0 0 0 0 0 0 0 0 0 0 127 0"/><feOffset dx="-.5" dy="-.5"/><feGaussianBlur stdDeviation=".5"/><feComposite in2="hardAlpha" k2="-1" k3="1" operator="arithmetic"/><feColorMatrix values="0 0 0 0 0.682353 0 0 0 0 0.588235 0 0 0 0 0.694118 0 0 0 1 0"/><feBlend in2="shape" result="effect1_innerShadow_18_24521"/></filter><filter id="" width="8.917" height="5.859" x="15.335" y="5.869" color-interpolation-filters="sRGB" filterUnits="userSpaceOnUse"><feFlood flood-opacity="0" result="BackgroundImageFix"/><feBlend in="SourceGraphic" in2="BackgroundImageFix" result="shape"/><feColorMatrix in="SourceAlpha" result="hardAlpha" values="0 0 0 0 0 0 0 0 0 0 0 0 0 0 0 0 0 0 127 0"/><feOffset dx=".5" dy="-.5"/><feGaussianBlur stdDeviation=".5"/><feComposite in2="hardAlpha" k2="-1" k3="1" operator="arithmetic"/><feColorMatrix values="0 0 0 0 0.682353 0 0 0 0 0.588235 0 0 0 0 0.694118 0 0 0 1 0"/><feBlend in2="shape" result="effect1_innerShadow_18_24521"/></filter><filter id="" width="6.215" height="9.208" x="18.073" y="11.73" color-interpolation-filters="sRGB" filterUnits="userSpaceOnUse"><feFlood flood-opacity="0" result="BackgroundImageFix"/><feBlend in="SourceGraphic" in2="BackgroundImageFix" result="shape"/><feGaussianBlur result="effect1_foregroundBlur_18_24521" stdDeviation=".2"/></filter><filter id="" width="6.215" height="9.208" x="2.306" y="11.73" color-interpolation-filters="sRGB" filterUnits="userSpaceOnUse"><feFlood flood-opacity="0" result="BackgroundImageFix"/><feBlend in="SourceGraphic" in2="BackgroundImageFix" result="shape"/><feGaussianBlur result="effect1_foregroundBlur_18_24521" stdDeviation=".2"/></filter><filter id="" width="3.966" height="5.013" x="15.856" y="6.353" color-interpolation-filters="sRGB" filterUnits="userSpaceOnUse"><feFlood flood-opacity="0" result="BackgroundImageFix"/><feBlend in="SourceGraphic" in2="BackgroundImageFix" result="shape"/><feGaussianBlur result="effect1_foregroundBlur_18_24521" stdDeviation=".2"/></filter><filter id="" width="1.2" height="17.925" x="15.793" y="4.506" color-interpolation-filters="sRGB" filterUnits="userSpaceOnUse"><feFlood flood-opacity="0" result="BackgroundImageFix"/><feBlend in="SourceGraphic" in2="BackgroundImageFix" result="shape"/><feGaussianBlur result="effect1_foregroundBlur_18_24521" stdDeviation=".2"/></filter></defs></g></svg>