<svg xmlns="http://www.w3.org/2000/svg" width="3em" height="3em" viewBox="0 0 32 32"><g fill="none"><circle cx="12.675" cy="27.064" r="2.5" fill="url(#)"/><circle cx="12.675" cy="27.064" r="2.5" fill="url(#)"/><circle cx="12.675" cy="27.064" r="2.5" fill="url(#)"/><circle cx="19.675" cy="27.064" r="2.5" fill="url(#)"/><circle cx="19.675" cy="27.064" r="2.5" fill="url(#)"/><circle cx="19.675" cy="27.064" r="2.5" fill="url(#)"/><g filter="url(#)"><path fill="url(#)" d="M10.175 4.123a2.5 2.5 0 0 1 5 0v15.969a2.5 2.5 0 1 1-5 0z"/><path fill="url(#)" d="M10.175 4.123a2.5 2.5 0 0 1 5 0v15.969a2.5 2.5 0 1 1-5 0z"/></g><g filter="url(#)"><path fill="url(#)" d="M17.175 4.123a2.5 2.5 0 0 1 5 0v15.969a2.5 2.5 0 1 1-5 0z"/><path fill="url(#)" d="M17.175 4.123a2.5 2.5 0 0 1 5 0v15.969a2.5 2.5 0 1 1-5 0z"/></g><g filter="url(#)"><path stroke="url(#)" stroke-linecap="round" stroke-linejoin="round" stroke-width="2" d="M13.347 20.53V5.341"/></g><g filter="url(#)"><path stroke="url(#)" stroke-linecap="round" stroke-linejoin="round" stroke-width="2" d="M20.347 20.53V5.341"/></g><defs><radialGradient id="" cx="0" cy="0" r="1" gradientTransform="matrix(1.53125 -1.75 1.5386 1.34628 13.643 26.716)" gradientUnits="userSpaceOnUse"><stop offset=".234" stop-color="#FF5878"/><stop offset="1" stop-color="#FF5878" stop-opacity="0"/></radialGradient><radialGradient id="" cx="0" cy="0" r="1" gradientTransform="matrix(2.5 1.21874 -3.2999 6.7691 10.175 25.154)" gradientUnits="userSpaceOnUse"><stop stop-color="#C8404B"/><stop offset="1" stop-color="#C8404B" stop-opacity="0"/></radialGradient><radialGradient id="" cx="0" cy="0" r="1" gradientTransform="matrix(1.53125 -1.75 1.5386 1.34628 20.644 26.716)" gradientUnits="userSpaceOnUse"><stop offset=".234" stop-color="#FF5878"/><stop offset="1" stop-color="#FF5878" stop-opacity="0"/></radialGradient><radialGradient id="" cx="0" cy="0" r="1" gradientTransform="matrix(2.5 1.21874 -3.2999 6.7691 17.175 25.154)" gradientUnits="userSpaceOnUse"><stop stop-color="#C8404B"/><stop offset="1" stop-color="#C8404B" stop-opacity="0"/></radialGradient><radialGradient id="" cx="0" cy="0" r="1" gradientTransform="rotate(148.241 6.912 3.671)scale(3.08727 2.21529)" gradientUnits="userSpaceOnUse"><stop stop-color="#FF5960"/><stop offset="1" stop-color="#FF5960" stop-opacity="0"/></radialGradient><radialGradient id="" cx="0" cy="0" r="1" gradientTransform="rotate(148.241 10.412 4.667)scale(3.08727 2.21529)" gradientUnits="userSpaceOnUse"><stop stop-color="#FF5960"/><stop offset="1" stop-color="#FF5960" stop-opacity="0"/></radialGradient><linearGradient id="" x1="12.675" x2="12.675" y1="25.779" y2="29.564" gradientUnits="userSpaceOnUse"><stop stop-color="#FF0B38"/><stop offset="1" stop-color="#F62093"/></linearGradient><linearGradient id="" x1="19.675" x2="19.675" y1="25.779" y2="29.564" gradientUnits="userSpaceOnUse"><stop stop-color="#FF0B38"/><stop offset="1" stop-color="#F62093"/></linearGradient><linearGradient id="" x1="12.675" x2="12.675" y1="2.098" y2="22.592" gradientUnits="userSpaceOnUse"><stop stop-color="#ED1F28"/><stop offset="1" stop-color="#F41585"/></linearGradient><linearGradient id="" x1="19.675" x2="19.675" y1="2.098" y2="22.592" gradientUnits="userSpaceOnUse"><stop stop-color="#ED1F28"/><stop offset="1" stop-color="#F41585"/></linearGradient><linearGradient id="" x1="14.041" x2="18.666" y1="22.12" y2="20.92" gradientUnits="userSpaceOnUse"><stop stop-color="#FF4282"/><stop offset="1" stop-color="#FF3E59"/></linearGradient><linearGradient id="" x1="21.041" x2="25.666" y1="22.12" y2="20.92" gradientUnits="userSpaceOnUse"><stop stop-color="#FF4282"/><stop offset="1" stop-color="#FF3E59"/></linearGradient><filter id="" width="5.75" height="21.719" x="10.175" y="1.623" color-interpolation-filters="sRGB" filterUnits="userSpaceOnUse"><feFlood flood-opacity="0" result="BackgroundImageFix"/><feBlend in="SourceGraphic" in2="BackgroundImageFix" result="shape"/><feColorMatrix in="SourceAlpha" result="hardAlpha" values="0 0 0 0 0 0 0 0 0 0 0 0 0 0 0 0 0 0 127 0"/><feOffset dx=".75" dy=".75"/><feGaussianBlur stdDeviation=".75"/><feComposite in2="hardAlpha" k2="-1" k3="1" operator="arithmetic"/><feColorMatrix values="0 0 0 0 0.74902 0 0 0 0 0.160784 0 0 0 0 0.301961 0 0 0 1 0"/><feBlend in2="shape" result="effect1_innerShadow_18590_1778"/></filter><filter id="" width="5.75" height="21.719" x="17.175" y="1.623" color-interpolation-filters="sRGB" filterUnits="userSpaceOnUse"><feFlood flood-opacity="0" result="BackgroundImageFix"/><feBlend in="SourceGraphic" in2="BackgroundImageFix" result="shape"/><feColorMatrix in="SourceAlpha" result="hardAlpha" values="0 0 0 0 0 0 0 0 0 0 0 0 0 0 0 0 0 0 127 0"/><feOffset dx=".75" dy=".75"/><feGaussianBlur stdDeviation=".75"/><feComposite in2="hardAlpha" k2="-1" k3="1" operator="arithmetic"/><feColorMatrix values="0 0 0 0 0.74902 0 0 0 0 0.160784 0 0 0 0 0.301961 0 0 0 1 0"/><feBlend in2="shape" result="effect1_innerShadow_18590_1778"/></filter><filter id="" width="5" height="20.188" x="10.847" y="2.842" color-interpolation-filters="sRGB" filterUnits="userSpaceOnUse"><feFlood flood-opacity="0" result="BackgroundImageFix"/><feBlend in="SourceGraphic" in2="BackgroundImageFix" result="shape"/><feGaussianBlur result="effect1_foregroundBlur_18590_1778" stdDeviation=".75"/></filter><filter id="" width="5" height="20.188" x="17.847" y="2.842" color-interpolation-filters="sRGB" filterUnits="userSpaceOnUse"><feFlood flood-opacity="0" result="BackgroundImageFix"/><feBlend in="SourceGraphic" in2="BackgroundImageFix" result="shape"/><feGaussianBlur result="effect1_foregroundBlur_18590_1778" stdDeviation=".75"/></filter></defs></g></svg>